<?xml version="1.0" encoding="utf-8"?>
<!-- Generator: Adobe Illustrator 25.0.0, SVG Export Plug-In . SVG Version: 6.00 Build 0)  -->
<svg version="1.1" id="Layer_1" xmlns="http://www.w3.org/2000/svg" xmlns:xlink="http://www.w3.org/1999/xlink" x="0px" y="0px"
	 viewBox="0 0 779 800" style="enable-background:new 0 0 779 800;" xml:space="preserve">
<style type="text/css">
	.st0{fill:#FFFFFF;}
	.st1{fill:#CCCCCC;}
</style>
<path d="M309.5,0h7.6c28.9,0.9,57.4,7.4,83.2,20.8c19.7,9.8,37.2,23.3,52.1,39.4c16.8-14.1,37.5-24,59.2-27.4
	c22.6-3.9,46.6-1,67.7,8c22.2,9.4,41.1,25.5,54.7,45.3c4.3,6.3,7.8,13,11.2,19.8c29.4,2.6,57.8,13.7,80.8,32.2
	c13.9,11.4,25.8,24.9,34.2,40.8c11.5,20.7,16.5,44.3,15.5,67.9c-1,10-2.5,19.8-5.5,29.4c-9.3,29.9-29.5,55.4-55.7,72.4
	c-4.6,3-9.5,5.4-14,8.5c1.7,23.2-3.1,48.1-13.5,68.9c-13.3,27.4-36.3,50.2-63.8,63.3c-35.8,17.6-79.1,18.4-115.6,2.3
	c-2.7-1.2-5.4-2.5-8.2-3.6c-10.1,12.6-22,24-35.3,33.2C440.9,537.2,414,547.5,386,551c-26.8,3.6-54.6,0.8-80.3-7.8
	c-15.2-5.2-30-12.6-43.3-21.7c-24.4-17-44.3-40.3-56.3-67.6c-25,6.7-51.1,7.6-76.4,2.2c-31.1-6.5-60.3-22.6-82.4-45.4
	c-21-21.2-35.4-47.9-42.8-76.8c-2.7-13-4.5-26-4.5-39.3V292c0.4-14.1,2.4-28.4,6.2-42c7.6-26.9,22.1-52.2,41.9-71.9
	c23.2-23.7,54.2-39.9,87-45.6c3.1-11.7,6.9-23.2,12.4-34c15.7-32.3,42.7-59,74.3-75.8C248.7,8.1,278.9,0.6,309.5,0z"/>
<path class="st0" d="M367.7,22.4c28.1,8.8,54.1,25.1,73.9,47c2.8,2.8,4.9,7.3,9.4,7.7c3.3,0.4,5.7-2.1,7.9-4
	c19.3-17.5,44.9-27.8,71-28c22.5-0.5,45.1,6.6,63.4,19.6c18,12.5,32,30.5,40.3,50.7c1.7,3.3,4.7,4.3,8.2,4.4
	c38.6,2.6,76,22.1,98.5,53.9c14.2,19.7,21.9,44.1,21.2,68.4c-0.2,15.8-4.3,31.3-11,45.6c-12.1,25-32.9,45.1-57.9,57.2
	c-2.3,1.2-5.1,2.3-6.1,4.9c-0.9,2.2-0.5,5-0.3,7.3c1.6,18.4-1.4,37-8.2,54.2c-11.7,29.8-35.5,54.3-64.8,67.2
	c-14.4,6.3-29.7,10.1-45.4,10.6c-23,1.1-46.1-4.6-66.2-15.8c-2.1-1.1-4.2-1.7-6.6-1c-2.3,0.8-3.8,3-5.3,4.8
	c-13.8,18.8-32.8,33.9-53.5,44.4c-22.1,10.9-46.8,17.1-71.4,17.2c-33.2,0.6-67-9.3-94.3-28.3c-21.7-14.8-39.6-35.5-50.6-59.4
	c-1.5-3.1-2.5-6.7-4.4-9.6c-2.1-2.7-5.3-3.2-8.5-2.1c-30.2,9.5-63.7,8.9-93.5-1.9c-28.7-10.1-54.1-29.5-71.6-54.4
	c-18.4-25.6-28.3-57.4-28-88.9c0-24,6-47.8,16.9-69.1c6.9-13.1,15.7-25.3,25.9-36c19.1-19.5,43.4-33.8,69.9-40.4
	c4.9-1.2,9.9-2.4,14.9-2.7c1.7-0.8,3.9-1.5,5-3.2c1.4-2.2,1.8-5.2,2.4-7.7c6.5-28.1,21.8-53.4,42.4-73.4
	c10.6-10.1,22.5-18.8,35.2-25.9C269.4,12.2,321.5,7.5,367.7,22.4z"/>
<path class="st1" d="M775.6,246.7c2,5.2,2.3,10.5,3.4,15.9v20.9c-1.3,10.5-3,20.9-6.5,31c-6.6,18.7-17.1,35.9-31.2,49.7
	c-10.7,11.2-23.5,19.9-37.2,27.2c1,16-0.7,32.1-5.1,47.5c-7.9,27-24.3,51.2-46.3,68.8c-19.7,15.7-43.8,26-68.8,29
	c-21.3,2.9-43.4,0.3-63.7-6.8c-5.9-2-11.5-4.7-17.1-7.2c-14.5,17.6-31.8,32.7-52,43.4c-50.7,27.6-114.6,28.4-165.8,1.8
	c-30.9-15.7-57.2-41.4-72.5-72.5c-1.1-2.1-2.1-4.3-3.1-6.4c-13.7,3.3-27.5,5.5-41.6,5.6c-19.8,0.1-39.7-3.3-58.2-10.3
	c-12.7-4.9-24.9-11.2-36-19c-23.1-16.3-42-38.4-54.1-63.9c-9.4-19.1-14.4-40-15.9-61.2c-0.1-2,0.4-4,0.7-6
	c7.4,28.8,21.7,55.6,42.8,76.8c22.1,22.8,51.3,39,82.4,45.4c25.3,5.4,51.4,4.5,76.4-2.2c12,27.3,31.9,50.7,56.3,67.6
	c13.3,9.1,28.1,16.5,43.3,21.7c25.7,8.5,53.4,11.3,80.3,7.8c28-3.5,54.9-13.8,78.1-29.9c13.3-9.3,25.2-20.6,35.3-33.2
	c2.7,1.2,5.5,2.4,8.2,3.6c36.5,16.1,79.8,15.3,115.6-2.3c27.5-13.1,50.5-35.9,63.8-63.3c10.5-20.8,15.3-45.6,13.5-68.9
	c4.5-3.1,9.5-5.5,14-8.5c26.1-17,46.4-42.5,55.7-72.4C773.1,266.5,774.6,256.7,775.6,246.7z"/>
<path d="M570.5,557.2c16.6,2.4,32.3,11.4,42.6,24.7c5.1,6.7,8.7,14.4,10.9,22.6c1.8,8.9,2.2,17.9,0.1,26.8
	c-3.9,17.2-16.2,32.1-31.6,40.2c-14.2,7.8-31.2,10.3-47,7.3c-15.5-2.8-29.2-11.2-39.4-23c-9.2-11.3-14.2-25.2-13.9-39.7
	c0.7-7.2,1.9-14.2,4.9-20.9c6-13.7,17-25.1,30.5-31.6C540.5,556.9,556.1,554.8,570.5,557.2z"/>
<path class="st0" d="M549.5,570.9c12.7-2,26,0.1,37.2,6.4c7.5,4.4,14.4,10.7,18.8,18.3c5.5,9.7,7.4,21.3,5.1,32.2
	c-2.3,10-8.1,19.2-16.1,25.7c-14.6,12.1-35,15.8-53,10c-13.9-4.3-26-14.9-31.8-28.3c-6.3-14.5-3.8-32.1,6-44.5
	C523.8,579.9,536.2,573,549.5,570.9z"/>
<path class="st1" d="M624,604.5c10.1,12.4,14.8,29.2,12.6,45.1c-1.6,12.5-7.8,24.4-16.6,33.3c-20,20.6-53,26.3-78.9,14.1
	c-14.2-6.5-26.1-18.3-32.5-32.6c-1.4-2.7-2.1-5.6-2.6-8.6c10.2,11.9,24,20.2,39.4,23c15.9,3,32.8,0.4,47-7.3
	c15.5-8.1,27.8-23,31.6-40.2C626.2,622.3,625.8,613.4,624,604.5z"/>
<path d="M703.5,692.5c11,5.9,18.8,15.8,22.9,27.5c1.7,7,2.7,13.9,1.4,21.1c-1.5,10.3-7,20-14.8,26.9c-11.5,10.5-28,15.2-43.4,12.7
	c-11-1.8-21.2-7.4-28.8-15.5c-9.5-10.2-14.8-25.4-11.9-39.2c1.8-11.7,8.9-22.6,18.3-29.7C663.2,684.1,686.1,682.6,703.5,692.5z"/>
<path class="st0" d="M670.5,700.6c14-2.9,29.4,2.3,37.8,14.1c7.1,9.9,8.2,23.2,2.4,34c-7.2,13.6-24,20.9-39,18.1
	c-16-2.2-30.2-17.3-29.4-33.8C642.2,717.3,655.3,703.5,670.5,700.6z"/>
<path class="st1" d="M726.4,720c0.8,0.8,1.6,1.5,2.3,2.3c5.3,6.5,8.7,14.8,9.8,23.1c1.8,13.1-2.7,26.9-11.6,36.5
	c-11.6,12.8-29.9,19-46.9,16c-14-2.2-26.7-10.8-34.2-22.7c-2-3.2-3.4-6.7-5-10.1c7.6,8.1,17.8,13.7,28.8,15.5
	c15.4,2.6,31.9-2.2,43.4-12.7c7.8-6.9,13.2-16.6,14.8-26.9C729.1,733.9,728.1,726.9,726.4,720z"/>
</svg>
