<?xml version="1.0" encoding="utf-8"?>
<!-- Generator: Adobe Illustrator 25.0.0, SVG Export Plug-In . SVG Version: 6.00 Build 0)  -->
<svg version="1.1" id="Layer_1" xmlns="http://www.w3.org/2000/svg" xmlns:xlink="http://www.w3.org/1999/xlink" x="0px" y="0px"
	 viewBox="0 0 900 764" style="enable-background:new 0 0 900 764;" xml:space="preserve">
<style type="text/css">
	.st0{fill:#FFFFFF;}
</style>
<path d="M373.5,0h10.1c13.1,0.2,25.4,0.4,38.1,4.4c26.8,8.7,51.4,23.6,71,43.9c12.8,13.1,23.3,28.4,31,45c2.3,5,4.4,10,7.2,14.7
	c8.1-2.6,15.7-5.8,23.8-7.5c13.9-3,28.1-4.1,42.3-3.9c9.1,0.3,18.4,1.1,27.2,3.3c39.7,9.7,76.1,35.9,96.3,71.6
	c3,5.3,5.4,10.9,8.5,16.1c15.4-2.8,31.3-3.1,46.9-2.4c20.1,0.8,39.6,8.8,56.7,19.1c27.9,17.1,49.6,43.7,60.3,74.7
	c4,11.5,6.1,23.5,7,35.6v14.6c-0.8,11.6-2.8,23.2-6.4,34.3c-8.3,25.2-23.9,47.8-44.2,64.9c-19.3,16.4-43.2,27.2-68.4,30.3
	c-13.8,2-27.4,1.1-41.2,0.3c-1.2,7.1-2.2,14.3-3.8,21.3c-8.2,39.4-28.2,76.6-56.9,104.9c-24.9,25-56.5,43.3-90.4,52.8
	c-15.2,4.2-31,6.7-46.8,7.5c-15.3,0.8-30.8-0.4-46-2.5c-23.3-4.4-45.8-11.6-66.3-23.5c-8.2-4.6-15.8-10-23.7-15.1
	c-10.3,4.9-20.5,10.5-31.1,14.7c-10.8,4.3-21.8,8.5-33.4,10.2c-26.5,4.6-53.9,2.7-79.6-5.2c-26.8-8.4-51.7-23.4-71.2-43.7
	c-17.2-17.4-30.1-38.6-38.4-61.5c-3-8.2-4.9-16.6-7.6-24.9c-15.4,1.1-30.2,3-45.6,0.5c-16.7-2.2-32.5-8.7-46.3-18.1
	c-12.8-8.9-24-20.3-33.2-32.8C7.2,425.9,0.6,404.2,0,382.9v-6.7c1.3-24.8,7.7-50.7,24.4-69.8c10.3-11.9,22.3-23.1,36-31
	c4.1-2.5,9-4.1,12.9-6.9c1.6-5.3,2.1-11.1,3.5-16.5c3.5-15.3,9.9-29.6,18.4-42.7c14.9-22.4,36.4-40.2,61.3-50.6
	c18.2-7.7,37.8-10.7,57.5-10.1c0.7-4.3,1-8.7,1.6-13.1c4.7-33.5,21.9-65.3,45.9-88.9c18.9-19.2,42.6-33.6,68.2-42
	C344.4-0.2,358.4,0.2,373.5,0z"/>
<path class="st0" d="M376,14.3c12.2,0.3,25.5-0.5,37.3,2.5c40.9,11.6,76.5,40.2,95.5,78.4c3.7,7.5,6.9,16.3,11.9,23
	c2.5,3.2,5.7,5.5,10,4.6c9.9-2.4,19.2-7,29.3-9c13.4-2.8,27.4-3.3,41-2.8c16.5,0.6,32.6,5.6,47.5,12.6c22.3,10.9,42,27.4,55.6,48.2
	c4.6,6.8,7.8,14.2,11.7,21.3c2.2,3.8,5,7.5,9.4,8.7c4,1.1,8.7-1,12.9-1.4c12.5-1.4,25.3-1.6,37.9-1c12.5,0.6,24.5,4.5,35.9,9.6
	c26.1,12.3,48,33.2,61.2,59c8.4,17,13.1,35.8,12.9,54.9c0,19-4.9,37.6-13.5,54.4c-12.1,23-31.1,42.6-54,54.9
	c-12.4,6.4-26.2,10.7-40.1,12.4c-16.5,2-33.5-0.1-50.5-0.8c-1.4,8.6-2.7,17.3-4.2,25.9c-5,29.1-16.4,57-33.7,80.9
	c-22.7,31.9-55.6,56.6-92.5,69.5c-24.1,8.6-49.7,12.2-75.3,10.8c-10.3-0.6-21-1.3-31.1-3.8c-14.9-3.4-29.9-8-43.7-14.7
	c-14.2-6.9-26.8-16-40-24.9c-7.3,3.5-14.5,7.1-21.7,10.7c-11.9,6-24.4,11-37.2,14.7c-43.7,10.5-91.5,1-127.7-25.8
	c-25.9-18.7-45.8-45.8-55.8-76.2c-2.4-6.8-3.9-13.9-6.2-20.8c-1.4-3.7-3.3-8.2-6.9-10.3c-3.1-1.8-6.3-0.9-9.6-0.6
	c-18.2,1.8-35.1,3.4-53-1.8c-19.3-5.2-35.3-16.8-48.6-31.4c-7.6-8.2-14.2-17.1-18.4-27.6c-3.6-9.2-6.7-19-7.4-28.9
	c-0.9-11.2-0.3-22.7,1.9-33.7c2.6-12.6,7-25.5,14.8-35.9c9.4-12.5,21.2-23.3,34.3-31.7c6.7-3.7,13.7-7,20.5-10.4
	c2.2-10.2,3.5-20.7,6.6-30.6c11.9-39.9,45.9-71.6,86.3-81.5c16.2-4.4,31.5-3.3,48-3.4c1.1-9.6,1.8-19.3,3.3-28.8
	c4.9-29,19.4-54.9,39.7-75.9c18.4-18.6,41.1-32.9,66.2-40.5C348.6,13.7,363.2,14.6,376,14.3z"/>
<path d="M154.2,582.2c6.7-0.8,13.6,0,20,1.7c19.8,5.7,35.4,23.3,38.9,43.6c2.3,12.3-0.1,25.4-6.5,36.1
	c-8.2,13.7-22.3,23.8-38.1,26.5c-9.1,1.8-18.6,0.9-27.4-2.2c-13.3-5-24.8-15.4-30.8-28.3c-5.7-11.4-7-24.9-3.7-37.1
	C112.5,601,132.1,584.4,154.2,582.2z"/>
<path class="st0" d="M152.5,596.8c5.8-1,12-0.9,17.7,0.8c16.4,4.9,28.7,20.2,29.5,37.4c0.5,9-2.4,17.8-7.8,24.9
	c-9.4,12.8-26.1,19.6-41.7,15.9c-17.8-4.4-31.3-21.3-31.2-39.7C119,617,134.1,600.2,152.5,596.8z"/>
<path d="M72.5,666.7c11.7-3.3,24.8-0.4,33.5,8.2c6.3,6,9.7,14.4,10.2,23.1c0.7,13.3-7.1,26.3-19,32.2c-13.1,6.9-30.3,3.7-40.3-7.1
	c-9.8-10.6-11.6-27.4-4.8-40C56.2,675,63.8,669.1,72.5,666.7z"/>
<path class="st0" d="M75.5,680.7c5.6-1.9,12-1.3,17.1,1.7c7.1,4,10.7,13.3,9.1,21.1c-1.5,7.4-7.4,13.6-14.7,15.5
	c-9.6,2.5-20.6-2.7-23.6-12.4C59.9,696.2,64.5,684,75.5,680.7z"/>
<path d="M36,718.2c11.5,2.8,20.7,15.7,17.9,27.6c-2,8.8-9.2,15.6-17.7,18.2H25.1c-10.4-3.1-18.8-14-17.7-25
	C8.6,725.9,23,714.9,36,718.2z"/>
<path class="st0" d="M29.2,732.1c4.7-1.4,9.1,3,10.6,7.1c1.6,4.8-2.7,9.2-6.9,10.9c-4.9,1.8-9.6-2.8-11.1-7.1
	C20.3,738.2,25,733.4,29.2,732.1z"/>
</svg>
