<svg id="Layer_1" data-name="Layer 1" xmlns="http://www.w3.org/2000/svg" viewBox="0 0 594.94 663.74"><defs><style>.cls-1{fill:#010101;}.cls-2{fill:#fff;}.cls-3{fill:#231f20;}</style></defs><path class="cls-1" d="M528.86,702S556.38,805.94,696,758c70.33-26.5,91.73-110.07,57.08-182.44s-53-57.08-69.31-102.94c-16.3-46.88,23.44-75.42,53-68.29s49.94,59.12,8.16,73.39c56,7.13,106-51,84.59-137.6-13.25-67.27-87.65-90.71-90.71-91.73s23.44,1,23.44,1-132-76.95-224.74,23.95C487.58,340.67,528.86,702,528.86,702Z" transform="translate(-239.65 -215.49)"/><path class="cls-2" d="M537,676.5s62.51,65.23,144,20.39c58.44-34,54.36-115.51,0-164.44S633.5,381.61,698.73,361.22c58.44-19,107.36,34,87,73.39,43.49-35.33,29.9-140-73.38-169.87-43.49-12.23-138.61-9.51-165.79,85.61s-4.08,135.9,35.33,172.59S649.81,694.17,537,676.5Z" transform="translate(-239.65 -215.49)"/><path class="cls-2" d="M383.25,866.08l-.51,4.59s21.78,6.11,38.08.5S448.34,862,448.34,862l.51,4.59,19.37-1,1.53-13.25v-8.15S449.87,835,444.27,834s-17.33,3.57-17.33,3.57-5.1,6.63-17.33,13.25S381.22,858.94,383.25,866.08Z" transform="translate(-239.65 -215.49)"/><path class="cls-1" d="M404.61,874.9A91.25,91.25,0,0,1,382.38,872a1.35,1.35,0,0,1-1-1.44l.48-4.34c-1.38-5.66,5.73-8.2,13.95-11.12A94.33,94.33,0,0,0,409,849.61c11.79-6.39,16.86-12.83,16.91-12.89a1.29,1.29,0,0,1,.57-.43c.49-.2,12.14-4.72,18.06-3.64,5.7,1,25,9.92,25.8,10.29a1.34,1.34,0,0,1,.78,1.23v8.15a.76.76,0,0,1,0,.15l-1.53,13.25a1.33,1.33,0,0,1-1.26,1.19l-19.37,1a1.36,1.36,0,0,1-1.4-1.19l-.33-3c-3.63,1.17-13.29,4.31-25.93,8.66A51.78,51.78,0,0,1,404.61,874.9Zm-20.4-5.25c4.58,1.12,22.51,5,36.18.25,16.13-5.54,27.43-9.14,27.55-9.18a1.33,1.33,0,0,1,1.74,1.13l.37,3.33,17-.89,1.39-12V845c-3.72-1.7-19.62-8.87-24.37-9.73-4.15-.76-12.85,2.06-16.27,3.37-1.18,1.41-6.5,7.34-17.51,13.3a94.27,94.27,0,0,1-13.51,5.62c-8.17,2.91-13.12,4.86-12.19,8.12a1.3,1.3,0,0,1,0,.52Z" transform="translate(-239.65 -215.49)"/><path class="cls-1" d="M469.16,857.43a2.54,2.54,0,0,0-1.45-.52c-4.59,0-18.86,0-33.64,6.11s-37.57,7.65-48.27,4.59l-2.63-.78-.43,3.84s21.78,6.11,38.08.5S448.34,862,448.34,862l.51,4.59,19.37-1Z" transform="translate(-239.65 -215.49)"/><path class="cls-1" d="M417.21,846.89a19.57,19.57,0,0,0,3.6.21,9.55,9.55,0,0,1,5.46,2.32c.18.14.5,0,.35-.27-1.72-2.57-6.57-3.41-9.41-2.61a.18.18,0,0,0,0,.35Z" transform="translate(-239.65 -215.49)"/><path class="cls-1" d="M421.73,844.06c2.3.73,4.91,1.8,7.34,1.46.35,0,.31-.59,0-.67-1.26-.34-2.55-.57-3.81-.9a19.07,19.07,0,0,0-3.42-.71c-.49,0-.54.68-.11.82Z" transform="translate(-239.65 -215.49)"/><path class="cls-1" d="M426.32,840.78a19.23,19.23,0,0,0,9.79,3.76c.46,0,.47-.6.1-.74-1.6-.62-3.26-1-4.88-1.62s-3.19-1.3-4.84-1.78c-.25-.08-.34.24-.17.38Z" transform="translate(-239.65 -215.49)"/><path class="cls-2" d="M525.8,850.79l1,12.74,8.67,3.06L536,864s3,8.66,18.34,12.23,28.54.51,31.09-2-.51-8.15-10.19-12.74S562,849.77,558.42,845.18s-16.82-5.6-18.86-5.09S525.8,850.79,525.8,850.79Z" transform="translate(-239.65 -215.49)"/><path class="cls-1" d="M568.42,879.23A63.51,63.51,0,0,1,554,877.58c-10.25-2.39-15.27-7-17.57-10.08a1.32,1.32,0,0,1-1.43.36l-8.66-3.06a1.34,1.34,0,0,1-.9-1.16l-1-12.74a1.35,1.35,0,0,1,.46-1.12c3.6-3.13,12.2-10.47,14.32-11s16.18.36,20.24,5.58c.68.87,1.35,1.82,2.06,2.82,3,4.24,6.7,9.51,14.27,13.1,6.72,3.18,11.11,7.27,11.74,10.94a4.37,4.37,0,0,1-1.17,4C584.2,877.36,577.21,879.23,568.42,879.23ZM536,862.7a1.33,1.33,0,0,1,1.26.89c0,.07,3.11,8,17.39,11.37,15.05,3.51,27.73.42,29.83-1.68a1.69,1.69,0,0,0,.42-1.6c-.36-2.07-3.25-5.66-10.24-9-8.21-3.89-12.15-9.48-15.32-14-.69-1-1.34-1.91-2-2.73-3.13-4-15.78-5-17.47-4.62-1.17.38-7.28,5.28-12.69,10l.89,11.19,6.38,2.25.21-1a1.34,1.34,0,0,1,1.22-1.08Z" transform="translate(-239.65 -215.49)"/><path class="cls-2" d="M470.77,730.52c3.56-1,26.5-9.68,42.29-3.06s1-15.28,1-15.28l-10.19-27-21.4-4.59Z" transform="translate(-239.65 -215.49)"/><path class="cls-1" d="M470.77,731.87a1.34,1.34,0,0,1-1.31-1.66l11.72-49.94a1.34,1.34,0,0,1,1.59-1l21.4,4.58a1.35,1.35,0,0,1,1,.84l10.14,26.87c2.19,3.27,8.62,13.54,5.58,17.23-2.08,2.54-6.78.56-8.33-.08-13.81-5.8-33.38.53-39.81,2.61l-1.59.5A1.64,1.64,0,0,1,470.77,731.87Zm12.72-49.7-10.87,46.35c7.3-2.34,26.72-8.27,41-2.3,4.28,1.8,5.13,1,5.21.87,1.21-1.47-2.1-8.64-5.82-14.16a1.51,1.51,0,0,1-.15-.28l-9.93-26.32Z" transform="translate(-239.65 -215.49)"/><path class="cls-2" d="M425.41,752.44s18.86-17.33,22.93-19.88,3.57-76.95,3.57-76.95L514.59,650l43.32,99.89,14.27-3.06s-13.25-41.28-27-70.33c-4.3-9.07-7.3-20.63-9.31-32.85-4.42-26.88-4-56.93-1.9-70.6,3.06-19.87,6.62-18.34,6.62-18.34l26,34.65s-3.06,5.61-7.64,16.31c-5.61,13.76-17.84,37.2-17.84,37.2L565,653.57s13.76-35.16,22.43-47.9,6.11-23.44,6.11-23.44-27.52-53-38.22-64.72A163.85,163.85,0,0,1,537,493c-2-3.05-10.2-16.3-12.75-17.32S474.33,463,456,474.7c-14.27,13.76-62.68,71.34-66.76,75.93a84.24,84.24,0,0,0-8.16,11.72,37.87,37.87,0,0,0-5.6-1.53,41.25,41.25,0,0,0-6.63.68l-31.08-23.61-8.16,24,10.2,11.21s31.59,34.66,40.76,28.54,51-49.94,51-49.94,8.66,26.5,7.13,44.84S419.8,682.62,419.3,708.61,425.41,752.44,425.41,752.44Z" transform="translate(-239.65 -215.49)"/><path class="cls-1" d="M425.41,753.78a1.1,1.1,0,0,1-.31,0,1.34,1.34,0,0,1-1-.84c-.27-.73-6.71-18.37-6.2-44.32.31-15.57,6.47-45.41,11.91-71.73,3.68-17.77,6.85-33.11,7.46-40.47,1.24-14.85-4.42-35.48-6.41-42.15-7.82,8.17-41.32,43-49.6,48.48-9.85,6.57-39.19-25.12-42.51-28.75l-10.19-11.21a1.35,1.35,0,0,1-.28-1.34l8.15-23.95a1.34,1.34,0,0,1,2.09-.64l30.62,23.26a36,36,0,0,1,6.36-.6,28,28,0,0,1,4.92,1.25,79.72,79.72,0,0,1,7.75-11c.83-.93,3.59-4.17,7.4-8.64,15.59-18.3,48-56.38,59.43-67.37l.21-.17c18.69-11.93,66.54-.28,69.51.91,2.12.85,6,6.37,11.94,15.63.6.94,1.09,1.7,1.42,2.2s.68,1,1.14,1.76a156.27,156.27,0,0,0,17.08,22.54c10.7,11.72,37.3,62.84,38.43,65a1.08,1.08,0,0,1,.11.3c.11.47,2.58,11.43-6.31,24.51-8.48,12.47-22.15,47.29-22.28,47.64a1.4,1.4,0,0,1-.75.76,1.32,1.32,0,0,1-1,0l-24-10.7a1.34,1.34,0,0,1-.72-.79,1.35,1.35,0,0,1,.08-1.06c.12-.24,12.27-23.55,17.78-37.09,3.66-8.54,6.32-13.8,7.3-15.68l-24.85-33.13c-.84.94-2.93,4.45-4.84,16.91s-2.63,42.66,1.89,70.18c2.19,13.28,5.28,24.21,9.2,32.49,13.64,28.79,27,70.08,27.08,70.49a1.32,1.32,0,0,1-.12,1.08,1.31,1.31,0,0,1-.88.64l-14.27,3.06a1.33,1.33,0,0,1-1.51-.78l-42.94-99-60.48,5.41c0,4.47.06,20.37-.26,36.32-.78,38.56-2.84,39.85-3.94,40.54-3.93,2.45-22.55,19.55-22.74,19.73A1.35,1.35,0,0,1,425.41,753.78Zm6.12-203.48a1.55,1.55,0,0,1,.29,0,1.32,1.32,0,0,1,1,.89c.36,1.09,8.73,27,7.2,45.38-.63,7.52-3.81,22.93-7.5,40.78-5.42,26.21-11.56,55.92-11.86,71.25A135.75,135.75,0,0,0,426,750c4.58-4.17,17.86-16.21,21.5-18.56,2.29-3.34,3.27-41.48,3-75.86a1.33,1.33,0,0,1,1.22-1.35l62.68-5.61a1.37,1.37,0,0,1,1.36.81l42.88,98.87,11.73-2.51c-2.46-7.5-14.35-43.12-26.49-68.75-4-8.51-7.2-19.68-9.42-33.21-4.57-27.81-3.86-58.27-1.9-71,1.73-11.27,3.94-17.73,6.56-19.18a2.16,2.16,0,0,1,1.92-.2,1.29,1.29,0,0,1,.55.43l26,34.65a1.36,1.36,0,0,1,.1,1.45c0,.06-3.08,5.69-7.58,16.2-4.82,11.8-14.61,30.94-17.23,36l21.37,9.55c2.62-6.59,14.24-35.39,22-46.86,7.66-11.26,6.19-20.94,5.95-22.23-1.71-3.28-27.77-53.13-37.93-64.27A158.14,158.14,0,0,1,537,495.51c-.45-.71-.81-1.28-1.1-1.72s-.84-1.28-1.45-2.23c-2.2-3.42-8.89-13.82-10.68-14.59-2.76-1.11-49.37-12.27-66.95-1.21-11.38,11-43.63,48.86-59.15,67.08-4,4.66-6.59,7.73-7.44,8.68a83.7,83.7,0,0,0-8,11.5,1.34,1.34,0,0,1-1.6.6,35,35,0,0,0-5.26-1.46,38.88,38.88,0,0,0-6.3.67,1.36,1.36,0,0,1-1.05-.26l-29.6-22.48-7.3,21.43,9.66,10.63c11.92,13.06,33,32.31,39,28.32,8.94-6,50.32-49.31,50.73-49.75A1.35,1.35,0,0,1,431.53,550.3Zm109,5.71Z" transform="translate(-239.65 -215.49)"/><path class="cls-2" d="M446.81,371.76s-14.26.51-28-14.78c5.6,7.13,17.32,2.55,17.32,2.55s-27.52-9.18-25.48-33.64c3.06,10.19,17.33,14.78,20.39,15.29-17.33-26.5-19.37-51.47-7.14-72.36-1.53,10.7,13.76,37.2,28.54,40.76-13.76-22.93-2.55-57.07,27-74.91-5.1,8.67-8.66,34.66-6.12,45.36,3.06-19.88,16.31-58.61,82.56-63.19-33.12,17.83-39.75,53-31.6,83.06-2.54-27.52,18.86-34.14,28-32.61-9.68.51-11.21,31.59-4.58,37.2,10.7-4.08,16.3-.51,28.54-7.14s16.81-24,12.74-33.12c16.3,26.5,19.36,56.06-5.1,71.34,0,0,24,8.16,35.16-9.68-.51,26.5-18.85,35.17-26.5,36.18,24,20.39,42.3,21.41,52,13.25-11.21,35.68-36.18,40.26-53,36.19,3.57,9.68,25,19.36,37.2,13.25C618,447.18,587,438,578.29,427.81c-2,14.27,7.14,27.52,17.33,27-9.17,7.14-31.09,2-34.65-8.66,2,12.74,16.3,22.93,16.3,22.93s-31.08,10.19-49.43-13.76C495.23,411.51,446.81,371.76,446.81,371.76Z" transform="translate(-239.65 -215.49)"/><path class="cls-1" d="M561.91,472.53c-10.79,0-24.92-3-35.14-16.38-30.66-41.2-75.89-79.26-80.44-83-2.72-.06-15.05-1.05-27.36-14a10.64,10.64,0,0,1-1.24-1.34,1.35,1.35,0,0,1,2.06-1.73c.33.38.67.74,1,1.1,3.18,2.88,7.93,2.68,11.19,2.07-7.64-3.63-24.33-13.86-22.7-33.47a1.34,1.34,0,0,1,2.63-.27c2.21,7.36,11,11.65,16.08,13.42-15.66-25.51-17.5-49.92-5.28-70.79a1.34,1.34,0,0,1,2.49.87c-1.34,9.4,11.31,32.12,24.37,38.15-5.29-10.9-5.75-24.32-1.17-37.39,5.15-14.68,15.92-27.56,30.32-36.25a1.35,1.35,0,0,1,1.86,1.83c-3.86,6.56-6.81,23.64-6.77,35.7a67.76,67.76,0,0,1,16.1-29.27c14.49-15.42,36.65-24.26,65.86-26.29a1.35,1.35,0,0,1,.73,2.53c-29.72,16-36.77,45.21-33.19,70.56a27.41,27.41,0,0,1,8.2-15.61c6.59-6.12,15.51-7.92,21-7a1.34,1.34,0,0,1-.15,2.67c-2.82.15-4.58,4.15-5.38,6.52-3.09,9.17-2.44,23.56,1.07,27.78a43.43,43.43,0,0,1,11.39-2.21c4.84-.46,9.41-.89,16.16-4.55,11.34-6.14,16.16-22.39,12.16-31.39a1.35,1.35,0,0,1,2.37-1.26c14.5,23.56,21,54.3-3,71.52,6.46,1.42,22.49,3.36,30.8-9.86a1.35,1.35,0,0,1,2.49.74c-.48,24.81-16.16,34.4-24.87,36.88,19.72,16.06,37.6,20.37,48.14,11.5a1.32,1.32,0,0,1,1.61-.09,1.35,1.35,0,0,1,.54,1.52c-10.31,32.8-33,41-51.76,37.68,2.43,3.52,7.29,7,13.16,9.33,7.87,3.12,15.69,3.43,20.91.81a1.35,1.35,0,0,1,1.82,1.79c-3.91,8.18-10.84,13.15-20,14.35-11.56,1.5-24-3.18-30.54-8.89a25.42,25.42,0,0,0,6.12,17.91c3,3.25,6.55,4.94,10,4.77a1.37,1.37,0,0,1,1.33.87,1.35,1.35,0,0,1-.43,1.53c-5,3.89-13.81,4.71-22.45,2.1a28.5,28.5,0,0,1-9-4.44c4.59,8.34,12.92,14.38,13,14.46a1.35,1.35,0,0,1-.37,2.37A56.56,56.56,0,0,1,561.91,472.53ZM446.81,370.41a1.35,1.35,0,0,1,.86.31c.48.4,48.91,40.35,81.25,83.81,14.56,19,37.74,15.69,45.39,14-4.19-3.49-13-11.93-14.67-22.11a1.34,1.34,0,0,1,2.6-.64c1.37,4.09,6,7.71,12.54,9.67,5.93,1.8,12.06,1.82,16.51.23a17.4,17.4,0,0,1-7.78-5.11c-5.24-5.74-7.75-14.51-6.55-22.9a1.36,1.36,0,0,1,1-1.1,1.35,1.35,0,0,1,1.4.42c5.18,6.1,18.57,11.6,30.25,10.08a22.3,22.3,0,0,0,16.21-9.75c-5.55,1.43-12.56.74-19.54-2-8-3.16-14.11-8.25-16-13.27a1.35,1.35,0,0,1,.26-1.36,1.34,1.34,0,0,1,1.32-.41c8.51,2.06,36.59,5.64,50.11-31.48-12.2,6.74-30.59,1.13-50.28-15.62a1.35,1.35,0,0,1,.69-2.36c6.48-.86,22.77-8.05,25.08-30.49-12.4,13.73-33.76,6.68-34,6.6a1.34,1.34,0,0,1-.91-1.12,1.36,1.36,0,0,1,.63-1.3c22.79-14.24,19.89-40.44,8.6-62.51,0,9.72-5.36,21.45-14.89,26.62-7.24,3.92-12.3,4.39-17.19,4.85a39.72,39.72,0,0,0-11.51,2.36,1.37,1.37,0,0,1-1.35-.23c-5.18-4.39-5.75-21.31-2.41-31.23a17.18,17.18,0,0,1,3-5.76,24.94,24.94,0,0,0-14.11,6.41c-6,5.62-8.72,14.21-7.74,24.84a1.34,1.34,0,0,1-2.63.47c-7.31-26.92-3.68-61.75,27.1-81.56-55.22,5.77-71.57,36.4-75.44,61.54a1.34,1.34,0,0,1-2.63.11c-2.27-9.51.15-30.78,4.3-42.06-12,8.25-20.88,19.61-25.36,32.38-4.76,13.59-3.8,27.52,2.62,38.23a1.35,1.35,0,0,1-.07,1.49,1.33,1.33,0,0,1-1.4.51c-13.45-3.25-27.05-24.29-29.33-37.12-9.47,19.81-6.27,42.75,9.37,66.67a1.35,1.35,0,0,1-1.34,2.07c-2.37-.4-13.19-3.7-18.75-11,2.19,19.06,24.25,26.68,24.49,26.76a1.34,1.34,0,0,1,.06,2.53,24.92,24.92,0,0,1-10.2,1.48c10.75,8.33,20.26,8.16,20.37,8.15Z" transform="translate(-239.65 -215.49)"/><path class="cls-1" d="M535,320.29a12.47,12.47,0,0,1,1.48-6.92,17.19,17.19,0,0,1,4.58-5.59l1.48-1a15.19,15.19,0,0,1,1.57-.9,19,19,0,0,1,3.3-1.38,29.58,29.58,0,0,1,3.44-.81,32,32,0,0,1,3.51-.17c-1.05.56-2.11,1-3.14,1.44l-1.51.75c-.5.26-1,.43-1.5.73a38.88,38.88,0,0,0-5.47,3.5,26.26,26.26,0,0,0-4.48,4.58A24.32,24.32,0,0,0,535,320.29Z" transform="translate(-239.65 -215.49)"/><path class="cls-1" d="M591.94,336.68a12.48,12.48,0,0,1-6.92,1.46,17.23,17.23,0,0,1-7-1.93l-1.56-.92a16.93,16.93,0,0,1-1.45-1.07,18.37,18.37,0,0,1-2.6-2.46,30.32,30.32,0,0,1-2.14-2.82,29.74,29.74,0,0,1-1.58-3.14c.94.73,1.76,1.53,2.59,2.29l1.3,1.08c.44.35.81.76,1.27,1.07a39.12,39.12,0,0,0,5.42,3.59,26.86,26.86,0,0,0,6,2.23A24.49,24.49,0,0,0,591.94,336.68Z" transform="translate(-239.65 -215.49)"/><path class="cls-1" d="M491.15,330.48c-2,0-32.11-2-46.88,39.24-4.08,10.7-30.07,10.19-42.81,6.11-2,7.65,13.76,33.13,19.87,46.89s18.86,41.28,50.46,51C481,484.38,485,502.22,485,502.22a292.91,292.91,0,0,1,24-22.94c11.72-9.68,13.25-14.77,13.25-14.77s30.06-18.35,25.48-56.06c19.36-.51,38.22-3.57,39.24-18.35s-22.94-18.34-26.5-18.85c1,10.7-18.35,22.93-21.41,22.42,6.12,1,8.16-22.42,7.14-25.48C542.62,377.36,535,384,535,384s8.66-22.43-6.12-36.69S491.15,330.48,491.15,330.48Z" transform="translate(-239.65 -215.49)"/><path class="cls-2" d="M464.65,350.88s-22-6.79-17.81,20.37C455.75,366.55,464.65,350.88,464.65,350.88Z" transform="translate(-239.65 -215.49)"/><path class="cls-1" d="M446.84,372.55a1.18,1.18,0,0,1-.58-.14,1.32,1.32,0,0,1-.71-1c-1.45-9.31,0-15.89,4.18-19.53,5.9-5.11,14.92-2.4,15.3-2.29a1.3,1.3,0,0,1,.83.77,1.32,1.32,0,0,1-.07,1.13c-.38.65-9.2,16.05-18.34,20.87A1.31,1.31,0,0,1,446.84,372.55Zm12.25-21.11a11.57,11.57,0,0,0-7.66,2.46c-3.21,2.78-4.41,7.89-3.56,15.2,6.32-4.29,12.47-13.67,14.74-17.34A19.79,19.79,0,0,0,459.09,351.44Z" transform="translate(-239.65 -215.49)"/><path class="cls-2" d="M507,325.89a10,10,0,0,1-2,0c-6.16-.26-24.34-.77-35.16,17.85-12.74,21.91-21.92,43.82-55.55,36.69,5.1,6.12-2.55,6.63-2.55,6.63s20.39,11.72,40.26,0S484,332,512,332" transform="translate(-239.65 -215.49)"/><circle class="cls-1" cx="166.65" cy="168.75" r="10.96"/><circle class="cls-2" cx="261.44" cy="153.97" r="13.5"/><path class="cls-1" d="M501.09,384.31a14.85,14.85,0,1,1,14.85-14.85A14.86,14.86,0,0,1,501.09,384.31Zm0-27a12.16,12.16,0,1,0,12.16,12.16A12.17,12.17,0,0,0,501.09,357.3Z" transform="translate(-239.65 -215.49)"/><path class="cls-2" d="M443.76,420.17s17.83,8.66,33.63-3.06,31.09-18.85,40.77,0-17.84,33.13-26,34.66S462.61,452.78,443.76,420.17Z" transform="translate(-239.65 -215.49)"/><path class="cls-1" d="M487.1,453.55c-9.84,0-28.15-4.42-44.51-32.71a1.34,1.34,0,0,1,.18-1.58,1.33,1.33,0,0,1,1.57-.3c.17.08,17.32,8.15,32.25-2.93,9.31-6.91,20.11-13.67,29.61-11.46,5.3,1.24,9.73,5.25,13.16,11.93a17.77,17.77,0,0,1,.21,16.7c-5.6,11.45-21.7,18.86-27.15,19.89A29.46,29.46,0,0,1,487.1,453.55Zm-40.19-30.74c18.72,29.89,39.06,28.75,45,27.63,5.08-.95,20.05-7.83,25.24-18.43a15.18,15.18,0,0,0-.2-14.28c-3.09-6-6.81-9.47-11.37-10.54-8.48-2-19.1,4.84-27.4,11C466.15,427.13,453.16,424.78,446.91,422.81Z" transform="translate(-239.65 -215.49)"/><path class="cls-2" d="M482.49,325.38c1.44.72-4.08,12.23-4.08,12.23s-12.74-1-21.4,6.12C466.18,329,476.37,322.32,482.49,325.38Z" transform="translate(-239.65 -215.49)"/><path class="cls-1" d="M457,345.07a1.34,1.34,0,0,1-1.15-2.05c9.34-15,20-22.44,27.23-18.84,1,.52,2.62,1.31-3.47,14a1.36,1.36,0,0,1-1.32.76c-.12,0-12.31-.88-20.44,5.82A1.36,1.36,0,0,1,457,345.07ZM479.2,326c-4.85,0-11.39,4.95-17.57,13.31a37.39,37.39,0,0,1,15.95-3.06c1.82-3.89,3.58-8.31,3.79-9.87A6,6,0,0,0,479.2,326Z" transform="translate(-239.65 -215.49)"/><path class="cls-2" d="M506.44,328.44l-5.1,11.21s17.84.51,18.86,16.31C524.27,341.18,519.69,330.48,506.44,328.44Z" transform="translate(-239.65 -215.49)"/><path class="cls-1" d="M520.2,357.3h-.14a1.35,1.35,0,0,1-1.2-1.25C517.93,341.68,502,341,501.3,341a1.37,1.37,0,0,1-1.1-.64,1.33,1.33,0,0,1-.08-1.27l5.09-11.21a1.34,1.34,0,0,1,1.43-.77c6.08.94,10.57,3.59,13.35,7.88,3.39,5.23,3.91,12.61,1.5,21.33A1.34,1.34,0,0,1,520.2,357.3Zm-16.86-18.79c4,.57,13.16,2.78,16.76,11.1.61-5.31-.19-9.79-2.37-13.16s-5.72-5.57-10.5-6.51Z" transform="translate(-239.65 -215.49)"/><ellipse class="cls-1" cx="260.16" cy="154.99" rx="4.59" ry="4.33"/><ellipse class="cls-1" cx="213.79" cy="144.55" rx="3.82" ry="3.69"/><path class="cls-1" d="M464.65,432.91a12.93,12.93,0,0,0,2.91-.27c1-.17,1.92-.34,2.87-.55,1.91-.42,3.8-.87,5.67-1.38s3.72-1.09,5.57-1.66,3.64-1.28,5.45-1.95l.87-.32.62.74a14.73,14.73,0,0,0,1.78,1.84,18.61,18.61,0,0,0,2.05,1.58,20.45,20.45,0,0,0,2.27,1.3,21,21,0,0,0,2.38,1l-1.6,1.28-.11-5.1c0-1.7,0-3.41,0-5.11v-.62l.47-.21c1.58-.66,3.16-1.34,4.75-2s3.2-1.25,4.82-1.83q-2.16,1.43-4.36,2.76c-1.46.9-2.94,1.75-4.42,2.61l.48-.83c.19,1.7.33,3.39.5,5.09l.4,5.09.14,1.74-1.74-.46a17.6,17.6,0,0,1-2.83-1.06,22.73,22.73,0,0,1-2.6-1.43,16.67,16.67,0,0,1-2.38-1.82,18.06,18.06,0,0,1-2.06-2.22l1.5.42a64.37,64.37,0,0,1-11.55,3,58.56,58.56,0,0,1-5.92.66c-1,.06-2,.08-3,.06A10.91,10.91,0,0,1,464.65,432.91Z" transform="translate(-239.65 -215.49)"/><path class="cls-1" d="M503.38,410a9.93,9.93,0,0,1,4.71,2,14.26,14.26,0,0,1,3.56,3.78,13.36,13.36,0,0,1,1.9,4.88,10.24,10.24,0,0,1-.49,5.13,46.65,46.65,0,0,0-1.55-4.56,29.91,29.91,0,0,0-2.12-4,37.6,37.6,0,0,0-2.73-3.68A39.82,39.82,0,0,0,503.38,410Z" transform="translate(-239.65 -215.49)"/><ellipse class="cls-2" cx="165.38" cy="164.93" rx="5.61" ry="3.57"/><path class="cls-2" d="M538,648.48a9.4,9.4,0,0,1,8.67-6.63c7.13-.51,14.78,8.66,14.78,12.23s1.53,4.08,5.09.51,5.61,8.66.51,13.25c.51,7.13-15.34,18.45-21.4,4.59C542.11,664.27,539.05,658.67,538,648.48Z" transform="translate(-239.65 -215.49)"/><path class="cls-1" d="M554.34,680.34c-4.28,0-7.8-2.58-9.89-7.37-.48-1.09-.94-2.13-1.4-3.14-2.92-6.53-5.45-12.17-6.35-21.22a1.19,1.19,0,0,1,0-.46,10.77,10.77,0,0,1,9.87-7.64c4.67-.32,8.82,2.83,10.87,4.75,3.15,2.93,5.35,6.56,5.35,8.82a4.78,4.78,0,0,0,.19,1.57,7.56,7.56,0,0,0,2.61-2,2.87,2.87,0,0,1,2.88-.94c1.26.36,2.18,1.65,2.66,3.73.84,3.65.14,9-2.73,12-.16,4.65-5.4,10.14-11.24,11.58A12,12,0,0,1,554.34,680.34ZM539.4,648.6c.88,8.46,3.19,13.62,6.11,20.13.45,1,.92,2.06,1.4,3.16,2.57,5.86,6.66,6.21,9.64,5.48,5.13-1.27,9.41-6.33,9.19-9.43a1.34,1.34,0,0,1,.44-1.1c2.23-2,2.87-6,2.53-8.78a5,5,0,0,0-.92-2.74,2,2,0,0,0-.27.22c-1.63,1.64-3.75,3.41-5.58,2.65s-1.81-3.28-1.81-4.11c0-1.28-1.72-4.27-4.49-6.85-3-2.76-6.18-4.24-8.85-4A8.1,8.1,0,0,0,539.4,648.6Z" transform="translate(-239.65 -215.49)"/><path class="cls-3" d="M555.87,665.8c1.4.38,2.66.71,3.91,1a24.64,24.64,0,0,0,3.67.49,24,24,0,0,0,3.69,0c1.27-.05,2.55-.3,4-.39a9.64,9.64,0,0,1-1.61,1.45,10.09,10.09,0,0,1-1.93,1,9.89,9.89,0,0,1-4.35.65,10.2,10.2,0,0,1-4.23-1.19A8,8,0,0,1,555.87,665.8Z" transform="translate(-239.65 -215.49)"/><path class="cls-3" d="M538,535.34c-.27,1.77-.49,3.5-.64,5.22a31.6,31.6,0,0,0,0,5.05,13.84,13.84,0,0,0,1.08,4.62,8.08,8.08,0,0,0,2.83,3.4l-2,1.08a3.91,3.91,0,0,1,.72-2.13,5.69,5.69,0,0,1,1.37-1.36,12.05,12.05,0,0,1,3-1.53,19.62,19.62,0,0,1,3.15-.79,18.93,18.93,0,0,1,3.18-.31,60.52,60.52,0,0,0-5.6,2.7,11.65,11.65,0,0,0-2.34,1.67,2.38,2.38,0,0,0-1,1.75l.29,2.43-2.24-1.35a10,10,0,0,1-2.33-1.93,9.56,9.56,0,0,1-1.59-2.55,13.29,13.29,0,0,1-1-5.63,22.1,22.1,0,0,1,3-10.34Z" transform="translate(-239.65 -215.49)"/><path class="cls-2" d="M447.83,651.53c-2.54-7.64-9.17,127.41-9.17,134s-4.59,13.76-4.08,20.38-13.76,17.33-7.64,31.6c19.36-2,33.63,2,37.2,6.12a47.09,47.09,0,0,0,7.14,6.62,17.11,17.11,0,0,0,.51-13.76c-3.06-7.13.5-7.13-1-20.89s-2.55-19.37-1-24S480.45,705,483,695.87s8.66-11.72,12.23-7.14,12.74,64.72,15.8,82,14.26,52,11.21,57.59,2.54,34.14,6.11,29.55c4.08-6.11,5.61-9.17,12.23-13.75s17.33,0,19.88,2c1-9.68,1-17.32-2.55-25s-2-2-2.55-16.3-9.17-55.55-13.76-70.33-8.15-43.32-11.72-51-14.78-30.58-14.78-30.58l-31.59-13.25Z" transform="translate(-239.65 -215.49)"/><path class="cls-1" d="M527.51,859.76a2.29,2.29,0,0,1-1.25-.39c-4.18-2.74-8.07-26.4-5.2-31.65,1.72-3.16-2.58-20.18-6-33.85-2.18-8.58-4.23-16.7-5.32-22.86-.64-3.64-1.57-9.23-2.63-15.7-3.6-21.81-10.3-62.4-12.9-65.75a3.71,3.71,0,0,0-3.67-1.64c-2,.39-4.67,2.78-6.21,8.31-1.37,4.93-4.76,31.93-7.76,55.75-3,23.51-4.81,38-5.51,40.12-1.2,3.61-.69,8,.43,17.64q.3,2.61.65,5.74a48.59,48.59,0,0,1,0,12.85A11.87,11.87,0,0,0,473,836a18.32,18.32,0,0,1-.56,14.93,1.33,1.33,0,0,1-.88.67,1.36,1.36,0,0,1-1.09-.21,48.24,48.24,0,0,1-7.36-6.84c-3.06-3.49-16.62-7.71-36.05-5.66a1.37,1.37,0,0,1-1.38-.81c-4.21-9.82.68-18.15,4.25-24.23,1.85-3.14,3.44-5.86,3.29-7.79-.29-3.76.92-7.57,2.09-11.26,1-3.24,2-6.3,2-9.23,0-3.32,1.56-36.83,3.46-69.49,1.08-18.69,2.07-33.72,3-44.68,1.68-21.18,2.3-21.28,3.65-21.5a1.62,1.62,0,0,1,.82.11l34.89-11.47a1.38,1.38,0,0,1,.94,0l31.59,13.25a1.37,1.37,0,0,1,.69.65c.11.23,11.26,23,14.79,30.6,1.94,4.15,3.75,13.57,5.84,24.49,1.86,9.67,3.78,19.66,5.95,26.64,4.57,14.74,13.29,56,13.82,70.68.15,4.37.12,6.86.1,8.5,0,2.48,0,2.48,1,4.46.34.69.79,1.58,1.37,2.83,3.65,7.81,3.72,15.62,2.66,25.67a1.33,1.33,0,0,1-2.17.91c-2.37-1.89-12.35-6.08-18.27-2-5.64,3.9-7.38,6.55-10.54,11.37l-1.34,2A2.48,2.48,0,0,1,527.51,859.76Zm-36.37-174.6a6.53,6.53,0,0,1,5.15,2.75c2.79,3.59,7.95,33.73,13.43,67,1.07,6.46,2,12,2.63,15.68,1.07,6.06,3.11,14.13,5.27,22.66,5,19.73,7.88,32,5.8,35.8-2.38,4.36,1.39,25,4,27.85.39-.59.77-1.15,1.12-1.7,3.24-4.93,5.19-7.9,11.26-12.1,6.28-4.35,15.25-1.37,19.51.87.77-8.58.49-15.42-2.64-22.13-.57-1.21-1-2.09-1.34-2.76-1.23-2.47-1.27-2.68-1.23-5.7,0-1.61,0-4.06-.1-8.37-.51-14.18-9.28-55.71-13.7-70-2.21-7.12-4.15-17.2-6-26.93-2-10.3-3.84-20-5.64-23.86-3.24-7-12.95-26.84-14.54-30.1l-30.67-12.86L448.4,652.76c-2.66,11.48-8.39,125.37-8.39,132.8,0,3.34-1.08,6.74-2.12,10-1.14,3.6-2.21,7-2,10.24.22,2.78-1.58,5.83-3.65,9.37-3.34,5.68-7.46,12.71-4.46,20.89,18.9-1.8,33.3,2,37.34,6.67a48.76,48.76,0,0,0,5.56,5.37,15.46,15.46,0,0,0-.16-11.09,14.42,14.42,0,0,1-1.13-9,46.51,46.51,0,0,0,0-12.22c-.23-2.09-.45-4-.65-5.73-1.17-10-1.7-14.63-.31-18.8.65-2,3.06-21.09,5.39-39.61,3-23.91,6.42-51,7.84-56.13,1.58-5.7,4.68-9.52,8.28-10.23A5.71,5.71,0,0,1,491.14,685.16Zm-43.31-33.63-1.28.41v0Z" transform="translate(-239.65 -215.49)"/><path class="cls-3" d="M367,560.82a3.26,3.26,0,0,1,3.1.56,5.36,5.36,0,0,1,1.85,2.63,7.31,7.31,0,0,1,.34,1.51,9.25,9.25,0,0,1,0,1.49,6.48,6.48,0,0,1-1,2.82,8.59,8.59,0,0,1-.63-1.36c-.16-.44-.33-.86-.45-1.27s-.28-.8-.38-1.2-.22-.77-.37-1.12a13.76,13.76,0,0,0-.84-2A6.74,6.74,0,0,0,367,560.82Z" transform="translate(-239.65 -215.49)"/><path class="cls-3" d="M565.86,591.11a11.51,11.51,0,0,1,2.15-4.33,12.36,12.36,0,0,1,3.72-3.26,7.6,7.6,0,0,1,5.22-.94,5.71,5.71,0,0,1,2.42,1.18,5.57,5.57,0,0,1,1.47,2,14.87,14.87,0,0,0-2.17-.72,6.89,6.89,0,0,0-1.94-.14,9.39,9.39,0,0,0-3.55,1.22,37.31,37.31,0,0,0-3.52,2.32C568.46,589.32,567.25,590.23,565.86,591.11Z" transform="translate(-239.65 -215.49)"/><path class="cls-3" d="M547.72,800.34a45.69,45.69,0,0,1,2.52,4.46c.74,1.49,1.43,3,2.1,4.48s1.28,3,1.9,4.55a43.07,43.07,0,0,1,1.63,4.85,16,16,0,0,1-3.7-3.7,22.86,22.86,0,0,1-2.59-4.49,23.69,23.69,0,0,1-1.57-4.92A16.05,16.05,0,0,1,547.72,800.34Z" transform="translate(-239.65 -215.49)"/><path class="cls-3" d="M530.63,814.47a46,46,0,0,1-2,4.71c-.73,1.49-1.49,2.94-2.28,4.38s-1.61,2.85-2.47,4.27a44.1,44.1,0,0,1-2.87,4.25,16.42,16.42,0,0,1,.7-5.2,22.5,22.5,0,0,1,2-4.77,24,24,0,0,1,3-4.24A16.17,16.17,0,0,1,530.63,814.47Z" transform="translate(-239.65 -215.49)"/><path class="cls-3" d="M441.44,799.69a43,43,0,0,1-2,4.71q-1.1,2.24-2.28,4.38c-.8,1.44-1.62,2.85-2.47,4.27a44.1,44.1,0,0,1-2.87,4.25,16.14,16.14,0,0,1,.7-5.2,22.72,22.72,0,0,1,2-4.77,24.41,24.41,0,0,1,3-4.24A16.33,16.33,0,0,1,441.44,799.69Z" transform="translate(-239.65 -215.49)"/><path class="cls-3" d="M467.45,783.25a44,44,0,0,1,1.13,5c.29,1.64.53,3.26.73,4.89s.38,3.25.52,4.9a42.74,42.74,0,0,1,.18,5.12,16.25,16.25,0,0,1-2.49-4.61,23.1,23.1,0,0,1-1.19-5,23.52,23.52,0,0,1-.1-5.17A15.78,15.78,0,0,1,467.45,783.25Z" transform="translate(-239.65 -215.49)"/><path class="cls-3" d="M433.05,555.22a6.15,6.15,0,0,1-2.91-2.59,6.42,6.42,0,0,1-.86-4.08,5.92,5.92,0,0,1,2-3.73,3.34,3.34,0,0,1,.81-.6c.29-.18.58-.34.87-.49a8.26,8.26,0,0,1,1.9-.47,16.12,16.12,0,0,1-.95,1.6c-.14.27-.27.51-.41.74l-.21.35-.16.35a7.57,7.57,0,0,0-.84,2.64,9.81,9.81,0,0,0,.08,2.84C432.51,552.82,432.77,553.93,433.05,555.22Z" transform="translate(-239.65 -215.49)"/><path class="cls-3" d="M379,562.35a5.9,5.9,0,0,1,3.24-.28,7.53,7.53,0,0,1,3,1.26,6.87,6.87,0,0,1,2.22,2.45,5.47,5.47,0,0,1,.7,3.2c-.93-.68-1.6-1.33-2.34-1.87s-1.39-1.08-2.11-1.58-1.44-1-2.22-1.49S380,563,379,562.35Z" transform="translate(-239.65 -215.49)"/><path class="cls-2" d="M524.78,673.45l18.35,64.21s6.63-2,11.21,5.09C546.19,718.8,524.78,673.45,524.78,673.45Z" transform="translate(-239.65 -215.49)"/><path class="cls-1" d="M554.34,744.1a1.35,1.35,0,0,1-1.13-.62c-4-6.14-9.46-4.6-9.69-4.54a1.28,1.28,0,0,1-1-.11,1.33,1.33,0,0,1-.65-.8l-18.35-64.21a1.35,1.35,0,0,1,2.51-1c.22.46,21.53,45.7,29.62,69.45a1.35,1.35,0,0,1-.69,1.64A1.38,1.38,0,0,1,554.34,744.1ZM545.28,736a11.27,11.27,0,0,1,5.82,1.64c-5.4-14.57-14.06-34.19-20.22-47.78l13.2,46.21A11.4,11.4,0,0,1,545.28,736Z" transform="translate(-239.65 -215.49)"/><path class="cls-2" d="M439.68,650c1.53,1,29.56,15.29,29.56,15.29L481,646.44,484.53,571S454,501.71,454,503.24s26.5,82.55,12.23,104S439.68,650,439.68,650Z" transform="translate(-239.65 -215.49)"/><path class="cls-1" d="M439.81,650l14.87,7.24,14.94,7.32-1.11.31c1.91-3.17,3.79-6.36,5.72-9.51l5.8-9.47-.16.53.77-18.87q.45-9.42,1-18.85l1.21-18.84c.4-6.28.84-12.56,1.19-18.84l0,.22c-7.6-17.71-15.68-35.22-23.88-52.65-2.07-4.35-4.12-8.72-6.22-13-.27-.53-.54-1.09-.8-1.54,0,0-.08-.11-.05-.08s0,0,.15.15c.1.65,2.61-.59,1.76-.84v-.08l.09.36.24.85,1,3.46c.69,2.3,1.39,4.61,2.05,6.93,2.67,9.28,5.14,18.62,7.3,28,1.09,4.71,2.05,9.45,2.91,14.22s1.59,9.56,2.12,14.38a133.45,133.45,0,0,1,.91,14.57,59.59,59.59,0,0,1-1.57,14.64,23.1,23.1,0,0,1-2.93,7l-4,6q-4.05,6-8,12l-7.78,12.18Zm-.26.06a6.71,6.71,0,0,1,.44-.89l.43-.79.87-1.59L443,643.6l3.56-6.3c2.38-4.19,4.84-8.34,7.33-12.48s5-8.24,7.57-12.33l3.9-6.08a21,21,0,0,0,2.49-6.36A57.29,57.29,0,0,0,469.08,586c-.11-4.75-.49-9.52-1.07-14.26-1.18-9.5-2.93-18.94-5-28.32s-4.37-18.72-6.92-28l-1.91-7-1-3.5-.23-.89c0-.15-.08-.3-.12-.52s0-.2,0-.3c-.86-.29,1.68-1.57,1.82-.88a1.73,1.73,0,0,1,.22.24,3.06,3.06,0,0,1,.19.3c.33.6.57,1.13.84,1.69,2.06,4.39,4,8.81,5.88,13.24,7.65,17.7,15.18,35.44,23.16,53a.39.39,0,0,1,0,.21h0c-.25,6.28-.4,12.58-.59,18.87l-.57,18.87q-.33,9.44-.78,18.86l-1,18.85h0a1,1,0,0,1-.17.51L476,656.4c-2,3.13-4,6.23-6,9.34v0a.85.85,0,0,1-1.1.29c-4.9-2.6-9.82-5.17-14.69-7.82l-7.3-4-3.65-2-1.81-1A17.66,17.66,0,0,1,439.55,650Z" transform="translate(-239.65 -215.49)"/><path class="cls-2" d="M471.79,473.68s2.54,13.76-.51,17.33c5.09,1,14.26,12.23,14.26,14.77C486.05,498.65,477.9,478.77,471.79,473.68Z" transform="translate(-239.65 -215.49)"/><path class="cls-1" d="M485.55,507.13h-.05a1.35,1.35,0,0,1-1.3-1.35c-.14-1.9-8.61-12.54-13.19-13.46a1.33,1.33,0,0,1-1-.88,1.35,1.35,0,0,1,.25-1.31c1.93-2.24,1.15-11.13.21-16.21a1.35,1.35,0,0,1,.65-1.4,1.33,1.33,0,0,1,1.54.13c6.61,5.51,14.76,25.93,14.24,33.23A1.34,1.34,0,0,1,485.55,507.13Zm-12.33-16.86c3.2,1.52,7.2,5.39,10,9-1.77-6.77-5.71-16-9.51-21.3C474.19,481.78,474.46,487.09,473.22,490.27Z" transform="translate(-239.65 -215.49)"/><path class="cls-2" d="M521.22,466.54s-4.59,18.35-2,28c-2.55,5.61-28.54,13.25-31.09,12.23S485,498.14,497.27,489,521.22,472.15,521.22,466.54Z" transform="translate(-239.65 -215.49)"/><path class="cls-1" d="M488.55,508.18a2.59,2.59,0,0,1-1-.13,4,4,0,0,1-2.26-3.37c-.23-1.8-.14-8.34,11.13-16.79,1.82-1.37,3.64-2.7,5.41-4,8-5.92,15.69-11.55,17.57-15.61.25-1.18.44-1.92.47-2.06a1.34,1.34,0,0,1,2.65.32A6.46,6.46,0,0,1,522,469c-1.09,5.05-3.49,17.9-1.56,25.24a1.33,1.33,0,0,1-.08.9C517.75,501,494.22,508.18,488.55,508.18Zm29.76-34c-3.49,3.55-8.81,7.47-14.85,11.91-1.76,1.3-3.57,2.63-5.39,4-8,6-10.44,11.46-10.07,14.29.1.72.37,1.13.59,1.23,2.77.59,26-6.53,29.16-11.18C516.4,488.56,517.29,480.23,518.31,474.14Z" transform="translate(-239.65 -215.49)"/><path class="cls-2" d="M501.34,496.61s1-11.21,5.61-15.29c-14.78,6.63-20.9,11.72-21.41,24.46C487.58,504.26,490.13,495.59,501.34,496.61Z" transform="translate(-239.65 -215.49)"/><path class="cls-1" d="M485.54,507.13a1.27,1.27,0,0,1-.62-.16,1.34,1.34,0,0,1-.72-1.24c.55-13.66,7.29-19,22.2-25.63a1.34,1.34,0,0,1,1.44,2.23c-3.43,3.05-4.89,11.43-5.16,14.4a1.35,1.35,0,0,1-1.46,1.22c-7.92-.72-11,3.74-13,6.69a9.34,9.34,0,0,1-1.83,2.22A1.34,1.34,0,0,1,485.54,507.13ZM503,484.64c-9.23,4.54-14.06,8.73-15.61,16.48a14.64,14.64,0,0,1,12.74-5.93A38.48,38.48,0,0,1,503,484.64Z" transform="translate(-239.65 -215.49)"/><path class="cls-1" d="M465.16,497.63s14.27,17.33,52-1l2,10.19H515.1S482.49,523.11,465.16,497.63Z" transform="translate(-239.65 -215.49)"/><ellipse class="cls-1" cx="244.11" cy="299.98" rx="9.43" ry="9.68"/><polygon class="cls-1" points="240.29 305.58 233.66 332.59 242.84 360.11 253.03 337.18 247.93 305.58 240.29 305.58"/><path class="cls-2" d="M513.57,513.94s-39.75,67.78-39.24,69.31,1,59.11,1,59.11l20.9,23.44,18.85-12.23s-18.34-40.77-15.29-67.78S507.46,527.19,513.57,513.94Z" transform="translate(-239.65 -215.49)"/><path class="cls-1" d="M513.51,514.06c0,.09.14.06.11.07l-.06.11-.13.24-.25.48-.52,1-1,1.91-2.08,3.81-4.16,7.61L497,544.41,480,574.67c-1.39,2.53-2.8,5.07-4.07,7.59-.16.31-.31.63-.42.91l-.07.17h0a.46.46,0,0,0,0-.15.75.75,0,0,0,0-.26c0-.1,0,0,0,0,0,.16.06.32.08.49l0,.29c.06.78.07,1.49.1,2.22,0,1.46,0,2.91.06,4.36,0,5.79,0,11.57,0,17.36-.08,11.57-.09,23.14.09,34.71l-.1-.29c3.51,3.88,7,7.79,10.52,11.65l10.63,11.56-1-.13q9.33-6.28,18.68-12.51l-.41,1.38c-2.48-5.5-4.67-11.08-6.67-16.76s-3.78-11.41-5.3-17.24c-.75-2.92-1.45-5.85-2-8.81s-1.06-6-1.43-9a86.35,86.35,0,0,1-.6-9.1,62.84,62.84,0,0,1,.57-9.12c.69-5.94,1.51-11.88,2.38-17.8s1.81-11.84,2.89-17.74,2.32-11.76,3.77-17.58q1.09-4.36,2.48-8.66c.45-1.43,1-2.84,1.49-4.25.28-.69.55-1.39.86-2.08.15-.32.31-.73.45-1S513.32,514.4,513.51,514.06Zm.13-.24c-.12.34-.19.75-.35,1.17l-.4,1.09c-.26.69-.48,1.41-.72,2.11-.45,1.42-.88,2.85-1.25,4.29-.77,2.88-1.41,5.79-2,8.71-1.21,5.83-2.19,11.72-3.06,17.62-1.82,11.8-3.17,23.67-4.47,35.54-1.43,11.66.67,23.49,3.42,35a236.29,236.29,0,0,0,11.32,33.78l0,0a1.11,1.11,0,0,1-.43,1.34q-9.48,6-19,12l0,0a.76.76,0,0,1-1-.15l-10.28-11.88c-3.42-4-6.91-7.86-10.36-11.79h0a.43.43,0,0,1-.11-.28c0-11.56-.29-23.13-.7-34.69l-.62-17.33-.2-4.32c0-.71-.07-1.45-.13-2.11l0-.25a0,0,0,0,1,0,0s0,0,0-.06a1.86,1.86,0,0,1,0-.33,1.7,1.7,0,0,1,0-.28,2,2,0,0,1,.07-.27c0-.13.08-.23.11-.34.16-.39.31-.73.47-1.07,1.26-2.68,2.66-5.19,4.05-7.75,5.61-10.14,11.45-20.12,17.38-30.06l9-14.85,4.58-7.38,2.29-3.69,1.16-1.83.58-.91.3-.46.14-.23.07-.12A.37.37,0,0,1,513.64,513.82Z" transform="translate(-239.65 -215.49)"/><ellipse class="cls-1" cx="244.23" cy="375.65" rx="3.94" ry="5.86"/><ellipse class="cls-1" cx="244.62" cy="396.55" rx="3.94" ry="5.86"/><ellipse class="cls-1" cx="245.02" cy="418.46" rx="3.94" ry="5.86"/><path class="cls-2" d="M515.61,653.57c1.59,2.81-25.48-48.92-7.13-83.57s21.91-46.38,21.91-46.38l-16.31-14.78s-8.15,38.22-12.23,56.06S491.15,610.25,515.61,653.57Z" transform="translate(-239.65 -215.49)"/><path class="cls-1" d="M515.61,653.57s0,.09.07.1l-.06-.12-.11-.25-.23-.49-.45-1-.88-2c-.57-1.32-1.13-2.65-1.67-4-1.08-2.67-2.08-5.37-3-8.1a159,159,0,0,1-4.75-16.61c-2.48-11.23-3.79-22.91-2.08-34.44a55.07,55.07,0,0,1,5.12-16.65c2.61-5.15,5.22-10.26,7.73-15.44s5-10.37,7.36-15.59c1.18-2.62,2.34-5.24,3.44-7.88s2.2-5.33,3.07-7.93l.37,1.34c-5.44-4.92-10.92-9.8-16.33-14.75l2.19-.71q-3.93,18.3-8.1,36.54L503,563.88a174.22,174.22,0,0,0-3.75,18.25,96.06,96.06,0,0,0,2.15,37A141.74,141.74,0,0,0,515.61,653.57Zm0,0a167.34,167.34,0,0,1-8.35-16.74A130.43,130.43,0,0,1,501,619.19a103.8,103.8,0,0,1-3.32-18.44A95.07,95.07,0,0,1,498,582a176,176,0,0,1,3.3-18.48l3.82-18.31,7.69-36.62a1.33,1.33,0,0,1,1.57-1,1.35,1.35,0,0,1,.61.3l0,0c5.46,4.9,10.85,9.87,16.28,14.8l0,0a1.23,1.23,0,0,1,.34,1.32c-1,2.87-2.07,5.48-3.23,8.16s-2.37,5.28-3.6,7.89c-2.45,5.23-5,10.38-7.72,15.5s-5.4,10.2-8.13,15.25a53.83,53.83,0,0,0-5.41,16.11,78.41,78.41,0,0,0-1,17.12,108.1,108.1,0,0,0,2.23,17.07,141.27,141.27,0,0,0,4.54,16.65q1.38,4.1,3,8.11c.54,1.34,1.08,2.67,1.65,4l.87,2,.45,1,.22.49.11.25.06.12S515.63,653.6,515.61,653.57Z" transform="translate(-239.65 -215.49)"/><path class="cls-2" d="M514.08,509.86l4.59-36.18s2.55-6.63,12.74,9.68c8.15,15.8,1.53,26.5,1.53,26.5l-11.72,4.08Z" transform="translate(-239.65 -215.49)"/><path class="cls-1" d="M521.22,515.28a1.45,1.45,0,0,1-.67-.17L513.42,511a1.34,1.34,0,0,1-.67-1.34l4.59-36.18a1.55,1.55,0,0,1,.07-.31,3.53,3.53,0,0,1,2.9-2.18c3.16-.3,7.16,3.5,12.24,11.63a.41.41,0,0,1,.05.09c8.41,16.29,1.77,27.37,1.48,27.83a1.34,1.34,0,0,1-.7.56l-11.72,4.08A1.31,1.31,0,0,1,521.22,515.28Zm-5.69-6.14,5.82,3.33L532,508.76c1.06-2,5.11-11.36-1.77-24.73-6.12-9.79-8.93-10.38-9.65-10.34a.86.86,0,0,0-.62.39Z" transform="translate(-239.65 -215.49)"/><path class="cls-2" d="M419.3,710.14c2-31.09,9.68-45.36,31.59-74.91,28-37.71,21.91-52.49,17.33-73.9s-6.63-47.9-6.63-47.9l-10.7-3.57-13.76,16.82s8.66,18.34,17.33,39.75,12,48.92-3.06,67.27C413.69,679.56,419.3,710.14,419.3,710.14Z" transform="translate(-239.65 -215.49)"/><path class="cls-1" d="M419.29,711.48a1.35,1.35,0,0,1-1.32-1.1c-.23-1.27-5.28-31.72,32.39-77.54,18.36-22.33,6.83-56.09,2.85-65.91-8.55-21.12-17.21-39.49-17.29-39.68a1.31,1.31,0,0,1,.17-1.42L449.85,509a1.34,1.34,0,0,1,1.47-.42l10.7,3.56a1.35,1.35,0,0,1,.91,1.18c0,.26,2.09,26.65,6.6,47.72.32,1.49.65,3,1,4.39,4.38,19.56,7.84,35-18.53,70.59-22.14,29.86-29.35,44-31.33,74.2a1.36,1.36,0,0,1-1.27,1.25Zm19.42-184.61c1.73,3.71,9.41,20.31,17,39s9.35,36.82,5.4,51.41c13.09-23.06,10.23-35.85,6.77-51.3-.33-1.45-.66-2.92-1-4.42-4.08-19-6.17-42.37-6.58-47.19l-9-3Z" transform="translate(-239.65 -215.49)"/><path class="cls-2" d="M461.59,516.49l-18.34-10.71s3.05-26,28.54-36.18C459.55,483.36,461.59,516.49,461.59,516.49Z" transform="translate(-239.65 -215.49)"/><path class="cls-1" d="M461.59,517.83a1.32,1.32,0,0,1-.67-.18L442.57,507a1.36,1.36,0,0,1-.66-1.32c0-.27,3.45-26.91,29.38-37.28a1.35,1.35,0,0,1,1.6.48,1.37,1.37,0,0,1-.1,1.67c-11.72,13.18-9.87,45.58-9.85,45.9a1.35,1.35,0,0,1-.64,1.23A1.39,1.39,0,0,1,461.59,517.83Zm-16.87-12.74,15.43,9c-.19-7.21,0-28.19,7.56-41.11C449.74,482.61,445.47,500.92,444.72,505.09Z" transform="translate(-239.65 -215.49)"/><path class="cls-3" d="M547.87,852.58a24,24,0,0,1,5.76-1.66c1.79-.3,3.68-.16,5.39-.81a.36.36,0,0,0,.09-.65c-3.6-1.93-8.81.25-11.61,2.64-.28.24.08.62.37.48Z" transform="translate(-239.65 -215.49)"/><path class="cls-3" d="M551.79,857.51a35.29,35.29,0,0,0,5.49-.89,27.08,27.08,0,0,1,7.25-.19c.66.06.67-.86.15-1.07-4.15-1.63-9.38-.62-12.93,2-.07,0-.06.18,0,.18Z" transform="translate(-239.65 -215.49)"/><path class="cls-3" d="M422.1,844.59c1.41.78,2.77.68,4.34.84a46.93,46.93,0,0,1,5.38,1.06c.76.18,1.44-.8.8-1.38a8,8,0,0,0-5-1.88c-1.89-.21-3.83-.46-5.55.51a.5.5,0,0,0,0,.85Z" transform="translate(-239.65 -215.49)"/><path class="cls-1" d="M586,870.71c-30.16,11.59-46.53-6.23-51-10.75-2.35-2.34-5.62-2-8.53-1.15l.37,4.72,8.67,3.06L536,864s3,8.66,18.34,12.23,28.54.51,31.09-2A3.24,3.24,0,0,0,586,870.71Z" transform="translate(-239.65 -215.49)"/><path class="cls-2" d="M290.19,486.25c1.6.19-6.45,71.51-6.45,71.51s-38.56,66.59-42.3,74.41c-2.51,5.24,4.59,28,47.4,28s56.56-10.2,56.05-18.35-32.95-84.93-32.95-84.93l-.68-70s13.68-.53,14.1-6.46c.51-7.3-7.65-9.51-24.8-9.85-16.89-.33-24,2.38-25,7.48S281.53,485.23,290.19,486.25Z" transform="translate(-239.65 -215.49)"/><path class="cls-1" d="M288.83,661.54c-30.37,0-42-11.19-46.16-17.86-3.23-5.12-3.55-9.77-2.44-12.09,3.64-7.62,39.26-69.18,42.2-74.26,2.88-25.52,6.85-63.63,6.64-69.86-7.69-1-12-2.62-13.89-5.23a5.42,5.42,0,0,1-.91-4.41c1.25-6.25,9.36-8.88,26.31-8.55,14,.27,21,1.81,24.19,5.32a7.74,7.74,0,0,1,1.93,6c-.42,5.94-10.31,7.31-14.09,7.62l.67,68.45c2.36,5.6,32.45,77,33,85.13a10.08,10.08,0,0,1-3.09,7.54C335.73,657.2,316.44,661.54,288.83,661.54Zm1.52-176.63c1.78.21,2.32.28-1.45,37.3-1.79,17.66-3.8,35.53-3.82,35.71a1.4,1.4,0,0,1-.18.52c-.38.66-38.57,66.63-42.25,74.31-.61,1.29-.54,5,2.3,9.5,3.9,6.2,14.8,16.6,43.88,16.6,37.59,0,49.13-8,52.34-11.38a7.4,7.4,0,0,0,2.38-5.54c-.41-6.5-23.85-63.19-32.85-84.49a1.3,1.3,0,0,1-.11-.51l-.68-70a1.36,1.36,0,0,1,1.3-1.36c3.23-.12,12.54-1.35,12.81-5.2a5,5,0,0,0-1.24-4c-2.58-2.82-9.44-4.19-22.25-4.44-15-.3-22.71,1.79-23.63,6.39a2.76,2.76,0,0,0,.46,2.29c1.44,2,5.81,3.42,13,4.26Z" transform="translate(-239.65 -215.49)"/><path class="cls-2" d="M319,573.8c-3.74,1.07-6.69,4.48-4.67,5.37,2.71,1.19,4.75,4.08,4.07,7.13s-3.73,7.82-8.15,3.91-5.61.17-11.72,5.95-9.18,4.24-15.46-.85-4.42-7.82-12.57-2.21c-3.71,2.55-8,6.07-11.66,9.2-8.33,14.76-15.86,26.47-17.39,29.87-2.38,5.3,4.6,26.84,47.4,28s56.56-10.2,56.05-18.35C344.54,636.15,328.57,596.9,319,573.8Z" transform="translate(-239.65 -215.49)"/><path class="cls-1" d="M295,661.63c-2,0-4,0-6.17-.09-30.73-.85-42.18-11.92-46.27-18.45-3-4.79-3.33-9.22-2.31-11.47.79-1.77,3.06-5.55,6.19-10.79s7.08-11.81,11.25-19.19a1.31,1.31,0,0,1,.3-.36A144.71,144.71,0,0,1,269.73,592c6.15-4.23,7.57-4.35,10.86-.87a32.25,32.25,0,0,0,3.32,3.14c6.29,5.1,8.45,5.86,13.68.92,1.45-1.37,2.6-2.63,3.62-3.74,3.12-3.39,5.58-6.07,9.92-2.24,1.1,1,2.1,1.33,3,1,1.44-.46,2.61-2.53,3-4.23.55-2.49-1.24-4.71-3.3-5.61a2.31,2.31,0,0,1-1.46-2.32c.14-2.09,3-4.63,6.3-5.57a1.36,1.36,0,0,1,1.62.78c11.66,28.14,25.64,62.87,26,68.48.18,2.78-1,5.59-3.48,8.13C338.41,654.4,326.5,661.63,295,661.63Zm-35.09-58.46c-4.14,7.32-8,13.82-11.16,19.05s-5.32,8.88-6.05,10.5c-.59,1.29-.5,4.74,2.14,8.95,3.8,6.06,14.59,16.36,44.06,17.18,36.47,1,48.48-7.23,51.94-10.82,1.92-2,2.87-4.09,2.74-6.1-.25-4-9.46-28.17-25.31-66.43a7,7,0,0,0-3.16,2.54c3,1.42,5.47,4.75,4.63,8.55-.56,2.5-2.25,5.39-4.78,6.21-1.27.41-3.26.47-5.58-1.58s-2.79-1.62-6.15,2c-1.05,1.15-2.25,2.44-3.76,3.87-6.77,6.4-10.62,4.58-17.23-.78a34.48,34.48,0,0,1-3.58-3.38c-2.15-2.28-2.2-2.33-7.38,1.24A144.08,144.08,0,0,0,259.88,603.17Z" transform="translate(-239.65 -215.49)"/><ellipse class="cls-2" cx="33.3" cy="406.91" rx="2.97" ry="3.14"/><path class="cls-1" d="M273,626.89a4.49,4.49,0,1,1,4.32-4.49A4.41,4.41,0,0,1,273,626.89Zm0-6.29a1.81,1.81,0,1,0,1.63,1.8A1.72,1.72,0,0,0,273,620.6Z" transform="translate(-239.65 -215.49)"/><ellipse class="cls-2" cx="50.12" cy="390.01" rx="2.46" ry="2.72"/><path class="cls-1" d="M289.77,609.56a4.07,4.07,0,1,1,3.81-4.06A3.95,3.95,0,0,1,289.77,609.56Zm0-5.44a1.4,1.4,0,1,0,1.12,1.38A1.27,1.27,0,0,0,289.77,604.12Z" transform="translate(-239.65 -215.49)"/><ellipse class="cls-2" cx="66" cy="385.17" rx="1.19" ry="1.44"/><path class="cls-1" d="M305.65,603.45a2.8,2.8,0,1,1,2.54-2.79A2.68,2.68,0,0,1,305.65,603.45Z" transform="translate(-239.65 -215.49)"/><circle class="cls-2" cx="63.88" cy="401.81" r="2.46"/><path class="cls-1" d="M303.53,621.11a3.81,3.81,0,1,1,3.81-3.81A3.82,3.82,0,0,1,303.53,621.11Zm0-4.92a1.12,1.12,0,1,0,1.12,1.11A1.12,1.12,0,0,0,303.53,616.19Z" transform="translate(-239.65 -215.49)"/><ellipse class="cls-2" cx="48.68" cy="425.17" rx="3.4" ry="2.55"/><path class="cls-1" d="M288.33,644.55c-2.66,0-4.75-1.71-4.75-3.89s2.09-3.89,4.75-3.89,4.74,1.71,4.74,3.89S291,644.55,288.33,644.55Zm0-5.09c-1.18,0-2.06.63-2.06,1.2s.88,1.2,2.06,1.2,2.05-.63,2.05-1.2S289.5,639.46,288.33,639.46Z" transform="translate(-239.65 -215.49)"/><path class="cls-1" d="M281.7,629.28a83,83,0,0,1,14.42-1.52,98.15,98.15,0,0,1,14.53.7,76.43,76.43,0,0,1,14.24,3.22,45,45,0,0,1,12.87,6.77,82.14,82.14,0,0,0-13.47-4.76c-1.16-.25-2.32-.52-3.46-.8s-2.33-.44-3.49-.67l-1.75-.34-1.76-.26c-1.17-.16-2.34-.37-3.52-.49l-3.54-.44-3.55-.32c-2.37-.23-4.75-.37-7.13-.52C291.32,629.59,286.53,629.42,281.7,629.28Z" transform="translate(-239.65 -215.49)"/><ellipse class="cls-1" cx="60.65" cy="261.08" rx="13.16" ry="2.38"/><path class="cls-2" d="M278.47,542.65c-1,.85-2.88,16.13,9.86,14.94s20.38-5.94,21.23-10.7-.17-9-7-6.79S278.47,542.65,278.47,542.65Z" transform="translate(-239.65 -215.49)"/><path class="cls-1" d="M286.93,559c-5.65,0-8.24-3.23-9.42-6.07-1.75-4.23-1.21-10.24.1-11.33a1.42,1.42,0,0,1,.84-.31c.17,0,17.2-.36,23.73-2.48,3.17-1,5.58-.86,7.16.51s2.2,4.09,1.54,7.8c-1.05,5.91-10.07,10.65-22.43,11.8C287.92,559,287.42,559,286.93,559Zm-7.56-15c-.38,1.64-.69,6.28,1.4,9.39,1.5,2.24,4,3.21,7.43,2.9,12.23-1.15,19.34-5.7,20-9.6.47-2.64.23-4.52-.67-5.3s-3-.48-4.56,0C296.91,543.36,283,543.87,279.37,544Zm.16-.51" transform="translate(-239.65 -215.49)"/><path class="cls-2" d="M281.53,525.66c-.85,0-10.7,9.51-3.06,17.5,5.94,6.2,17.84,3.22,23.78,0s7.14-7.82,5.1-10.54-16-1.86-18.18-2.54S281.53,525.66,281.53,525.66Z" transform="translate(-239.65 -215.49)"/><path class="cls-1" d="M288.4,548.1c-4.11,0-8.09-1.08-10.9-4-4.33-4.52-3.57-9.36-2.18-12.63s4.7-7.14,6.21-7.14a1.37,1.37,0,0,1,.76.24c1.47,1,5.63,3.73,7.28,4.24a35.71,35.71,0,0,0,4.69.29c7.26.23,12.53.55,14.17,2.74a6.13,6.13,0,0,1,1,5.07c-.62,2.84-2.95,5.49-6.56,7.45A32.44,32.44,0,0,1,288.4,548.1Zm-6.88-20.83a14.81,14.81,0,0,0-4.49,7.85,8.15,8.15,0,0,0,2.41,7.11c5.12,5.34,16.05,3.07,22.17-.26,2.87-1.55,4.78-3.62,5.22-5.65a3.44,3.44,0,0,0-.55-2.89c-1-1.32-8.78-1.56-12.1-1.66a27.19,27.19,0,0,1-5.4-.41C286.88,530.78,283.15,528.37,281.52,527.27Zm.47-.36" transform="translate(-239.65 -215.49)"/><path class="cls-2" d="M287.82,513.26c-.85,0-7.82,3.57-8.67,8.83s-.51,13.42,14.78,12.4,13.42-5.26,12.57-8.83S288.84,519.37,288,519,287.82,513.26,287.82,513.26Z" transform="translate(-239.65 -215.49)"/><path class="cls-1" d="M291.47,535.92c-5.34,0-9.2-1.26-11.49-3.77s-2.88-5.76-2.16-10.27c1-6,8.55-10,10-10a1.36,1.36,0,0,1,1.33,1.52,24.3,24.3,0,0,0-.21,4.46l1.15.23c12.11,2.5,17.08,4.53,17.72,7.23l.13.52c.43,1.71,1,3.84-.46,5.79-1.73,2.38-5.89,3.67-13.46,4.17Q292.7,535.92,291.47,535.92Zm-5.22-20.5c-2.08,1.24-5.26,3.75-5.77,6.89-.59,3.65-.1,6.28,1.49,8,2,2.25,6,3.2,11.87,2.81,8-.53,10.66-2,11.47-3.07.63-.87.43-1.93,0-3.56l-.14-.55c-.19-.64-2.09-2.42-15.64-5.21a16.32,16.32,0,0,1-2.06-.48C286.9,520.05,286,519.68,286.25,515.42Zm1.72-.83" transform="translate(-239.65 -215.49)"/><path class="cls-2" d="M319.58,535.68s-10.53-3.23-12.57-21.06c-5.26-3.06-8-.85-11.72-10.53s1.7-14.44,5.1-10c2.62,3.41,4.24,5.78,11.55,5.78s10.7,7.47,13.76,11.89,4.24,4.08,8.49,9.17,5.1,20.73,3.91,25.48-5.61,13.42-9,15-14.26,2.38-14.26,2.38-2.55-6.12-2.89-6.79-.34-31.09-.34-31.09" transform="translate(-239.65 -215.49)"/><path class="cls-1" d="M319.58,535.68a15.1,15.1,0,0,1-5.37-3.49,21.34,21.34,0,0,1-3.89-5.16,30.44,30.44,0,0,1-2.47-6,40.58,40.58,0,0,1-1.32-6.36l.24.37a21.64,21.64,0,0,0-3.89-1.56,10.7,10.7,0,0,1-4-2,12.51,12.51,0,0,1-2.75-3.61,34.57,34.57,0,0,1-1.84-4,18.7,18.7,0,0,1-1.09-4.36,11,11,0,0,1,.39-4.67,5.71,5.71,0,0,1,1.3-2.21,3.89,3.89,0,0,1,2.57-1.22,4.1,4.1,0,0,1,2.67.9,9.48,9.48,0,0,1,1.65,1.77,15.06,15.06,0,0,0,2.74,2.87,8.6,8.6,0,0,0,3.48,1.42,22.2,22.2,0,0,0,4,.31,11.09,11.09,0,0,1,4.67,1,17.82,17.82,0,0,1,6.72,6.2c1.7,2.42,3.05,4.93,4.78,7a28.66,28.66,0,0,0,2.93,2.89,42,42,0,0,1,3.11,3.15c.5.58.94,1,1.47,1.77a13.82,13.82,0,0,1,1.17,2.07,27.15,27.15,0,0,1,1.46,4.29,51.84,51.84,0,0,1,1.37,8.69,49.84,49.84,0,0,1,0,8.81,14.88,14.88,0,0,1-.4,2.29c-.19.75-.43,1.46-.68,2.16a41.72,41.72,0,0,1-1.75,4.06,31.65,31.65,0,0,1-4.85,7.47,8.87,8.87,0,0,1-1.88,1.56,9.34,9.34,0,0,1-2.29.87,42.27,42.27,0,0,1-4.33.83c-2.87.41-5.73.68-8.61.89h0a.92.92,0,0,1-.91-.56l-1.78-4.47-.9-2.2-.05-.12,0-.09a1.54,1.54,0,0,1-.05-.17l0-.12c0-.14,0-.24,0-.35l0-.63,0-1.21c0-3.22,0-6.43.08-9.64.12-6.41.23-12.83.47-19.24l.6,19.23.35,9.6.07,1.19,0,.58,0,.24v0l0-.09,0-.05v0l.08.15,1,2.22,1.95,4.4-.93-.56c2.82-.28,5.66-.63,8.44-1.1a40.17,40.17,0,0,0,4.07-.88,7.41,7.41,0,0,0,1.7-.68,6.92,6.92,0,0,0,1.38-1.21,29.49,29.49,0,0,0,4.34-7,37.53,37.53,0,0,0,1.58-3.85c.23-.64.43-1.3.59-1.94a14.17,14.17,0,0,0,.3-1.93,49.48,49.48,0,0,0-.07-8.34,51.3,51.3,0,0,0-1.34-8.24,23.59,23.59,0,0,0-1.33-3.82,13.21,13.21,0,0,0-.93-1.66c-.32-.44-.83-1-1.28-1.53a35.33,35.33,0,0,0-2.9-3,30.26,30.26,0,0,1-3.14-3.16c-2-2.36-3.3-4.93-4.89-7.19a15.84,15.84,0,0,0-5.65-5.44A8.75,8.75,0,0,0,312,501a23.21,23.21,0,0,1-4.5-.42,10.73,10.73,0,0,1-4.37-1.89,16.52,16.52,0,0,1-3.1-3.37A7.54,7.54,0,0,0,298.8,494a2,2,0,0,0-1.29-.5c-.84,0-1.7.85-2.09,2a8.92,8.92,0,0,0-.38,3.81,17.37,17.37,0,0,0,.89,4,35,35,0,0,0,1.58,3.85,11.43,11.43,0,0,0,2.28,3.29,10.25,10.25,0,0,0,3.5,2,21.71,21.71,0,0,1,4,1.87h0a.48.48,0,0,1,.22.35,40.17,40.17,0,0,0,1.08,6.26,29.77,29.77,0,0,0,2.22,5.95,22.32,22.32,0,0,0,3.61,5.22A15.17,15.17,0,0,0,319.58,535.68Z" transform="translate(-239.65 -215.49)"/><path class="cls-2" d="M566.57,383l-1.36,12.57s11.22,1.7,11.89-5.44S566.57,383,566.57,383Z" transform="translate(-239.65 -215.49)"/><circle class="cls-2" cx="261.18" cy="153.38" r="1.53"/><circle class="cls-2" cx="213.62" cy="142.68" r="1.53"/></svg>