<svg id="Layer_1" data-name="Layer 1" xmlns="http://www.w3.org/2000/svg" viewBox="0 0 538.17 569.14"><defs><style>.cls-1{fill:#010101;}.cls-2{fill:#c9c9c9;}.cls-3{fill:#8b8b8b;}.cls-4{fill:#fefefe;}.cls-5{fill:#fdfdfd;}.cls-6{fill:#fcfcfc;}.cls-7{fill:#fbfbfb;}.cls-8{fill:#fafafa;}.cls-9{fill:#f6f6f6;}.cls-10{fill:#eee;}.cls-11{fill:#f0f0f0;}.cls-12{fill:#f5f5f5;}.cls-13{fill:#ececec;}.cls-14{fill:#e0e0e0;}.cls-15{fill:#424242;}.cls-16{fill:#bbb;}.cls-17{fill:#b8b8b8;}.cls-18{fill:#999;}.cls-19{fill:#030303;}.cls-20{fill:#080808;}.cls-21{fill:#090909;}.cls-22{fill:#0b0b0b;}.cls-23{fill:#070707;}.cls-24{fill:#4b4b4b;}.cls-25{fill:#0f0f0f;}.cls-26{fill:#050505;}</style></defs><path class="cls-1" d="M318.73,370.61A40.74,40.74,0,0,1,300.82,390a1.68,1.68,0,0,0-1,1.89c.14,1.26.12,2.53.28,3.79a6.69,6.69,0,0,0,4.41,5.94c3.36,1.51,7.32,3.14,8.2,7.83.32,1.71,1.75,2.36,3.51.79,3.09-2.77,5.91-2.83,9.11-.14,1.83,1.54,3.79,3.1,4.67,5.49.41,1.11,1.45,1.21,2.31,1.57,3.13,1.28,6.37,2.16,9.17,4.32,1.73,1.32,4.3,1.11,6.53,1.15s3.84.83,3.69,3.36c-.14,2.36,1.23,3.61,2.87,5,6.89,5.69,9.59,13.78,12.1,21.91,4,13.06,6.24,26.58,10,39.72.87,3.07,1.77,6.14,2.9,9.12,3.94,10.39,5.71,21.37,8.66,32,.41,1.49.82,2.08,2.48,1.93,19.07-1.77,37.66-5.91,56.1-10.91,4.5-1.23,8.57-3.49,12.94-5,3-1.06,4.71-4.26,7-6.54,2.07-2.08,4-4.27,6.63-5.68,1.42-.75,1.9-2.09,2.47-3.46,1.27-3,1.61-6.43,3.44-9.29,1.38-2.15,3-3.33,5.75-3.13,5.35.39,10.73.11,16.07.76a12.25,12.25,0,0,1,2,.22c1.91.58,4.51.69,4.8,3.11s-1.43,4.17-3.4,5.43c-3.41,2.19-7.28,2.07-11.07,1.84-2.06-.13-3,.43-3.3,2.5a15.8,15.8,0,0,1-2.36,5.5,39.51,39.51,0,0,1,14.87,3.84,3.81,3.81,0,0,0,3.63.12c.34-.18.77-.2,1.1-.38,2.44-1.36,6.53.49,7.62-2.66.86-2.52.73-5.55,1.46-8.29.28-1.07-.35-1.59-.93-2.26-1.64-1.92-3.29-3.85-4.81-5.87a7.45,7.45,0,0,1-1.15-2.64c-.43-1.63-.65-3.55.58-4.71s3.06-.19,4.62.37c2.79,1,5.08,2.83,7.61,4.27,2.22,1.26,2.69,3.49,2.91,5.74.5,5.33-.23,10.7.34,16,.19,1.74-1.53,2.6-2.42,4.05,4.94,0,8.85-1.6,11.89-5.53,2.87-3.71,9.23-4.35,13-1.72,1.44,1,2,2.07.85,3.64-1.69,2.43-3.47,4.69-6.33,5.87-2.25.93-4.45,2-6.62,3.08a53.09,53.09,0,0,1-6.36,2.8c2.75.51,5.14.62,7.73-1.32,4.48-3.35,9.9-3.74,15.36-3.11A4.86,4.86,0,0,1,556,524c1.61,1.94,1.25,3.92-1,5-4.57,2.19-9.51,3.37-14.26,5.07-5.67,2-11.36.84-17.5,1.06,2.42,1.58,4.91,1.89,7.08,2.9,5.15,2.4,10,.55,14.94-.62,3.56-.85,6.55.13,9.38,2,1.82,1.19,1.8,2.7.06,4a7.66,7.66,0,0,1-3.05,1.67c-6.52,1-13,2.41-19.6,2.49-4.86,0-9.74-1.69-14.61-2.68-7.56-1.55-15.21-2.45-22.87-3.26-5.2-.55-10.29.76-15.42,1.32a20.62,20.62,0,0,1-9.53-.84,4.55,4.55,0,0,0-4.12.42C454.78,548.34,444,554,433.3,559.81c-7.72,4.21-14.72,9.55-22,14.41-6.17,4.12-12.54,7.88-19.86,9.7a27.51,27.51,0,0,1-8.44.45,7.12,7.12,0,0,1-4.81-2.35c-11.45-11.47-18.19-25.72-23.3-40.7-6.2-18.19-14.39-35.59-20.72-53.81-2.51,13.37-1.74,26.91-2.15,40.56l10.79-14.16c1,2.33,2,4.26,2.76,6.27,2.83,7.43,5.52,14.9,8.41,22.3a2.11,2.11,0,0,1-.75,2.93,126.44,126.44,0,0,1-22.69,14.92c-.27.13-.54.38-.79.36-4-.36-4,2.7-4.68,5.26a6.56,6.56,0,0,0-.43,1.69c0,1.66-2,3.54-.37,4.83,2.32,1.85,4.57,3.83,8.34,2.87,9.64-2.45,19.28-4.87,28.63-8.28,1.7-.62,2.58-.41,3.39,1.26a47.35,47.35,0,0,0,9.65,13.55,185,185,0,0,1-30.53,4.22c3.17,2.28,5.75,4.14,8.34,6C370.38,605.19,389.58,617,408,630c5.51,3.88,11.58,6.84,17.58,9.88,7.51,3.8,11.93,9.82,12.92,18.26a26.75,26.75,0,0,1-2.43,14,32.14,32.14,0,0,1-3.49,6.39c-6.06,8.15-11.37,16.77-16.75,25.37a24.91,24.91,0,0,1-28.75,10.1c-13.93-4.7-27.91-9.46-41-16.22-17-8.78-34.87-13.69-53.7-16.18a197.27,197.27,0,0,0-26.24-1.77c-4.09,0-8.21.27-12.26-.52a8.76,8.76,0,0,0-7,1.66A45.8,45.8,0,0,1,221,688.77c-13.4.11-26.15,3.72-38.85,7.72-11.88,3.75-23.84,7.36-36.17,9.43a54.36,54.36,0,0,1-31.76-4c-9.53-4.25-14.63-12.05-16.16-21.87-3.2-20.45,1.54-38.13,19.47-50.65,14.3-10,29.74-17.8,45.74-24.6,16.23-6.9,32.23-14.28,47.78-22.61,1.2-.64,2.3-1.47,3.51-2.09s1.36-1.5.88-2.84a12.59,12.59,0,0,1,1.56-12c.84-1.22,1.85-2.57,3.27-2.8,3.74-.63,3.39-2.88,2.68-5.57q-1.55-5.93-2.88-11.91c-.61-2.74-.11-5.31,2.17-7.16,1.21-1,1.16-1.78.43-2.95-3.39-5.42-3.24-11.17-1.92-17.21,1.61-7.36-.38-14.51-2.22-21.69-2,5.66-3.78,11.36-5.91,16.95-4.34,11.4-6.44,23.47-10.5,35-3,8.36-4.53,17.12-7.86,25.38-2.91,7.21-7,10.51-17.29,9-7.46-1.1-14.13-4.27-20.58-8C138,563.76,119.57,553.12,101.48,542a85.11,85.11,0,0,1-20.3-17c-2.21-2.58-5.64-3.1-8.79-3.13-6.9-.06-12.79-1.69-18-6.74-7.81-7.54-17.38-12.41-27.73-15.72a10.93,10.93,0,0,1-2.37-1.12c-1.27-.77-2.62-1.65-2.15-3.42a3.84,3.84,0,0,1,3.84-3c2-.13,4,.84,6.35.35a27.46,27.46,0,0,1-5.46-10,11.6,11.6,0,0,1-.54-3.44c0-1.26-.1-2.62,1.28-3.34,1.54-.8,2.85-.1,4.06.78a8.37,8.37,0,0,1,3,3.57c1.47,3.81,4.61,5.85,8.21,8-.51-3.09-.66-6-1.51-8.68-1.54-4.82-.62-9.66-.59-14.48,0-1.93,1-3.64,3.27-3.85s3.44,1,4.23,2.9a18.56,18.56,0,0,1,.93,10.65c-1,5.13,1.71,9.11,3.24,13.54a93.94,93.94,0,0,1,.89-14.34c.58-3.66,1.92-5.15,5.71-5.13,3.22,0,6.41-.64,9.64-.15,1.73.26,3.35.78,4,2.54s-.52,3.17-1.8,4.31c-2.21,2-4.55,3.75-7.57,4.16-1,.14-1.23.42-1.21,1.43,0,3.12.49,5.27,3.89,7.22,5.54,3.17,12.19,4.09,16.9,9,1.14-4.78-.24-8.51-3.79-11-4.14-2.9-5.86-7.91-4.1-12,.84-1.93,1.85-3.21,4.07-1.45,3,2.35,6.87,4.06,8.8,7.06A40.83,40.83,0,0,1,93.35,492c1.17,4.83.43,9.71.6,14.57.06,1.79.49,2.43,2.23,2.91a356.08,356.08,0,0,0,40.87,8.56c11.35,1.77,22.8,2.9,33.94,5.84,1.32.35,2,.13,2.44-1.48a380,380,0,0,0,10.29-54.2c1.09-10,2.21-19.92,4.76-29.68,2.42-9.26,8-14.52,17.5-16s18.93-3.54,27.82-7.43c1.6-.7,3.14-1.51,4.73-2.23,1.15-.52,2-1,1.45-2.6-.72-2.15,1.3-2.78,2.5-3.78.85-.72,1.87-1,1.41-2.66-.56-2.06,1.42-3,2.86-2.78,4.38.53,5-2.32,5.09-5.39.08-2.56.92-2.31,3-1.83,3.92.93,7.7,2.8,12.15,2.38-4.25-1.34-8.29-2.49-12.25-3.88-7.29-2.56-11.89-8.37-16.3-14.19-9-11.85-13.22-25.71-16.39-40-.45-2-.71-3.44-3.45-3.44s-5.39-1.59-7.51-3.56c-2.39-2.21-2.69-4.89-.93-7.64a12.45,12.45,0,0,1,16.34-3.87c4.12,2.47,4.94,5.32,3.23,11.41a26.91,26.91,0,0,0,13.19.34,33.94,33.94,0,0,1-6.71-4.5c-2.93-2.58-5.45-5.38-4.61-9.77.27-1.4-.53-2.13-1.78-2.59a7.27,7.27,0,0,1-4-4,4.21,4.21,0,0,1,.59-5.09c2.54-2.9,2-4.43-1.39-5.89-2.94-1.25-5.46-3.08-6.76-6.14-1.19-2.77-.37-4.05,2.6-4.17,2.54-.11,5.07-.18,7.37-2a10.6,10.6,0,0,1-2.61-3.38c-.94-2.4-.57-4.38,1.69-5.84.66-.42,1.33-.83,1.94-1.31,1.72-1.34,2.17-2.52,0-4.08A14.08,14.08,0,0,1,224,265.4c-.47-1.47-.78-3.15.45-4.44s2.38,0,3.51.29c5.2,1.38,9.59-.57,13.7-3.36,1.7-1.17,1.59-2.58-.23-4a9.31,9.31,0,0,1-4.11-7.41c0-2.57.8-3.08,3.22-2.25,1.65.57,3.34,1.06,5,1.48,1.19.29,1.92-.06,1.49-1.5a3.26,3.26,0,0,1-.18-1.15c.11-1.16-.15-2.77.51-3.39,4.64-4.45,1.78-11.5,5.76-16.11a5.31,5.31,0,0,0,1.33-1.89c1.07-4.23,3.56-6.62,8.07-6.52,1.15,0,1.13-.57,1.17-1.46.28-6.07,2.8-9.21,8.79-10.61,2.07-.48,3.3-.86,3.37-3.52.09-3.78,3.13-6.7,7.55-7.31,3.33-.46,6.2-1,7.12-5-2.54-1.21-5.63-1.2-8.63-1.55a8.18,8.18,0,0,1-7.11-11,18.94,18.94,0,0,1,3.48-6c1.73-2.14,4.14-2.39,6.66-1.76,1.12.27,2.19.72,3.56,1.18-.49-3.86-2-7.26-2.4-10.92-.5-4.72,1.1-8.54,4.59-10.15a9.92,9.92,0,0,1,12,2.42c1.12,1.32,2,1.51,3.4.84a11.39,11.39,0,0,1,8-.87c6.61,1.78,9.4,8.42,6.42,15.5a33.81,33.81,0,0,1-5.29,9.07,14,14,0,0,1,8.25,16.86c-.73,2.43-4.92,4.63-8.28,4.32a14.28,14.28,0,0,1-4.71-1.47c-.38-.5-1-.25-1.47-.45-.05.39.2.68.33,1,1.22,3.57,2.66,7,5.36,9.78a5.73,5.73,0,0,1,1.25,4.69c-.3,2.26.73,3.09,2.68,3.66,4.51,1.32,7.8,3.95,8.65,8.88a11.53,11.53,0,0,1,.19,2,9.9,9.9,0,0,0,3.51,8c2.32,2.24,3.55,4.9,2.57,8.16a3.59,3.59,0,0,0,.62,3.53c1.05,1.34,2,3,1.59,4.57-1.08,4.17.8,8.36-.42,12.48-.39,1.31.93,1.64,1.7,2,3.92,1.63,8,2.77,12.15,1.16,2.61-1,2.93.31,2.92,2.26a10.94,10.94,0,0,1-3.11,7.38c-2.22,2.4-1.07,4,.77,5.57a7.49,7.49,0,0,0,5.1,1.89c2.4,0,2.77,1.42,2.53,3.28a8.87,8.87,0,0,1-3.16,5.45c-1.28,1.15-1.08,2.08,0,3.2,2.54,2.75,5.76,3.81,9.4,4.05,4.19.27,5,1.86,2.78,5.56a15,15,0,0,1-6.34,6.3c-2.23,1.05-1.67,2.2-.61,3.59,1.84,2.41,4.51,3.23,7.33,3.83,1.25.27,3.06,0,3.35,1.73s-1.06,2.65-2.22,3.54a19.09,19.09,0,0,1-7.17,3.16,2.49,2.49,0,0,0-2.08,3.22c.58,3.45,2.17,6.19,5.44,7.82,2.52,1.25,2.62,2.25.25,3.86a16.66,16.66,0,0,1-11.43,2.61c-2.19-.23-2.11.7-1.73,2.08a12.63,12.63,0,0,0,1.16,2.67c1.38,2.51,1,3.64-1.75,4.42a6.22,6.22,0,0,1-4,.14c-2.26-.87-3.19.27-3.76,2.27-1,3.62-2.43,4.31-5.33,2.12-2.18-1.65-2.36-.39-2.91,1.2-2,6-.64,12-.34,18,.23,4.57.79,9.12.93,13.69a12.58,12.58,0,0,1-4,9.43c-3.79,3.81-7.78,3.37-10.67-1.13a20.06,20.06,0,0,1-2.7-8.53c-.71-5.48.29-10.78,1.52-16.06.16-2.73,1.38-5.22,1.5-7.54C320.29,366.14,320.39,368.69,318.73,370.61Z" transform="translate(-22.03 -146.06)"/><path class="cls-1" d="M384,510.79c-5.28-13.22-8.63-26.89-11.91-40.58a5.56,5.56,0,0,1,.36-3.13c4-12.07,5.32-24.57,5.79-37.18.68-18.23.67-36.52,3.08-54.63,2.86-21.51,7.87-42.49,20.31-60.76,10.09-14.81,22.15-27.84,38.28-36.29,13.82-7.25,28.66-10.14,44.3-9.9,24.42.38,47.53,6.78,70.41,14.45,1.94.65,5.08.26,5.5,2.44.39,2-2.72,2.54-4.17,3.87-14.59,13.37-26.11,29-35.87,46.24-16.51,29.12-25.41,60.67-30.9,93.35-4.33,25.82-12.08,50.6-21.88,74.79-1.61,4-3.86,7.65-5.71,11.52a9,9,0,0,1-5.1,4.42c-9.15,3.85-18.78,5.57-28.53,6.89l-15.68,2.16a172.62,172.62,0,0,0,8.73-22.93c6.45-22.09,11.49-44.53,15.85-67.1,3.72-19.26,7.91-38.33,15.22-56.62,7.74-19.36,20.38-35.09,35.31-49.28,11.55-11,24.94-19.33,38.36-27.65,8.62-5.36,16.87-11.23,25.1-17.15.37-.27.69-.59,1.44-1.24a176.06,176.06,0,0,0-23.15.68c-30.92,2.91-57.6,15.78-80.4,36.28-16.13,14.5-25.68,33.37-31,54.33-3.9,15.24-5.72,30.82-7.68,46.39-2.54,20.31-5.55,40.54-12.29,60-3.18,9.18-7.85,17.59-13,25.79A5.45,5.45,0,0,1,384,510.79Z" transform="translate(-22.03 -146.06)"/><path class="cls-2" d="M318.73,370.61c.61-2.38,1.22-4.76,2-7.82.76,3.71-.4,6.35-1.44,9Z" transform="translate(-22.03 -146.06)"/><path class="cls-3" d="M309.31,194.31,306.68,192a5.28,5.28,0,0,1,3.77,1.79C310,193.88,309.49,193.71,309.31,194.31Z" transform="translate(-22.03 -146.06)"/><path class="cls-4" d="M310.67,645.05a41.15,41.15,0,0,0-22.58,11.38,9.58,9.58,0,0,1-7,3.14,38.66,38.66,0,0,0-22.83,8.74c-3,2.44-5.92,5.14-9.2,7.22-4.1,2.6-8.08,5.57-12.83,7a55,55,0,0,1-15,2.12c-14.42.1-28.07,4.09-41.71,8.26-11.36,3.48-22.73,7-34.5,8.89-10.59,1.7-20.78.6-30.46-4.32a21.15,21.15,0,0,1-9.86-10.37c-6.69-14.41-3.3-40.17,11.85-51.56a237.34,237.34,0,0,1,49.58-28.94c17.1-7.29,34.06-15,49.88-24.87.61-.38,1.07-1.05,2-.49,5.69,3.2,11.81,2.87,17.6,1a40.13,40.13,0,0,1,26.37.31,16.12,16.12,0,0,0,12-.21,2.59,2.59,0,0,1,2.9.46c4.91,3.51,10.06,3.71,15.45,1.21a41.06,41.06,0,0,1,15.82-3.76c3.44-.14,6.72-1.16,8.83-4.37.69-1.06,5.82-1.3,7.06-.43,10,7,19.94,14.21,30,21.11,18.37,12.54,36.82,24.94,55.27,37.36,5.51,3.72,11.73,6.17,17.38,9.64,7.66,4.7,10.93,12.62,9.21,21.35a31.69,31.69,0,0,1-5.86,13.24,279.32,279.32,0,0,0-15.63,23.65,23.31,23.31,0,0,1-27,9.84c-13.38-4.15-25.83-10.51-38.19-16.85A172.9,172.9,0,0,0,293,677.3c-11.76-1.59-23.43-2.68-35.26-1.73-.94.08-1.89,0-3.12,0,7.39-7.43,15.86-12.11,26.57-13.29-2.17,2.83-5.35,4-7.53,6.22.72,1.19,1.26.28,1.74,0A95.41,95.41,0,0,0,291,657.71c7.95-6.49,17.28-8.7,27.14-9.5,8.93-.72,17.67,1.26,26.49,2a19.62,19.62,0,0,0,4.27,0,57.68,57.68,0,0,0-17.24-5.64,65.9,65.9,0,0,0-16.06-.39c-1,.09-1.65.3-1.66-1.11s-1.26-2.14-2.25-2.91c-8.29-6.49-16.56-13-25-19.39-1.77-1.34-1.89-2.4-1.08-4.32,3.1-7.34,9-11.87,15.53-15.75,1.17-.69,2.4-1.28,3.56-2,.52-.33,1.34-.71.79-1.58-.39-.61-.95-.43-1.54-.15-8.5,4-16.46,8.75-20.3,18-1,2.43-1.78,2.12-3.58.88-6.61-4.59-13.67-8.22-21.73-9.56-.8-.13-2-.83-2.25.19s1,1.09,1.85,1.3A57.82,57.82,0,0,1,281,619.9c-16.31-2.6-32.42-6-48.08-11.37,14.39,8.31,30.49,11.2,46.44,14.66a16,16,0,0,1-16.5,8.12,4.26,4.26,0,0,1-1.34-.53c-8.39-4.67-17.56-6.29-27-6.68-13.85-.56-27.71-.7-41.53-1.71-4-.29-7.92-1-11.87-1.48-.65-.08-1.29-.41-2.07.33,1.87,1.64,4.21,1.37,6.25,1.69,16.68,2.6,33.51,3.75,50.35,4.7A71.75,71.75,0,0,1,256,632l-10,.82a378.32,378.32,0,0,0-39.72,5.11,234.18,234.18,0,0,1-51,3.69c-2.62-.09-5.23-.56-7.84-.84-.72-.08-1.76-.64-2,.35s.9,1,1.6,1.18a112.05,112.05,0,0,0,26.9,3.22c13.47,0,26.55-2.78,39.78-4.52,17.78-2.34,35.42-5.78,53.35-6.94,5.31-.34,9-3.38,12.36-7s6.69-3.82,10.46-.51C296.77,632.54,303.07,639.08,310.67,645.05Z" transform="translate(-22.03 -146.06)"/><path class="cls-4" d="M307.67,429.45c-2.37,6.31-4.12,12.8-9.44,17.77a248.22,248.22,0,0,1-21.87,18c-7.21,5.34-14.32,10.81-21.41,16.29-5.11,3.94-7.9,9.76-11.42,15.05,1.11-1.21,2.29-2.37,3.32-3.65a48.78,48.78,0,0,1,10.46-9.72c13.18-9,26.65-17.69,39-28.72-4.05,20.1-16.92,34.41-28.87,49.16.69.79,1.09.43,1.41.1,9.35-9.7,18.46-19.58,24.77-31.67,2.1-4,3.27-8.34,4.65-12.59a119.43,119.43,0,0,1,7.08-16.34,101.72,101.72,0,0,0,7-18.54,7,7,0,0,0,.28-4c-.52-1.89,6.89-10.32,8.84-10.23,2.52.11,6.83,5.09,6.82,7.82,0,3.57-1.72,6.69-2.55,10.08a21.84,21.84,0,0,0,3.85-8.19c.47-2.27,1.34-2.11,2.9-1.38a13.66,13.66,0,0,0,2.44.94c6,1.52,7.36,4.85,6.23,11.43-.94,5.49-3.82,10.15-7.48,14.3-3.06,3.47-6.21,6.86-9.23,10.37,12-9.46,19.87-20.28,18-31.66,1-.41,1.89.2,2.82.29,5.15.54,5.73,1.31,4.69,6.48a22.13,22.13,0,0,1-1.45,4.73c-6.87,15.09-11.62,30.92-15.53,47-2.16,8.86-2.19,18.14-2.69,27.29-.9,16.23-1,32.56-5.22,48.43-1.05,3.94-2.31,7.83-3.41,11.76-.48,1.67-1.34,2.79-3.09,2.86-.24-12.07.12-24.12,2.34-36.08-1.79,3.51-2.16,7.35-2.83,11.08-1.25,6.93-1.39,14-1.86,21-.42,6.37-2.5,8.68-8.84,8.9a47.06,47.06,0,0,0-16.09,3.86c-4.52,1.81-9.16,2.82-13.72-.77a93.32,93.32,0,0,0,8.19-7,76.81,76.81,0,0,0,20.71-33.41c4.61-15.09,10.46-29.7,16.56-44.23A9.45,9.45,0,0,0,324,492c-2.15,4.19-4.44,8.31-6.42,12.57-5.54,11.94-9.47,24.48-13.55,37a75.65,75.65,0,0,1-24.48,35.32c-4.85,4-10.29,5.91-16.55,3.41-9.81-3.92-19.66-2.91-29.56-.37a23.64,23.64,0,0,1-8.43.5c-4.88-.5-6.26-1.74-6.87-6.31-.56-4.15,1.47-7.82,5.18-9.11,5.43-1.88,11-3.43,16.28-5.64A75.72,75.72,0,0,0,276,528.1a137.5,137.5,0,0,1,11.71-16,19.77,19.77,0,0,0,3.24-5.53c-1.72,2-3.34,4.18-5.2,6.08a120.12,120.12,0,0,0-12,15,78.34,78.34,0,0,1-35.55,28.46c-3.88,1.55-7.83,2.93-12,4.47-.28-5-2.41-9.25-3.5-13.77-1.28-5.31-.22-7.66,4.77-9.71a33.48,33.48,0,0,0,13-9.69c5.21-6.21,10-12.69,13.25-20.22a27.41,27.41,0,0,1,5.49-8.22c.42-.45,1.19-.8.7-2a25.55,25.55,0,0,0-7.77,8.81,163.41,163.41,0,0,1-12.37,17.73,42.28,42.28,0,0,1-13.11,11c-1,.55-1.21.33-1.74-.45-3.24-4.83-3.07-10.12-2.28-15.53.12-.81.51-.72,1.19-.7,8.64.33,19-4.89,23.86-12.07a70.11,70.11,0,0,0-7.9,4.7c-4,2.44-8,4.88-12.81,5.37-2.13.21-3.19-.17-3.06-2.73a52.81,52.81,0,0,0-2.1-15.89c-.73-2.78-2.91-4.84-3.71-7.73a9.91,9.91,0,0,1,2.25-9.74c3.91-4.67,9.21-7.12,14.78-9,12.6-4.35,25.26-8.56,37.87-12.91,3-1.05,5.95-2.41,8.92-3.64,9.23-3.8,15.66-10.71,20.95-18.89,1.34-2.07,2.67-4.15,4-6.23Z" transform="translate(-22.03 -146.06)"/><path class="cls-4" d="M338.59,304.42a2.49,2.49,0,0,0-2.55-1.56c-2.48.09-5.49,3.73-6,7.17a5.55,5.55,0,0,0,3.62,6c7.33,3.07,13.32-.7,13.88-8.83,2.3,1.05,4.53,2.46,7.18,1.67.73-.22.81.07.91.61,1,5.31,4.82,7.42,9.56,8.54a11,11,0,0,1,1.49.6c-2.14,1.91-4.69,2.61-7.19,3.24a4,4,0,0,0-3.36,4.41c0,4.67,2.2,8.16,6.38,10.83a30.71,30.71,0,0,1-8.93,1.27c-4.37,0-5.89,2.28-4.58,6.59.27.9,1.69,1.78.64,2.77s-2.24.35-3.34,0c-2.64-.93-4.33.33-5.54,2.46a25.7,25.7,0,0,0-1.31,3.21c-3.24-1.57-3.33-1.73-1.48-4.62,2.41-3.77,5-7.43,7.37-11.24,2.23-3.6,4-7.36,2.77-11.85-1-3.7-2.91-6.68-6.82-7.63s-6.93.67-9.34,3.52c-2.13,2.53-4.06,5.24-6,7.91a25.72,25.72,0,0,1-9.28,8.27c-.57-.56,0-.91.21-1.23,5.94-7.33,6.6-16.18,7.17-25,0-.53.28-1.33-.48-1.49s-1.08.7-1.26,1.29a21.1,21.1,0,0,1-8.08,11.5c2.84-5,4.56-9.71,4.76-14.85.18-4.72-.54-9.27-3.58-13-6-7.25-12.86-7.61-21.89-2-6.49,4-11,10.18-14.66,16.83-4.07,7.32-8.22,14.57-13.58,21.11-7,8.54-16,10.5-26.27,8.89-3.91-.62-8-1.21-11.09-4.06-.61-.55-1.86-.94-1.42-1.91s1.67-.77,2.62-.49a29.92,29.92,0,0,0,10.13,1.06c7.08-.41,12.8-3.22,16.41-9.57,2.17-3.81,4.28-7.65,6.41-11.47,2.71-4.85,5.33-9.75,8.87-14.07.35-.44.92-.88.65-1.51s-1-.37-1.53-.34c-4.14.23-8.11-.76-12.13-1.51A25.09,25.09,0,0,0,248,296c-3.75.8-4.85,2.31-5,6.07a14.84,14.84,0,0,0,2.14,7.73c-2.58.21-4.3-1.08-5.91-2.52-1.37-1.21-2-.79-2.29.82-.59,3,.06,5.82.66,8.68s1.39,5.83,2.26,9.45c-3.27-2.67-6-4.73-5.46-8.94a4,4,0,0,0-2.73-4.62,6.58,6.58,0,0,1-3.05-2.65c-.6-.94-.95-1.81.05-2.86a6.65,6.65,0,0,0,1.61-6c-.33-1.72.38-1.83,1.76-2,3.88-.56,7.6-1.66,10.71-4.24a8.76,8.76,0,0,0,3.24-6,4.23,4.23,0,0,0-4.16-4.91,5.08,5.08,0,0,0-5,4.72c0,2.59,2.06,3.5,5,1.93-1.32-.55-3.59.45-3.33-2a3.15,3.15,0,0,1,2.55-2.85c1.95-.48,3.26.13,3.39,2.39A6.2,6.2,0,0,1,242.3,293c-4.77,4.67-14.19,5.65-19.82,2a5.71,5.71,0,0,1-1.34-1.1c-.49-.59-1.17-1.26-.8-2.07s1.21-.35,1.84-.39a12.37,12.37,0,0,0,11.29-7.91c.21-.48.34-.91-.12-1.33-.91-.2-1,.69-1.46,1.1-.72.64-1,2.2-2.27,1.73a3.66,3.66,0,0,1-2.08-2.69c-.36-1.51,1.19-1.27,1.89-1.74,1.31-.89,2.81-1.73,3.23-3.26.69-2.5,2.17-2,3.94-1.58,4.73,1.23,9.44,1.34,14-.74a8.92,8.92,0,0,0,4.83-4.84c1.07-2.64,1.09-5.24-.91-7.4a7.13,7.13,0,0,0-7.49-2.09,7.34,7.34,0,0,0-5.51,5.86,4.09,4.09,0,0,0,2,4.27,4.46,4.46,0,0,0,4.7.35c.67-.33,1.23-.91.92-1.6s-1-.26-1.49,0a2.64,2.64,0,0,1-3.62-.83c-1-1.42-.52-2.75.44-4a5.72,5.72,0,0,1,7.82-1.25c2.17,1.59,2.3,4.65.23,7.27-1.84,2.32-4.48,3-7.23,3.36-6.75.82-12.49-1.14-16.92-6.45a6.56,6.56,0,0,1-1.7-3.71c4,1.44,7.81.91,11.55-.56a15.59,15.59,0,0,0,5.84-3.8c2.62-2.78,2.4-5.21-.58-7.63-2.09-1.7-2.64-2.58-3.09-5.11,3.52,1.13,7,1.9,10.61.77,2.75-.86,5.09-2.09,5.2-5.46,0-1.31.59-1.49,1.64-.82a40,40,0,0,0,9.07,4c4,1.32,7.54,8.32,6.58,12.34a4.74,4.74,0,0,1-1.48,2.46c-3.16,2.81-10.93,1.48-13.05-2.22a3.33,3.33,0,0,1,.67-4.48c1.42-1.33,2.9-2.7,5.14-1.95.68.23,1.26.55,1.2,1.42-.05.61-.05,1.29.83,1.08a1.41,1.41,0,0,0,1-1.33c.25-1.66-1.72-3.27-4-3.29a7.3,7.3,0,0,0-6.4,4.79c-.84,2.73.26,5.31,2.89,7a13,13,0,0,0,9.58,1.56c3.55-.63,5.46-3.93,4.75-7.49a16.12,16.12,0,0,0-5.68-9.94c7.88-2,10.56-7.72,10.82-14.91.18-5.21-3.54-7.71-8.35-5.85-3.7,1.43-4.56,5.42-1.78,8.29.65.68,1.4,1.26,2.28.64s.55-1.52-.15-2.2c-1-1-1.67-2.14-.83-3.37,1.07-1.57,2.81-2,4.66-1.91,1.57.07,2.19,1.18,2.56,2.43,1.36,4.57-1.92,11.45-6.24,13.47a7.29,7.29,0,0,1-5.92.29,44.94,44.94,0,0,1-7.57-3.78c-2.9-1.78-4.57-.92-4.83,2.51-.13,1.62.25,4.13-1.85,3.75-1.65-.3-.83-2.84-.44-4.4a7.67,7.67,0,0,1,1.13-2.66c1.46-2.07,2.35-4.18,1.74-6.83a6.42,6.42,0,0,1,.66-3.7c.87-2.15,2-4.18,2.45-6.52a6.33,6.33,0,0,1,1.28-2.26c1.31-1.83,3.66-2.57,5.13-1.6a4.53,4.53,0,0,1,1.64,5.56,6.75,6.75,0,0,0-.48,1.37c-.15.82-.57,1.9.58,2.21s1.18-.75,1.4-1.49c.78-2.58,2.76-3.89,5.08-4.84.64-.26,1.38-.47,1.14-1.37-.15-.58-.83-.29-1.23-.47-1-.43-2.21,1.56-3-.37-.93-2.41-1.86-4.94-.29-7.29,1.69-2.52,4.4-3.75,7.23-4.68,1.43-.48,1.36.8,1.71,1.42a13.87,13.87,0,0,0,9.17,6.72,7.24,7.24,0,0,0,8-4.1,5.35,5.35,0,0,0-1.91-6.94,4,4,0,0,0-3-.89,1.34,1.34,0,0,0-1.17,1.15.92.92,0,0,0,1,1.16c2.1,0,3.39,1,3.31,3.17-.06,1.63-3,3.57-4.91,3.46-4.46-.28-9.83-6.39-9.49-10.81.25-3.34,5.59-7,8.85-6.07,1.14.31.83,1.15.91,1.86.11.91.52,1.52,1.48,1.4s1-.8,1-1.55a2.81,2.81,0,0,1,0-.29c-.1-2.46.24-4.81,2.81-5.88,2.28-1,5.59.41,7.41,2.88.67.92.8,1.35,2.32.68,2.47-1.1,6.17,2.61,6,6A4.82,4.82,0,0,0,311,203a6.64,6.64,0,0,1,2.21,7.15c-.76,2.81.62,4,2.87,4.82a42,42,0,0,1,4.07,1.61c4.07,2,4.9,5.18,2.45,8.95-2.66,4.07-7.76,5.64-11.42,3.54-1.17-.67-2.1-1.47-2-3a5.77,5.77,0,0,1,2.26-3.94,1.21,1.21,0,0,1,1.62.1c.78.7.15,1.18-.31,1.68S311,225,311.91,226s1.8,0,2.4-.71c.9-1,1.92-2.12,1.05-3.63a3.62,3.62,0,0,0-3.75-1.73c-2.65.22-4.92,2.51-5.59,5.62a6.86,6.86,0,0,0,3.61,7.08,10.3,10.3,0,0,0,11.36-.69c2.78-2,4.63-.76,6.73.59,2.28,1.46,3.94,3.48,3.12,6.33a6,6,0,0,0,.8,5c1.26,2.27,2,4.6,1.19,7.26-.52,1.63-1.09,2.27-2.9,1.48a8.11,8.11,0,0,1-4.54-4.27c-.94-2.16-2.24-2.91-4.84-2.22-3.51.92-7-.29-10.29-1.72,2.7,2.41,6,2.83,9.35,2.65,2.42-.13,4,.28,3.88,3.21a4.25,4.25,0,0,0,2.57,3.68,25.33,25.33,0,0,0,5.05,2.26c2.06.58,3.25,1.37,2.75,3.79-.39,1.92,1.11,2.81,2.58,3.4,3.84,1.54,7.86,2.47,12,1.66,2.16-.43,1.79.37,1.52,1.74-.48,2.42-2,3.81-4.07,4.94-5.55,3-12.79,2.48-16.71-1.2a2.6,2.6,0,0,1-.43-3.84,3.37,3.37,0,0,1,4.13-1.29,1.41,1.41,0,0,1,.87,2.12c-.22.47-.84,1.06.15,1.3.62.15,1-.27,1.29-.9a3,3,0,0,0-2.38-3.94,4.86,4.86,0,0,0-5.66,2.56c-1.46,2.53-1.12,5.09,1,6.88,4.28,3.61,9.27,3.73,14.39,2.59,1.87-.41,2.88-.55,3.8,1.66,1.18,2.83,3.83,4.33,6.95,4.71,1.84.22,2,1,1.2,2.55-2.64,5.3-11.65,7.59-16.36,4-1-.75-2.14-1.69-1.64-3.13a3.7,3.7,0,0,1,3.08-2.4,1.43,1.43,0,0,1,1.57.52c.44.72-.25,1-.61,1.4-.53.57-1.85,1-.91,1.95s1.8,0,2.54-.65a3.06,3.06,0,0,0,1.15-3.12c-.37-1.44-1.57-1.89-2.88-2.08-2.22-.32-5.27,1.45-5.83,3.53-.68,2.51.44,4.43,2.55,5.67,3.8,2.23,7.86,2,11.85.66,1.3-.43,1.75-.47,2.48.9,2.24,4.14,6.23,5.65,10.62,6.34.86.14,1.75.15,2.62.22-1.08,5.11-9.05,10.13-13.64,8.64a6.44,6.44,0,0,1-4.73-5.38,3.35,3.35,0,0,1,2.61-4c1.68-.5,4.63,1.18,5.05,2.7.14.52.14,1-.36,1.27a2,2,0,0,1-2.45-.23c-.56-.56-1.14-1.4-1.85-.46s-.12,1.91.74,2.49a4,4,0,0,0,5.35-.51c1.47-1.45,1.12-3.21-.13-4.73-2.18-2.63-5.18-3.54-7.48-2.31-2.77,1.47-3.56,4.11-2.31,7.83a13,13,0,0,1,.68,5.74,5.64,5.64,0,0,1-4.57,5.06c-3.47.87-8.06-.36-9.1-2.49-1.17-2.42,0-4.6,1.39-6.49,1-1.36,2.45-2.34,4.24-.92,2.05,2.3.64,4.22-.46,5.94C339.42,309.14,339.44,306.86,338.59,304.42Z" transform="translate(-22.03 -146.06)"/><path class="cls-4" d="M249.67,409.86c-.11-2.25-2-3.05-2.82-4.54-.64-1.14-.89-1.93.87-2.1a14,14,0,0,1,6.28.58c12.69,4.48,25.6,5.62,38.72,2a23.34,23.34,0,0,0,6.55-3.12c2.72-1.81,6.84.32,7.08,4,1.35-1.54,2.44-1.35,3.56.13s1.6,2.85.07,4.35c-6.3,6.17-13.19,11.19-22.36,12.1a85.66,85.66,0,0,1-31.84-2.33c-5.07-1.41-9.55-3.88-12.77-8.22-1.26-1.68-1.67-3.19.65-4.51,1.24-.71,2-.83,2.92.35A3.73,3.73,0,0,0,249.67,409.86Z" transform="translate(-22.03 -146.06)"/><path class="cls-5" d="M252.87,362.23c4.81,1.7,9.27,3.31,14,3.51a54.23,54.23,0,0,0,13.88-1.7,10.47,10.47,0,0,0,5.29-3,11.65,11.65,0,0,1,4.07-2.79c.9-.35,1.83-.79,2.73,0a2.69,2.69,0,0,1,.57,2.73,11.08,11.08,0,0,1-6.56,7.77C275.14,374.39,263.38,372.21,252.87,362.23Z" transform="translate(-22.03 -146.06)"/><path class="cls-5" d="M313.47,314.66c-4.08-1.7-8.2-3.32-12.24-5.14a3.71,3.71,0,0,0-4.19.34c-2.44,1.68-4.31,3.93-6.53,5.81-1.39,1.19-2.8,2.76-4.85,1.47-1.83-1.14-2.74-5.21-1.8-7.11a6.82,6.82,0,0,1,2.26-2.62c.48-.33,1-.56,1.52-.85,5.48-3.17,10.7-4.91,16.5-.06C307.27,309.11,311.35,310.61,313.47,314.66Z" transform="translate(-22.03 -146.06)"/><path class="cls-6" d="M308.54,169.8c-3.56-7.77-7.18-9.19-12.79-4.84-1.24-2.62-2.59-5.16-2.77-8.06s1.25-3.8,3.86-2.78a9.63,9.63,0,0,1,4.65,4.28c1.12,1.88,2,2.57,3.37.18,1.07-1.9,3-2.74,5-3.26a3.58,3.58,0,0,1,4.48,4.08A15.72,15.72,0,0,1,308.54,169.8Z" transform="translate(-22.03 -146.06)"/><path class="cls-7" d="M295.76,175.35a17,17,0,0,1,.87-6.31c.58-2.21,1.84-4,4.29-4.15s3.56,1.51,4.44,3.53c1.32,3,.87,5.86-.24,8.72a18,18,0,0,1-1.78,3.32c-1.14,1.73-2.06,4.51-4.53,3.71-1.92-.62-2.53-3.21-2.82-5.34C295.83,177.68,295.83,176.51,295.76,175.35Z" transform="translate(-22.03 -146.06)"/><path class="cls-6" d="M333.46,338.78c-.19-2,.33-3.44-1.29-4.71-1.37-1.08,0-2.51.76-3.57,1.24-1.75,2.85-3.15,5.16-2.56,1.84.48,2.54,2.09,2.48,3.87-.07,2.24-1.37,4-2.52,5.82a12.32,12.32,0,0,1-1.4,1.87c-.77.79-1.26,2.34-2.68,1.83C332.38,340.75,333.63,339.27,333.46,338.78Z" transform="translate(-22.03 -146.06)"/><path class="cls-8" d="M302.15,324c-3.17,7.77-7.57,8.93-15.41,6.3a5.74,5.74,0,0,1-2.15-1.44c-.84-.87-1.44-2-.55-3.14s2-.66,2.87,0c3.07,2.25,6.51,1.59,9.87,1.41C299.05,327,300.69,325.62,302.15,324Z" transform="translate(-22.03 -146.06)"/><path class="cls-7" d="M246.13,304c5.36-.5,11-2.57,15.32,2.59.7.84,2.25,1.79.75,2.77s-2.62,3.48-4.94,1.45a22.27,22.27,0,0,1-2.5-2.45C252.52,305.62,249.42,304.75,246.13,304Z" transform="translate(-22.03 -146.06)"/><path class="cls-9" d="M304.05,183.56a10.56,10.56,0,0,1,4.69-3.23,5.36,5.36,0,0,1,6.5,2.55,2.69,2.69,0,0,1-.25,3c-.78,1.14-1.8.49-2.6.18C309.8,185.06,307.4,183.57,304.05,183.56Z" transform="translate(-22.03 -146.06)"/><path class="cls-10" d="M292.68,178.83c-3.17-.41-6.34-.81-9.5-1.26-.53-.08-1.25,0-1.45-.73s.32-1.27.84-1.72a4.63,4.63,0,0,1,3.8-1.1C289.39,174.41,290.73,177,292.68,178.83Z" transform="translate(-22.03 -146.06)"/><path class="cls-11" d="M327.79,374.12c-.21,4.59,1.18,8.89,1.94,13.29.51,3-.62,4.94-2.87,5.09-.9.06-1.91-.05-2.19-1-.4-1.38.86-.92,1.49-1.05,1.23-.26,1.46-1.07,1.39-2.17-.1-1.85.15-3.77-.27-5.54C326.57,379.74,327.81,377,327.79,374.12Z" transform="translate(-22.03 -146.06)"/><path class="cls-12" d="M218.67,320.77c1.41.08,3.12.1,3.28,2s-1.65,1.78-2.9,2.09a5.47,5.47,0,0,1-1.15.1c-1.41,0-3-.12-3.19-1.75s1.48-1.95,2.75-2.31A6.48,6.48,0,0,1,218.67,320.77Z" transform="translate(-22.03 -146.06)"/><path class="cls-13" d="M221,474.44c-1.89-6.3-3.22-12.67-5.51-18.76A36.68,36.68,0,0,1,221,474.44Z" transform="translate(-22.03 -146.06)"/><path class="cls-10" d="M253,321.29c-5.79,1.6-12-2.14-11.19-6.63C244,319.35,248.83,319.19,253,321.29Z" transform="translate(-22.03 -146.06)"/><path class="cls-14" d="M302.36,360.62,301,352.55l.88-.16c1.35,2.51,1.52,5.26,1.57,8Z" transform="translate(-22.03 -146.06)"/><path class="cls-13" d="M221.69,325.39c1.33,0,2.07.47,2,1.5-.06,1.19-1.18,1.18-2,1.21s-1.86-.27-1.72-1.46S221,325.38,221.69,325.39Z" transform="translate(-22.03 -146.06)"/><path class="cls-15" d="M338.59,304.42c2,3.3,1,6.06-2.89,7.95,1.93-2.14,4-4.24,2.43-7.43Z" transform="translate(-22.03 -146.06)"/><path class="cls-16" d="M284.21,393.68l7.28-1.46A9.77,9.77,0,0,1,284.21,393.68Z" transform="translate(-22.03 -146.06)"/><path class="cls-17" d="M300.83,189.91l4,1.05C303.53,191.26,302.11,192.12,300.83,189.91Z" transform="translate(-22.03 -146.06)"/><path class="cls-1" d="M355.31,638.41c-5.74.49-9.92-2.47-13.88-6.16-8.05-7.51-16.58-14.49-24.31-22.34-2.25-2.29-4.57-4.56-6-7.52-.4-.86-1-1.9,0-2.66s1.84,0,2.62.64a13.12,13.12,0,0,1,1.56,1.32c12.56,12.93,25.55,25.4,39.86,36.42C355.23,638.16,355.25,638.28,355.31,638.41Z" transform="translate(-22.03 -146.06)"/><path class="cls-18" d="M316.7,447.66c2.23-6.57,5.74-12.34,8.16-18.64l.95.45Z" transform="translate(-22.03 -146.06)"/><path class="cls-19" d="M295.87,225.78c-1.27,2.6-3.89,3.75-6,2.94a4.47,4.47,0,0,1-2.65-5.52c.92-2.87,2.76-4.94,5.86-5.5a6.79,6.79,0,0,1,7.38,3c2.7,4,2.65,8.23.4,12.42a16.17,16.17,0,0,1-5.91,6c1.42,2.58,4.09,3.28,6.55,4.35-2.79,1.18-4.86-.09-6.84-1.64s-5.52-1.07-8.45,1c-2.67,1.91-3.89,4.92-2.95,7.31a3.18,3.18,0,0,0,3.71,2.12,5.44,5.44,0,0,0,4.61-3.12.66.66,0,0,0-.29-1,1.61,1.61,0,0,0-1.61.36c-.72.48-1.39,2-2.31.83s.47-2.06,1.34-2.72c1.26-1,2.72-1.26,4-.14s1.2,2.72.34,4.22c-1.86,3.29-6.28,4.88-9.3,3.32s-4.33-6.45-2.51-9.79a10.32,10.32,0,0,1,7.82-5.53,14.64,14.64,0,0,0,8.82-4.76,9.5,9.5,0,0,0,.79-12.31,4.72,4.72,0,0,0-4.84-2,5.66,5.66,0,0,0-4.3,3.59,2.6,2.6,0,0,0,.37,3,3.38,3.38,0,0,0,3.52.8A13.18,13.18,0,0,0,295.87,225.78Z" transform="translate(-22.03 -146.06)"/><path class="cls-20" d="M319.82,272.82a15.4,15.4,0,0,0-8.25-1.17c-4.22.37-7.85,4.92-7.3,9,.64,4.78,4.15,7.61,8.4,6.76a5.53,5.53,0,0,0,4.71-4.57,3.17,3.17,0,0,0-1.14-3.14c-1.11-1-1.68-.17-2.33.63a.86.86,0,0,1-1.29,0,1.11,1.11,0,0,1-.29-1.33c.88-2,2.42-2,4.11-1.2a4.48,4.48,0,0,1,2.52,4.57,6.7,6.7,0,0,1-4,6,7.73,7.73,0,0,1-8.92-1.34,9.57,9.57,0,0,1-2.18-10.69c2.64-6.21,10.23-8.08,16.51-4.08C320.45,272.81,320.43,273.16,319.82,272.82Z" transform="translate(-22.03 -146.06)"/><path class="cls-21" d="M306.45,259.28c0-3.7-2.28-5.79-5.12-7.56-.58-.35-1.82-.47-1.2-1.51.43-.72,1.22,0,1.81.26,3.88,1.88,6.43,5.92,6,9.53-.45,3.86-3.05,7-6.23,7.55-3.89.65-9.3-1.8-10.79-4.92a4.44,4.44,0,0,1,.84-5.12,4.59,4.59,0,0,1,5-1.62,2.67,2.67,0,0,1,2.11,3.07c-.08.89-.22,2.1-1.25,1.94-1.33-.2-.26-1.14-.12-1.77.28-1.27-.54-1.84-1.54-2.05-1.4-.29-2.42.55-3.26,1.54a3,3,0,0,0-.73,3.23c1,2.61,6.24,5.08,9.5,4.48C304.23,265.82,306.43,262.71,306.45,259.28Z" transform="translate(-22.03 -146.06)"/><path class="cls-21" d="M276.46,289.65c0-1.6.08-3.22,0-4.82a7.1,7.1,0,0,0-6.09-6.72c-2.43-.32-5.23,1.68-6.42,4.59a5,5,0,0,0,3.49,6.83c1.91.35,3.84.17,3.8-2.59,0-.45-.23-1.05.39-1.21.78-.2,1,.53,1.17,1,.69,1.73-.7,3.71-2.91,4.23a6.64,6.64,0,0,1-7.95-6.07c-.19-3.23,3.32-7.61,6.46-8.06a8,8,0,0,1,8.74,5.95,10.54,10.54,0,0,1,.39,2.58c-.08,1.42-.37,2.82-.57,4.23Z" transform="translate(-22.03 -146.06)"/><path class="cls-22" d="M279.14,276.42c.26.82.54,1.68.82,2.54a6.59,6.59,0,0,0,9.21,4.35A4,4,0,0,0,292,279c-.15-2.14-1.15-3.68-3.42-4.11a5,5,0,0,0-5.17,1.92,1.4,1.4,0,0,0,.08,2.08,2.94,2.94,0,0,0,3.23.74,27.52,27.52,0,0,0,3.45-2,4.84,4.84,0,0,1-3.67,3.24A3.79,3.79,0,0,1,282,279c-.86-1.75.19-3.2,1.55-4.31a6.35,6.35,0,0,1,7.36-.35,5.58,5.58,0,0,1,2.42,5.84c-.47,2.71-2.83,4.47-6.17,4.86-4.33.5-8.8-3.42-8.83-7.75C278.3,276.93,278.4,276.51,279.14,276.42Z" transform="translate(-22.03 -146.06)"/><path class="cls-23" d="M326.85,293q-1.14,3.39-3.61,1.21a3.94,3.94,0,0,1,.06-5.94,4.87,4.87,0,0,1,7.24.21c2.08,2.62,2.07,5.57.92,8.56s-3.28,5.25-6.72,5.77c-.72.11-1.76.41-1.87-.64s1-.61,1.56-.76a8.05,8.05,0,0,0,6-9.33c-.57-3-3.44-4.4-5.56-2.6-1,.88-1.58,1.95-.84,3.33S325.78,293.62,326.85,293Z" transform="translate(-22.03 -146.06)"/><path class="cls-24" d="M319.82,272.82l.55-.48a10.41,10.41,0,0,1,4.45,4.77Z" transform="translate(-22.03 -146.06)"/><path class="cls-25" d="M257,410.74c4.89.11,9.53,1.64,14.31,2.29,8.09,1.11,16.18,2.27,24.34.36a18.67,18.67,0,0,0,9.87-5.79c-.84,2.63-2.92,4-5.23,5.19-5,2.54-10.54,2.65-15.94,2.66a95,95,0,0,1-24.14-3.52A31.8,31.8,0,0,1,257,410.74Z" transform="translate(-22.03 -146.06)"/><path class="cls-26" d="M302.34,175.38a4.17,4.17,0,0,1-2.12,3.83c-.54.35-1.07.59-1.51-.05-1-1.54-2.06-3.11-1.56-5.12a5.32,5.32,0,0,1,.49-1.37c.62-1.08,1.14-2.53,2.66-2.33,1.73.23,1.75,1.84,1.94,3.19C302.29,173.91,302.29,174.31,302.34,175.38Z" transform="translate(-22.03 -146.06)"/></svg>