<svg id="Layer_1" data-name="Layer 1" xmlns="http://www.w3.org/2000/svg" viewBox="0 0 559.36 624.81"><defs><style>.cls-1{fill:#010101;}.cls-2{fill:#c7c7c7;}.cls-3{fill:#fefefe;}.cls-4{fill:#fdfdfd;}.cls-5{fill:#fcfcfc;}.cls-6{fill:#fbfbfb;}.cls-7{fill:#f7f7f7;}.cls-8{fill:#f2f2f2;}.cls-9{fill:#f4f4f4;}.cls-10{fill:#f5f5f5;}.cls-11{fill:#eaeaea;}.cls-12{fill:#7f7f7f;}.cls-13{fill:#ececec;}.cls-14{fill:#c8c8c8;}.cls-15{fill:#787878;}.cls-16{fill:#f6f6f6;}.cls-17{fill:#e8e8e8;}.cls-18{fill:#adadad;}.cls-19{fill:#b2b2b2;}.cls-20{fill:#828282;}.cls-21{fill:#c5c5c5;}.cls-22{fill:#989898;}.cls-23{fill:#8d8d8d;}.cls-24{fill:#fafafa;}.cls-25{fill:#f3f3f3;}.cls-26{fill:#e9e9e9;}.cls-27{fill:#040404;}.cls-28{fill:#070707;}.cls-29{fill:#090909;}.cls-30{fill:#030303;}.cls-31{fill:#110303;}.cls-32{fill:#050505;}.cls-33{fill:#0e0e0e;}.cls-34{fill:#f3f2f2;}.cls-35{fill:#f8f8f8;}</style></defs><path class="cls-1" d="M168.89,400.72a107,107,0,0,0,4.69,15.58c2.27,6.35,5.42,12.36,7.27,18.86a13.29,13.29,0,0,1,.4,3.45c.2,24.15-1.14,48.25-2.07,72.35-.66,17.11-1.72,34.2-2.47,51.3-.11,2.71-.86,4.17-3.66,5a100.68,100.68,0,0,1-58.89-1.2,10.16,10.16,0,0,1-2.88-1.36c-1.38-1-1.89-2.61-.54-3.73s1.46-2.6,1.52-4.14q2.11-56.28,4.25-112.58c.18-4.65.73-9.28,1.12-13.93a7.24,7.24,0,0,1,1.59-4c7.49-9,11.65-19.65,14.66-30.81a11.31,11.31,0,0,1,.69-2.23c1-2.05,1.28-3.53-1.17-5.08s-2-4.65-1.64-7.25a5.55,5.55,0,0,0-.3-3.37,4.57,4.57,0,0,1-.61-2.78c1.08-3.7-.07-6.65-1.82-10-3.11-6,1.1-13.18,8.08-14.9.9-.23,2.12.05,2.06-1.43,0-1.25.7-2.78-1.24-3.43a2.68,2.68,0,0,1-2-2c-.38-4.64-.67-9.5,2.52-13.24a5.27,5.27,0,0,0,1.19-4.93c-.43-2.68-.83-5.27,0-8a4.49,4.49,0,0,1,4-3.59c7.86-1,15.71-1.21,23.41,1.16a9.34,9.34,0,0,1,4.57,2.43,4.32,4.32,0,0,1,1,4.6,20.18,20.18,0,0,1-1.27,3.24c-2.66,4.74-.45,9.64-.49,14.45,0,5.24-.32,6.06-5,8.15,5.81,3.46,8.47,9.66,13.44,13.73,2.65,2.17,3.1,5.54,3.63,8.68.42,2.46,1.28,3.92,4,4.69,8.66,2.44,17.33,4.93,25.31,9.29a38.44,38.44,0,0,1,7.14,4.48c1.28,1.13,1.91.65,2.76-.4,6.42-7.93,12.6-16,18.38-24.43a63.52,63.52,0,0,1,6.9-8.25c5.9-6.06,10.7-13.06,16.72-19.07,2.39-2.38,5.23-4.08,7.55-6.47,1.3-1.34,3.48-.95,5.27-1.27a76.31,76.31,0,0,0,15.67-4.39c-9.43-3.24-17.6-7.94-24.2-15.05-9.39-10.1-15.16-22.23-19.48-35.16-1-2.94-2-5.87-2.89-8.83-.36-1.21-.8-1.51-2.06-1.1a14.34,14.34,0,0,1-8.6-.08,9.09,9.09,0,0,1-6.85-7.54,9.78,9.78,0,0,1,3.57-9.91c5.87-4.77,10.77-4.93,16.89-.36,1.69,1.26,3.49,1,5.29,1a17.2,17.2,0,0,0,4.06-.36c1-.21,2.77.75,2.8-.92s-.5-3.32-2.56-3.74a23.06,23.06,0,0,1-8.07-3.2,28.22,28.22,0,0,1-2.36-1.7c-4.47-3.68-4.37-4.3.68-6.94a25.26,25.26,0,0,0,8.44-6.55,67.81,67.81,0,0,1-13.59-3.45,33.68,33.68,0,0,1-8.84-5c-.68-.56-2.09-.91-1.53-2.09.43-.89,1.63-.35,2.41-.21a30.06,30.06,0,0,0,17.1-1.87c.44-.18.86-.44,1.62-.84a72.27,72.27,0,0,1-29.32-24.22c-.34-.46-1-.92-.53-1.47s1.21-.32,1.85,0a53.73,53.73,0,0,0,12.19,4.66,55,55,0,0,0,17.85,1.35c.17-1-.59-1.31-1-1.71-10.65-9.37-10.46-23.12-5.65-33.11a45.38,45.38,0,0,1,12.47-16c10.54-8.47,22.45-8.76,34.83-5.49,9,2.38,16,7.8,21.53,15.14,3.22,4.27,6.18,8.72,9.31,13.06,2.5,3.49,6.42,4.87,10.08,6.65,1.38.67,1.65-.44,2.1-1.24,2-3.56,4.05-7.06,7.15-9.86a2.5,2.5,0,0,1,3.05-.65,109.5,109.5,0,0,0,11.32,3.75c2.8.79,3.13,2.34,1,4.33-1.63,1.52-3.38,2.92-5.11,4.34s-3.34,2.62-5.36,4.19a69.16,69.16,0,0,0,11.23,2.22c1.68.22,2.06-1.3,2.74-2.23,7-9.64,14.63-18.72,23.95-26.22,17.59-14.16,37.16-24.19,59.71-27.42,54.72-7.83,98.71,19.77,118.21,67.63,3.67,9,4.71,18.62,5.49,28.21,2.05,25.33-2,49.81-11,73.46-5.14,13.45-13.54,25.11-21.33,37.08-1.32,2-2.69,4-4.06,6-.54.78-1,1.91-2.2,1.48s-.9-1.56-.79-2.53a151.94,151.94,0,0,0,.86-21.85c-.34-8.13-1.72-16-6.06-23.13-7-11.51-17.5-17.25-30.35-19.51a42.18,42.18,0,0,0-19.62,1c-13.76,4.07-22,14.23-23.26,28.54-.81,9.12,1.55,17.54,5,25.78,6.13,14.47,14.9,27.28,24.95,39.26,11.26,13.41,23.05,26.37,33.44,40.5,10.95,14.89,20.19,30.69,23,49.22,6.79,44.67-12,82.82-56.36,100a37.92,37.92,0,0,1-3.58,1.25c-3.17.88-5.84,1.46-5.57,6.19.25,4.45-4.91,8.24-9.64,8.39-7.2.22-13.55-2.28-19.23-6.46a11.72,11.72,0,0,0-7-2.25A144.74,144.74,0,0,1,383.46,544a139.94,139.94,0,0,1-31.14-20.25c.1,1.23.11,2,.23,2.8,1.64,11,5.57,21.4,9,31.91a225.66,225.66,0,0,1,10.05,45.94,95.58,95.58,0,0,0,3,15.72c.28,1,.36,2.08,1.3,2.84,4.93,4,9.71,8.1,14.75,11.91,6.37,4.81,14.91,3.62,20.08-2.5.54-.63,1-1.9,1.92-1.41s.37,1.71.08,2.6a49.22,49.22,0,0,1-1.57,4.67c-4.91,11.44-14.31,15.74-27.2,12.61-7.64-1.86-15-4.57-22.46-7-1.63-.54-3.31-1-5-1.45a4.41,4.41,0,0,0-.27,1c0,5.19,0,5.2-5.25,6a23.67,23.67,0,0,1-2.88.38c-7.37.26-10.16-2.42-11-9.58-1.08-9.83-2.44-19.63-3.81-29.43-2-14.13-4.07-28.25-6.12-42.37a310,310,0,0,0-6.45-33.94c-3-11.58-7.31-22.83-9-34.75a6.29,6.29,0,0,0-.47-1.3c-3.73,19-6.56,38.25-9.92,57.36a181.13,181.13,0,0,0-3.18,28.87c-.12,8.51,1.57,16.81,2.52,25.2.55,4.92,1.19,9.88-.38,14.74-.75,2.31-1.57,4.67-3.88,5.93-.81.44-.71,1-.77,1.67-.16,2-.36,4.07-.51,6.1-.31,4.16-.44,4.53-4.46,5a44.72,44.72,0,0,1-13.95-.24c-2.58-.53-4.29-1.68-3.95-4.69.28-2.43-.69-2.67-2.85-1.82-8.49,3.34-16.69,7.38-25.36,10.28-6.85,2.3-13.79,4.32-21.1,2.55-4.84-1.18-8.68-3.88-10.68-8.65-2.33-5.53.88-13,6.45-15.12.66-.25,1.5-.45,1.92.13.73,1-.41,1.31-1,1.69-1.81,1.21-1.33,2.36.08,3.42a7.26,7.26,0,0,0,6.32,1.35,32.23,32.23,0,0,0,8.55-3.61c5.07-2.88,10.15-5.75,15.26-8.55,1.16-.63,1.42-1,1.25-2.6a15.46,15.46,0,0,1,2.77-9.9,35.13,35.13,0,0,1,3.93-5.06c6.65-7.06,9-15.68,9.37-25.06a335.3,335.3,0,0,0-.73-44.6c-1.18-12.59.54-25.05,2-37.51.19-1.54.16-3.13.48-4.64,1-4.57.69-8.41-4.14-11-2.28-1.2-3-3.65-2.83-6.53.53-9.22.32-18.47,0-27.71-.59-17.81.36-35.59,1-53.38-1.19-.3-1.33.71-1.76,1.21-5.65,6.56-10.22,14-16,20.42a75.6,75.6,0,0,1-15.14,12.67c-8.93,5.81-17.63,3.8-26-1.25a255.75,255.75,0,0,1-35-25.08c-1.06-.42-.93-1.3-.84-2.17s-.57-1.33-.65-1.59C168.68,397.35,168.57,399.08,168.89,400.72Z" transform="translate(-14.68 -118.71)"/><path d="M140.15,696.56c2.41-3.44,2.49-7.23,1.57-11.07-1.19-5-3.28-9.73-4.28-14.8-1.32-6.76,0-13.16,2.6-19.33a3.71,3.71,0,0,0-.49-4.35c-5.8-7.64-10.56-15.77-11.55-25.6a4.07,4.07,0,0,0-3.21-3.89,14.08,14.08,0,0,1-6.05-3.95c-2.95-3-2.89-6.24.61-8.64,4.08-2.79,8.65-4,13.51-2.11,2.07.79,3.95,2.46,5.9,2.92,1.6.38,3.65-1.74,5.63-2.2a29.28,29.28,0,0,1,13.83.52c3.68.93,5.88,3.65,6.26,7.58s-1.44,6.72-5.3,8a1.4,1.4,0,0,0-1.12,1.72c.57,4.71.74,9.47,2.41,14a3.71,3.71,0,0,0,2.4,2.23c9.95,4.19,14.18,12,12.34,22.68a27,27,0,0,0,1.24,14.62c2.45,6.35,4.61,12.8,5.06,19.69.87,13.52-7.51,27.71-19.87,33.12-11.08,4.86-22.41,8.9-34.78,8.68a3.24,3.24,0,0,0-2.15.71,15.4,15.4,0,0,1-9.62,2.81c-6.12,0-12.25.38-18.35-.49a4.58,4.58,0,0,0-2.5.62c-11.89,5.18-23.44,4.89-34.48-2.27a16.46,16.46,0,0,0-9.24-2.7c-10.42-.12-19.73-3.93-28.07-10-4.15-3-6.31-7.57-7.57-12.48-.26-1-.43-2.21.67-2.92s2.15-.12,3.1.69c5.5,4.71,12.22,6.09,19.21,7.16-.2-1.59-1.28-2.5-1.91-3.64C27.2,698,25.93,682,34.9,665.81c5.62-10.14,14.34-16.64,25.27-19.86a81.19,81.19,0,0,1,51,1.55c8.42,3,15.15,8.67,21.14,15.14,3.93,4.25,4.76,9.88,5.69,15.35A132.29,132.29,0,0,1,140.15,696.56Z" transform="translate(-14.68 -118.71)"/><path class="cls-2" d="M168.89,400.72a17.35,17.35,0,0,1-1.62-6.32c2.24,1.33,2.44,3.39,2.36,5.56Z" transform="translate(-14.68 -118.71)"/><path class="cls-3" d="M402.64,247.12a31,31,0,0,0,16.21-21.46c2.82-12.61-1.35-23.18-10.62-31.84-1.67-1.55-2-2.48-.48-4.37,16.36-20.16,36.73-31.3,63.39-29,28.27,2.41,49.12,16.69,64.45,39.87,12.27,18.55,16,39.29,15.53,61.13-.37,19.44-4.77,38.06-10.58,56.44a13.07,13.07,0,0,1-.41,1.39,18.05,18.05,0,0,1-.86,1.61c.87-7.05,1.65-13.9,2-20.79.87-16.9-1.75-33.23-11.19-47.44-12.92-19.42-31.1-30.46-55-28.88-18.82,1.24-34.62,9.1-45.59,25.1a4.93,4.93,0,0,1-3.47,2.27C417.92,252.66,410.49,250.62,402.64,247.12Z" transform="translate(-14.68 -118.71)"/><path class="cls-3" d="M358.24,186.65c-.06-1.36-1.24-1.31-2.06-1.67a54.15,54.15,0,0,1-9.84-5.62c-1.12-.79-1.17-1.47-.07-2.16s2.15-2.1,3.84-1.64c9.2,2.47,18.77,3.11,28,5.52,9.76,2.57,19,6.24,26.87,12.79,9.13,7.62,14,17.22,12,29.28-1.84,11-7.85,19-18.38,23.43-8.16,3.43-15.69.77-23.08-2.25a28.68,28.68,0,0,1-14.95-14.08c-3.89-7.7-7.4-15.67-13.63-21.93-3.41-3.43-6.86-6.81-11.29-9.07,3,3.52,6.85,6.19,9.61,10.16-20.19-2.18-40.49-1-60.17-6.16a61,61,0,0,1-31-19.22c-6-6.78-6.23-15-3.71-23.12a38,38,0,0,1,17.21-22.07c8.78-5.13,18.4-4.86,28-2.43,10.05,2.55,17.48,8.79,22.9,17.35a98.85,98.85,0,0,0,19,22c5.61,4.83,12.24,8.15,19.09,11A1.62,1.62,0,0,0,358.24,186.65Z" transform="translate(-14.68 -118.71)"/><path class="cls-3" d="M397.91,292.92c3.34,1,6.27.78,9.16,1,.76.05,1.73.39,1.9-.69s-.8-1.1-1.56-1.31c-5.6-1.55-9.29-5.38-12.59-10.63a57.91,57.91,0,0,0,13,2.77,61.19,61.19,0,0,0,7.55-.24c1.11-.06,1.73,0,1.77,1.48.61,23,10.09,42.6,23.16,60.87,8.79,12.31,19.61,22.89,29.09,34.62,10.63,13.13,20.51,26.68,26.75,42.53a120.36,120.36,0,0,1,7.91,33.94c2,23.76-16.46,50.54-42,56-4.47.95-9,2.82-13.44,2.2s-7.06-5.07-10.49-7.81c-5.37-4.28-10.49-8.88-15.93-13.54a97.61,97.61,0,0,0,14.93-8.86c10.57-8.1,19.61-17.46,24.3-30.29,3-8.12,2.59-16.36,1.05-24.73-3.13-17.09-10.34-32.5-18.9-47.4-8.91-15.51-18.77-30.45-27.2-46.24A240.19,240.19,0,0,1,397.91,292.92Z" transform="translate(-14.68 -118.71)"/><path class="cls-3" d="M351.87,485c-.32,1.06-.26,2.69-1.45,2.82-1.82.19-1.37-1.86-2.34-2.87q.8,17.9,1.58,35.84l-4-8-.7.33c7,17.14,11.6,35,17.33,52.55,5.79,17.74,6.4,36.45,10.12,54.76-12.62-2.46-22.25,4.1-31.73,11-.75.55-1.23.9-2.23.56s-.68-1-.71-1.62c-.59-13-3.25-25.61-5.3-38.36-1.79-11.11-3.35-22.26-5.19-33.36A188.21,188.21,0,0,0,323.35,540a20.82,20.82,0,0,1-.29-2.48,275.86,275.86,0,0,1,15.86,40.79l.94-.3c-1-3.52-2-7.06-3-10.57A250.56,250.56,0,0,0,324.17,535a116.14,116.14,0,0,1-9-30.3A98.25,98.25,0,0,0,310,485.27c-.51-1.35-.77-2,1.14-2.55,10.08-3,20.46-4.51,30.74-6.54,1.55-.31,4.37,1.87,4.76,3.54C347.47,483.37,348.2,484.11,351.87,485Z" transform="translate(-14.68 -118.71)"/><path class="cls-3" d="M296.72,573.16c.15,7.43-.83,14.69.13,22,.94,7.12,2.31,14.19,2.54,21.4a17.78,17.78,0,0,1-2.72,10.81c-.61.91-1.21,1.67-2.52.84-9.14-5.8-19.57-6.43-29.9-7.46a32.46,32.46,0,0,1-8.47-1.94c-2.05-.79-2.47-2.15-2-4.11.75-3.26,1.87-6.4,4.25-8.81,9.42-9.53,12.05-21.37,11.92-34.21,0-2,0-4.09.07-6.13a4.62,4.62,0,0,1,.23-1.45c1.54,12,1.12,24.1,2.87,36.47,1.36-1,1-2.08.94-2.92-1.07-18-2-36.07-4.39-54-1.93-14.53-.71-29.12,1.21-43.62.67-5.1,1.11-10.23,1.68-15.55,2.63.55,5.19,1.65,7.94,2.06,8.28,1.24,16.26-.55,24.23-2.28,2.09-.45,2.81-.13,3.62,2,2.63,7,1.17,13.76-.39,20.58-3.58,15.62-5.73,31.48-8.18,47.29-.94,6.15-3,12-4.49,18.05-.16.63-.49,1.46.14,1.84C295.9,574.34,296.31,573.61,296.72,573.16Z" transform="translate(-14.68 -118.71)"/><path class="cls-3" d="M176.86,450.85c-.35,7.73-.72,15.29-1,22.84q-1.11,27.13-2.12,54.25c-.06,1.44-.24,2.29-1.86,2.58-17.58,3.15-35,3.14-52.08-2.68-1.74-.59-2.35-1.43-2.27-3.34q1.43-35.43,2.65-70.88c.09-2.55.45-3.1,3.23-2.39a106.27,106.27,0,0,0,52.2,0C175.94,451.12,176.29,451,176.86,450.85Z" transform="translate(-14.68 -118.71)"/><path class="cls-3" d="M137.69,337.75a19.84,19.84,0,0,0,8.54,4.08c.81.14,1.39.45,1,1.59-1.36,3.64.37,6.12,3.21,8.19a13.73,13.73,0,0,0,5.78,2.63c2.88.49,4.36,2.2,5.36,4.72a44.88,44.88,0,0,0,2.44,5.27,7.62,7.62,0,0,1,.76,5.92c-1.85,6.43-1.21,12.61-.18,19.2a232.35,232.35,0,0,0,6.26,26.87c1.69,6,4.22,11.87,5.89,17.93,1.25,4.5.68,9.24.44,13.9-.08,1.37-1,1.41-1.93,1.68-9.57,2.71-19.33,3.15-29.18,2.55a112.32,112.32,0,0,1-23.21-4c-1.76-.49-2.58-1.27-2.34-3.22.39-3.18-.41-6.38.28-9.59a34.5,34.5,0,0,1,5.85-12.84,72,72,0,0,0,12.05-30c.26-1.53.62-2.17,2.31-2.07,4.81.27,9.17-1.48,13.34-3.6s5-5.78,2.21-9.7c-.79-1.09-.08-1.58.32-2.26,1.65-2.85,2.86-5.65-.27-8.35-.64-.56-.31-1.21-.12-1.87a16.65,16.65,0,0,0,.91-4.85c-.08-3.33-1.82-4.54-5-3.36-2.81,1-5.53,2.35-8.57,2.68-1.44.16-2.33.08-2.26-1.87a41.48,41.48,0,0,0-.35-9.89c-.06-.27-.14-.73,0-.83,4-3-.13-2.85-1.45-3.46C137.31,342,137.79,340,137.69,337.75Z" transform="translate(-14.68 -118.71)"/><path class="cls-3" d="M467.45,565.68c-8.68-.51-14.61-3-19.88-7.06-7.48-5.77-14.38-12.21-21.32-18.6q-18-16.62-37.56-31.44c-8.68-6.57-17.17-13.37-25.83-20-1.93-1.47-1.67-2.57-.31-4.18a139.25,139.25,0,0,0,13-17.53c.77-1.29,4.6-.81,6.21.72,3.86,3.7,7.24,7.85,11.15,11.53,21.81,20.56,45,39.48,67.9,58.83a99.38,99.38,0,0,1,10.47,10.15,20.56,20.56,0,0,1,2.89,4C477.68,558.91,473.11,565.92,467.45,565.68Z" transform="translate(-14.68 -118.71)"/><path class="cls-3" d="M418,281.72c-7.84,1.63-15.43,1.43-22.71-2-.79-.38-1.64-1.67-2.47-.82s.24,1.94.71,2.85a29,29,0,0,0,8.87,10c-4.36.18-8.31-1.23-12.08-3.24-3.08-1.64-3.42-1.53-3.43,2a29.08,29.08,0,0,0,4.9,16.26A28.64,28.64,0,0,1,379,298.47c-.77-.87-1.13-2.66-2.69-2.19-1.37.41-1.29,2.08-1.61,3.24a58.07,58.07,0,0,0-1.81,18.24,21.4,21.4,0,0,1-7.06-6.75c-1.46-2.12-2.61-1.87-4,0a17.25,17.25,0,0,0-3.21,7.71c-.23,1.46-.76,1.86-2.34,1.54a20.29,20.29,0,0,1-12-6.67c-1-1.16-1.14-1.87-.05-3.08a110.07,110.07,0,0,0,8.61-11.73c4.86-7.14,7.36-15.13,8.71-23.53.32-2,1-2.75,3.17-2.56,8.56.75,15.83-1.76,21.42-8.61,3.19-3.91,2.59-8.09,1.46-12.41-.07-.28-.16-.55-.22-.82a2.5,2.5,0,0,1,.07-.55,21.65,21.65,0,0,0,12.38-1.85,3,3,0,0,1,2.75.25c8.78,4.07,17.79,6,27.35,2.95.14,0,.35.11.52.17-2.9,8.64-12.67,15.95-21.78,16.15-2,0-2.3.51-1.71,2.37,1.4,4.46,4.49,7.4,8.23,9.83C416.15,280.73,417.1,281.2,418,281.72Z" transform="translate(-14.68 -118.71)"/><path class="cls-3" d="M173,531.68c0,9.69,0,19.31,0,28.92,0,1.59-.87,1.91-2.08,2.24-10,2.66-20.12,3.1-30.36,2.64a92.85,92.85,0,0,1-22.37-3.71c-1.66-.49-2.31-1.18-2.21-3,.47-9.22.82-18.45,1.18-27.67,0-1.2,0-2,1.72-1.49,17.83,5.32,35.84,6.3,54,2.08C173.11,531.65,173.3,531.72,173,531.68Z" transform="translate(-14.68 -118.71)"/><path class="cls-3" d="M307.5,417c-.2-5.6.58-10,3.38-13.9,2.64-3.65,4.32-4,8.2-1.93,8.14,4.34,14,10.95,18.62,18.78,5.2,8.89,10.45,17.74,17.85,25.05,1.05,1.05.69,1.66-.4,2.16-1.78.82-1.58,1.66-.14,2.65a12.16,12.16,0,0,1,1.08,1c3.5,3.1,3.52,3.44-.68,5.86-6.06,3.49-12.89,3.12-19.54,3.61a1.86,1.86,0,0,1-1.51-.74c-7.11-7.56-14.79-14.64-20.29-23.6C310.31,429.79,307.18,423.51,307.5,417Z" transform="translate(-14.68 -118.71)"/><path class="cls-3" d="M227.57,187.07a67.22,67.22,0,0,0,16.31,4.74,34.22,34.22,0,0,0,11.6-.06,5.74,5.74,0,0,1,5.3,1.38,60.52,60.52,0,0,0,26.65,12.81c-5.88,5.17-10.61,10.68-12.15,18.52-1.53-2.08-2-4.15-2.77-6.11-.27-.71-.28-1.8-1.17-1.8-1.17,0-1,1.29-1.2,2a38.1,38.1,0,0,0,.54,19l.37,1.24c-5.19-.49-6.39,3.23-7.57,7-1-.55-.63-1.43-.8-2.06-.61-2.16-1.68-3.42-4.14-3.77-4.68-.65-8.52-3.05-11.85-6.82a63,63,0,0,0,7.75-4.54,22.68,22.68,0,0,0,4.46-4.18c.51-.67,1.35-1.37,1-2.29s-1.42-.8-2.29-.9a51.18,51.18,0,0,1-18-5.43c-.58-.3-1.11-.7-2.32-1.48,5.8.29,10.8-.27,15.54-2.34.79-.35,1.57-.73,2.36-1.08s1.66-.58,1.7-1.4c0-1.13-1.16-1.12-1.9-1.4C244,204,235.31,197,227.57,187.07Z" transform="translate(-14.68 -118.71)"/><path class="cls-3" d="M251.53,248.82c5.34-.31,10.58-.45,15.7-1.69,10.58-2.55,18.34-8.53,22.55-18.71,1.48-3.58,2.73-7.25,4.14-10.85a27.26,27.26,0,0,1,1.72-3.67c3.22-5.69,3.67-5.74,10.12-5a244.06,244.06,0,0,0,24.54,1.45c-4.52,3-8.71,5.82-13,8.55a33.81,33.81,0,0,0-10,10c-3.78,5.65-7.56,11.32-12.26,16.27-8.7,9.18-19.09,14.48-32.08,13.56a23.67,23.67,0,0,1-4-.6c-1.88-.47-3.73-1.05-5.55-1.68-2.85-1-.14-3.26-1.05-4.76A11.55,11.55,0,0,1,251.53,248.82Z" transform="translate(-14.68 -118.71)"/><path class="cls-3" d="M354,384.13a2.29,2.29,0,0,0-.08.28c-.36,2.1,0,4.93-1.28,6.09-1.08,1-3.92.25-6,.12q-30.57-1.92-61.15-3.89c-5.53-.34-11.06-.69-16.56-1.43-1.82-.25-2.57-.72-1.75-2.86,1.47-3.87.86-5.06-2.14-7.81-5.53-5.05-10.93-10.25-16.42-15.34-.88-.81-1-1.3-.22-2.34,3.67-4.91,3.67-5,8.26-.86,4.12,3.72,8.07,7.62,12.2,11.32,1.3,1.17,1.32,2.1.47,3.48-1.76,2.84-1.39,3.87,1.79,4.72a30.79,30.79,0,0,0,5.17.72c18,1.52,35.93,4.12,54.07,3.8,6.61-.12,13.22-.14,19.83-.12A4.1,4.1,0,0,1,354,384.13Z" transform="translate(-14.68 -118.71)"/><path class="cls-3" d="M361,345.21l5.48,6.5a98.74,98.74,0,0,0-10,9.13,27.25,27.25,0,0,1-8.27,5.88c-1.81.8-3.08,1.67-1.25,4.56L275,364.55c-.09-2.21,2.58-3.69,1.42-5.5-1-1.54-2.95-2.45-4.49-3.64a116.06,116.06,0,0,1-11.32-10.06c-1.21-1.2-1.14-1.9,0-3,1.69-1.6,3.17-4.64,4.84-4.71,1.84-.08,3.82,2.47,5.7,3.93,1,.77,1.82,1.76,2.84,2.5,4,2.88,5.45,6.51,3.81,11.29-.77,2.22.53,3,2.52,3.14,4.84.37,9.68.84,14.53,1.12,14.64.85,29.23,2.45,43.89,2.89a22.72,22.72,0,0,0,3.5,0c3-.36,4.29-1.75,4.19-4.79-.06-2,.36-3.14,2.4-4a30.4,30.4,0,0,0,6.29-3.63C357.11,348.75,358.86,347,361,345.21Z" transform="translate(-14.68 -118.71)"/><path class="cls-3" d="M362.34,438.45a104.55,104.55,0,0,0-8.74-10.58,2.86,2.86,0,0,1-1-1.91c-1.14-13.37.32-26.57,2.34-39.74,0-.16.23-.3.49-.61,4.5,6.38,10.07,11.79,15,17.77a4.09,4.09,0,0,0,1,1.09c4.14,2.35,3.82,5.32,2.38,9.47C370.81,422.4,366.62,430.16,362.34,438.45Z" transform="translate(-14.68 -118.71)"/><path class="cls-3" d="M280.06,289.26c12.33,3.86,23.73,1.65,35.05-2.69,8.1-3.11,16.41-5.68,24.67-8.5-5.71,9.53-20.57,22-30.17,25.24a28.87,28.87,0,0,1-16.32.6C285.66,302.12,281.67,297.13,280.06,289.26Z" transform="translate(-14.68 -118.71)"/><path class="cls-3" d="M216.18,388.14a3.5,3.5,0,0,1,2,2.4c3.12,9,7.68,17.15,15,23.55,4.78,4.18,4.7,4.26-.39,8.11-3.4,2.56-3.42,2.57-5.48-1.07-1.57-2.79-3.07-5.63-4.68-8.4-.48-.83-.61-2.28-2.14-1.88-1.3.35-1.31,1.58-1.43,2.62-.45,3.71.19,7.37.6,11,.39,3.43.32,3.45-3,3.13s-6.45-1.95-9.5-3.46c-1.55-.76-1.34-2-1.14-3.21C207.78,409.6,210.14,398.41,216.18,388.14Z" transform="translate(-14.68 -118.71)"/><path class="cls-4" d="M473.4,546.7a216.88,216.88,0,0,0-29.9-25.56c-12.63-8.95-24.07-19.36-35.43-29.81-8.66-7.95-17.66-15.54-25.6-24.26-1.24-1.36-1.85-2.4-.07-3.86,7,6.24,13.62,12.9,21.23,18.45a603.52,603.52,0,0,1,56.08,46.86A76.06,76.06,0,0,1,471,541.83,15,15,0,0,1,473.4,546.7Z" transform="translate(-14.68 -118.71)"/><path class="cls-3" d="M381.69,368.66c-9.54-14-21-26.46-32.29-39-3.2-3.54-6.6-5.39-11.25-5.69a87,87,0,0,1-9.53-1.68c4.95-2.7,9.25-5.19,12.91-8.68,3.62,4.13,7.11,8.25,12.92,9a16.17,16.17,0,0,0,2.6.19c3.06-.11,3.19-.25,3.83-4.4C366.88,336.09,375.92,351.66,381.69,368.66Z" transform="translate(-14.68 -118.71)"/><path class="cls-4" d="M340.63,474.29c-15.95,1.34-30.67,7.13-46.13,9.51-8.48,1.31-16.65,1-24.3-3.37a19.35,19.35,0,0,1-4.77-3.78,3.66,3.66,0,0,1-.44-4.11c.55-1.23,1.89-.11,2.74.16,11.57,3.61,23.33,5.27,35.36,3.26a133.78,133.78,0,0,0,26.11-7C335.34,466.59,338,467.73,340.63,474.29Z" transform="translate(-14.68 -118.71)"/><path class="cls-3" d="M332.65,460.53c-8.24,1.64-16.42,3.09-24.68,4.18a187.87,187.87,0,0,1-20,2,100,100,0,0,1-20.88-1.51c-1.39-.26-2-.75-2-2.23.09-2.33-.88-5.32.23-6.83,1.39-1.91,4.19.21,6.38.46,18.42,2.09,36.83,2.72,55.21-.32C329.05,455.91,330.16,456.73,332.65,460.53Z" transform="translate(-14.68 -118.71)"/><path class="cls-3" d="M299.48,428.5c-11.43-.82-22.18-1.67-32.84-3.45-1.2-.2-2-.34-1.91-1.85.15-3.3.17-6.61.19-9.92,0-1.3.43-1.74,1.76-1.32,11.95,3.8,24.35,4.89,36.76,5.81,1.84.14,2.56.89,2.68,2.61a27.14,27.14,0,0,0,1.71,7c.39,1.1.16,1.6-1.16,1.49C304.05,428.69,301.43,428.61,299.48,428.5Z" transform="translate(-14.68 -118.71)"/><path class="cls-3" d="M401,418.92a125.37,125.37,0,0,1,2.89,15.71c1.38,12.93-2.55,24.13-10.92,33.93-1,1.2-1.63,1.18-2.69.13a34.47,34.47,0,0,0-5.44-4.83c-2.29-1.46-1.75-2.8-.79-4.7,5-9.84,10.84-19.27,14.11-29.91C399.07,426.14,399.85,423,401,418.92Z" transform="translate(-14.68 -118.71)"/><path class="cls-4" d="M314.4,398a14.84,14.84,0,0,0-7.13,8.62c-.52,1.73-1.71,1.51-3,1.38-11.41-1.19-22.85-2-34.14-4.24-4.8-.94-4.82-.86-4.7-5.95,0-.87,0-1.75,0-2.62s.26-1.23,1.21-1.11C282.51,396.1,298.41,396.89,314.4,398Z" transform="translate(-14.68 -118.71)"/><path class="cls-4" d="M319.52,446.69a162.47,162.47,0,0,1-26.16,1.09c-8.73-.23-17.47-.26-26.19-1-1.94-.16-2.49-.82-2.37-2.64.16-2.41.11-4.83.15-7.25,2.28.31,4.55.74,6.84.9,12.68.92,25.37,2,38.07,2.53C314.69,440.51,317.55,442.47,319.52,446.69Z" transform="translate(-14.68 -118.71)"/><path class="cls-4" d="M319,349.74c13-2.39,19.47-10.46,22.62-21.87.15-.55-.16-1.62.94-1.43.93.15,1.91-.37,2.82.78,2.87,3.66,5.91,7.19,9,10.67,1,1.08,1,1.74-.19,2.48a54.51,54.51,0,0,1-6,3.54c-2.17.94-3.24,2.25-2.94,4.62.21,1.67-.32,2.38-2.24,2.27C335.26,350.36,327.51,350.1,319,349.74Z" transform="translate(-14.68 -118.71)"/><path class="cls-3" d="M356,263.44c4.53-5.48,6.07-11.46,6.16-17.89,0-.9.55-2.15-.58-2.62-1-.4-1.47.74-2,1.32a29.46,29.46,0,0,1-9.8,6.41c3.75-7.19,6.58-14.17,7-22.15a3.47,3.47,0,0,1,1.78,2.28c3,6.9,8.3,11.62,14.87,15,1.71.87,1.94,1.57,1.18,3.26C371,256.91,365.1,261.75,356,263.44Z" transform="translate(-14.68 -118.71)"/><path class="cls-4" d="M376.4,410.25c.89-.34,1.86,1.29,2.51,0,.48-1-.64-1.48-1.18-2.11-1.06-1.24-2.15-2.45-3.21-3.66,6.39-3.91,12.71-7.69,18.91-11.66,1.47-.94,2.1-.81,2.78.66a27.37,27.37,0,0,0,1.63,2.76c2.55,4.13,2.49,4.51-1.7,6.84a26,26,0,0,1-9.86,3.31c-1,.11-2.1,0-2.32,1.25-.25,1.42,1,1.83,2,2.08,4.08,1,8.26,1.1,12.44,1.31.75,0,2.44-.77,2.11.86-.25,1.23.7,3.32-1.76,3.71-7.74,1.22-15,.31-21.66-4.19a3.91,3.91,0,0,1-.65-.57C376.36,410.79,376.4,410.65,376.4,410.25Z" transform="translate(-14.68 -118.71)"/><path class="cls-3" d="M231.29,379.72c1.09,1.69,2.24,3.25,3.17,4.93A42.37,42.37,0,0,0,249.85,401c1.77,1.07,1.91,1.93.59,3.5-2,2.35-3.8,4.88-5.75,7.42-6.81-7.12-14-13.53-18.69-22.12-.82-1.51-.91-2.45.29-3.77C228.05,384.1,229.56,381.93,231.29,379.72Z" transform="translate(-14.68 -118.71)"/><path class="cls-3" d="M263.53,387.21c-.12,1.53-1.61,2-2.39,3.06-3.65,4.8-3.61,4.65-8.28.9-6.33-5.08-10.84-11.58-15.11-18.34-.89-1.41,0-1.93.58-2.72,3.45-4.85,3.42-4.8,7.63-.76,5.46,5.23,11,10.39,16.52,15.56A2.81,2.81,0,0,1,263.53,387.21Z" transform="translate(-14.68 -118.71)"/><path class="cls-3" d="M382.58,373.81c2.66,2.72,3.8,6,5.83,8.72.75,1,.08,1.36-.5,1.83-5.58,4.5-10.86,9.42-17.48,12.51-1.51.71-2.55.89-3.71-.61-1.41-1.84-3.09-3.48-4.52-5.06,3.53-5.15,8.43-8.4,13.66-11.27A21,21,0,0,0,382.58,373.81Z" transform="translate(-14.68 -118.71)"/><path class="cls-3" d="M312.88,349.58c-10.48.39-20.35-.48-30.23-.93-1.56-.07-2.26-.54-1.65-2,2-4.93-.4-8-4.26-10.52-1.52-1-2.86-2.32-4.32-3.43-1.28-1-.73-1.74.37-2,2.34-.59,4.74-.95,7.12-1.38,1.07-.2,1.55.68,2.08,1.31,5.45,6.36,12.59,10.57,19.33,15.28C304.61,348.16,308.38,348.87,312.88,349.58Z" transform="translate(-14.68 -118.71)"/><path class="cls-4" d="M357.4,444.83a97.13,97.13,0,0,1-15.83-21.19c-4.22-7.47-8.8-14.69-16-19.82a62.92,62.92,0,0,0-7.44-4.55c4.25-1.18,7.52-.19,10.87,3.21,6.29,6.38,12,13.25,17.85,20,4.26,4.92,9.09,9.31,13.09,14.5,1.57,2,1.67,3.36,0,5.09C359.07,443,358.52,444.16,357.4,444.83Z" transform="translate(-14.68 -118.71)"/><path class="cls-5" d="M341.28,326.45c-2.23,3.32-4.44,6.48-6.5,9.75-5.81,9.18-14.28,11.52-24.48,9.86-9.3-1.51-16.7-6.46-23.46-12.61a60.22,60.22,0,0,1-4.24-4.69c1.82-1.22,3.29-.83,5.09,1.17a37.38,37.38,0,0,0,26.77,12.87c5.53.27,10.21-1.84,14.35-5.35a50.2,50.2,0,0,0,8.9-10C338.58,326.22,339.41,325.36,341.28,326.45Z" transform="translate(-14.68 -118.71)"/><path class="cls-4" d="M195.15,416.56c-2.39-1.6-4.42-3.1-6.59-4.35-1.46-.83-1.24-1.56-.48-2.71,4.63-7.06,7.36-14.95,9.94-22.9a14,14,0,0,0,.81-4.26c0-2,.44-2.66,2.43-1.68,1.81.9,3.72,1.57,5.78,2.41C199.41,392.94,197.66,404.64,195.15,416.56Z" transform="translate(-14.68 -118.71)"/><path class="cls-4" d="M351.66,375.79c8.32-2.4,13.25-9.21,19.7-13.9,1.63-1.19,2.44-1.45,3.36.45a9.39,9.39,0,0,0,.86,1.16c2.78,3.82,2.64,5-1.4,7.43a191,191,0,0,0-16.25,10.75c-1.31,1-2.24,1.21-3.11-.53S352.78,377.66,351.66,375.79Z" transform="translate(-14.68 -118.71)"/><path class="cls-4" d="M383.13,457.65c-1.17,2.22-2.26,4.5-3.56,6.65-.54.89-1.47.05-2.11-.17A29.92,29.92,0,0,1,367,458.07c-2.92-2.7-5.78-5.49-8.77-8.11-1.24-1.09-1.3-1.72-.09-2.93,2.83-2.83,2.68-2.8,5.91-.38,5.38,4.05,11.53,6.75,17.5,9.75C382.09,456.69,383.2,456.41,383.13,457.65Z" transform="translate(-14.68 -118.71)"/><path class="cls-5" d="M341.92,240.64c-3.94.81-7.26-1.29-10.83-2.31-.11.91.75,1.12,1.15,1.63s1.13,1.07,1.55,1.7.11,1.51,0,2.28a5.51,5.51,0,0,1-5,5.23,30.59,30.59,0,0,1-14.4-1.17c-3.79-1.24-2.66-4.67-3-7.43-.29-2.54,1.49-3,3.33-3.53,3.79-1.14,7.74-1.74,11.33-3.58,2-1.05,4,0,5.79.95C335.31,236.29,338.2,239.08,341.92,240.64Z" transform="translate(-14.68 -118.71)"/><path class="cls-4" d="M177.9,404.24l-7-5.82A27,27,0,0,0,185.1,380c0-.09.08-.18.1-.27,1-4.16.92-4,4.94-2.73,1.94.62,1.73,1.44,1.34,3-1.78,6.82-5.78,12.46-9.54,18.24C180.67,400.16,179.35,402.08,177.9,404.24Z" transform="translate(-14.68 -118.71)"/><path class="cls-4" d="M367.79,432.37c7,3.78,14,7.55,21.84,9.16,1.35.28,1.49.83.8,2-1.07,1.83-1.52,4.52-3.06,5.44s-3.57-1.34-5.41-2.11c-4.38-1.81-8.82-3.53-12.71-6.34C364.7,437.23,364.67,437.17,367.79,432.37Z" transform="translate(-14.68 -118.71)"/><path class="cls-4" d="M327.21,398.29a218.77,218.77,0,0,0,22.71,1.65c1.48,0,1.66.53,1.51,1.93-.7,6.21-.67,5.92-7,6.54-5.58.55-10-.58-13.21-5.51A41.14,41.14,0,0,0,327.21,398.29Z" transform="translate(-14.68 -118.71)"/><path class="cls-4" d="M394.51,431.65c-6.62-1.41-13.31-2.64-19.3-6-1.27-.71-3.59-1.35-2.59-4,1.27-3.33,1.2-3.41,4.45-1.83A52.26,52.26,0,0,0,396,425c1.58.12,1.75.57,1.29,1.87s-.83,2.57-1.16,3.88C395.9,431.65,395.48,432.09,394.51,431.65Z" transform="translate(-14.68 -118.71)"/><path class="cls-5" d="M354.94,227.24a6.16,6.16,0,0,1-1.49,0c-8.18-3.58-16.25-2.15-24.32.46-1.78.57-3.56,1-4.39-1.67-1.23-3.94-1.12-4.42,3-5.15,4.51-.8,9.23-1.45,13.62-.58A29.85,29.85,0,0,1,354.94,227.24Z" transform="translate(-14.68 -118.71)"/><path class="cls-6" d="M408.36,269.22c4.52.29,8.24-1.17,12.15-3.47-1.16,4.19-2.47,8-3,12.06-.16,1.36-1.14.46-1.7.13A17.49,17.49,0,0,1,408.36,269.22Z" transform="translate(-14.68 -118.71)"/><path class="cls-7" d="M360,488.46c5.1,5,11.28,8.1,16.92,13.16a90.58,90.58,0,0,1-17.76-8.71C356.74,491.36,359.81,490.2,360,488.46Z" transform="translate(-14.68 -118.71)"/><path class="cls-6" d="M382.69,256.83c0,2.7-4.81,6.49-7.52,5.81-1.28-.32-1.82-1.32-.92-2.41a25,25,0,0,0,3-4.91A3.11,3.11,0,0,1,381,253.8C382.55,254.24,382.68,255.52,382.69,256.83Z" transform="translate(-14.68 -118.71)"/><path class="cls-8" d="M169.2,338.65c.56,4.51-.52,5.76-4.72,6.09-3.74.3-7.23-.62-10.74-1.79C159.33,343.11,164.62,342.26,169.2,338.65Z" transform="translate(-14.68 -118.71)"/><path class="cls-9" d="M238.34,245.8c1.94,0,3.52.4,3.42,2.28s-2,2.17-3.54,2.24c-1.38.06-2.94-.2-2.87-2.07C235.42,246.22,237.11,246,238.34,245.8Z" transform="translate(-14.68 -118.71)"/><path class="cls-10" d="M351.1,425.07a31.49,31.49,0,0,1-5.82-6.42C350.29,416.81,350.29,416.81,351.1,425.07Z" transform="translate(-14.68 -118.71)"/><path class="cls-11" d="M369.85,265.05c2.88-.27,5.22,1.38,7.79.76.19-.05.51.45.77.7a6.11,6.11,0,0,1-1,1C375.32,268.75,372.13,267.79,369.85,265.05Z" transform="translate(-14.68 -118.71)"/><path class="cls-12" d="M166.27,318.8c-7.37,1.26-14.76.38-22.13-.92C151.49,318.31,158.83,319.44,166.27,318.8Z" transform="translate(-14.68 -118.71)"/><path class="cls-13" d="M338.14,271.48c2-1.82,3.38-1,4.62-.33,2,1.1,3.21,4.2,2.91,7.78C344.15,275.61,344.09,270.93,338.14,271.48Z" transform="translate(-14.68 -118.71)"/><path class="cls-14" d="M147.1,325.14c-1-.41-2.85.11-3.14-1.64-.19-1.17,1.09-1.07,1.94-1.09,1.29,0,2.77,0,3.15,1.42C149.35,325,148.14,325.05,147.1,325.14Z" transform="translate(-14.68 -118.71)"/><path class="cls-15" d="M148.77,335.22c-1,0-2.13,0-2.31-1.19s.83-1.34,1.77-1.31,2.37-.11,2.46,1.3C150.76,335.09,149.69,335.25,148.77,335.22Z" transform="translate(-14.68 -118.71)"/><path class="cls-16" d="M243.15,253.89c.08,1.34-.69,1.51-1.47,1.55s-1.64-.12-1.69-1.1a1.31,1.31,0,0,1,1.35-1.5C242.28,252.82,243,253.05,243.15,253.89Z" transform="translate(-14.68 -118.71)"/><path class="cls-17" d="M271.44,289.45c-1.07-2-.5-3.86,1.79-6.13.31,1.26-.58,2.14-.87,3.17S271.77,288.39,271.44,289.45Z" transform="translate(-14.68 -118.71)"/><path class="cls-18" d="M161.37,314.49c-.32.7-.62,1.4-1.57,1.4s-1.68-.22-1.83-1,.7-1.22,1.49-1.31A1.85,1.85,0,0,1,161.37,314.49Z" transform="translate(-14.68 -118.71)"/><path class="cls-19" d="M334,169.12c1.54.12,3,.32,3.78,1.85.05.1-.32.6-.49.59C335.59,171.54,335.11,169.89,334,169.12Z" transform="translate(-14.68 -118.71)"/><path class="cls-20" d="M160.81,324c.82-1.45,1.84-1.36,2.94-.81.3.15.78.47.42.85C163.21,325.07,162.14,324.58,160.81,324Z" transform="translate(-14.68 -118.71)"/><path class="cls-21" d="M151.25,314.81c.67.2,1.39.38,1.37,1.23a1,1,0,0,1-1.19.95c-.64-.09-1.48-.26-1.58-1C149.72,315.09,150.75,315.19,151.25,314.81Z" transform="translate(-14.68 -118.71)"/><path class="cls-22" d="M157.75,321.66c-.14.81-.83.67-1.36.7-.71.05-1.45-.14-1.42-1,0-.7.72-.8,1.32-.83A1.38,1.38,0,0,1,157.75,321.66Z" transform="translate(-14.68 -118.71)"/><path class="cls-23" d="M155.47,337.45c-.09.58-.36,1.13-1,1.06-.51-.06-1.2-.2-1.21-.94a1.12,1.12,0,0,1,1.06-1.12C155,336.34,155.29,336.84,155.47,337.45Z" transform="translate(-14.68 -118.71)"/><path class="cls-3" d="M101.57,735.9a53,53,0,0,0,17.37-32.43,33.26,33.26,0,0,0-4-20.86c-3.87-7.25-10.56-10.44-18.23-11.62a52.53,52.53,0,0,0-34.39,6c-10.93,6.13-14.1,16.32-9.15,27.89a39,39,0,0,0,9.31,13.59c7.29,6.76,15.75,8.57,25.15,6.06a16.14,16.14,0,0,0,11.58-10.6c1.86-5.25,3.35-10.58,2-16.24-2.37-9.7-10.86-14.86-20.7-12.55-5.74,1.35-10.54,4-12.94,9.79a11.34,11.34,0,0,0,5,14.56c4.91,2.72,12.64,1,15.77-3.5a10.61,10.61,0,0,0,.92-1.81c.4-.92.75-2-.31-2.61-1.21-.72-1.71.4-2.19,1.2a9.84,9.84,0,0,1-7.39,4.66c-3,.45-5.86.05-7.93-2.52a8.13,8.13,0,0,1-1.19-8.75c2.1-5.19,6.43-7.36,11.52-8.27,14.38-2.57,19.33,11.18,15.6,20.52-4.91,12.27-17.28,16.45-28.54,9.26a32.62,32.62,0,0,1-13.65-17.29c-2.57-7.54-.52-14,6-18.73s13.85-6.92,21.71-7.74c4.24-.45,8.47-.89,12.78-.18,12,2,17.86,8.11,20.23,20,2.94,14.8-10,37.59-23,42.5-8.81,3.31-17.53,3.7-26.36-.2-13.2-5.82-22.68-15.73-28.62-28.38C26,682.24,38.8,655.3,65,649.2c14.92-3.47,29.73-3.1,44.27,1.87,8.1,2.77,14.55,8.19,20.19,14.43,3.84,4.24,3.95,10,5,15.32,3,15.54.17,30.34-5.91,44.67-2.91,6.88-7.79,11-15.76,10.44C109.3,735.71,105.81,735.9,101.57,735.9Z" transform="translate(-14.68 -118.71)"/><path class="cls-3" d="M150.61,654.14c-1.25-2.58-2.16-4.9-3.44-7-.91-1.48-.68-2.31.54-3.37,1.84-1.62,3.81-3.92,6-3.83,2.53.12,1.8,3.63,2.94,5.45s1.25,4,2.83,5.86c.58-2.53-.57-4.33-1.31-6.16a74.56,74.56,0,0,1-5.58-22.73c-.18-2.51,1.24-2.13,2.7-2.39,2-.37,1.78,1,1.76,2.1-.14,8,2.72,15.34,5.5,22.65.8,2.1.85,4.51,2.76,6.93,1-4.76-1.53-8-2.73-11.52,4.09.7,8.41,5,9.44,9.12a23.74,23.74,0,0,1-.2,10.41,29.53,29.53,0,0,0,1.69,16.87A66.47,66.47,0,0,1,178,692.8c1.53,12.54-5.95,26.32-17.32,31.58a129,129,0,0,1-29.91,9.46,12,12,0,0,1-2,0,52,52,0,0,0,7.19-15.45c.87-3.29,1.52-6.63,2.29-9.94.87-3.79,1.39-7.48,4.09-10.86,3.12-3.89,2.72-9,1.33-13.71-1.25-4.28-2.89-8.43-3.83-12.81-1.49-6.93-.14-13.43,2.6-19.89,1.92,1.62,2.55,3.91,3.9,5.75-.74-3.2-2.57-5.88-4.42-8.49-5.57-7.84-10.84-15.8-12.33-25.6-.07-.48-.17-1-.2-1.44,0-.67,0-1.34,0-2,2-.19,3,.43,3.17,2.55A30.18,30.18,0,0,0,140,639a56.51,56.51,0,0,1,9,13.78A1.77,1.77,0,0,0,150.61,654.14Z" transform="translate(-14.68 -118.71)"/><path class="cls-3" d="M140.76,613.45c2.61,2.37,5.72,3.31,8.54,4.78a3.21,3.21,0,0,1,2,2.9c.27,5.12.62,10.25,2.35,15.15.38,1.08-.35,1.36-1.06,1.69a22.52,22.52,0,0,0-6.42,4.45c-1,1-1.42.72-2.18-.24-4.73-5.93-8.18-12.43-9.2-20.07-.19-1.43-.13-2.17,1.49-2.8C138.68,618.38,139.44,615.8,140.76,613.45Z" transform="translate(-14.68 -118.71)"/><path class="cls-4" d="M51,732c-11.36,1.12-26.39-6.53-30.79-15.64,3.74,1.81,7.53,2.47,11.26,3.32,1.22.28,2.6.75,3.72.45,4.22-1.14,6.32,1.27,8.4,4.28A37.28,37.28,0,0,0,51,732Z" transform="translate(-14.68 -118.71)"/><path class="cls-7" d="M133.35,604.74c-7.21.28-9.16,2.42-8.77,9.68-.17.05-.39.18-.5.12-2.19-1.25-4.92-2.55-5-5.2-.09-2.89,2.91-3.75,5.18-4.79A9.31,9.31,0,0,1,133.35,604.74Z" transform="translate(-14.68 -118.71)"/><path class="cls-24" d="M151.06,604.49c-3.12,2.81-3.78,6-3.51,9.64a14.24,14.24,0,0,1-5.47-2.79c-2.11-1.89-1.94-3.83.56-5.05A16,16,0,0,1,151.06,604.49Z" transform="translate(-14.68 -118.71)"/><path class="cls-25" d="M156.13,615.5c-2.52-.07-4.12-1.66-4-3.88.12-2,.73-3.69,3.13-3.73a5,5,0,0,1,4.79,4.53C160,615.3,157.69,615,156.13,615.5Z" transform="translate(-14.68 -118.71)"/><path class="cls-26" d="M130.09,613.8c-1.32-1.56-1.21-3.25.45-4.18a4.43,4.43,0,0,1,5.3,1c1,1-.21,2.11-.62,3.14-.6,1.52-1.79,1.87-3.27,1.7-1.1-.12-2.2-.19-1.94-1.78.34-.28.86-.14,1.2-.5C130.68,613.15,130.42,613.54,130.09,613.8Z" transform="translate(-14.68 -118.71)"/><path class="cls-27" d="M380.37,477.3c5.38,6.16,3.76,12.79,1.42,19.4-2.2-3.6-4.85-7.11-4.46-11.86.09-1.19,0-2.58,1.15-3C380.72,480.89,381.16,479.39,380.37,477.3Z" transform="translate(-14.68 -118.71)"/><path class="cls-28" d="M403.84,516.39c-6.44-7.25-4.64-15.19-4-22.94a10.92,10.92,0,0,1,1,3.47,12.08,12.08,0,0,0,2,5.65,7.59,7.59,0,0,1,1,6.68A17.38,17.38,0,0,0,403.84,516.39Z" transform="translate(-14.68 -118.71)"/><path class="cls-29" d="M427.75,535.74c-3.87-5.59-5.24-11.22-3.87-17.31.37-1.64-1-3-.16-4.48C425.69,517.1,428.42,531.11,427.75,535.74Z" transform="translate(-14.68 -118.71)"/><path class="cls-27" d="M447.85,552.25c-4.1-5.52-5-14.47-1.74-17.18C446.54,540.82,451.17,546,447.85,552.25Z" transform="translate(-14.68 -118.71)"/><path class="cls-30" d="M329,417.78c.81,3.85,1.84,7.68,2.34,11.57.28,2.2-1.61,4-2.29,6.13-.61,1.85-1.47,3.43-.75,5.44.25.69.17,1.56-1.14,2.44-.29-6.36-5.61-11.72-2.06-18.35.13-.25.09-.66.28-.81,2-1.67,3.44-3.57,2.33-6.77Z" transform="translate(-14.68 -118.71)"/><path class="cls-27" d="M341.29,435.09c1.43,3.24,2.38,6.29,1.42,10-.87,3.34-2.55,6.42-2.81,10.24C335.24,448.08,338.25,441.63,341.29,435.09Z" transform="translate(-14.68 -118.71)"/><path class="cls-31" d="M323,236.31c3.61-.06,6.08,2,6.14,5.19a5.92,5.92,0,0,1-5.89,6,6.08,6.08,0,0,1-6-5.55C317.14,238.76,319.62,236.35,323,236.31Z" transform="translate(-14.68 -118.71)"/><path class="cls-32" d="M159.72,684.89a19.74,19.74,0,0,1-11.5-7.18c-.32-.38-.57-1-.22-1.3a1.51,1.51,0,0,1,1.34-.17c5.93,2.26,11.19.16,16.37-2.44,1.4-.7,2.17-.37,2.56,1.09C169.43,679.21,164.57,685.2,159.72,684.89Z" transform="translate(-14.68 -118.71)"/><path class="cls-33" d="M157.54,612.29c-.1.76-.44,1.36-1.25,1.31-1-.05-1.87-.52-1.85-1.72,0-.82.6-1.11,1.36-1.1A1.62,1.62,0,0,1,157.54,612.29Z" transform="translate(-14.68 -118.71)"/><path class="cls-28" d="M130.09,613.8c-.51-1.58.5-1.9,1.66-1.8a1.16,1.16,0,0,1,1,1.74c-.81,1.52-1.79,0-2.7,0Z" transform="translate(-14.68 -118.71)"/><path class="cls-34" d="M326,241c-.24,1.06-.75,2-2.09,1.88-1-.08-1.46-.82-1.46-1.82a1.75,1.75,0,0,1,2-1.94C325.47,239.18,326,239.93,326,241Z" transform="translate(-14.68 -118.71)"/><path class="cls-35" d="M152.65,679c5.14.48,9.37-2,13.89-4-.13,3.4-1.36,6.11-4.24,7.27C158.44,683.78,155.61,680.94,152.65,679Z" transform="translate(-14.68 -118.71)"/></svg>