<svg id="Layer_1" data-name="Layer 1" xmlns="http://www.w3.org/2000/svg" viewBox="0 0 594.29 1161.26"><defs><style>.cls-1{fill:#fff;}</style></defs><path d="M444.78,91c6-.42,12.69-.78,18.53,1,2.5.84,4.78,2.23,5,5.11,0,3.11-3.21,5.66-5.21,7.71,6.24-.37,12.65-3.85,18.58-1.35-.08,2.88-.95,4.49-2.56,6.82,2.76.39,4.53,1,6.33,3.12-.06.69-.12,1.39-.17,2.09-1.48,1.67-3,3.33-4.38,5,4.38-.29,8.67-1,13.08-.8,18,.65,35.84,5.56,49.61,17.65,2.24,2.24,5.15,4.12,3.67,7.75-1.72,1.84-4.49,2.71-6.61,4,6.12,1.63,13.16,2.46,16.93,8.24,2.19,3.15,1.59,6.27.83,9.79a58.38,58.38,0,0,1,7.51,7.89,2.44,2.44,0,0,1,.27,3.12,16.85,16.85,0,0,1-4.73,2.29,23.68,23.68,0,0,1,8.38,5.71c1.2,1.42,2,3,1.51,4.88-1.26,2.64-4.19,3.83-6.54,5.35,3.86.85,7.52,1.08,11.19,2.59,5.72,2.34,11.42,3.15,16.42,6.66,8.54,5.58,14.1,16,17.67,25.25,1.09,3.35,2.55,7,.06,10.14-2.16,2.63-4.88,2.62-8,3.35a52.07,52.07,0,0,1,9.09,9.32c.5,1,1.6,2.17.83,3.31-1.35,2.16-3.34,2.41-5.65,2.9,2,2.47,4.6,4.36,2.77,7.86-2.23,2.66-5.67,4.62-8.76,6.13v1.51c12.28,9.1,20.56,21.93,25.62,36.2a30.73,30.73,0,0,1,1.11,14.22,13.05,13.05,0,0,1-6.14,8.23c-5.61,3.4-11.48,3.29-17.81,3.07,3.52,4,7.78,7.93,10.39,12.6,1.19,2.24,2.11,5.9-.15,7.77-2.7,2.52-7,2.07-10.36,2.24,1.6,4.18,4.65,7,2.63,11.72a16.75,16.75,0,0,1-7.45,1.06c4.06,6.45,8,14.65,7.4,22.45A12.47,12.47,0,0,1,597,407.05c-3.62,1.21-6.83.32-10.37-.62-.08,3.68.33,7-1.22,10.46-1.33,3-3.89,5.92-7.43,5.76-4.81.35-9.26-2.5-12.92-5.3,1.58,3.78,3.37,6.95,2.51,11.24-5.09.2-9.92-3.67-14.48-5.8-1.6-.64-4.2-3-5.88-2.35-.83,1.61-.71,2-2.61,2.48,3.21,3.87,5.41,8.45,7.57,13,1.88,4.37,5,10.89,2,15.32-7,3.19-13.67.33-20.21-2.39,1.45,4.12,2.17,8.26,1.23,12.59a7.8,7.8,0,0,1-8.22,5.16,22.15,22.15,0,0,1-11.22-5.24c-1.29,1.57-1.53,2.23-3.72,2.51,1.26,2.89,4,6.4,3.39,9.68-2.75,5.14-8.49,3.93-13.12,2.58.13,1.89,1.07,5.28-.32,6.89-4,2.79-9.44,2.63-14,1.7-6.2-1.22-12.92-3.7-17.55-8.14-.81-.9-2.06-1.75-.9-3,5.86-6.72,11.95-12.71,16.33-20.58,3.48-5.2,5.63-11,8.34-16.55,2-4.43,3-9.05,4.35-13.69a75.07,75.07,0,0,0,13.3-3.26c5.67-2.18,11.19-3.74,16.13-7.45,5.17-3.18,8.81-8.46,11.26-13.9,2.22-4.8,1.39-11,.54-16.1-.85-5.63-6-9.09-10.82-11.2-4.71-1.33-10.34-.37-15,.92a42.8,42.8,0,0,0-12.82,6.08c-3.3-4.39-2.92-8.89-3-14.07-2.31-2.28-1.31.88-1.73,2.25-.47,5,.73,10.66,3.95,14.55,1.05.14,2-.82,2.81-1.33,6-4.74,14.23-6.77,21.75-7,5.07-.36,10.1,2.93,12.59,7.22,1.95,2.9,1.26,7.16,1.37,10.54.25,8.19-5.21,15.81-11.78,20.23-8.53,6-20.3,8-30.36,10.28-1,8.12-3.78,16.15-7.05,23.64-6.66,13-16.94,24.21-28,33.55a89.81,89.81,0,0,1-35.33,20c0,1.27,0,2.55.07,3.82,9.55-.37,18.88-1.17,28.46-1a5,5,0,0,1,3.81,5.47c-.21,6.15-5.11,12.24-7.15,18a22.82,22.82,0,0,0,1,5.08c6.33,5.81,16,8,24.36,8.21,2.85.2,6.6-.06,9.06,1.59,4.76,4.42,5.94,11.23,8,17.11A181.89,181.89,0,0,1,501.91,599c3.37,16.59,5.82,33.26,8.53,50,3,11.86,4,23.86,5.74,35.94.51,5,1.32,10,1.45,15.08,0,2.39.72,5.88-.62,8-2.47,2.78-7,3.91-10.5,4.75-15.77,3-29.47-1.5-45.06-1.47.87,2.55,1.68,5.11,2.4,7.7,2,7.45,5.77,14.2,8.47,21.53,2.83,6.45,5.37,12.91,7.79,19.52a34.43,34.43,0,0,1,4.95-1.32c2.45,3.19,2.87,8,4.23,11.83.61,2-.81,2.71-1.82,4.13a331.83,331.83,0,0,1,10.42,35.37c4.94,18.77,9.17,37.77,12.94,56.8a329,329,0,0,1,6.29,36.21c.94,10.34,2.32,20.63,3.48,31,.51,14,1.82,28,2.77,42-.14,5.4,1.18,10.59,1,16,1,9.3,1.13,18.66,1.74,28,1.09,12.58.61,25.37.66,38-.12,10.74.43,21.18-.67,31.89,9.06-.74,19.91-2,28.36,1.94,1.71.65,1.09,1.93,1.2,3.39-5.34,2.86-7.75,7.52-11.44,12-3.37,4.36-6.81,8.09-8.94,13.25-1.92,4.34-2,9-1.39,13.6.32,1.16,1.61,1.83,2.5,2.58,10.78,7.65,18.6,18.25,24,30.21.84,2.2,1.85,4.57,0,6.59-1.18,2-4.85,4.17-4.93,6.41,2.47,3,5.56,5.59,8.38,8.28,3.86,3.66,8.45,6.14,12.62,9.36,5.78,4.8,10.68,10.67,12.66,18.07,2.23,8.24,3.07,17.44.13,25.62-9.61,2.27-19.41,5.7-29.28,7.07-6.32.39-12.69.09-19,.16-5.92,0-10.24-2.84-16-3.81-5.48-1.39-11.93-3.61-15.83-7.89-6.93-8.62-10.38-20.51-16.56-29.27-3.1-4.08-2.32-10.74-1.44-15.47.14-2.42.18-4.85.21-7.28l-2.78-.37a15.7,15.7,0,0,1-.34-4.2c1.25-7.58,5.08-16.19,3.51-23.88-.92-10.88-2.4-21.77-5.45-32.28-2.37-8-5-15.62-9.77-22.53-1.05-1.55-1.8-2.87-.89-4.75,3.45-2.69,8.59-3.48,12.79-4.3-3-14.75-5-29.67-8.08-44.4-1.88-7.64-2.84-15.41-5-23-2.68-9.37-5.11-18.77-8.41-28a265,265,0,0,0-12.32-32.59,322.65,322.65,0,0,0-25.43-48.55c-4.79-7.41-9.61-14.93-15.28-21.7-4.57,8.22-11.68,14.86-18.54,21.22a64.28,64.28,0,0,1-30.49,15.41c-8,13.74-15.46,27.88-21.32,42.65-3.26,9.1-5.72,18.67-9.59,27.53-2.77,6.52-4.92,13.25-7.43,19.86a309.08,309.08,0,0,0-15.71,52.23c-2.32,9.75-4.68,19.26-4.64,29.38,6.08-1.46,12.58-1.36,18.8-1.13,1.37-.21,3,1.35,1.91,2.59-1.09,1.47-3.13,2.22-4.51,3.45-4.05,3.34-6.33,8.86-8.63,13.47-3,5.86-4.29,11.83-6.18,18.12-1.17,4.28-2.48,9.14-2.11,13.57,3.87,8.58,8.88,16.29,13.38,24.51,1,2,2.26,3.74,1.59,6-3.24,4.23-8.27,5.62-12.88,7.49-.65,6.1-.56,11.8-3.16,17.56-.63,1.22-1.52,2.86-2.85,3.42-3,1.3-6.08,2.32-9,3.84a31.1,31.1,0,0,1-1.21,3.8A71.9,71.9,0,0,0,275,1235c-4.76,5.53-10.62,8.8-16.86,12.35-5.34,2.82-10.38,5.3-16.64,4.39-8.54,0-17-.86-25.5-1.24-7.56-.74-14.79-3.85-21.63-7a64.19,64.19,0,0,1,.49-26.44c3.52-11.34,12.57-21.2,22.22-27.81,7.14-4.59,14.49-9.23,20.85-14.88-2.92-1.15-5.63-2-7.5-4.69-2.18-2.82-2.74-6.71-.31-9.57,5-6.12,12.17-9.53,18.87-14.08,1.93-1.4,5.24-2.63,6-5a40.63,40.63,0,0,0,2.36-18.84c-3.91-10.46-9.17-20.55-16.57-29a1.88,1.88,0,0,1,.28-2.94c5.63-4.08,11.45-3.88,17.92-5.36,4.24-.86,8.18-.37,12.44-.11a68,68,0,0,0-.29-7.7c-1-5.88-.69-12.06-.77-18,.18-6.64-.15-13.45.79-20,.41-4.36.08-8.75.5-13.11,1.27-9.49.15-19.42,1.81-28.87,1.62-7.53,1.73-15.44,2.86-23.1,1.24-12.58,4.65-24.82,6.12-37.34a109.54,109.54,0,0,1-34.89-11.28c-4.42-2.12-8.18-5.25-12.58-7.41-17-9.62-33.44-22.12-44.2-38.67-7.9-12-11.78-25.21-14.22-39.21-.9-6.81-2.2-13.16-2.1-20,0-13.94-.37-28.12,1.05-42,.89-11.68,2.16-23.29,3.63-34.91,2.51-22.2,4.33-43.7,3.42-66.08a157.36,157.36,0,0,0-10.63-53c-2-4.5-4.36-8.82-6.56-13.21-7.7-16.16-23.56-28.72-41.35-31.57-10.48-2.1-22.36-.6-31.43,5.3C81.12,591.48,73,602.66,68.22,615A103.92,103.92,0,0,0,61,646c-.57,6.83.36,13.31.61,20.11a17.71,17.71,0,0,1-3-3.6c-5.69-9.4-9.73-20-13.56-30.26-3.22-10.41-7.63-20.68-8.87-31.26-1.48-8.17-2.86-16.68-2.81-25-.06-7.33-.17-14.69.33-22a187.37,187.37,0,0,1,10-44,144,144,0,0,1,11.84-26.55c8.83-16.24,20-32,33.8-44.34,5.51-6.42,12.45-10.86,19.89-14.73,7.6-3.62,15.31-6.79,23.64-8.29,4.88-.88,9.43-2.76,14.23-3.87,9-2.05,17.81-1.69,27-1.52,10.17.94,19.89,1.34,30,3.55,8.77,2.11,17.47,4.22,25.81,7.71a98.07,98.07,0,0,1,34.12,18.15c7.76,6.52,16.14,13.67,21.41,22.42,5,8,10.18,15.92,14.22,24.51,4.08,6.72,6.48,14.24,10.83,20.76-1-3.23-1.79-6.54-3-9.69-1.13-2.87-3-5.11-3.25-8.3a5.93,5.93,0,0,1,2.8,2.18c2.82,4.34,6.14,7.87,8.33,12.56,2.11,4.37,3.9,8.9,5.68,13.4,3.17,8,4.05,16.64,6,25a111.74,111.74,0,0,1,2.72,18.54,5.25,5.25,0,0,0,1.16,3.44c1.24-5.1,3.23-10,4.07-15.2-2.15-.87-.71-1.74-.3-3.22,1.82-3.71,5-7,9.42-7.1A67.9,67.9,0,0,0,372,532c1.44-.54.38-2.12-.18-2.93-3.32-4.66-6.48-9.43-9.86-14.06a10.13,10.13,0,0,1-1.86-4.43c6.85-1.68,13.87-1.92,20.86-2.86,4-.3,7.9-1,11.93-1-.14-2.39-.29-4.79-.4-7.18-3.81-1.55-7.82-2.31-11.67-3.71a112.27,112.27,0,0,1-39.25-25.5c-9.78-8.28-16.8-20.13-20.81-32.22-2.63-6.67-3.86-13.58-5.17-20.59a58.53,58.53,0,0,1-22.58-2.61c-6.59-2.57-12.57-4.93-16.63-11.11-3-4.59-3.07-9.61-2.61-14.88.81-3.7,4.16-6.8,7.3-8.65,4-2.53,9.39-2,13.9-1.72,7,1.28,14,5.76,20.17,9.25.07-3.3.26-6.5-.63-9.73-1,2.32-.77,4.65-.86,7.14-6.75-3-13.16-8.93-20.68-8.87-6.05-.37-12.13.66-16.64,5-7.16,6-7.45,17.78-1.37,24.64,4.74,7,14.42,9.89,22.21,12,5.71.72,11.49,1.59,17.26,1.45.16,10.76,5,21.88,9.4,31.57,2.39,4.69,4.23,9.61,7.75,13.38,3.84,4.21,8.48,7.63,12.52,11.66-4.74,4.42-10.1,10-16.42,11.86-2.19-5.29-.45-12.26-.06-17.85-2.9.81-7.59,4.26-10.37,2.55.07-3.26,2.1-6.27,2.71-9.51-5.34,2.78-10.83,5.31-17,5.22-3.61-.36-7.27-.95-9.48-4.14,2.31-6.69,5.16-13.21,8-19.68-5.33,3.85-11,7.85-17.18,10.23-.51-5.85,1.31-11,2.62-16.55a25.37,25.37,0,0,1-9.77,1.37,23,23,0,0,1,2.44-10.11c-7.92-.79-16.44-.36-23.56-3.53-2.92-1.33-5.42-3.47-5.68-6.87-.59-5.72,2.26-9.65,4.56-14.55-5.49-1.09-11.05-.85-16.48-2.15a4.12,4.12,0,0,1-3-2.2c.25-4.32,4.14-8.76,3.84-13.21-.46-3.7-4.46-6.78-6.93-9.31-4-3.85-7.38-7.76-7.67-13.61.41-6.52,3.75-11.93,8.12-16.59-3-1-5.95-1.68-8.39-3.85-.08-4.67,4.36-8.57,6.81-12.32-3.93,0-9.1,2-12-1.57.32-3.5,2-6.37,3.58-9.4-3.5.33-6.45,1.35-9.9.49-5.27-.68-9.75-5.15-12.09-9.69-2.32-4.12-1.68-9.62-1.24-14.14a46.13,46.13,0,0,1,12.23-19.17c5.52-5.48,12.08-8.95,18.72-12.77-2.07-1-6.74-2.15-7.08-4.89-.74-2.87,4-3.94,4.47-6.16-3.41-1.16-6.61-2.07-9.47-4.38-.27-2.89-.76-5.46,1-8,3.66-6,9-9,14.44-13.09-3,.1-6,.77-9,.9-1.91.27-2.55-1-3.75-2.17,3.83-7.61,12.91-12.9,20.22-16.7-6.68-1-14.3-1.43-19-7-2.16-2.34-1.3-5.48.11-8,5.24-10,15.44-17.62,25.25-22.72,6.44-3.45,13.14-4.66,20.18-6.23a29.31,29.31,0,0,1-5.65-9.75c2.7-4.13,7.45-3.86,11.83-4.08-.81-1.83-2.28-3.65-2-5.75-.14-2,2.17-2.82,3.71-3.42a55.11,55.11,0,0,1,16.8.86,75,75,0,0,1-12.2-13.89c-1.6-2.08-.46-4.13,1.45-5.36a46.64,46.64,0,0,1,21.23-7.12c5.73-.87,11.12.09,16.81.55,7.1.81,13.85,2.53,20.74,4-2.15-2.61-4.66-4.93-6.73-7.6-1.13-1.32.34-2.64,1.49-3.21,7.36-1.43,13.59.92,20.22,3.74-2-3.43-4.56-7.39-4-11.52a6.57,6.57,0,0,1,3.86-5.25c8.11-1.39,15.07,1.53,22.35,4.61,4.15,1.57,7.91,3.83,11.84,5.87-.18-1.93-.32-3.85-.37-5.79,6.14-.76,11.17,1.75,16.07,5.09,2.47-.66,3.54-1.41,6,0a27.14,27.14,0,0,1,5.44-3.75c3.12-1.76,5.45-4.45,8.49-6.42A45.71,45.71,0,0,1,444.78,91Z" transform="translate(-33.28 -90.66)"/><path class="cls-1" d="M393.46,107.12c4.43.77,8,4.16,11.71,6.42,1.14,1,2.55-.67,3.58-1.17.57.72,1.16,1.42,1.78,2.11,1.29-.45,2.33-1.75,3.47-2.49,2.58,1.71,3.62,5.69,4.14,8.57,1,6.24,1.8,12.84,5.3,18.25,2.66,4.66,6.41,8.24,10.39,11.76-5.5-.14-9.17-3.08-13.57-5.89-1.1-.79-1.45.53-1.59,1.38-.05,6.42,3.63,11,8,15.24,4.11,4.49,9.75,6.66,13.9,11.08A37.53,37.53,0,0,1,449.81,187c1.81,5.44,2.44,11.52.12,16.89-1.58,1.24-3.29,2.29-4.84,3.57,1.26,0,2.83.19,4-.39,4.35-2.27,8.21-5.23,10-10,1.59,2.34,1.66,5,2.35,7.89,3,15.65,2.86,31.4-3.48,46.23a18.13,18.13,0,0,1-5.71,8.22c-.9.56-.11,1.4,0,2.21,7-1.41,13.29-5.11,16.62-11.6.52,12.73-5.12,25.9-12.89,35.8-3,4-6.92,5.52-8.72,10.18-2.85,6.64-7.43,11.88-11.12,18-5.78,7.85-9.51,16.42-14,25-5.48,11.16-8.93,24.06-12.46,36-2.18,6.95-2.63,13.86-3.75,21a84.7,84.7,0,0,0,0,9.56c-2.21,0-4.74.09-4.44,3,1.36,1.79,3.08,1.66,5.11,1.93l.15,3.39c-1.17-.44-4.35-2.72-4.38.11-.28,2.46,3.43,1,4.65,1.19.65,7.76,3.07,14.64,6,21.75-4.44-.93-8.63-1.73-13.21-1.37l-.66,2.35c4.48-.64,8.75-.92,12.88,1.24,3.82,1.95,8.75,4.93,8.64,9.82-.06,3.09.61,6.93-1.29,9.52-2.84,4.81-8.91,7.45-14.38,7.11-7.5-.25-14.61-5.17-16.32-12.69-1-6.54,3.94-11.51,9.18-14.43l-1-.76c.31-.42.64-.85.94-1.28l-2.73.67c.67-3.76,1.56-7.49,2.28-11.24.49-3.62.2-7.35.32-11,3.54-.47,2-3.41.12-4.89-.21-1.87-.4-3.74-.62-5.61,1-.08,2-.2,2.93-.35.3-.85.58-1.72.81-2.6-1.32-.48-2.67-.9-3.95-1.46-1.08-10.14-1.13-20.22-4.15-30A142.93,142.93,0,0,0,383,343a194,194,0,0,0-26-35.72c-3.66-3.8-6.61-8.14-10.48-11.73-2.24-2.19-4.75-3.84-6.53-6.49a55.82,55.82,0,0,1-11.33-41,38.25,38.25,0,0,1,6.6-15.09c1,3.12,2.1,6.07,4.33,8.56,2.54,3.24,6.2,5.07,8.81,8.23a22.75,22.75,0,0,0,4.66,4.1c-1.85-3.57-4.36-6.59-6.52-9.93-2.71-4.27-3-8.89-3.78-13.76-.82-7.78,1.31-14.85,4.54-21.83,1.14,3.05,2.22,6,4.33,8.59,2.68,3.15,2.52,7.47,4.69,11-1.38-9.79-2.26-20.91,1-30.41A84.31,84.31,0,0,1,377,166c-1.52-1.8-3.05-3.59-4.67-5.31,1.62-.8,5.06-1.53,5.25-3.73a30.25,30.25,0,0,0-4.17-6.08c3.86-1,7.46-2.34,10.33-5.22,4-3.45,5.77-8,7.4-12.82-2.19-1.06-4.7,1.49-6.87,2.14,3.37-4.06,6.71-8.76,7.9-14,.65-2.58-.33-5,1.6-6.84C393.65,111.84,393.45,109.47,393.46,107.12Z" transform="translate(-33.28 -90.66)"/><path d="M377.8,164a8.53,8.53,0,0,1,8.27,6.14C383.27,168.17,380.76,165.85,377.8,164Z" transform="translate(-33.28 -90.66)"/><path class="cls-1" d="M287.8,200.51c-2.89,4.62-9.75,5.75-14.68,4.67-2.5-.54-3.71-1.79-5-3.89,2.35.43,4.52,1.35,6.81,2,2.41.42,4.81-.31,7.11-1C284,201.69,285.87,201.05,287.8,200.51Z" transform="translate(-33.28 -90.66)"/><path d="M357.68,254.57a9.28,9.28,0,0,1,5.15,6.41c.29.81,1.34,4.92-.7,3.77-.95-3.68-.9-6.81-4.86-8.64C357.4,255.6,357.54,255.08,357.68,254.57Z" transform="translate(-33.28 -90.66)"/><path class="cls-1" d="M285.27,285l.88.58c1.75,2.27,3.37,4.65,5,7C286.94,293.33,285.17,288.42,285.27,285Z" transform="translate(-33.28 -90.66)"/><path class="cls-1" d="M291.58,285.53l.42,0h.19c.68,3.38,2.42,6.11,4.28,8.93l-2-.11a20.75,20.75,0,0,1-2.85-4.14A19.44,19.44,0,0,1,291.58,285.53Z" transform="translate(-33.28 -90.66)"/><path class="cls-1" d="M304.55,296.27c5.52,2.58,10.28,6.74,15.8,9.3,5.54,1.63,11.06,2.57,16.57.24,4.27-1.21,7.18-4.57,11.34-5.89-1.26,3.1-4.32,4.85-7.1,6.41-4.34,2-8.18,4.06-13.15,3.4-9.71-.92-16.42-6.38-23.28-12.74l-.12-.13Z" transform="translate(-33.28 -90.66)"/><path class="cls-1" d="M506.77,298.44c-7,7.19-15.44,8.32-24.76,10.47a46.52,46.52,0,0,1-29-3.86c-2.24-1.14-4.29-2.32-5.5-4.63a15.33,15.33,0,0,1,5.34,2.06A43.21,43.21,0,0,0,475,307.73C486.57,307.77,496.73,303.79,506.77,298.44Z" transform="translate(-33.28 -90.66)"/><path class="cls-1" d="M536.87,306.59l.27-.1.17-.06c-5.44,2.77-10.64,5.88-16.35,8.12-3,1.11-6.39,3.07-9.65,2.78l-.38,1.09-.11-1.8c-9.31,3-17.93,5.42-27.8,3.18-4.75-1.11-8.62-3.72-12.39-6.7,0-.58-.06-1.16-.1-1.74,3.8,1.35,6.77,4.06,10.58,5.4,5.56,2.24,11.23,2.07,17.12,1.61,3.12-.61,6.25-.72,9.29-1.6A207.47,207.47,0,0,0,536.87,306.59Z" transform="translate(-33.28 -90.66)"/><path class="cls-1" d="M537.18,308.49c2.6.94,5,2.1,7.81,2.25,3.31.39,5.92-.85,9.07-1.55-2.51,1.8-4.83,3.43-8.06,3.41C542.47,312.83,538.62,312.15,537.18,308.49Z" transform="translate(-33.28 -90.66)"/><path class="cls-1" d="M326.75,311c-.49,4.51-4.15,7.82-8.06,9.62-6.85,3.2-15.4,2.64-22.6,1.09-3.2-.46-5.76-.43-7.92-3.14,10.19,2.74,21.12,4.71,31-.2C322.76,316.73,323.81,313.12,326.75,311Z" transform="translate(-33.28 -90.66)"/><path class="cls-1" d="M260.4,314.33a66.89,66.89,0,0,0,7.59,2.8c3.64.91,7.72.73,11.46.7l.06,1.48c-6.64,1.74-14,.48-19.07-4.4Z" transform="translate(-33.28 -90.66)"/><path class="cls-1" d="M487.74,322.23c-1.11,2.86-3.18,5.72-3.35,8.75-.33,4.22-.45,9.17,1.44,13,2.17,4.45,4.22,8.8,8.22,11.88a31.26,31.26,0,0,0,23,6.56c6.83-1.1,11.38-5,16.6-9.08-2.26,4.42-5.56,8.12-10.6,9.19-6.38,2.31-12.94,3.08-19.41.54-6-2.47-11.45-6.12-15.15-11.57-3.83-4.83-5.12-10.54-5.68-16.55a49.3,49.3,0,0,1,1.36-8C485,324.71,485.14,323,487.74,322.23Z" transform="translate(-33.28 -90.66)"/><path class="cls-1" d="M314.2,324.06c-1.71,2.88-4.33,4.41-7.08,6.14C301.85,333.37,295,334.57,289,336a28.27,28.27,0,0,1-9.53.55c8.51-2.89,18-3.79,26.1-7.71C308.86,327.37,310.73,324.62,314.2,324.06Z" transform="translate(-33.28 -90.66)"/><path class="cls-1" d="M314.32,327.42c1.45,7.29-3.1,14.88-7.76,20.13-2.76,3.34-6.56,4.6-9.89,7.14a30.17,30.17,0,0,1-13.56,6.78,119.58,119.58,0,0,0,13.37-8C303.09,348.82,309.92,342,312,334,312.83,331.62,312.33,329,314.32,327.42Z" transform="translate(-33.28 -90.66)"/><path class="cls-1" d="M461.57,340.29a49,49,0,0,1,3,11c-10.9-2.67-22.22.78-32.41,4.52a53.64,53.64,0,0,1,7.64-6.22C445.83,344.86,453.72,340.43,461.57,340.29Z" transform="translate(-33.28 -90.66)"/><path class="cls-1" d="M341.38,341.44c4.16-.31,8.68,1.55,12.56,2.9,5.86,2,10.6,6.24,14.11,11.26-4.21-2.31-8.12-4.58-13-5.05a39.65,39.65,0,0,0-16.64,2C337.91,348.86,339.61,344.64,341.38,341.44Z" transform="translate(-33.28 -90.66)"/><path class="cls-1" d="M558.86,352.46c-2.11,4.6-8,7.15-12.89,6.92-1.85.22-3.37-1.81-4.75-2.87,2.85.16,6,.58,8.8.06C553.11,355.91,556.06,353.9,558.86,352.46Z" transform="translate(-33.28 -90.66)"/><path class="cls-1" d="M563.78,355.44a12.28,12.28,0,0,1-11,6.3C555.64,358.8,560.23,357.51,563.78,355.44Z" transform="translate(-33.28 -90.66)"/><path class="cls-1" d="M559.33,362.82l4.08.05.12,1.45-4.09,1.19C559.41,364.61,559.37,363.72,559.33,362.82Z" transform="translate(-33.28 -90.66)"/><path class="cls-1" d="M350.68,367.87c9.49-1.31,21.53,4.07,24.15,14,2.74,7-.93,15.86-7.11,19.81-9.11,5.62-21.85,1.32-26.47-8.08a20.33,20.33,0,0,1,1.3-20C344.55,370.6,347.47,369.15,350.68,367.87Z" transform="translate(-33.28 -90.66)"/><path class="cls-1" d="M446.52,367.73a23.41,23.41,0,0,1,15.61,3.06c5.52,3.28,9.28,10.23,8.16,16.68a22.38,22.38,0,0,1-5.91,10.94c-6.09,5.67-15.95,5.73-22.4.61-7.62-5.63-9.37-16.86-4.78-24.92A15.08,15.08,0,0,1,446.52,367.73Z" transform="translate(-33.28 -90.66)"/><path d="M350.46,370.49c5.09-3,14.14-1.1,16.75,4.59.87,3.62,1.21,8.84-1.51,11.78a10.92,10.92,0,0,1-9.69,4.77c-6.27.31-11.38-5.61-11.29-11.63C344.69,376.15,347.38,372.57,350.46,370.49Z" transform="translate(-33.28 -90.66)"/><path d="M447,369.92c4.83-.77,11.37.5,13.47,5.54,3.26,6.1-.89,14.43-7.37,16.25-5.79,2.17-12.23-1.82-13.82-7.59C437,378.44,440.5,370.53,447,369.92Z" transform="translate(-33.28 -90.66)"/><path class="cls-1" d="M445.49,372.58a4.59,4.59,0,0,1,6,2.89c.43,2.78-2.35,6.15-5.36,5A4.32,4.32,0,0,1,445.49,372.58Z" transform="translate(-33.28 -90.66)"/><path class="cls-1" d="M356,372.77c2.33,2.3,1.55,4.11.39,6.74-3.5,1.13-4.28.92-7.2-1.18,0-1.51.12-3,.26-4.51C350.63,371.48,354.05,372,356,372.77Z" transform="translate(-33.28 -90.66)"/><path class="cls-1" d="M518,386.21c2.84,0,5.73,1.63,5.57,4.77.48,4.33-2.68,7.31-5.58,10-3.9,3.36-9.49,6.34-14.71,6.13.58-5.48,1.28-10.76,1-16.29C508.85,388.37,512.57,385.72,518,386.21Z" transform="translate(-33.28 -90.66)"/><path class="cls-1" d="M306,392.22c1.79.72,4.84,1.7,5.64,3.58a109.34,109.34,0,0,0-2.09,14.06,34.06,34.06,0,0,1-16-6.38c-3.13-2.58-5.86-5.55-4.83-9.94C293.54,389.42,300.44,390.27,306,392.22Z" transform="translate(-33.28 -90.66)"/><path class="cls-1" d="M414.3,400.72c0,.47-.05.94-.07,1.41l-1.84,1.48c-1.95-.35-3.08-.57-3.85-2.6C409.86,398.35,412.34,399.73,414.3,400.72Z" transform="translate(-33.28 -90.66)"/><path class="cls-1" d="M332,404c-.71,2.6-4.6.62-6.32.27-.25-1.05-.47-2.1-.65-3.17C327,400.49,332.44,400.82,332,404Z" transform="translate(-33.28 -90.66)"/><path class="cls-1" d="M390.8,402.52c-.15.65-.32,1.28-.51,1.91-1.16,1.51-3.28,0-4.78-.24C385.3,401.13,388.92,402.89,390.8,402.52Z" transform="translate(-33.28 -90.66)"/><path class="cls-1" d="M380.84,406.41c-3.36.69-3.94.5-6.58-1.5C376.69,403.12,379.13,404.25,380.84,406.41Z" transform="translate(-33.28 -90.66)"/><path class="cls-1" d="M474.93,405.56a15.48,15.48,0,0,1,8.75.82c-.05.71-.09,1.42-.14,2.13-3.26.32-6.14.67-9-1.18C474.63,406.74,474.78,406.15,474.93,405.56Z" transform="translate(-33.28 -90.66)"/><path class="cls-1" d="M363.66,408.06a7.42,7.42,0,0,1,6.73,1.43c.58,2.91-3.85,1.89-5.35,1.28C363.93,410.46,360.85,408.46,363.66,408.06Z" transform="translate(-33.28 -90.66)"/><path class="cls-1" d="M434.53,407.58a29.11,29.11,0,0,1,3.18.7c0,.83-.09,1.67-.14,2.5a38.15,38.15,0,0,1-4.26-1.57C433.69,408.65,434.1,408.1,434.53,407.58Z" transform="translate(-33.28 -90.66)"/><path class="cls-1" d="M469.38,409.5c.37,1-.55,1.77-1.48,1.8-2.17,0-3.89-1.48-3.37-3.78C466.43,407.47,468.36,407.64,469.38,409.5Z" transform="translate(-33.28 -90.66)"/><path class="cls-1" d="M415.59,408.49c2.28-.23,4.4,0,6.17,1.57.1,3.8-4.77,2.14-6.52.63C415.34,410,415.45,409.22,415.59,408.49Z" transform="translate(-33.28 -90.66)"/><path class="cls-1" d="M351.77,413.6c-1.79-.16-3.94.36-5.3-1C346.26,409.48,352.55,410,351.77,413.6Z" transform="translate(-33.28 -90.66)"/><path class="cls-1" d="M454.73,411.66c-.19.92.65,3.33-.75,3.27-2,.81-7.85-1.14-5.1-4.05C450.79,410.12,452.88,411.15,454.73,411.66Z" transform="translate(-33.28 -90.66)"/><path class="cls-1" d="M333.19,413.21a8.8,8.8,0,0,1,4.07.52q.21,1.33.33,2.7C335.56,415.83,332.83,416.18,333.19,413.21Z" transform="translate(-33.28 -90.66)"/><path class="cls-1" d="M362.94,413.48c1.78.91,2.61,1,2.92,3.13-1.46-.27-3.26.16-4.24-1.14C361.11,414.2,362.17,414.2,362.94,413.48Z" transform="translate(-33.28 -90.66)"/><path class="cls-1" d="M377.16,412.65c2.45-.34,6.41-1,8.47.72.61,2.35-3.3,2-4.65,2.05C378.7,415.45,378.2,414.56,377.16,412.65Z" transform="translate(-33.28 -90.66)"/><path class="cls-1" d="M436.28,415.51c0,.62.07,1.25.11,1.88-2.85-.1-7.67,1.14-8.06-3C430.45,412.93,434.05,414.92,436.28,415.51Z" transform="translate(-33.28 -90.66)"/><path class="cls-1" d="M413.3,415.45c2.89.55,6.89.1,6.58,4.24-2.33-.19-4.4.35-6.25-1.38C413.49,417.36,413.38,416.41,413.3,415.45Z" transform="translate(-33.28 -90.66)"/><path class="cls-1" d="M327.43,417.43a15.12,15.12,0,0,1,6.12.76c0,.81,0,1.61-.05,2.42a14.57,14.57,0,0,1-6.24-1C327.29,418.86,327.35,418.15,327.43,417.43Z" transform="translate(-33.28 -90.66)"/><path class="cls-1" d="M351.52,417.53a7.81,7.81,0,0,1,2.83,1.19c.09.66.17,1.31.24,2-1-.2-2.93.23-3.57-.71C350.09,419.11,350.78,418.23,351.52,417.53Z" transform="translate(-33.28 -90.66)"/><path class="cls-1" d="M473.5,417.6a17,17,0,0,1,3.93.75c0,.78.05,1.55.07,2.33a16.37,16.37,0,0,1-4-.19A5.35,5.35,0,0,1,473.5,417.6Z" transform="translate(-33.28 -90.66)"/><path class="cls-1" d="M341.46,418.57c1.41-.37,4.88.44,4.31,2.36C345.53,424.21,337.87,420.74,341.46,418.57Z" transform="translate(-33.28 -90.66)"/><path class="cls-1" d="M442.35,422.52a24.75,24.75,0,0,1,6.39,1.05q0,1.59,0,3.18c-1.86-.06-4.1.09-5.84-.66C441.77,425,442.36,423.92,442.35,422.52Z" transform="translate(-33.28 -90.66)"/><path class="cls-1" d="M356.58,423.57c2.14-.24,4.29-.71,6,.9C363.18,428.06,354.4,427.15,356.58,423.57Z" transform="translate(-33.28 -90.66)"/><path class="cls-1" d="M463.4,425.44c1.91-.43,6.59.38,7,2.57C468.9,431.18,462.59,429.06,463.4,425.44Z" transform="translate(-33.28 -90.66)"/><path class="cls-1" d="M344.53,428.21c1.81.65,3.25,1,3.15,3.31-3,.31-5.86.61-8.8-.33a2.63,2.63,0,0,1-.61-2.89C340.16,427,342.49,427.67,344.53,428.21Z" transform="translate(-33.28 -90.66)"/><path d="M405,438.4c4.47-.53,8.95,2.63,12.09,5.51,3.46,3.42,2.72,7.92,2.46,12.32-2.2,2.38-4.55,5.47-7.5,6.91-5.94,1.61-11.78.08-17.48-1.48-1.85-2.21-4.07-4.78-4.91-7.58a13,13,0,0,1,6.5-13.84C398.92,438.7,401.9,438.45,405,438.4Z" transform="translate(-33.28 -90.66)"/><path class="cls-1" d="M409.48,443.3c-4.4.38-8.18-.54-11.93,2.34-3,2-4.07,5.09-6.38,7.68-.34-4.81,2.3-10,7.23-11.22C402.11,441.18,406.88,439.3,409.48,443.3Z" transform="translate(-33.28 -90.66)"/><path class="cls-1" d="M432,468.23c3.52.16,7.53-.43,10.91.55l0,1.49-.79.28a131,131,0,0,0-17.16,0c-12.7,1.57-24.82,6.81-36.76,9.82,4.47-4.18,10-5,15.67-6.95C413,470.26,422.32,468.06,432,468.23Z" transform="translate(-33.28 -90.66)"/><path class="cls-1" d="M210,472.85c16.11,1.26,30.08,9.57,41,21.16,11.11,12,19.52,26.78,26.11,41.69,2.55,6.51,5.36,12.67,7.07,19.47a147.19,147.19,0,0,1,5.19,20.91c.44,2.77.19,5.89,2.07,8.17a130,130,0,0,0,.41-33.21,39.43,39.43,0,0,1-.38-6.88c2,2.52,2.58,5.77,3.53,8.79a247.06,247.06,0,0,1,6.26,28.57c.61,5.52,1,11.11,1.92,16.59.55,4.29,0,8.61.69,12.91.84,4.13-.37,7.85-.36,12,0,6.27-1.38,12.74-2.55,18.88-.71,4,1.51,8.9-.17,12.68-.49,1.65-1.64,2.48-2.95,3.45-1.39,2.4-1.51,4.38-1.4,7.1,1.05,1.66,2.53,2.71,2.11,4.88-.83,10.86-5.31,21.95-8.4,32.39-7,21-13.43,42.87-17.39,64.67-1.2,9.92-2.56,20-2.37,30-.22,10,1.2,20.84,5.64,29.94a65.76,65.76,0,0,0,23.78,27.5c-2.74,11-6.33,21.84-8.7,33-1.16,5.43-2.32,10.86-3.59,16.27a164.27,164.27,0,0,1-16.64-6.15c-4.93-2.11-8.88-5.23-13.25-8.26-4.48-3.23-9-6-12.76-10.11-11-11.14-17.14-27.21-21.28-42.06-2.82-8.85-3.12-17.84-4.7-27.12-.89-5.37-2.2-10.47-2.26-16-1.67-24,2.93-49.52,8-73,3.37-15.57,8-30.9,11.17-46.52,1.77-13.21,2.57-26.25.67-39.52-1.56-10.63-3.88-21.53-8.09-31.47-11-28.12-31.61-53.73-59.27-66.8-9.68-4.18-20.51-7.43-31.13-7.43a67.15,67.15,0,0,0-42.64,14.44c2.1-6.26,5.45-11.8,9.15-17.22,7.13-9.62,15.5-18.57,23.74-27.25C140,488.42,154.73,480.83,170,476.39,183.25,473.06,196.34,470.41,210,472.85Z" transform="translate(-33.28 -90.66)"/><path class="cls-1" d="M454.27,508c-3.11,7.68-8,14.78-11.84,22.16a18.27,18.27,0,0,0-1.25,3.74c2.32-2,3.41-5.54,6.12-6.91.34,6-1.35,11.45-3.3,17-.92,3.53-3.29,6.22-4.47,9.64a49.83,49.83,0,0,0,11.86-20.21c9.8,5.39,20.48,8.17,31.57,9.3-6.38,9.54-11,21.09-11.79,32.6l1.66-1.74c1.83-9.48,4.64-19.69,10.17-27.72.24-.51.78-.7,1.61-.56A88.87,88.87,0,0,1,491.79,566c3.37,14.86,5.27,29.89,7.24,45,1.11,8.65,2.76,17.22,4,25.84l1.45-.77c3.79,14.65,5.53,30,7.75,45,.84,7.53,2.5,16.9,1.09,24.35-7.34,6-15.43,5.29-24.35,5a437.32,437.32,0,0,1-49.94-6.64c-8.89-2.18-17.93-3.42-26.75-5.88l2.31-2.11c2.37-.45,5.83.35,6.53-2.72a96.25,96.25,0,0,0,1.43-12.79c12.32-6,24.76-11.07,38.43-13,8.71-1.45,18.15.48,26.32,3.53,5,1.82,9.2,5.21,14.2,7,0-1.64.4-3.69-.22-5.22a19.34,19.34,0,0,0-5.92-3.84c-2.08-.87-4.19-.07-6.27-1.08-4.64-1.91-9.76-4.08-14.8-4.5,8.18-2.83,16.82-3.47,24.55,1l1.68-1.33c-7.63-6-18.5-8.95-28-6.26-1.18-6.92-3.49-13.7-4.36-20.62,3.39-8,5.85-16.28,5.08-25-.58-5.64-1.34-11.24-2.1-16.85l-1.66.19,0-2.51c-3.14-4.07-3.19-12.14-7.57-15.14a21,21,0,0,0,.92,3.35,84.53,84.53,0,0,1,6.29,33c-.31,11.14-3.65,22.52-11.25,30.91-1.71,1.75-3.51,3.4-5.08,5.28,3.31.27,1.65,2.5,2,4.78-3.37-1.33-7.19-3.52-10.87-3.51-11.79,1-21.82,5.22-32.9,8.39-2.55-2.22-5.71-4.86-9.08-5.55-1.68-.24-3.46,1-5,1.68-1.92-.52-4.08-1.94-6-.92-6.69,2.84-13.71,4.72-20.4,7.58-1.06.25-2.73,1.54-3.56.32a121.62,121.62,0,0,1-9.52-11.51c-4.11-7-8.45-13.47-10.47-21.5-4.29-14.69-.78-30.92,6.8-43.91a32.73,32.73,0,0,0,2.64-6.83c-2.7.65-3.67,4.42-4.95,6.6-.27-1.54-.91-2.43-1.92-2.68-.68,2.19.44,4.9-.75,6.8-3,5.55-6,10.79-7.32,17.05a54.51,54.51,0,0,0-1.13,14c-.07,6,2.48,12.39,4.38,18.08-3.82-1.91-7.44-3.65-11.84-3.58-7.76-.45-13.44,3.65-21.09,4.35A65.74,65.74,0,0,0,315,628c2.58-10.74,6.18-21.19,8.91-31.92,1.81-7.1,4.06-14.08,5.8-21.2,2.25-8.49,4.65-16.94,7-25.39l1.36-.57c2.37,3.94,3.88,8.61,5.43,12.95a111.14,111.14,0,0,1,5.19,19.49l1.68.7c-.92-9.51-4.69-20.29-8.43-29.16a15.41,15.41,0,0,0-3.93-6c.4-1.75.12-3.14,1.89-4.15,2.6-2.09,6.95-1.51,10.14-2.11,8.89-.45,16.15-4.21,24.11-7.59,1.71,1.51,2.8,3.68,4.29,5.42,4.86,5.94,11.11,11.52,18.23,14.55,4.79,1.64,10.28,2.75,15.33,1.86,10.33-1.1,20.21-7.24,27.5-14.41,1.15-.94,1-1.94,1.19-3.29-3.76,2.81-6.79,6.15-10.77,8.68-5.57,3.48-11.41,6.31-18,7.17-9.34,1.45-17.8-2.35-24.83-8.22-4-3.59-7.7-7-10.39-11.73-4.36-7.26-9.94-13.81-14.11-21.16,7.08-1.42,14.23-1.68,21.36-2.6,3.09-.3,6.15-1,9.2-.81,1.62,1.43,1,3.87,1.3,5.91a80.36,80.36,0,0,1-10.85-.6,3.87,3.87,0,0,0-3.3.66,2.71,2.71,0,0,0,1.28,1.54A40.2,40.2,0,0,0,400,519.53c12.64.23,25.63-2.23,37.86-5.29,2.4-.66,4.55-2.61,6.56-4,0-.58.07-1.16.1-1.73-5.94,2.06-11.85,2-18.06,2,0-1.66,0-3.32-.07-5,8.8.34,17.56-1.55,26.3-1.24C454.44,504.07,454.94,506.81,454.27,508Z" transform="translate(-33.28 -90.66)"/><path d="M413.28,567a42.74,42.74,0,0,1,28.11,65.36c-6.55,10.23-17.49,16.88-29.4,18.85-2,.15-4,.27-6,.29-18.41.76-36.11-12.91-41-30.53-5.92-18.93,3.36-40.79,21.1-49.65C394.44,566.73,404,565.57,413.28,567Z" transform="translate(-33.28 -90.66)"/><path class="cls-1" d="M398.06,570.05a40,40,0,0,1,37.37,12.5c10.81,12,13.41,30.22,5.73,44.52-8.22,17-29.17,25.88-47.09,19.85-15.8-4.71-28.07-20.25-27.74-36.92a37.72,37.72,0,0,1,6.17-22.52A40.16,40.16,0,0,1,398.06,570.05Z" transform="translate(-33.28 -90.66)"/><path d="M403.7,574.14c-.09,11.35.19,22.72-.15,34.06-6.67,5.73-12.72,12.16-19.35,17.94-2,1.67-3.7,3.55-5.5,5.39A35,35,0,0,1,372.37,598C376.37,584.9,389.76,573.85,403.7,574.14Z" transform="translate(-33.28 -90.66)"/><path d="M408.22,574.09c15.64,0,30.19,13.55,32.3,28.91a35.36,35.36,0,0,1-7.45,28.55q-12.22-11.68-24.76-23C408.11,597.05,408.28,585.57,408.22,574.09Z" transform="translate(-33.28 -90.66)"/><path class="cls-1" d="M410.92,577.06c13.48,1.81,24.25,12.75,26.83,25.93,1.75,7.42.06,15.5-3.71,22-.75,1.56-2.82.9-3.81-.08-5.64-5.07-10.76-10.76-16.64-15.56-1.36-1.25-2.8-2.32-2.76-4.37C410.75,595.71,410.64,586.37,410.92,577.06Z" transform="translate(-33.28 -90.66)"/><path class="cls-1" d="M400.61,577.1q0,12.95.05,25.9c-.12,1.45.31,3.73-1,4.74-6.71,6.62-13.92,12.9-20.83,19.34a32.11,32.11,0,0,1-4.83-24.25C376.34,589.79,387.4,578.84,400.61,577.1Z" transform="translate(-33.28 -90.66)"/><path d="M403.67,614.1c-.06,10.13.26,20.29-.16,30.42-7-1-13.22-3-18.89-7.26-1-.85-3.51-2.11-2-3.61C389.72,627.21,396.5,620.48,403.67,614.1Z" transform="translate(-33.28 -90.66)"/><path d="M408.3,614.67c7.38,6.25,14.33,13.08,21.4,19.68a1.43,1.43,0,0,1-.8,1.38c-5.95,4.88-12.8,8.38-20.68,8.15C408.26,634.15,408.12,624.41,408.3,614.67Z" transform="translate(-33.28 -90.66)"/><path class="cls-1" d="M400.61,620.94c.09,6.67,0,13.33.05,20A32.71,32.71,0,0,1,386,634.86C390.5,630,395.61,625.35,400.61,620.94Z" transform="translate(-33.28 -90.66)"/><path class="cls-1" d="M411,620.9c5,4.36,9.71,9.16,14.8,13.44-3.91,3.77-9.63,5.8-14.91,6.63C410.81,634.29,410.67,627.58,411,620.9Z" transform="translate(-33.28 -90.66)"/><path class="cls-1" d="M326.73,637.91c4.28-.43,9.12-1.06,13.34-.09,7.44,4,13.82,10.49,18.81,17.23,2.22,2.92,4.73,5.31,6.48,8.57l-1.4-.29c-3.75-3.66-6.59-8.23-10.45-11.84-5.06-4.59-8-10.08-14.42-12.91-4.65-.81-8.85.26-13.3,1.42-6.79,1.2-13.6,2.73-20.24,4.59a25.87,25.87,0,0,0-1.08,6.77c-1.9-2.15-1.4-6.38.38-8.51C312.16,641.19,319.26,639,326.73,637.91Z" transform="translate(-33.28 -90.66)"/><path class="cls-1" d="M466.08,640.17l.06.29c.95,4.88,1.53,9.81,2.71,14.65a34.25,34.25,0,0,1,.95,7.88c-1.26-.25-2.71-.17-3.72-1.06a73.08,73.08,0,0,0-8.47-5.93c.11-2.61-.62-4.9,1.44-6.94A48.35,48.35,0,0,0,466.08,640.17Z" transform="translate(-33.28 -90.66)"/><path class="cls-1" d="M332,649.07c3.81.75,7.6,1.77,11.32,2.89,2.05.7,4.28,1.26,5.91,2.75-6.38.25-12.86-3.25-19.23-3.53a14.94,14.94,0,0,0-6.93,1.93A78.85,78.85,0,0,1,304,659.93c-2.17.56-2.77,2.19-3.76,4a16.62,16.62,0,0,1,2.8,6.54,97.52,97.52,0,0,0,13,.07c-2.69,3.92-7.19,5.76-9.86,9.54-.89,4.28,4,7.67,7.79,7.54,3.85-.47,7.69-2.45,11-4.42a214.09,214.09,0,0,1,19.93-10.25,88.87,88.87,0,0,1,15.1-4.41c4.16-1,7-3.62,10.87-5.16,6.48-2.48,13.1-4.54,19.58-7,1.52-.55,2.58-.92,4.1-.13,5.38,2.19,8.74,6.08,13.39,9.49-1.62-5-5.68-6.38-9-9.93a9.17,9.17,0,0,1,4.12-.13c5.46,2.39,9.87,7.52,12.35,12.87,3.25,6.44,5.25,14.62,3,21.69-1.34.48-2.68,1-4,1.46-.43-5.23,1.77-12.64-2.68-16.53.26,4.42,1.43,8.49.71,13-.41,3.8-3.55,6.49-6.48,8.55-1.75.15-3.43-.84-5.06-1.43-3.55-1.48-7.15-1.41-10.83-2.25-4.78-1.32-10.23-.62-15,.35-7.39,1.66-14.87,2.76-22.18,4.79-7.49,2-15.07,2.71-22.83,3.21-5.25.2-11.91,0-16.43-3-3.81-2.66-8-5.18-10-9.52-2.81-5.64-2.17-13.19-1.34-19.24.49-2.48-3.54-3.51-3.93-5.62a35.44,35.44,0,0,1,.33-4.23c3.48-1.81,7.15-2.47,10.93-3.34a121.78,121.78,0,0,0,15.58-6C327.36,649.42,329.49,648.47,332,649.07Z" transform="translate(-33.28 -90.66)"/><path class="cls-1" d="M304.67,653l-.06,2.71-2.53.09C302.74,653.88,302.45,653.4,304.67,653Z" transform="translate(-33.28 -90.66)"/><path class="cls-1" d="M336.34,661.84c-1.73,2.57-5.48.63-7.87,2.7-5.13,3.68-9.31,8.69-14.16,12.75-2.25,1.83-3.81,3.87-6.4,4.87.42-3.07,3.67-4.45,5.74-6.48,2.82-2.13,4.35-5.54,7.63-6.5.68-2.88,3.38-4.59,5.66-6.18C329.94,661,333,661.73,336.34,661.84Z" transform="translate(-33.28 -90.66)"/><path class="cls-1" d="M382.77,696c8.88-1.54,16,2.16,23.38,6.4,2.46,1.2,3.1-.61,4.7-2,9.3,2.59,18.87,3.81,28.15,6.42,6.41,1.82,13,2.49,19.51,4,.76.83.89,2.23,1.23,3.27,3.79,15.19,9.84,29.34,16.12,43.61-7,6.18-14.46,11.67-21.72,17.48a23,23,0,0,0-6,7.58c9.82-4.6,18.91-10.88,28.43-16.06,2.56-1.42,4.78-3.08,7.76-3.53.49,2.25,1,4.47,1.55,6.71l-2.7-.71c-.87.81-1.74,1.63-2.66,2.39-10.14,7.55-18.7,16.5-30,23-11.46,7.07-24.87,12.12-38.53,11.26-13.71.53-27-2.21-40-6.33a160.25,160.25,0,0,1-40.49-20.82c-2.71-1.84-4.73-4.28-7.08-6.5-.06-2.57-1-6.54,1.33-8.35,3.35-3.12,5.2-7.26,8-11,5-8.09,9-16.94,13.39-25.4,3.71-8.9,7.59-17.28,9.36-26.83C365.24,699,374,697.66,382.77,696Z" transform="translate(-33.28 -90.66)"/><path class="cls-1" d="M353.86,701.17c-3.1,11.31-8.56,22.38-13.46,33-4.47,8.72-8.19,17.13-14.46,24.8-2,2.2-4,3.86-4.62,6.92-1.05,3.48.36,7.16,2.14,10.15-1.31,6.87-3.64,13.34-5.86,19.94-2.92,9.68-6.08,19.26-8.56,29.06-1.79-.57-2.38-2.11-3.32-3.6A53.18,53.18,0,0,1,299.84,792,109.81,109.81,0,0,1,309,757.24c6.05-13.72,14.54-26.52,20.35-40.44,1.57-3.75,2.51-7.7,4-11.48C340.22,704,347,702.45,353.86,701.17Z" transform="translate(-33.28 -90.66)"/><path d="M333.09,766.24c1.94,1.74,3.56,3.6,6,4.77,6.37,3.28,13.24,5.63,19.94,8.13,11.56,3.62,23.17,7.47,35,10,5.83,1.37,11.66,3,17.56,4a74.67,74.67,0,0,0,16.43-.43c7.54-.34,15.31-3.77,22.46-6.15l0,.47c-3.71,1.16-6.8,3.51-10.46,4.83-12,5.09-25.09,5.62-37.95,4.69a151.87,151.87,0,0,1-44.46-12.15,92.91,92.91,0,0,1-20-12C335.58,770.5,333.48,769.15,333.09,766.24Z" transform="translate(-33.28 -90.66)"/><path class="cls-1" d="M484.28,774.14A298.71,298.71,0,0,1,495,811.91c-9.5-2-18.36-4.64-25.84-11.12-2.82-2.62-6.05-4.61-8.27-7.66-.1,1-.51,1.86.16,2.81a32.9,32.9,0,0,0,7.48,8.52c8.29,6.61,17.82,10.12,28,12.82a645.12,645.12,0,0,1,15.09,78.81c4.72,34.89,7.47,69.72,9.42,104.85.79,5.69.34,11.4,1.19,17.07.79,10-.2,20,1,30-.06,6.83.58,14.33-.15,21-8.48,7.7-23.12,9.17-32.68,2.63-1.41-.87-1.53-2.16-1.83-3.65-4.22-21.65-9-43.7-15.59-64.79a360.66,360.66,0,0,0-38.63-87.36,186.54,186.54,0,0,0-24.22-32.29,51.89,51.89,0,0,1,23.14-4.15,3.78,3.78,0,0,0-2.68-2.18,35.58,35.58,0,0,0-22.37-.3c.36-2.18.95-4.69.52-6.87-.76-2.21-1.84-4.28-2.49-6.54a100,100,0,0,1,28.69,3.72c11.83,3.51,21.56,9.91,31.83,16.46-6.67-7.44-15.75-12.32-24.85-16.14a96.08,96.08,0,0,0-35.48-6c-.1-3.63-.12-7.26.07-10.89A160.12,160.12,0,0,1,430,846.58c9.87-.34,20-.62,29.75.85l-.06.84c4.14-.44,8.05.3,12.06,1.14-20.49-7.31-44.42-6-65.25-.72a105,105,0,0,1,.73-19.66c.6-6.79.64-13.6,1.38-20.38,10.11,0,20.32-.62,29.82-4.46,12.45-5.5,23.4-13.2,33.64-22.1C476,778.92,479.17,775.19,484.28,774.14Z" transform="translate(-33.28 -90.66)"/><path class="cls-1" d="M326.31,778.05C349,795,375.13,806.81,403.67,808.49c-.18,13.65,1.4,27.09.62,40.76A177.72,177.72,0,0,0,382,856.92c-5,2.2-10.67,4.25-14.93,7.68a9.49,9.49,0,0,0,3.87-.81,192.4,192.4,0,0,1,32.87-12.46,95.25,95.25,0,0,1,.73,10.13,140.14,140.14,0,0,0-18,3c-.06.65-.11,1.3-.17,2,5.72-1.74,11.86-2.35,17.81-2.81.95,2.78,2.62,5.48,3.14,8.36-.61,2.8-1.06,5.85-3.87,7.27-10,5.68-17.58,14.61-24.49,23.62-13,17.35-23.07,37.17-32.62,56.56-5.15,10-7.74,21-12.36,31.15-6.08,18.58-13.89,36.59-19.59,55.29-3.43,10.34-5.23,21.27-7.89,31.86-6.47.41-12.83-.33-18.65-3.34a31.93,31.93,0,0,1-13.38-12.82c-.77-1.46-.6-3-.59-4.59,1-15.3,1.16-30.7,2.63-46,1.46-26.88,5.75-53.37,9.9-79.94,4.24-21.33,8.26-42.6,13.84-63.64,1.72-6.13,3.55-12.23,5.3-18.35,2.28-7.23,4.82-14.73,6.18-22.19a57.81,57.81,0,0,1,2.6-9,40.38,40.38,0,0,1,5.82-2.58c8.36-3.31,17.06-8.23,22.87-15.22a8,8,0,0,0,2-4.34c-3.93,3.3-8.4,5.66-12.55,8.65-5.23,3.6-11,6-16.88,8.16C318.89,801,323,789.66,326.31,778.05Z" transform="translate(-33.28 -90.66)"/><path class="cls-1" d="M256.11,1088.35l.18,0c12.91-3.24,27.73,3,38.13,10.42a102.53,102.53,0,0,1,.13,12.27c-.52,7.94-2.88,15.28-4.31,22.85a27.31,27.31,0,0,0-6.14-2.82c-3.51-1.94-8.15-2.88-12-1.55.15,1.61.29,3.22.44,4.84l-4.71,2.42c-1.18-4.72-3.19-9.22-4.81-13.81-3.83-8.92-7.77-18.35-13.7-26.08-1.23-1.71-3.21-3.19-4-5.14C248.81,1090,252.36,1089.42,256.11,1088.35Z" transform="translate(-33.28 -90.66)"/><path class="cls-1" d="M531.82,1093.25c5.52-1,11.54,0,16.93,1.31-7.53,7.16-12.46,15.76-16.88,25-2,4.41-2.21,9-2,13.76-3.64-1.54-6.31-4.18-9.42-6.47-3.39-.08-6.62,2.29-9.49,3.89-.32,1.08-.67,2.14-1.08,3.18-1.72-8.86-4.63-17.33-7.44-25.88-1.06-3.29-2.75-6.1-3.18-9.58C509.4,1094.87,521.09,1094.14,531.82,1093.25Z" transform="translate(-33.28 -90.66)"/><path class="cls-1" d="M488.82,1096c.29,1.51.56,3,.84,4.52q-2,0-4.08.09l1.32,1.52c3.52,1.42,8,1.27,11.69,2,3.27,6,4.68,13.16,6.76,19.65.78,3.87,2.65,8.16,2.34,12.1a89.91,89.91,0,0,0-10.75,18.56l-1.41.68c-.09-5.12.21-10.09-.85-15.14-1.74-8.85-3.32-17.54-6.92-25.85a175.47,175.47,0,0,0-7.62-15.89A27.35,27.35,0,0,1,488.82,1096Z" transform="translate(-33.28 -90.66)"/><path class="cls-1" d="M307.78,1106c3.49-.58,7-1,10.56-1.32-1.88,4.4-4.75,8.16-7,12.44-3.47,6.59-6.77,13.59-8.56,20.84-.83,3.37-1.26,6.78-1.92,10.18-2.83-3-4.93-6.45-7.66-9.5-1-1.44-2.41-2.21-1.65-4.17a124.29,124.29,0,0,0,4.65-19.52c.18-2.19.27-4.39.32-6.59A112.32,112.32,0,0,1,307.78,1106Z" transform="translate(-33.28 -90.66)"/><path class="cls-1" d="M261.81,1126l.42.64c1.62,3.81,3.4,7.2,3.15,11.45-2.41,1.27-4.78,2.6-7.2,3.84A115.52,115.52,0,0,0,261.81,1126Z" transform="translate(-33.28 -90.66)"/><path class="cls-1" d="M518.12,1129c.82.08,1.64.18,2.46.28,1,2.73,2,5.5,3.11,8.2-.89.4-1.79.78-2.7,1.13-2.3.3-1.82-2.77-2.86-4.32l-1.46,1c-1.29-.91-3.29-2.22-3.43-3.94a18.89,18.89,0,0,1,3.19-1.13q.15,2.36.33,4.71C519.5,1133.09,518.37,1131.84,518.12,1129Z" transform="translate(-33.28 -90.66)"/><path class="cls-1" d="M273.86,1130.71c2.64.33,5.27.66,7.9,1a28.16,28.16,0,0,1-.64,7.87l2.18.39c.15-1.45.33-2.9.53-4.34,2.31,2.43,2.66,5.61,3.3,8.75a21.52,21.52,0,0,1-4.09.07c-.35-1.85-.52-3.1-1.88-4.49-.25,1.6-.51,3.2-.76,4.79l-3.65-1.16C275.88,1139.25,274.67,1135,273.86,1130.71Z" transform="translate(-33.28 -90.66)"/><path class="cls-1" d="M524.22,1131.71c8.78,6.62,17.06,13.5,24,22.1,3.22,4,6.29,7.94,8.34,12.69.55,1.4,1.43,3.09,1.08,4.61a22.84,22.84,0,0,1-6.7,5.79c-.72.56-1.84.67-2.15-.35-1.65-4.57-4.16-8.65-6.18-13a129.89,129.89,0,0,0-12.72-21.5,37,37,0,0,1,10.43,9.67,129,129,0,0,1,10.27,21.23,9.23,9.23,0,0,0,4.77-3c-.54-2.66-2.34-5.23-3.81-7.47-6.88-10.18-14.89-19.18-25.59-25.45C524,1135.94,524.56,1133.58,524.22,1131.71Z" transform="translate(-33.28 -90.66)"/><path class="cls-1" d="M285.91,1134.05a3,3,0,0,1,1.89,1.11,183.71,183.71,0,0,1,12.68,16.33c3.63,4.81,5.7,10.19,8.71,15.38,2.3,4.45,5.3,8.56,7.32,13.13a2.46,2.46,0,0,1-1.41,2.17c-2.6,1.4-5.58,3.93-8.05,1a7.23,7.23,0,0,0,3.74-1.42c2.21-2.18.29-4.64-.67-6.89-6.07-11.64-12.8-23-19.91-34C288.85,1138.63,286.71,1136.56,285.91,1134.05Z" transform="translate(-33.28 -90.66)"/><path class="cls-1" d="M514.73,1135.91c-5.07,9-10.65,18-14.17,27.59-1.34,3.6-3.78,8.14-3,12,1.7,2.62,4.7,2.33,7.47,2.81-.31-.74-.62-1.47-.92-2.2,3.19-.1,6.85.62,9.9-.24,1.77-.71,1.39-2.34,1.6-3.89.14-7,.26-14-.09-21a91,91,0,0,1-.9-12.34l1.95-.51c0,6-.15,11.9.67,17.84.29,7.36.12,14.76.15,22.12l-1.28,2.17a40,40,0,0,1-22.85-.91,30.11,30.11,0,0,1,1.79-13.33c3.14-11,8.15-22.51,15.92-31.11C512.43,1133.21,513.46,1135,514.73,1135.91Z" transform="translate(-33.28 -90.66)"/><path class="cls-1" d="M273.33,1136.25c1.41,4.18-2.26,5.57-5.17,7.3-6.83,3.28-13.46,6.59-19.64,11-4.45,3.26-8.88,6.3-12.42,10.6a14.53,14.53,0,0,0,9.73,2.48c3.75-1.21,6.54-5.81,9.4-8.41,3.15-2.82,6.09-6,9.54-8.4l-1.65-1.63c-4.73,4.57-9.56,9-14.13,13.73,1.58-2.69,3.34-5.27,4.88-8,1.77-4.27,7.95-5.67,11.73-7.91l-1.31,1.07,1.55,1.69a71.56,71.56,0,0,1,8.61-8,9.67,9.67,0,0,1,.33,3.09c-2.55,3.33-5.87,6.12-8.72,9.2-5.65,5.69-10.72,11.88-16.54,17.4a22.09,22.09,0,0,1-7.42-.87c-2.48-.87-5.74-1.2-7.49-3.23a3.57,3.57,0,0,1,.08-5.71,195.65,195.65,0,0,1,28.61-20.38C266.58,1139.47,269.83,1137.45,273.33,1136.25Z" transform="translate(-33.28 -90.66)"/><path class="cls-1" d="M518.3,1140.3c1.45,0,2.92,0,4.36.16,1.4,1,1.58,2.35,2.06,3.84q-3.16.14-6.33.31Z" transform="translate(-33.28 -90.66)"/><path class="cls-1" d="M525.09,1139.91c3.82,3.11,6.5,7.75,9.18,11.84,4.53,8.17,9.13,16.49,12.47,25.22-2.38-.45-4.15-1.19-5.5-3.31C534.14,1163.68,530.44,1150.9,525.09,1139.91Z" transform="translate(-33.28 -90.66)"/><path class="cls-1" d="M512.62,1142.94c.64,7.35,1.42,14.66,1.2,22.06-.15,2.85.18,6.18-.9,8.86-4.38.86-9.25-.17-13.69-.4,1.07-3.93,2.55-7.67,4-11.48C505.68,1155.41,509.49,1149.29,512.62,1142.94Z" transform="translate(-33.28 -90.66)"/><path class="cls-1" d="M289.66,1143.73a13.51,13.51,0,0,1,2.92,4.58c3.25,8.44,2.81,16.62,4.4,26,.41,2.14.69,4.29.91,6.46l-2.51-1.28c-.05,3.11,2.11,3.52,4.6,3.78,3.21.58,5.86-1.2,8,1.8a85.76,85.76,0,0,1-13.5.65c-1.83-11.88-2.12-23.9-4.51-35.74A15.63,15.63,0,0,1,289.66,1143.73Z" transform="translate(-33.28 -90.66)"/><path class="cls-1" d="M284.3,1146.58c1.1-.17,2.2-.31,3.31-.42,1.65,8.51,2.57,17.35,3.46,25.87.57,2.49-.57,4.5-.65,7-.22,8.35.35,16.82-.31,25.14-.25,1-2,3.57-2.91,1.81,1.13-17.19,1.34-34.1-1.34-51.18C285.37,1152,284.51,1149.36,284.3,1146.58Z" transform="translate(-33.28 -90.66)"/><path class="cls-1" d="M523,1146.17c1.25.1,4.31-.33,3.39,1.88-2.47.47-4.95.79-7.39,1.42-.15-.91-.29-1.82-.35-2.74A14.17,14.17,0,0,1,523,1146.17Z" transform="translate(-33.28 -90.66)"/><path class="cls-1" d="M275.94,1146.36a40.88,40.88,0,0,1,6.26,0,63.77,63.77,0,0,1,1.73,9.89,66.22,66.22,0,0,0-9.76-4.09l-.06,2a24.27,24.27,0,0,1,10.45,5.54l.3,3.49c-5.71-2.49-10.62-5.66-17.05-6.08-1.74.3,0-2.42.58-2.8,1.44-1.63,3.7-.37,5.24-2.16l-1.78-1.17C273.19,1149.46,274.53,1147.88,275.94,1146.36Z" transform="translate(-33.28 -90.66)"/><path class="cls-1" d="M527.61,1150.33l1.13,2.18q-5,1-10,1.89l0-2.51C520.6,1149.73,525,1150.55,527.61,1150.33Z" transform="translate(-33.28 -90.66)"/><path class="cls-1" d="M251.91,1155c-2.31,3.71-5.22,7-7.46,10.75a37.8,37.8,0,0,1-5.39-.76A48.75,48.75,0,0,1,251.91,1155Z" transform="translate(-33.28 -90.66)"/><path class="cls-1" d="M528.08,1154.83c2.28.26,2,2,2.91,3.73-4.1.76-8.23,1.23-12.32,2,.33-1.17-.38-4.23,1.38-4.39A27.73,27.73,0,0,1,528.08,1154.83Z" transform="translate(-33.28 -90.66)"/><path class="cls-1" d="M297.27,1155.8c3.83,4.84,2.3,10.38,4.17,15.63l1,.45c.48-2.28,0-4.75,0-7.08,2.58,4.86,6.62,9.91,7.41,15.41-1.73.45-3.45.92-5.18,1.39-.37-3-.86-6-1.39-9l-1.56-.67c-.23,3.16,1.11,6.53,1,9.8l-2.69-.64A128.61,128.61,0,0,1,297.27,1155.8Z" transform="translate(-33.28 -90.66)"/><path class="cls-1" d="M267,1159c6.85.58,12.33,3.81,18.22,7a58.63,58.63,0,0,1,.3,8.17c-.39-1.17-.78-2.35-1.15-3.53-6.76-5.75-14.49-6.88-22.66-9.3C263.47,1159.64,264.34,1158.15,267,1159Z" transform="translate(-33.28 -90.66)"/><path class="cls-1" d="M547.19,1159.22c1.83,3.26,4.34,6.29,5.71,9.77q-.6,1-1.26,2C550.25,1167,548.48,1163.21,547.19,1159.22Z" transform="translate(-33.28 -90.66)"/><path class="cls-1" d="M532.42,1161.32c.4,1,.81,2.07,1.23,3.1a54.64,54.64,0,0,0-14.65,1.23c.07-1.1.15-2.2.22-3.31C523.49,1161.91,528.26,1160.22,532.42,1161.32Z" transform="translate(-33.28 -90.66)"/><path class="cls-1" d="M263,1163.61c6.45,1.37,13.68,3.35,19,7.4,1.81,1.33,1.47,3,1.72,5a92.14,92.14,0,0,0-17.6-8.22c-2.79-.9-5.66-1.34-8.38-2.49A4.73,4.73,0,0,1,263,1163.61Z" transform="translate(-33.28 -90.66)"/><path class="cls-1" d="M519.24,1167.54c5-1,10.84-2,15.8-.71l1,2.78c-5.72.2-11.15,2-16.86,2.25C519.19,1170.42,519.21,1169,519.24,1167.54Z" transform="translate(-33.28 -90.66)"/><path class="cls-1" d="M258,1167.93c5.82.82,11.52,3.15,16.9,5.44,3.36,1.37,5.86,4,9.36,4.64l1.29-2.49c1.63,10.37-.21,21.35-.32,31.9-6.47,6.08-12.15,13-18.83,18.84.28-4.57.69-8.79-.51-13.29a29.62,29.62,0,0,0-6.85-12.52c2.68-.22,5-.62,5.86-3.53,1.24-2.55-1.12-4.53-3.13-5.62a64.7,64.7,0,0,0-17.51-6,16.8,16.8,0,0,0-2.15,1.53,74.13,74.13,0,0,1,14.68,4.19c2.36,1,4.9,1.9,6.56,4,.29,1.46-1.25,2.63-2,3.73-4-2.16-8.3-3.5-12.26-5.72-7.51-3.78-15.16-3.26-22.83-5.55,4.88-3.35,9.23-1.08,14.58-.82a9.3,9.3,0,0,0,1.62-1.8,87.62,87.62,0,0,0-9.85-.43l-.21-1.88c6.66.88,13.22,1.23,19.69,3.28,5.52,1.82,11.81,3.84,16,8,2.67-.61,4.9-2,5.49-4.79,0-2-2.49-3.58-4-4.53-4.86-2.68-9.67-5.12-15.2-6l0-.38c6.85.91,14,2.75,19.9,6.56,2.35,1.78,4.53-.78,5.39-2.8.17-1.92-1.52-3.58-3-4.53-6.77-4.21-14.18-6.42-22-7.9C255.69,1168.27,256.2,1167.58,258,1167.93Z" transform="translate(-33.28 -90.66)"/><path class="cls-1" d="M253,1171.34c6.93.38,13.94,3.22,20.14,6.21,2.06,1.25,4.66,1.82,4.51,4.78a3.38,3.38,0,0,1-3.13.18c-9.08-5.56-21.39-6.82-31.77-7.69l.88-1.34C247.24,1173.26,250,1173.66,253,1171.34Z" transform="translate(-33.28 -90.66)"/><path class="cls-1" d="M538.23,1172.36c.28.89.55,1.78.82,2.67-6.81-.15-13.31,1.18-20,1.9l.47-3.12C525.81,1173,531.8,1171.62,538.23,1172.36Z" transform="translate(-33.28 -90.66)"/><path class="cls-1" d="M538,1177.26a11.61,11.61,0,0,1,9.26,3.4c-3.75.51-7.51.49-11.27.85a207,207,0,0,0-22.23,4c-.15-.65-.31-1.3-.46-2,2.83-1,4.57-1.86,5.8-4.77C525.45,1178.07,531.58,1176.88,538,1177.26Z" transform="translate(-33.28 -90.66)"/><path class="cls-1" d="M238,1179.38c6.69-.28,13.15-.37,19.55,1.89,4.87,1.79,11,3.61,14.46,7.69l-2.93,2.92c-9-7.26-22.33-9.78-33.53-11.21A2.94,2.94,0,0,1,238,1179.38Z" transform="translate(-33.28 -90.66)"/><path class="cls-1" d="M548.59,1179.11c1.2.27,2.19.22,3,1.31a116.22,116.22,0,0,0,11.35,12.33,69.48,69.48,0,0,1-7.62-.91c.09-1.41.2-2.81.3-4.22-1.31-.87-2.35-2-4-2.11-12.49-.68-24.73.3-36.45,4.94-.82.46-2.45.93-2.7,1.9-.39,3.23-.63,6.23,2.29,8.34a48.79,48.79,0,0,1,10.59-4.66c6-1.75,12.51-3.75,18.82-3.8A39.24,39.24,0,0,0,524.09,1206c-3.82,5.46-5.14,11.56-6.78,17.87a46.38,46.38,0,0,1-11.51-15.77c-2.17-5-3.33-10.23-5.83-15.11-1.71-3.8-4.43-7-6-10.83,5.74.91,11.33,1.7,17.17,1.28.39,1.64.16,2.85,1.8,3.77,4.35-.29,8.67-1.62,13-2.43a116.45,116.45,0,0,1,21.26-1.52C549.31,1182.38,548.35,1180.93,548.59,1179.11Z" transform="translate(-33.28 -90.66)"/><path class="cls-1" d="M292.27,1186.26l1.69,1.19a34.16,34.16,0,0,0,9.58.2c.23,7-6.72,8.37-11.24,12.2C292.19,1195.32,292.23,1190.79,292.27,1186.26Z" transform="translate(-33.28 -90.66)"/><path class="cls-1" d="M534.48,1187.67c5-.4,10.61-1.47,15.56-.61,1.06.28,2.75.34,3.49,1.23.06.77.09,1.53.11,2.3-1.88-.27-3.75-.64-5.65-.8a86.68,86.68,0,0,0-33.25,8.79c-.89-2-2.31-5.21.57-6.3C521.33,1189.74,528,1188.6,534.48,1187.67Z" transform="translate(-33.28 -90.66)"/><path class="cls-1" d="M494.68,1187.88c6.44,8.33,7.48,21,14.16,29.43,3.89,5.27,9.41,11,16,12.61,8.39,2.33,16.57,2.72,25.19,3.31,13,.6,24.87-2.09,37.54-4.14,0,1.49,0,3,.06,4.46a47.44,47.44,0,0,1-9.46,2.35c-11.36,2-23.59,4.3-35.15,3.5-11.55-1.13-22.66-3.72-30.88-12.5-8.23-9-9.75-19.73-16.48-29.72C493.58,1194.58,494.68,1191,494.68,1187.88Z" transform="translate(-33.28 -90.66)"/><path class="cls-1" d="M228,1190.31c7.55.76,15.48,1.39,21.94,5.72,6.07,2.73,10.22,8,12.84,13.93s2.29,13.16.65,19.33c-6.58,4.11-14.77,6-22.44,6.53-9.81,1.45-19.27-.21-29-1.64-4.1-.94-8.48-1.88-12.2-3.9-1.95-1.08-2.13-3.27-2.23-5.28-.32-7.5,2.81-14.31,7.49-20a47.84,47.84,0,0,1,12.86-12.19A15.45,15.45,0,0,1,228,1190.31Z" transform="translate(-33.28 -90.66)"/><path class="cls-1" d="M303.73,1194.22c-.24,1.81.1,4.19-.67,5.82-3.58,2.79-8.06,4.19-11.75,6.88.26-1.78.53-3.57.85-5.35C296.33,1199.82,300.11,1196.9,303.73,1194.22Z" transform="translate(-33.28 -90.66)"/><path class="cls-1" d="M564,1195.57c3.78,1,7,3.89,10,6.3,5.42,4.55,8.66,10.49,11.26,17a24.74,24.74,0,0,1,1.46,8,54.36,54.36,0,0,1-7.75,1.88c-11.3,2.08-22.47,3.5-34,2.38-5.76-.62-11.75-.93-17.37-2.4-3-.75-5.76-1.35-8.16-3.44a56.5,56.5,0,0,1,4.14-14.69c2.65-5.44,7.75-9.85,12.87-12.91C544.65,1192.92,555.23,1192.87,564,1195.57Z" transform="translate(-33.28 -90.66)"/><path class="cls-1" d="M494.27,1198.7c5.52,7.17,7.37,17,12.57,24.4a41.26,41.26,0,0,0,11.64,11.39c6.23,4,14.29,5.52,21.52,6.55,16.68,2,31-2.39,47.1-4.56-1.15,2.66-4.66,2.74-7.1,3.56a138.54,138.54,0,0,1-42,3.12c-8.61-.84-18.88-2.63-25.77-8.29-7.32-8.66-9.4-18.07-15.76-27.36C494.45,1204.82,494.42,1201.93,494.27,1198.7Z" transform="translate(-33.28 -90.66)"/><path class="cls-1" d="M302.82,1203.17c-.78,1.72-1.39,4.44-3.33,5.15-3.15,1.28-6.32,2.59-9.57,3.6a6.68,6.68,0,0,1,2.05-3A37.93,37.93,0,0,1,302.82,1203.17Z" transform="translate(-33.28 -90.66)"/><path class="cls-1" d="M285.44,1210.6c.45,3.56-2.89,4.57-4.85,7-5.87,6.75-11.58,14.25-19.66,18.5-4.48,2.54-9.85,3.18-14.92,4.21a96.08,96.08,0,0,1-24,1.14c-8.7-.83-17.06-2.39-25-6.2a23.07,23.07,0,0,1,.32-4.33c6.09,4.19,14.48,5.29,21.67,6.39,6.78.35,13.2,1.62,20,.52,8.13-.38,16-1.65,23.27-5.54,5.13-2.86,8.84-7.75,13-12C278.47,1217,281.47,1212.89,285.44,1210.6Z" transform="translate(-33.28 -90.66)"/><path class="cls-1" d="M285.38,1216.07c0,.65,0,1.3,0,2-6.17,5.59-10.62,13-16.8,18.51-4.54,3.53-9.84,7.37-15.53,8.62-17.58,5-37.37,1.95-54.34-4-.44-1.14-.87-2.28-1.29-3.43,4.64,1.28,8.88,3.32,13.67,4.11,9.72,2.08,20,2,29.95,1.31,7.32-1.31,15.09-1.89,21.45-5.7,5.59-3,9.78-7.35,14-12C279.47,1222.16,281.62,1218.65,285.38,1216.07Z" transform="translate(-33.28 -90.66)"/></svg>