<svg id="Layer_1" data-name="Layer 1" xmlns="http://www.w3.org/2000/svg" viewBox="0 0 833.39 1032.77"><defs><style>.cls-1{fill:#fff;}.cls-2{fill:#010100;}</style></defs><path d="M502.46,22.77c5.19-.51,10.87-1,15.95.4-2.3,3.62-7.31,4.81-10.62,7.62a50,50,0,0,0-16.86,25.05c-2.95,11,.71,21.47,5.46,31.36,3.52-3.19,6.62-6.53,10.5-9.31a65.48,65.48,0,0,1,17.31-8.67,18.86,18.86,0,0,1,8-1c-3.32,3.08-7,5.55-9.67,9.28-5.9,7.35-8.32,16.49-8.07,25.83,3.45-1.41,6.73-2.81,10.5-3,5-.3,10,.35,14.95.79,6.92,1,13,3,20.12,1.88a28.15,28.15,0,0,0,20.21-11.74c2.91-4.26,3.45-9,5.82-13.5a21.8,21.8,0,0,1,1.58,5.76,65.14,65.14,0,0,1-2.42,25.74c-1.9,6.3-3.51,12.26-7.12,17.86-4.08,6.65-9.71,11.6-15.84,16.29a92.76,92.76,0,0,0,7.66,7.7c5,4.42,9.16,10.1,15.81,12.05a14.49,14.49,0,0,0,14.39-3c2.73-2.19,3.81-5.57,7.12-6.39-.06,4.86-2.21,8.78-4.72,12.77a29.16,29.16,0,0,1-10.3,9.72c-7.52,4.54-16.77,5.51-25.24,7.19a32.93,32.93,0,0,0,16,6.82c3.75.35,7.79-1.27,11.43-2.09a5.1,5.1,0,0,1-1.18,3.07c-4.41,3.11-10,4.77-15.3,5.69-6,1.15-11.72.16-17.43-1.7,2,5.16,4.5,9.83,9,13.31,4,3.22,10,3.68,14.84,2.67,2.52-.55,3.86-2.56,5.88-4a2.13,2.13,0,0,1,2.13,2.74c-1.18,4.44-4.75,8.35-8.31,11.11a61,61,0,0,1-25.31,10.39c-9.41,1.25-19.4-.87-27.86-5.09,1.45,5.71,4.15,10.61,9.83,13s10.35.4,16-.77c-.54,1.57-.65,3-2.18,4-7.24,5.27-15.33,4.51-23.74,4,4.74,2.67,9.07,2.44,14.28,1.92l.44,1.65c-1.27,2.26-3.81,4-5.76,5.63a157.87,157.87,0,0,1,43.21,15.44,11.63,11.63,0,0,1,4.36,3.59c5.34,9.16,8.25,18.95,11.79,28.85,12.38-6.74,26-9,40-9.51,2.44.17,5.36-.39,6.92,1.95a151.43,151.43,0,0,1,12.39,17.67,133.94,133.94,0,0,1,16.49,46.49c.45,3.39-1.47,6.64-2.77,9.66,5.07,7.34,10.07,14.69,15.11,22.05,1.62,2.56,4.4,3.35,6.26,5.68,9.53,11.79,19.17,23.78,28.71,35.56,1.65-.37,3.31-.71,5-1-.53-2.65-1.5-5.4-1.5-8.1,0-1.25.41-3.29,1.75-3.77,3.61-1.66,7.78-2.27,11.62-3.29,3.08,11.7,6.27,23.44,8.85,35.25A27.61,27.61,0,0,1,735,455.47c-.79-2.4-1.48-4.82-2.11-7.27-2.7.31-4.82.58-7.35-.67-3.17-1.41-5.13,2.76-5.23,5.31,1.69,4.14,3.58,7.79,3.48,12.43,9.11.49,18.08,1.41,26.82,4.17,8.51,2.71,17.6,5.9,24.87,11.15a9.55,9.55,0,0,1,2.77,3.16q39.51,70,79,140c4.38,7.86,9.15,15.48,13.93,23.1,4.1,5.72,4.39,14.35,5,21.15.91,13-3.68,24.84-10.59,35.59-1.68,2.63-3.8,5-5.39,7.66-.3,1.14.59,2.49,1,3.56a79.26,79.26,0,0,0,14.62,21.44c7.09,7.39,15.66,11.86,24.79,16.19a227.65,227.65,0,0,1,1,35c-.57,10.4-2.7,20.81-5.25,30.9-1,4.12-3,7.76-4.25,11.77-4.72,15.18-12.24,29.1-20.05,42.9-2.6,4.1-5.2,8.81-8.88,12a35.56,35.56,0,0,1-13.1.94c-1.18-2.84,3.29-5.07,4.57-7.36,8-12.62,10.7-27.92,11.33-42.62.8-15.27-2.77-29.31-7.34-43.72-.56-2-2.22-2.9-3.68-4.19a71.05,71.05,0,0,1-9.52-8.91c-1,10.48-3.45,21-5.9,31.3-2,8.1-4,16-7.42,23.62-6.9,14.75-10.6,29.23-20.27,42.72-2.45,3.11-4.45,7.6-7.84,9.71-3.26-.68-6.32-3.09-9.1-4.84,1.4-4.62,3.25-9,4.23-13.74,2.86-13.71,1.78-27.25.33-41.06C798,814,796.09,800.36,792.08,788a31.7,31.7,0,0,0-7.87-7.59c-4.54-.84-9.18-.93-13.69-2.09-5.78-1.37-10.71-4.07-15.79-7a99.19,99.19,0,0,0-13.3,15.07c-.8,1.57-2.55,3.48-1.29,5.23,2.4,3.87,5.48,7.35,8.24,11,12.56,15.5,24.73,30.2,34.17,47.92a12.81,12.81,0,0,1,1,3.77c-8.79-4.19-16-10.94-24.77-15.22,3.21,4.78,7.1,9.71,8.63,15.38,1.66,6.64.32,13-.58,19.65a6.93,6.93,0,0,0,.8,4.27C782.44,911.89,797.16,945.49,812,979c1,2.37,2.41,5.31,2,7.93-.15,2.2-1.16,3.85.21,5.87a107.67,107.67,0,0,1,5.63,11.4c3.64,8.64,8.39,17.22,10.85,26.13,1,3.44,1.22,6.78,3,10,2.3,4,.73,9.28-1.21,13.1-3.81.16-7.61.14-11.43.15q-124.49.67-249,1.34a124.79,124.79,0,0,1-12.83-.08c-2.47-3.38-1.92-6.91-1.89-10.86.14-4.9,2.4-9,4.27-13.41,1.68-3.94,3.6-7.76,5.51-11.59-4.68-2.69-10.37-6.4-9.88-12.57q3.12-48.27,6-96.48a4.16,4.16,0,0,0-1.24-3.87c-5.39-5.73-11-13.91-11.34-22,1.77-30.55,3.69-61.49,5.44-92.11a26.45,26.45,0,0,1,1.88-7.66c-5-6-10.56-11.83-14.86-18.36-1.81-4.58.12-10.79-.3-15.61-1.55-4-4-7.66-5.3-11.79-3.29-9.66-4.31-20.36-5.76-30.43a126.09,126.09,0,0,1-.45-36c1.1-9.24,3.73-18.08,5.24-27.24l-3.35.11c-.88,4.74-2,8.53-4.75,12.54a305.88,305.88,0,0,0-5.56,32.38c-.18,3.64-2.78,5.47-5,8-7.86,8.33-13.3,19.24-18.7,29.27-3.44,6.21-3.73,12.73-4.58,19.59-.29,3.33-4.14,4.28-6.86,4.73a87.05,87.05,0,0,1-20.47-.07c-2-.44-4.79-.8-5.79-2.87-3.83-6.64-6.35-14.13-10.38-20.64-5.16-8.16-11.46-15-18.19-21.82-2.3-2.47-5-3.81-5.8-7.3a317.51,317.51,0,0,1-7.68-31.12c-.41-3.45-3.51-4.93-5.22-7.85a84.83,84.83,0,0,1-5.3-12.86l-3.26-1c5.88,15.52,10.91,31.28,13.87,47.65C422,706,422.58,718.44,423.15,731a51.09,51.09,0,0,1-2.29,18.1c-1.5,3.76,1.71,8.31-.52,12.23-3.84,7.37-8.44,14.3-11.85,21.92-.07,2.5,1.25,5.16,1.42,7.73,3.25,26.36,6.4,52.76,9.66,79.12.17,2.2.63,5-.52,7-2.55,4.7-7.62,8.06-11.45,11.88q4.29,53,8.64,106c.08,2.5.89,5.52.09,7.91-3.95,4.3-10.71,5.92-15.6,9.19,1.29,3.68,2.91,7.22,4.28,10.87,2.67,7.63,6.74,15.22,9.08,23.06.34,2.53.72,6.83-1.47,8.66a29,29,0,0,1-4.56.19l-248.07-5a46.4,46.4,0,0,1-7.46-.4c-3.27-3.78-1.8-8.68.24-12.65,2.59-12.76,7.06-25.71,14.51-36.5,1.19-2.54.52-5.85,1.44-8.57,1.25-4.07,2.72-8.05,3.72-12.2q15.44-55.6,30.89-111.23c1-3-.77-5.27-1.16-8.44-1-4.7.38-8.91,2.37-13.11a142.07,142.07,0,0,0-19,12.89c-1.61,1.07-3.82,3.23-5.52,1.11-.23-2.82,1.27-4.71,2.81-6.86,3.58-4.78,6.93-9.73,10.46-14.56,8.28-11.53,16.89-21.83,23.39-34.59,1-2.11,2.08-4.06,1.14-6.42-2.54-6-7.21-11.39-12-15.72-4.86,1.9-9.69,4.18-14.69,5.63-4.29,1.25-8.46,1.2-12.88,1.28-3.35,4.57-8.32,9.09-9,14.78-2.71,11.13-3.7,22.41-5.19,33.74a147.9,147.9,0,0,0,3.75,50.81c-1.47,3.17-5,4.51-7.92,6a20.11,20.11,0,0,1-5.05-5.59A170.1,170.1,0,0,1,141,860.07c-6.26-16.86-11-34.5-15.13-52-1.67-6.7-2.77-13.38-5-19.92-3.1,2.79-6.16,5.61-9.5,8.12-1.31,1.11-2.81,1.87-3.41,3.54-4.62,11.54-6.13,24.85-6.91,37.18-.59,11.44-.16,22.88,3.18,33.91,2.35,7.9,6.94,14.87,10.48,22.06-1,1.53-4,1.11-5.65,1.23-2.6-.22-6.39.33-7.94-2.24a135.11,135.11,0,0,1-14.75-26.25C77.56,845.54,70.14,825.19,68.77,803a168.24,168.24,0,0,1,1.87-38.31c8.78-5.08,15.83-12.06,22.41-19.68,6.59-8.17,13.21-17.67,16.06-27.87-5.9-8.54-12-15.81-14.08-26.34-2-11.37-3.61-23.66,1.2-34.56,2.17-5.66,6.32-9.7,9.11-14.93q38.91-74.05,77.92-148.11a9.84,9.84,0,0,1,3.21-3.74c5.8-4.18,12.79-7.11,19.47-9.56,9-3.09,18.19-5.36,27.77-5.46a19.57,19.57,0,0,1-.5-5.21A44,44,0,0,1,236.6,462q-1.08-2.35-2.14-4.71c-2.76-.13-5.52-.12-8.27-.22-.77,2.87-1.53,5.73-2.22,8.61-4.56,0-10.13.06-13.27-3.85-.19-1.94.65-4.05,1.17-5.9,2.82-8.62,5.31-17.35,8.14-26,.69-3.31,4.27-2.63,6.82-2.54,2,.15,5.71,1.33,5.83,3.76-.16,3.66-1.21,7.28-1.71,10.91l3.57.62c9.09-12,18.32-23.85,27.47-35.79,2-2.8,5.23-3.89,6.91-7,4.31-7,8.75-13.9,13-20.91-1.05-3-2.15-5.67-1.83-8.9.79-10.12,3.78-20.3,7.21-29.83A130.63,130.63,0,0,1,304,309.06c1.74-2.18,2.44-5.06,5.59-5.32,12.43-2.22,25.83.53,37.45,5.11,1.28-8.68,2.31-17.39,3.54-26.08,1-7.13,7.45-12.33,13-16.12,8.79-5.41,19.44-8.26,29.44-10.52,13.13-2.89,25.93-2.2,39.22-2.93-2.46-2.7-4.83-5.48-7.31-8.17-1.06-1.47-3.37-.69-5-.84-13.36.12-24.87-5.19-35.69-12.54-3.61-2.64-8.72-5-10.93-9,9.6,1.34,18.37,3,28.07.62-3.2-1.74-6.92-2.06-10.41-3.39-10.82-3.68-19.53-13.37-24.78-23.22-1.91-3.85-4.46-7.25-6-11.23,3.31,1.91,6,4.36,9.71,5.64a22.29,22.29,0,0,0,11.45,1.46c-2.39-3-5.09-5.55-7.33-8.67a84.63,84.63,0,0,1-6.16-10.85c-5.32-9.7-7.82-21.06-8-32.06a142.24,142.24,0,0,1,1.77-20.07,8,8,0,0,1,1.5-3.06c.5,3,.45,5.93,1.13,8.83,1.25,5.22,3.64,9.69,6.28,14.31a65.75,65.75,0,0,1-.35-25.77c.93-4.79,3.06-9,4.32-13.69a88.32,88.32,0,0,1,15.82-30.18,18.51,18.51,0,0,1,6.91-5.69C395.53,69.44,393,72,392,76.09a29.34,29.34,0,0,0,2.44,18.48c2.78,5.83,7.59,9.54,13.07,12.67-1.82-7.43-1.14-14.86.38-22.27,2.72-13.75,11.57-26.22,23.27-33.84,2.89-1.87,5.55-3.73,9.08-4.12-2.84,4.57-6.32,8.62-8.71,13.49a35.57,35.57,0,0,0-4,19.74c2.68-5.92,4.82-12,8.06-17.66,4.14-7.12,8.4-13.87,14.73-19.28,7.94-6.88,17.3-12.68,27.43-15.67A143.17,143.17,0,0,1,502.46,22.77Z" transform="translate(-68.45 -22.26)"/><path class="cls-1" d="M511,25c-4.56,2.75-8.92,5.57-12.45,9.61A50.93,50.93,0,0,0,486,62.07c-1,7.79.77,16.08,3.56,23.36,1.28,3.47,3.73,6.92,4.26,10.54-2.24,6.45-5.82,13.32-3.79,20.32,1-4.3,1-8.56,2.46-12.78a53.39,53.39,0,0,1,13.8-21.2c4.67-4.56,10.5-7.36,16.55-9.61-7.49,8.36-12,19-11.19,30.36.05,2.6,1.74,5.16-.27,7.28A33.31,33.31,0,0,0,504.32,130c1.93-4.62,2.67-9.29,5-13.71a26.09,26.09,0,0,1,12-12c4-1.94,9.23-1.11,13.53-.86,9.12.53,16.68,3.81,26,2.23A31.05,31.05,0,0,0,585,89c-.72,9.71-2.09,19.48-5.33,28.7-3.58,9.91-11.23,17.92-19.69,23.93C551.77,138,540.38,139.47,534,146c4.09-1.52,7.65-3.53,12.15-3.62,5.08-.61,9,.21,12.92,3.57,5.44,4.54,10.31,9.74,15.73,14.3,4.86,4,10.6,6.81,17,6.46,3.53-.22,6.33-1.92,9.44-3.38-2.24,3.44-4.56,6.65-8,9-6.74,4.83-14.32,6.16-22.3,7.63-2.93.56-6.35.59-9.06-.83-1.85-1.39-3.37-3.17-5.25-4.53,1.84,4.46,6,8.09,9.44,11.42,4.51,4.25,9.72,5.23,15.27,7.35-6.46,1.25-14.15,1.46-20.29-1.24-2.73-.89-2.68-3.61-4.06-5.88A29.41,29.41,0,0,0,568,211c5.81,4.21,12.4,4.39,19.22,3.11-7.63,8.33-19,13.38-30.22,14.09-9.91,1-20.37-2-29.19-6.39.09,3.33-.06,6.92,1.28,10a20.3,20.3,0,0,0,13.59,11.41c-5.42-.19-10.34,0-15.34-2.58-2.22-1.16-3.47-3-5.16-4.72.59,3.7,1.29,7.07,4,9.88,3.42,4.17,8,5.31,13.08,6.29-5.13,2.54-10.67,3.19-16.33,3.17-4.81.16-9.41-2.84-13.3-5.39-.58-1.14,1.08-2.63,1.54-3.68a74.79,74.79,0,0,0,10.63-25.59c2-2.39,5.73-3.51,8.11-5.69,6.58-5.58,12.17-13.57,13.62-22.18.58-4.11.64-9.09-1.37-12.84-1-2-2.8-3.38-5.13-3.11-3.69.54-7.19,3.5-10.24,5.52.24-4,1.84-9.5-.38-13.12-.43,3.82-.29,7.58-.94,11.38a65.67,65.67,0,0,1-10,24.51c1-5.17,1.79-10.24,1.12-15.52-.21-2.79-1.1-5.09.11-7.78,2.32-5.83,4.4-11.61,5-17.91.27-3.71.64-7.12-1.34-10.46-.18,3.92.34,7.71-.23,11.63-1,7.29-3.88,14.53-6.93,21.19-.19-5.25-.06-10.2-1.22-15.37a46.22,46.22,0,0,0-5.75-14.13c-3.76-5.92-9.61-10.27-14.9-14.78.29-1.07.58-2.13.86-3.2-4.73,5.32-9.21,10.6-12.57,16.92-5.13,9.41-7.84,20.54-9.88,31A127.63,127.63,0,0,0,467.74,210c0,7.71,0,15.16,1.36,22.77a14.2,14.2,0,0,0-10,.76c1.64-8.78,1-17.24.14-26.06-.62-6.24-2.41-12.15-3.53-18.29a149.58,149.58,0,0,0-6.25-21.65,80.21,80.21,0,0,0-10.23-18.79,14.23,14.23,0,0,0-5.6-5.15c-.89-.43-1.24.18-2,.57-3,2-6.49,2.87-9.45,5.07-3.19,2.28-5.33,5.32-7.36,8.62,1.93-1.62,3.72-3.37,5.73-4.89-1,3.38-2.68,6.48-3.67,9.86s-1.32,7-2,10.56c-2.28-5.58-2.8-11.41-2.89-17.39l-1.39.42a61.61,61.61,0,0,0,1,11.09c1,4.62-.53,9.68-.59,14.49-.32,4.5.56,8.77,1.5,13.13a43.63,43.63,0,0,1-6.51-13.25c-1.17-4.09-1.1-8.08-1.79-12.24-1.23,3.93-.66,7.69-.15,11.68-1.62-1.56-3.13-3.92-5.23-4.82-3.62-.6-6.17,2.4-7,5.61-1.75,8.71,1.1,17.48,6.71,24.22,3.75,5,8.5,8.78,12.92,13.05,2.34,7.69,5.87,14.48,9.94,21.37-4.85.27-9.58.32-14.3-1-9.38-2.36-17.14-7.76-25.56-12.68,5.58.07,11.71.7,17.21-.28a17.74,17.74,0,0,0,9.28-4.94,108.14,108.14,0,0,0-11.86-3.21A34,34,0,0,1,385,213.05a61.39,61.39,0,0,1-18.18-20.15c4.15,1.39,7.78,3,12.29,2.7,2.85-.12,4.92-1.57,7.36-2.83-2.76-3-5.66-5.78-8-9.17a88.4,88.4,0,0,1-15.33-51.78c2.22,5.16,3.89,10.21,7.39,14.72,2.24,3.09,5,5,6.7,8.29,3,5.56,6.42,11.71,11.93,15.12-3.16-4.88-7.27-8.88-9.87-14.17-8-14.81-7.45-32.38-3.77-48.34,3.1-10.77,7.3-21.5,14-30.58-.28,4.21-.64,8.15.22,12.34,1.71,7.63,5.42,14.74,12.42,18.72,2.52,1.55,5.86,2,8.09,3.9,1.92,3.22,3.09,6.67,5.74,9.46-1.31-4-3.4-7.67-4.39-11.82-2.34-7.3-2.23-15.18-.66-22.63,3-13.89,11.72-26.69,23.12-35.06-2,3.44-4.35,6.54-6,10.18a34.68,34.68,0,0,0-2.8,21c.36,2.5,2.35,4.69,2.37,7.19-.46,11,1.38,23.31,7.24,32.85-1.94-7.72-5-14.86-5.62-22.92-1.56-11.55,2-22.25,7.77-32.11,6.82-11.67,15.43-23.73,27.2-30.8C477.61,28.55,495.31,25.85,511,25Z" transform="translate(-68.45 -22.26)"/><path class="cls-1" d="M505.32,167.73c-.24,2.08-.51,4.15-.77,6.23-4.48.95-8.73,1.7-12.93,3.66a54.41,54.41,0,0,0-7,4.46c1.42-3.33,2.85-6.38,5.8-8.64C494.6,170.31,500.31,168.84,505.32,167.73Z" transform="translate(-68.45 -22.26)"/><path class="cls-1" d="M421.53,169.12c9.4-1.37,16.49,5.59,21.67,12.48-2.89-1.88-5.52-3.83-8.8-5-4.32-1.68-8.61-1.79-13.17-1.93C421.31,172.8,421.36,171,421.53,169.12Z" transform="translate(-68.45 -22.26)"/><path class="cls-1" d="M431.58,186.85c7.18-1.86,13.88,5.45,11.65,12.4a10,10,0,0,1-13,6.73c-5.33-2.15-7.65-9.17-5.5-14.3C425.93,189.05,428.86,187.48,431.58,186.85Z" transform="translate(-68.45 -22.26)"/><path class="cls-1" d="M498.67,188.3c4,2.33,5.67,7.86,4.77,12.21-1.18,7.2-12.7,10.05-16.72,3.78-3.05-4.81-2.4-9.95.71-14.51,0,2.51-1,6.07.5,8.25a6.2,6.2,0,0,0,8.71,1.68,6,6,0,0,0,.82-9.17c-2.32-2.31-5.8-1.86-8.79-2.32C491.94,187.57,495.58,186.46,498.67,188.3Z" transform="translate(-68.45 -22.26)"/><path class="cls-1" d="M399,187.51c4.06,2.1,7.89,6.64,10.1,10.56.08,4.1,0,8.16.4,12.24C403.86,204.1,397.1,196.6,399,187.51Z" transform="translate(-68.45 -22.26)"/><path d="M431.29,188.14a7.43,7.43,0,0,1,7.84,1.77,6.61,6.61,0,0,1-1.75,9.55,6.31,6.31,0,0,1-8.85-3C427.63,193.24,427.54,189.46,431.29,188.14Z" transform="translate(-68.45 -22.26)"/><path class="cls-1" d="M533.65,190.19c.63,2.22,1,4.23,0,6.42-2,4.94-5.87,9.28-9.52,13.11.27-4.34-.4-9,.25-13.27C526.37,193.67,529.87,189.62,533.65,190.19Z" transform="translate(-68.45 -22.26)"/><path class="cls-1" d="M507.44,217.18c.62.76,1.23,1.53,1.84,2.3-1.74-.51-3.49-1-5.24-1.48C505.17,217.71,506.29,217.41,507.44,217.18Z" transform="translate(-68.45 -22.26)"/><path class="cls-1" d="M503.12,224.44c1.68,1.55,3,3.17,3.22,5.54.68,6.25-1.8,12.93-5.37,18s-9.66,7.19-15.49,8.54c-9.63,2.24-19.5,1.1-28.72-2.29,1.41-.95,3-3.05,4.81-2.67a20.51,20.51,0,0,0,6.58-.46c3.22-1,6.34.71,9.69-.13,5.25-.85,9.26-3.69,14.11-5.54-.78,1.27-1.62,2.51-2.46,3.74l3.76-.89c.65,1.18,1.32,2.34,2,3.5,2.33-3.07,3.21-6.55,4.43-10.12,1.72-2.94,3.82-5.37,4.52-8.84-1.87,2.57-3.73,5.21-5.41,7.9-1.2,2.55-2,5.31-3,7.95-1.18-1.21-2.36-2.41-3.56-3.59a27.84,27.84,0,0,0,6.39-8.42c1.76-3.64,1.6-7.17,2.05-11.06C501.49,225.19,502.3,224.81,503.12,224.44Z" transform="translate(-68.45 -22.26)"/><path class="cls-1" d="M499.12,226.08c-.47,3.33-.94,6.46-2.53,9.48a26.94,26.94,0,0,1-24.7,13.63c.86-2.54,2.26-5.31,2-8-.19-2.27-1.54-4.47-2.52-6.49,2.17-2.34,4.43-4.31,7.69-4.85,4.49-.83,8.68,2.27,12.93,2.62C495.6,232.36,497.26,228.59,499.12,226.08Z" transform="translate(-68.45 -22.26)"/><path class="cls-1" d="M442.06,232.73c4.61-.06,8.41,2.63,11.92,5.28-.18,2.22-.76,4.71-.26,6.89,1.28,2.19,3.15,4,4.68,6.08-6.5,1.36-13.58.27-19.94-1.37-7.12-1.92-13.1-6.87-14.74-14.3,2.54,1.53,5,3.65,8.18,3.35C435.75,238.37,438.41,233.31,442.06,232.73Z" transform="translate(-68.45 -22.26)"/><path class="cls-1" d="M460.89,236.89c-.82,2-1.77,3.9-2.77,5.78-.34-1.21-.64-2.43-.92-3.66C458.39,238.23,459.64,237.56,460.89,236.89Z" transform="translate(-68.45 -22.26)"/><path class="cls-1" d="M508.66,253.89c4.4,1.07,8,3.61,12.35,4.15s8.63-.67,12.93.14c8.72,1.47,17.48,4.38,26,6.91,7.45,2.34,15.44,4.82,22.14,8.89,3.93,2.28,5.27,7.56,3.64,11.64-1.2,2.45-3.33,4.48-4.85,6.76,4-2.1,5.71-5.15,7-9.33,2.65,6.44,5.35,12.86,7.8,19.37.48,1.53,1.4,3.45,1,5.07-7.4,5.39-15.86,8-23.71,12.52a270.76,270.76,0,0,0-24.6,15.4c-7.63,4.92-14.94,10.17-21.22,16.78-7.32,7.9-14.78,15.1-21.1,23.9-3,4.42-5,9.52-8.1,13.93-1.58,2.55-4.9,3.36-7.54,4.44a67.73,67.73,0,0,1-44.68.74c-2.84-1.11-5.65-1.87-7.33-4.62-4.23-6.43-8.33-12.88-13-19-12-15.1-23.79-29.2-40-40a84.23,84.23,0,0,0-23.51-11.46c-2.95-1-6.2-1.6-8.95-3.05-1.6-2.38-3-4.72-2.43-7.7,1-7.7,1.9-15.42,3-23.11,7.59,7.46,16.84,9.07,26.79,11.41a157.72,157.72,0,0,0,25.92,3.94,114.31,114.31,0,0,0,3.37,22.82c1.61,7.41,6.13,14.43,10.45,20.57,3.32,4.39,6.66,9.59,11.05,12.91a82.26,82.26,0,0,0,18.59,10.39c6.21,2.59,12.53,4.37,19.32,4.22,9.26-.26,18.62-4.21,26.21-9.36a63.07,63.07,0,0,0,25.51-32.42,106.46,106.46,0,0,0,5.8-26.9c11.47-2.11,23.19-2.73,34.63-4.93,5.37-1.17,11.17-2.36,16.08-4.89-4.35.44-8.27,1.88-12.49,2.87-9.6,2.36-19.73,3-29.67,4.43a88,88,0,0,1-9,1.09,44,44,0,0,1-9.93-4.46c8.36-1.24,16.75-2.14,25-3.93,10.89-2.31,21.55-4.06,32.11-7.81,2.41-.93,4.92-2.75,5.36-5.47.3-2.49-1.38-4.65-3.15-6.19a28.4,28.4,0,0,0-12.66-5.62c4.31,2.8,10.6,4.39,13.58,8.75,1.59,2.21.32,3.63-.41,5.85-1.17-2.69-2-5.22-4.48-7-7.18-4.93-16-7.28-24-10-10.29-3.29-20.64-5-31.25-6.64C513.32,258.84,510.77,256.1,508.66,253.89Z" transform="translate(-68.45 -22.26)"/><path class="cls-1" d="M435.84,256.05q1.29.94,2.55,1.92a74.46,74.46,0,0,0-5.13,9.2c2.8,1.18,5.64,2.24,8.43,3.44-1.65,2.29-3.23,4.61-4.7,7l-3.43-1c-2.08-5.69-4.63-11.12-9.83-14.61,3,4.61,6.55,8.53,8.39,13.86-5.73.12-12.35-.42-17.34,2.88q-8.05,5.07-16.38,9.67c-1.62,1.06-3.26.9-5.11.9,2.83-4.15,6.58-7.08,10.25-10.77,5.16-5.2,10.62-10.05,16.14-14.87C424.36,259.65,429.92,257.54,435.84,256.05Z" transform="translate(-68.45 -22.26)"/><path class="cls-1" d="M503.67,256a74.07,74.07,0,0,1,8.35,9.26A63.43,63.43,0,0,0,501,267.83c-2.26-.93-4.15-3-6.07-4.48C497.83,260.9,500.65,258.3,503.67,256Z" transform="translate(-68.45 -22.26)"/><path class="cls-1" d="M424.49,257.26c-4.32,2.67-9.87,1.53-15,2.53-11.28,1.82-24.83,3.56-34.29,10.41a15.34,15.34,0,0,0-6.72,10.46c-.46-1.11-.95-2.21-1.46-3.29-.29,3.92.62,5.67,3.65,8C380.17,291.6,390.34,291,401,293c5.09.78,9.95.32,15.06.78-3.66,2.2-7.38,4.44-11.12,6.48-9.47-.37-19.22-2.53-28.45-4.65-7-1.69-14.22-3.54-20-8.07-1.33-1.22-2.85-2.18-2.32-4.23.59-6,4.68-9.67,9.48-12.66a102.87,102.87,0,0,1,20.09-8.86c9-2.93,17.9-3.44,27.27-4.16A90.68,90.68,0,0,1,424.49,257.26Z" transform="translate(-68.45 -22.26)"/><path class="cls-1" d="M507.85,257.7a92.49,92.49,0,0,1,9.28,7.16c4.45,3.72,9,7,13.06,11.12a94.5,94.5,0,0,0-17.1,3.72c1.76-3.86,4.4-7.16,6.2-11-3,2.42-4.8,5.64-6.54,9-.77,1.32-1.14,2.65-2.57,3.41-4.2,2.59-8.42,4.42-11.49,8.51-4.17,5.77-7.45,12-8.31,19.19l-3.15.22a53.83,53.83,0,0,1,23.27-31.18,84.39,84.39,0,0,0-8.37-8.85c4-1.72,8-2.11,12.26-2.5C512.67,263.21,510.07,260.68,507.85,257.7Z" transform="translate(-68.45 -22.26)"/><path class="cls-1" d="M439.3,259.07c3,1.73,5.73,4.1,8.56,6.15-1.71,1.5-3.42,3-5.07,4.57-2.6-1.16-5.26-2.17-7.93-3.16A37,37,0,0,1,439.3,259.07Z" transform="translate(-68.45 -22.26)"/><path class="cls-1" d="M464.69,264.19a20.08,20.08,0,0,1,5,.06c2.23,1.3,3.66,3.81,6.16,4.9,2.92,1.38,6.2.47,9.23.06-2.48,2-5.21,4.14-7.06,6.76-1.84,2.4-1.91,6.07-1,8.83,1.49,3.7,5,4.88,8.14,6.76-3.6.17-8,1-11.38-.38-4.29-1.72-8.44-3.92-11.27-7.69-2.07-2.65-2.68-5.57-3.62-8.71a40.62,40.62,0,0,1-3,5.63c.39-5.67-1-9.76-3.7-14.65,3.33,1.35,6.57,2.88,9.94,4.14C463,268,463.8,266.09,464.69,264.19Z" transform="translate(-68.45 -22.26)"/><path class="cls-1" d="M493.42,264.42a72.68,72.68,0,0,1,15.17,13.27,59.69,59.69,0,0,0-10.18,8.72c-6,6.45-9.78,14.3-12.58,22.57h-4c.72-5,1.57-10.06,2.14-15.13a52.12,52.12,0,0,0,7.54-3.09c-2-1.55-4.24-1.59-6.6-2.15.84-5,1.73-9.87,2.91-14.77C488.43,270.33,491.34,267.24,493.42,264.42Z" transform="translate(-68.45 -22.26)"/><path class="cls-1" d="M449.49,265.9c2.15,4.1,4.19,8.3,3.58,13.07-.34,2.75-1.79,4.74-3.19,7a47.3,47.3,0,0,0-11.52-8.16A30.77,30.77,0,0,1,449.49,265.9Z" transform="translate(-68.45 -22.26)"/><path class="cls-1" d="M486.62,273c-.92,5.17-2,10.3-3,15.46-2.19-1.48-5.49-3.24-5-6.38.85-2.72,3.35-5,5.37-7C484.83,274.38,485.72,273.68,486.62,273Z" transform="translate(-68.45 -22.26)"/><path class="cls-1" d="M529,278.17c7.76-1,15.49,4.35,20.17,10.1A140,140,0,0,1,516,294.86a22.77,22.77,0,0,0-4.34.74c-.87,1.12-.63,3-.8,4.37a70.21,70.21,0,0,1-4.61,23.59q-24.59-.1-49.18-.4c1-4.07,2.13-8.12,3.15-12.19,11.08-.2,22.23.61,33.31.07.72-3.81,1-7.78,2.1-11.5,2-5.76,5.53-10.92,10.9-14A54.47,54.47,0,0,1,529,278.17Z" transform="translate(-68.45 -22.26)"/><path class="cls-1" d="M430.05,278.55c6.08.09,11,3.14,15.7,6.7,7.06,5.67,11,14,12.34,22.85.61,5-2.47,10.48-4.36,15-8.84.14-17.68,0-26.52-.27-4.37-10.34-4.95-21-5.07-32.07-7.37-.32-14.56.17-21.94-.75,4.9-3.46,10.36-6.17,15.55-9.25C419.74,278,425.37,278.54,430.05,278.55Z" transform="translate(-68.45 -22.26)"/><path class="cls-1" d="M457.35,282a56.77,56.77,0,0,0,8.84,9c-.69,6.11-.75,12.28-1.69,18.35-1.95-1.31-2.54-3.1-3.48-5.16-.13,1.73-.28,3.46-.45,5.2-1.08-4.19-1.84-8.38-3.61-12.36a45.33,45.33,0,0,0-6.24-10.1c1.81-1.3,3.59-2.67,5.36-4a89.57,89.57,0,0,1,3.08,13c.51,2.92.66,5.64,1.93,8.37C461.47,297,458.78,289.15,457.35,282Z" transform="translate(-68.45 -22.26)"/><path d="M438.18,287.25c3.83,2.82,6.36,7.69,8.65,11.77a89.46,89.46,0,0,1-13,2.56A127.65,127.65,0,0,1,438.18,287.25Z" transform="translate(-68.45 -22.26)"/><path d="M507.79,293.22c.43,2.9-1.5,3.26-3.69,4.14-1.38-2.52-1.6-3.28-.75-6.07C505.41,291.36,507.09,290.67,507.79,293.22Z" transform="translate(-68.45 -22.26)"/><path class="cls-1" d="M419.51,293.65a85.17,85.17,0,0,0,1.89,20c2.73,13.71,11.33,26.22,22.45,34.56a65.4,65.4,0,0,0,15.38,9.64c6.48,1.64,14-.06,20.1-2.46,11.83-5.34,22-14.48,27.83-26.19,5.32-9.84,6.14-20,7.38-30.82,2,3.8,1.06,8.74,2.08,12.89.14-3.77-.33-7.56-.38-11.34,1.8.71,3.59,1.45,5.39,2.18a59.8,59.8,0,0,0-1.57,9c1.08-3,.76-7,3.16-9.11.62,5.57-1.83,11.46-2.12,17.13,2.15-5.19,1.45-11.43,4-16.32.41,3.58-.3,6.84-.94,10.32a114.08,114.08,0,0,1-5.74,20.28,61.35,61.35,0,0,1-27.92,31.15c-7.26,4.21-15,7.08-23.52,6.8s-17.11-3.94-24.58-7.69c-5.76-3.09-12-6.78-15.94-12.08-6.28-8.11-12.76-16.55-15.42-26.64-2.06-8-3.77-16.53-3.45-24.82,2.62-1.26,5.22-2.56,7.84-3.83-.49,3.18-.78,6.42-1.45,9.57a10.56,10.56,0,0,1,2.26-3.51,16.49,16.49,0,0,1,.34,5.34l1.14-2c.27,1.56.53,3.14.86,4.68a78,78,0,0,1-1.2-15.12C418.07,294.67,418.79,294.16,419.51,293.65Z" transform="translate(-68.45 -22.26)"/><path class="cls-1" d="M475.39,294c2.45-.16,4.92-.1,7.37-.13-.68,5.26-1.12,10.91-2.94,15.87C477.51,304.81,476.61,299.21,475.39,294Z" transform="translate(-68.45 -22.26)"/><path class="cls-1" d="M416.13,296.34c1.23-.33.87,4.64.35,5.24C414.88,302,415.62,297.06,416.13,296.34Z" transform="translate(-68.45 -22.26)"/><path class="cls-1" d="M643.25,297a65.32,65.32,0,0,0,2.56,18.23,116.08,116.08,0,0,0,17.92,36.08c2.38,3.29,5.11,6.32,7.41,9.67,2.34,2.37-.95,5.07-1.95,7.32a133.42,133.42,0,0,0-12.06-9.39c-4.46-2.88-10.37-6.47-15.84-4.59a41.69,41.69,0,0,0-15.5,9.93l3.47,0c.83,3.85,2,7.59,3.15,11.38,1.24,5.15,4.55,9.32,5.89,14.47-1.79.48-3,1.93-4.67.48a87.91,87.91,0,0,1-10.38-7.73c-8.11-6.5-14.2-15.92-19-25.05-6.93-13.44-10.18-28.6-7.14-43.59.83-3.11,1.68-7.56,5-8.92C614.57,298.5,629.38,297,643.25,297Z" transform="translate(-68.45 -22.26)"/><path d="M499.2,299.9c2.1-.79,5,.46,4.63,3-.1,1.55-1.43,2.32-2.83,2.59C498.65,304.8,497.31,301.75,499.2,299.9Z" transform="translate(-68.45 -22.26)"/><path class="cls-1" d="M309.52,306.23c13.62.64,26,1.11,38.22,8,1,.59,1.52,2,2,3,2.46,5.48,3.19,11.83,3.5,17.76.06,16.72-6.67,32.69-15.9,46.36-5,7.61-12.47,13.86-19.81,19.14-.86.21-1.74.39-2.62.54.58-4.4,2.55-7.94,4-12.06,1.83-4.89,2.31-10.53,3.13-15.73l3.38.35a40.52,40.52,0,0,0-14.22-9.77c-3.52-1.32-6.81-.25-10,1.38-5.92,3.18-11.33,8.1-16.31,12.57-1-1.91-1.83-3.85-2.64-5.83,3.48-5.68,7.83-10.71,11.21-16.47C302.46,340.47,308.8,323.85,309.52,306.23Z" transform="translate(-68.45 -22.26)"/><path d="M499.69,309.2c1.68,1.83,1.6,4-.7,5.28-2.76-.48-2.7-2.23-3.33-4.49C497.05,309.48,498.16,308.78,499.69,309.2Z" transform="translate(-68.45 -22.26)"/><path class="cls-1" d="M596.29,310.77c-.44,2.25-.9,4.5-1.36,6.74q-1.71-1.74-3.39-3.5C593.11,312.92,594.7,311.83,596.29,310.77Z" transform="translate(-68.45 -22.26)"/><path d="M494.07,312.64a24.77,24.77,0,0,1,2.9,10C494.77,319.68,494.26,316.25,494.07,312.64Z" transform="translate(-68.45 -22.26)"/><path class="cls-1" d="M590,315c1.88.59,3.43,2.85,4.37,4.51.32,3.9,0,7.87.15,11.79a75,75,0,0,0-11.76-13.09A67.57,67.57,0,0,1,590,315Z" transform="translate(-68.45 -22.26)"/><path class="cls-1" d="M354.23,322c4.78,2.26,10,3.29,14.78,5.5a7.35,7.35,0,0,1-1.67,3.81c-3,3.53-5.92,7.25-9.46,10.22l-1.28-.77C355.75,334.57,356.45,327.83,354.23,322Z" transform="translate(-68.45 -22.26)"/><path class="cls-1" d="M574.77,322.23a117.7,117.7,0,0,0,.23,17.71,87.83,87.83,0,0,0,16.87,40.19c7.32,9.94,18.16,18.35,30.21,21.49-1.47-5-.32-10.25-1-15.44a79.41,79.41,0,0,0,7.68,5.24c.22,6.48,1.64,14-.61,20.2a40.84,40.84,0,0,1-21.64-8.13,111.11,111.11,0,0,1-31.41-34.6,78,78,0,0,1-11-40.5C567.68,326.34,571.18,324.19,574.77,322.23Z" transform="translate(-68.45 -22.26)"/><path class="cls-1" d="M578.17,322.46c1.44-1,2.63,1.4.82,1.76C578,323.93,577.74,323.34,578.17,322.46Z" transform="translate(-68.45 -22.26)"/><path class="cls-1" d="M427.92,324.21c25.89.14,51.78.3,77.67.65a54.22,54.22,0,0,1-26.31,27.41c-5.93,2.8-12.26,2.82-18.63,2-4.44-1.08-8.53-4.11-12.38-6.48A55.68,55.68,0,0,1,427.92,324.21Z" transform="translate(-68.45 -22.26)"/><path class="cls-1" d="M581.55,325.45a34.36,34.36,0,0,1,4.26,3.74c-3.27,1.83-5,4-6.88,7.19-2.18-3.44-1.24-6.74-1.06-10.55A9.09,9.09,0,0,1,581.55,325.45Z" transform="translate(-68.45 -22.26)"/><path class="cls-1" d="M372.67,328.38c.89.46,1.78.92,2.66,1.39a48.7,48.7,0,0,1,6.48,4.37c1.51,1,1,2.24,1.16,3.79.13,11.53-2.46,22.74-6.56,33.45-6.94,14.15-16.25,27.46-28.28,37.76-5.55,4.72-11.11,8.92-18.27,10.85-1.92.37-3.79,1.42-5.4-.22-4.3-4.38-3.46-12.82-2-18.23,2.34-2.33,5.11-4.25,7.66-6.34a81.07,81.07,0,0,0,.59,13.31c-1,.48-2,1-3,1.48,3.61,1.79,6.58-1,9.8-2.45,13.68-7.29,22.53-20.52,28.7-34.34C372.46,359.1,374.31,343.66,372.67,328.38Z" transform="translate(-68.45 -22.26)"/><path class="cls-1" d="M562.45,329.54a80.62,80.62,0,0,0,5.12,27c.41,1.45,1.65,3.46.86,4.91-2.27,5.26-6.07,10-9.78,14.36-1.27-2-2.52-4.09-3.8-6.12-12.74,9.55-25.66,19.28-39.64,26.94.91,2.47,1.91,4.89,2.89,7.34-19.43,8.61-40.14,10.39-61.14,8.84-6.41-.43-12.54-2.32-18.95-2.8-17.34-2.36-32.62-10.12-46.41-20.64-5.75-4.63-10.22-11.14-14.1-17.35a85.39,85.39,0,0,0,6.9-36.17,124.84,124.84,0,0,1,20.24,16.5c6.7,6.72,12.17,14.41,18.75,21.24a86.59,86.59,0,0,1,12,15c1.53,2.24,2.54,4.64,5.08,5.88,7.33,3.8,16.3,5.15,24.46,5.6,10.84.62,21.13-2.56,31.84-5.26,4.58-.91,5.9-5.34,8.18-8.82,3.72-5.87,6.81-12.45,11.51-17.48,5.72-6.47,10.78-13,17.24-18.76C542.52,341.67,552.34,335.85,562.45,329.54Z" transform="translate(-68.45 -22.26)"/><path class="cls-1" d="M585.39,331.32c2-1.12,4.4,1.85,6.13,2.74a21.61,21.61,0,0,0-4.67,9.64,73.82,73.82,0,0,1-6-6.72C582,334.75,582.74,332.22,585.39,331.32Z" transform="translate(-68.45 -22.26)"/><path class="cls-1" d="M368.32,332.3h.57v.57h-.57Z" transform="translate(-68.45 -22.26)"/><path class="cls-1" d="M369.64,334.77a56.14,56.14,0,0,1-.47,10.84,26,26,0,0,0-6.24-7C365.09,336.22,366,334.49,369.64,334.77Z" transform="translate(-68.45 -22.26)"/><path class="cls-1" d="M594.88,334.47c1,4.35,2.06,8.7,3.18,13-2.86,0-6.5.3-8.57-2.12A8.6,8.6,0,0,1,594.88,334.47Z" transform="translate(-68.45 -22.26)"/><path class="cls-1" d="M362,340.24c2.85,1.27,5,3.23,4.92,6.55-1.36,2.43-3.47,4.51-5.3,6.61a19.46,19.46,0,0,0-4.3-9.91C358.9,342.4,360.43,341.28,362,340.24Z" transform="translate(-68.45 -22.26)"/><path class="cls-1" d="M582,341c2.4,2.29,4.51,4.82,7.4,6.57,2.72,1.41,6.38,1.37,9.38,1.55A125.66,125.66,0,0,0,608.36,368c-5.08,2.36-10.05,4.94-15.2,7.13a66.72,66.72,0,0,1-14.41-32.87C579.83,341.82,580.92,341.42,582,341Z" transform="translate(-68.45 -22.26)"/><path class="cls-1" d="M356.64,344.82c1.93,2.89,3.82,5.44,2.87,9.16-.35,2.1-2.91,2.38-4.52,3.23C355.38,353.06,356,348.93,356.64,344.82Z" transform="translate(-68.45 -22.26)"/><path class="cls-1" d="M368.38,350.69c-1.62,11.86-6.77,23.57-13.26,33.56-3.94-1.84-7.8-3.86-11.6-6,2.35-3.23,5-6.38,6.86-9.87a85.6,85.6,0,0,0,4-9.68c2.86-.74,5.48-1.54,7.58-3.73C364.12,353.24,365.25,350.34,368.38,350.69Z" transform="translate(-68.45 -22.26)"/><path class="cls-1" d="M648.69,357.41c8,1.87,13.75,6.74,19.63,12.18-7-.8-13.29-1.7-19.65,2.08-5.66,3.2-8.45,8.5-10.09,14.6-2.24-5.26-5.44-11.46-4.77-17.29C634.34,362,641.77,356.14,648.69,357.41Z" transform="translate(-68.45 -22.26)"/><path class="cls-1" d="M307,366.73a12.9,12.9,0,0,1,10.91,11.44c.53,6.06-2.07,11.66-4.45,17.05-1.65-5.81-4.09-11-9.46-14.18-5.89-3.65-11.88-2.91-18.38-1.84a71.16,71.16,0,0,1,10.62-9C299.34,368.51,303.32,366.33,307,366.73Z" transform="translate(-68.45 -22.26)"/><path d="M600,368.05c-.6,1.17-1.05,3-2.22,3.7a31.2,31.2,0,0,1-3.62.06c.26-1.13.11-2.89,1.19-3.59C596.57,366.89,598.39,367.91,600,368.05Z" transform="translate(-68.45 -22.26)"/><path class="cls-1" d="M596.08,369.3c1.64-1.11,2.58,1.15.7,1.62C595.73,370.72,595.5,370.18,596.08,369.3Z" transform="translate(-68.45 -22.26)"/><path class="cls-1" d="M669.81,372.16c4.42,5.13,8,11.24,11.86,16.82-9-3.41-19-1.36-26.83,3.87-4.32,3-6.56,7.26-8.58,11.95-2.13-5.6-5.06-11.06-6.68-16.82a22.11,22.11,0,0,1,4.53-10.86C649.87,369.63,661.71,368,669.81,372.16Z" transform="translate(-68.45 -22.26)"/><path class="cls-1" d="M554.92,371.5c.89,1.82,1.71,3.66,2.55,5.5A78,78,0,0,1,544,389.05c-7.71,5.41-15.87,10.73-24.66,14.21-1.09-2.17-2.21-4.34-3.34-6.49,9-3.77,16.72-9.41,24.72-15C545.54,378.41,550.21,374.94,554.92,371.5Z" transform="translate(-68.45 -22.26)"/><path class="cls-1" d="M560.66,376.23q8.52,20.49,17.14,40.94a17.76,17.76,0,0,1,1.33,5.27c-2.09-3.14-3.08-6.47-4.55-10q-7.3-17.88-15.46-35.4C559.63,376.78,560.14,376.5,560.66,376.23Z" transform="translate(-68.45 -22.26)"/><path d="M350.24,377.22a12.49,12.49,0,0,1,3.35.07c.92,1,1.22,2.53,1.68,3.74-1.48.13-2.86,1-4.08-.15C349.76,379.87,350.23,378.73,350.24,377.22Z" transform="translate(-68.45 -22.26)"/><path class="cls-1" d="M351.77,378.64c1.5-.95,2.69,1.4.78,1.71Q351,379.93,351.77,378.64Z" transform="translate(-68.45 -22.26)"/><path class="cls-1" d="M296.06,379.56c9.11.86,15.38,8.72,16.43,17.44a86.78,86.78,0,0,1-6.27,16.07c-2.31-3.92-3.91-7.77-7.68-10.6-7.18-5.34-16.74-7.44-25.23-4,3.22-5.41,6.56-10.83,10.19-16C286.3,379.43,292.23,379.29,296.06,379.56Z" transform="translate(-68.45 -22.26)"/><path class="cls-1" d="M675.07,388.49c4.65.43,7.79,3.34,11.09,6.31-9.89-.45-19.37.92-27.59,6.78-4.07,2.92-6.41,6.88-9,11a33.74,33.74,0,0,1-2.14-5.61c.8-6.49,5.58-12.42,11.42-15.21A31.83,31.83,0,0,1,675.07,388.49Z" transform="translate(-68.45 -22.26)"/><path class="cls-1" d="M632.17,393.58c1.93.09,3.85.22,5.79.17,2.7,6.1,5.3,12.25,8,18.37,2.11,3.72-1.73,6.45-.57,10.47,3.9,14.72,7.9,29.5,11.83,44.21.71,3.12,2.91,5,5.72,6.3,4,2,8.44,1.41,12.44,3.43-7.44,9.94-14.81,17.43-19.41,28.37A130.41,130.41,0,0,0,647.89,531c-.9,4.15.34,8.14.92,12.37Q661.2,623,673.57,702.64c.56,3.12.69,6.83,2.24,9.61,2.33,4.29,4.61,8.36,8.15,11.79,4.93,4.83,11.27,8.42,17.3,11.7,5.81,3.16,12.1,4.74,18.58,5.81-1.61,4-3.34,7.89-5.13,11.78a34.55,34.55,0,0,0-7.11-6.92c-7.24-4.9-15.2-9.92-23.6-12.48-1.69-.65-3.31-.9-4.38-2.51-3.25-4.44-6.61-8.66-10.25-12.8-1.8-2-3.44-4.94-5.94-6-1.41-.84-2.92-.85-3.55-2.56-2-4.52-4-8.55-8.88-10.53a52.1,52.1,0,0,0-6.17,1.09c-5.76-13-11.86-25.88-17.21-39,4.86-.51,10.2.21,14.91-1,3.29-2.22,5.31-6.63,6.85-10.17,4.59-11.28,3.94-22.62,2.53-34.46-1.18-7.86-3.4-17-8.79-23-1.94-2.15-3.9-4.28-7-4.13-6.3,0-12.59.43-18.88.45,1.69-4.68,3.32-9,2.57-14.12-1.24-8.3-3.62-16.18-9.25-22.6-4.55-5.4-10.5-8.09-17-10.45,5.39-4.49,12.89-8,16.55-14a287.68,287.68,0,0,0,19.06-30.94c5.59-10.64,11.09-21,14.47-32.64,1-3.73,3.32-6.69,4.63-10.25,1.26-3.24-.47-6.82-1.63-9.85-4.38-10-8.67-20-13.08-29.92-.74-1.81-1.58-3.42-1.36-5.44A112.2,112.2,0,0,0,632.17,393.58Z" transform="translate(-68.45 -22.26)"/><path class="cls-1" d="M687.9,397.15c2.35.38,3.79,3,5.26,4.7,7.56,9.91,15.75,19.42,23,29.56-5.67-1.74-11.14-3.62-17.14-3.85,7,1.77,13.82,2.86,20.2,6.49,0,1.45.1,2.91.14,4.36-3,.18-5.62-.69-8.4-1.54l3.51-1.63a41,41,0,0,0-24.84-3.44,28.13,28.13,0,0,0-14.77,8.05A51.65,51.65,0,0,0,663.93,455c-1.56,3.43-1.69,7-1.86,10.65,3.78,1.53,7.55,2.81,11.43,4l1.23,1.79c-4.15-.15-8.66-.58-12.18-3a4.54,4.54,0,0,1-2-3c-1.49-5.38,1.15-10.64,2.1-15.86-1.74,3.34-2.43,6.86-3.45,10.45-3.66-12-6.81-24.08-10.28-36.1-.92-2.83.07-5.38,1-8.07,2.52-6.1,6.24-11.58,12.11-14.88C669.69,396.79,679.35,394.93,687.9,397.15Z" transform="translate(-68.45 -22.26)"/><path class="cls-1" d="M279.13,398c5-.61,10.37.76,14.89,2.95a20.53,20.53,0,0,1,11.21,15,31.93,31.93,0,0,1-2,5.83c-2.47-4-4.49-7.79-8.28-10.72-7.46-5.77-16.51-7.42-25.76-6.71C272.05,401.46,274.85,398.6,279.13,398Z" transform="translate(-68.45 -22.26)"/><path class="cls-1" d="M556.63,400.91c2.12,5.08,4.18,10.19,6,15.37-3.91-.5-7.8-1.16-11.69-1.83C552.72,409.89,554.57,405.35,556.63,400.91Z" transform="translate(-68.45 -22.26)"/><path class="cls-1" d="M600,400.61c4.71,3.29,8.93,6.78,14.28,9.11,4.92,2,9.39,3.92,14.79,2.82,5.6,12.11,11.12,24.25,16.28,36.56a74.18,74.18,0,0,1-6.65,9.56c-8.86,10.24-20,19.11-30.92,27.08a338.55,338.55,0,0,1-44.9,28.1c-10.23,5-20.56,10.67-31.51,14,1.49-5.39,4.33-11.11,4.47-16.74-.73-6.52-4.34-12.95-7-18.89-4-8.17-7.16-16.74-11.65-24.62,7.86-2.81,14.43-7.57,21.59-11.69,1.07,1.28,2.15,2.56,3.28,3.79a45.4,45.4,0,0,0,7.15-3.48,214.84,214.84,0,0,0,25.71-18.32,15.57,15.57,0,0,0,4.49-5.38c-3.68,2.06-6.56,5.41-10,7.92-8.62,6.65-17.66,13-27.36,18-.53-1.18-1-2.35-1.56-3.53,5.4-3.73,10.92-7.26,16.13-11.27a197.55,197.55,0,0,0,20.88-18.55c.8,1.54,1.61,3.07,2.56,4.53a62.65,62.65,0,0,0-.81-6.26C586.56,416,594,409.17,600,400.61Z" transform="translate(-68.45 -22.26)"/><path class="cls-1" d="M320.51,403.4c-.67,4.16-1.14,8.14.09,12.27.35,1.84,1.53,3.6.5,5.39-5.3,11.6-10.91,24.05-13.46,36.59-1,4.26.27,7.8.81,12,2.28,14.53,6.29,28.69,13.08,41.79,4.91,9.39,10.35,18.75,17.08,27,2.2,2.77,5.65,4.8,8.51,6.84-5.66,5.92-11.66,12.11-15.43,19.42-4.86,8.72-6.62,18.34-6.79,28.23-5.62,0-11.26-.22-16.88,0-1.83,0-2.5,1.46-3.46,2.73-7,11.44-8.22,24.28-8,37.41.23,10.17,2.4,21.66,8.3,30.15,1.68,2.71,4.51,2.55,7.29,3.42-2.14,9.71-4.68,19.31-6.6,29.07-2,.89-4.3,1.53-6,2.87-3.78,4-4.74,9-5.21,14.32-2.88.67-5.83,1.06-8.69,1.82-1.1.25-1.71,1.77-2.28,2.65-1.83,3.51-3.37,7.17-5.11,10.73,1.61-6.39,2.25-12.89,3.22-19.38,7.13-49.34,14-98.72,21.33-148,.82-6.48,2.53-12.18,1.64-18.45-1-10.55-4.57-19.85-7.7-29.88-4.22-9.35-9.95-18.62-17.63-25.53l1-2.94c4.24-.25,7.91.36,11.68-2,2.13-1,2.55-2.76,3.15-4.83Q300,458,305.15,439.09c.92-3.7,2.37-6.81,1.47-10.7-.29-2.22-1.43-4.05-.52-6.13,2.23-6.08,4.67-12.1,7-18.15A14,14,0,0,0,320.51,403.4Z" transform="translate(-68.45 -22.26)"/><path class="cls-1" d="M520.21,403.68c2.28,2.24,3,5,4.27,7.82,3.94,9.72,8.38,19.18,11.89,29.05,1.5,4.33,3.69,8.56,4.62,13.05-2.28-2.75-3-6-4.27-9.29-3.88-10.27-8.07-20.43-12.49-30.48C522.73,410.35,520.94,407.28,520.21,403.68Z" transform="translate(-68.45 -22.26)"/><path class="cls-1" d="M271,405.9a32.93,32.93,0,0,1,20.5,4.55c6.28,3.67,10.45,10.95,12.21,17.83,1,3.51-.53,6.77-1.34,10.19-2.81,9.8-5.08,19.79-8.2,29.49a73.1,73.1,0,0,0-3.05-8.27c.86,5.26,4.22,10.27.82,15.39-.38-2.12-.58-4.27-.92-6.4-.95-5.68-4.65-11.14-8.11-15.63-4.36-5.48-9.34-10.07-16.39-11.63-8.27-1.7-17.65-.57-24.82,4.1,1.64,0,3.28,0,4.93.11a15.34,15.34,0,0,1-8.45,2.26c0-1.45.08-2.91.14-4.36,5.59-3.49,11.7-4.51,17.84-6.46-5.38.3-10,2.25-15.08,3.85,7.34-10.82,15.49-21.1,23.05-31.77C265.7,406.44,268.27,406.41,271,405.9Z" transform="translate(-68.45 -22.26)"/><path class="cls-1" d="M541.77,410.75c2.19,5.05,4.15,10.2,6.11,15.34q-5.91-.78-11.77-1.9C537.89,419.68,539.68,415.14,541.77,410.75Z" transform="translate(-68.45 -22.26)"/><path class="cls-1" d="M345.84,413.12a146.18,146.18,0,0,0,29,30.06c15.74,12.42,32,23.19,51.28,29.23-3.31,9.56-7,19-10,28.69a52.47,52.47,0,0,0-.82,26.25A368.24,368.24,0,0,1,369,508a207.86,207.86,0,0,1-29.66-17.35,203,203,0,0,1-31-28.47c2.06-14.68,8.41-27.45,14-41,2.79.54,5.24,1.3,8,.25C336.24,419.83,341,416.53,345.84,413.12Z" transform="translate(-68.45 -22.26)"/><path class="cls-1" d="M736.66,420.91c2.5,9.7,5.35,19.35,7.66,29.09-1.29,1.8-5.3,1.79-7.38,2.34-1.1-4.47-3.05-8.63-4.2-13.08-1.46-5.43-3.07-10.77-4.32-16.25A59.58,59.58,0,0,1,736.66,420.91Z" transform="translate(-68.45 -22.26)"/><path class="cls-1" d="M222.91,430.5a38.94,38.94,0,0,1,6.86,2.13c-2.36,9.78-4.87,19.52-7.75,29.17a51.18,51.18,0,0,1-7.32-1.72C217.1,450.18,219.39,440.07,222.91,430.5Z" transform="translate(-68.45 -22.26)"/><path class="cls-1" d="M725.91,435.21c1-.08,2-.14,3-.17a92.35,92.35,0,0,1,3.46,10l-3.25.75C728,442.26,726.67,438.79,725.91,435.21Z" transform="translate(-68.45 -22.26)"/><path class="cls-1" d="M692.49,436.27a74.48,74.48,0,0,1,17.08-.13c3.35,7.68,7.22,15.17,10.32,22.95,1,2.16.74,4.12.35,6.37-4.37-.17-8.74-.41-13.11-.58C702.25,455.35,697,446,692.49,436.27Z" transform="translate(-68.45 -22.26)"/><path class="cls-1" d="M690.7,436.85c2.78,4.79,5.11,9.83,7.78,14.69,1,1.95,2.36,4.12,2.6,6.32-2.53,4.08-8.81,4.94-13.18,4.59-3.2-6.81-6.15-13.74-9.16-20.64A31.11,31.11,0,0,1,690.7,436.85Z" transform="translate(-68.45 -22.26)"/><path class="cls-1" d="M461.45,438.62c11.88-1.34,24.67-.86,36.11,2.85,2.36.58,3.56,3.24,4.89,5.08,8.79,14.06,15,30.1,21.79,45.22,2.75,6.6,6.7,14,6.84,21.22-.23,8.52-4.64,16.36-7.93,24.16-10,21.35-18.5,42.52-22.25,66-.37,2.39-.18,4.83-.55,7.21-.88,2.52-3.49,3.45-5.64,4.61-1.15-8.69-2-16.84-7.76-23.88-2.67-2.91-6.13-6.24-10-7.21-2.93-.83-5.5.65-7.05,3.08-3.06,5.41-1.72,11.61,1.81,16.44,2.86,3.9,3.94,8.36,4.63,13.08-7.27-.6-14.11-1.22-20.55-5a121.05,121.05,0,0,0-6.61-26.72c-3.5-11.3-10-20.11-15.23-30.65C428.36,542.79,420.45,531,417,518.87c-1.33-10.83,3.69-22.58,7.17-32.67a393.57,393.57,0,0,1,15.48-38.56,6.15,6.15,0,0,1,2.89-3.06A51.22,51.22,0,0,1,461.45,438.62Z" transform="translate(-68.45 -22.26)"/><path class="cls-1" d="M724.94,438.2c.65,1.77,1.3,3.54,2,5.3-2.07.8-4.17,1.51-6.27,2.24-.8-2-1.66-3.88-2.59-5.78C720.35,439.4,722.65,438.82,724.94,438.2Z" transform="translate(-68.45 -22.26)"/><path class="cls-1" d="M712.71,438.55c2.14,1.22,4.13,2.17,5.23,4.52s.87,4.71.15,7.22A59,59,0,0,1,712.71,438.55Z" transform="translate(-68.45 -22.26)"/><path class="cls-1" d="M677.19,442.58c4.19,8.77,7.92,17.79,11.88,26.67A115.61,115.61,0,0,0,678,474.71c-3.41-6.84-6.9-13.65-10.1-20.6A31.26,31.26,0,0,1,677.19,442.58Z" transform="translate(-68.45 -22.26)"/><path class="cls-1" d="M264,444.42c-4.76,10.3-9.77,20.62-14.87,30.75-4.07-.7-8.18-1-12.29-1.39a16.91,16.91,0,0,1,1.28-6.71c3.3-7.39,6.33-14.92,9.72-22.27A61.16,61.16,0,0,1,264,444.42Z" transform="translate(-68.45 -22.26)"/><path class="cls-1" d="M229.18,444.76c1,0,2,.09,2.95.16-.87,3.22-1.84,6.42-2.83,9.61l-3.12-.53C227.14,450.91,228,447.74,229.18,444.76Z" transform="translate(-68.45 -22.26)"/><path class="cls-1" d="M265.45,445.11c3.87.75,7.52,3.64,10.83,5.68-2.87,7-5.71,14.09-8.71,21.08-5.11.4-9.48-.59-12.76-4.77C258.3,459.75,261.78,452.37,265.45,445.11Z" transform="translate(-68.45 -22.26)"/><path class="cls-1" d="M233,447.83c2.1.38,4.16,1,6.24,1.48q-1.14,3-2.16,6.1c-1.94-.76-3.88-1.5-5.83-2.24C231.77,451.39,232.28,449.55,233,447.83Z" transform="translate(-68.45 -22.26)"/><path class="cls-1" d="M244.31,448.07A58.63,58.63,0,0,1,239,460.46c-.37-3-.71-5.8.82-8.6C240.84,450,242.62,449.18,244.31,448.07Z" transform="translate(-68.45 -22.26)"/><path d="M499.57,449c.83,6.05-.12,11.78-.66,17.79-1,10.72-1.65,21.46-1.8,32.22-.14,15.78-1,31.22-.13,47a184.21,184.21,0,0,1-.14,19.38c-1.57-4.94-2-10.22-2.43-15.37-2.09-27.37-.92-55.06,1.93-82.34C497.13,461.51,497.56,454.88,499.57,449Z" transform="translate(-68.45 -22.26)"/><path class="cls-1" d="M277.41,452.06a59.46,59.46,0,0,1,8.2,11.95c-2.93,7-6.06,14-9.08,21-3.48-1.78-7-3.54-10.55-5.1Q271.62,465.93,277.41,452.06Z" transform="translate(-68.45 -22.26)"/><path d="M442.17,460.07c3,7.53,4.4,15.89,5.69,23.86,3.86,25.75,4.82,51.17,6,77.08a42.44,42.44,0,0,1-.18,4.77c-1.48-3.54-1.37-7-1.6-10.78-1.07-25.18-2.39-50.72-6.19-75.65C445,472.85,443.3,466.52,442.17,460.07Z" transform="translate(-68.45 -22.26)"/><path class="cls-1" d="M702.81,459.44c.51,1.26,1,2.51,1.54,3.77-4.19,2.93-8.9,3.9-13.66,5.43q-1.08-2.17-2.14-4.35C694.59,464,697.88,462.79,702.81,459.44Z" transform="translate(-68.45 -22.26)"/><path class="cls-1" d="M287.16,467.62c.62,2.43,1.09,4.89,1.53,7.36-1.8.68-3.59,1.34-5.41,2A76,76,0,0,1,287.16,467.62Z" transform="translate(-68.45 -22.26)"/><path class="cls-1" d="M713.67,467.8Q737.73,530,761.76,592.25c1.18,3,2.36,6.06,3.36,9.16a94.68,94.68,0,0,0-25.92,7.82c-5.21,2.48-10.9,4.93-14.58,9.54,2.24-1.08,4.32-2.41,6.45-3.68A94.6,94.6,0,0,1,771,602.28a107.3,107.3,0,0,1,52.49,8.24c6.49,2.59,12.13,6.48,18.26,9.77a79.33,79.33,0,0,1,29.39,32.48,59.28,59.28,0,0,1-.07,29.35c-2,8.28-7.36,15.85-13,22.12-1.55-1.5-3.06-2.57-3.47-4.83-2.17-8.32-6.55-15.49-11.88-22.14-5.92-7.41-12.54-13.83-21.4-17.59-5.77-2.3-11.64-5-17.64-6.41a69.72,69.72,0,0,0-44.81,5.6c-7.08,3.66-13.89,7.74-19,14a53,53,0,0,0-15.29,25.66c-2.15,10-3.18,20-1.47,30.24.65,3.19-1.28,6.86-2.17,9.9-12.52-1.59-25.2-7.41-33.87-16.71-3.6-4.19-7.67-9-7.49-14.86-.29-21.42,4.76-44.06,18.31-61.13,5.34-7.1,12.09-12.49,18-19-7.84,5-13.87,11.62-19.89,18.57-9.86-49.48-19.27-99.12-29-148.63-.21-1.65-.81-2.95.27-4.44,4.38-6.7,10.28-13,17.39-16.77C693.49,471,703.73,468.56,713.67,467.8Z" transform="translate(-68.45 -22.26)"/><path class="cls-1" d="M253.81,469c4.37,3.17,7.53,4.56,13,4.71q-1,2.52-2,5a57.21,57.21,0,0,1-12.52-5.87A30.45,30.45,0,0,1,253.81,469Z" transform="translate(-68.45 -22.26)"/><path class="cls-1" d="M250.78,473.84a28.32,28.32,0,0,1,5.58,3.07C254.32,476.19,250.74,476.81,250.78,473.84Z" transform="translate(-68.45 -22.26)"/><path class="cls-1" d="M292.7,475.17c-1.58,4.83-7.17,5.28-11.46,5.64C283.43,477.33,289,476.35,292.7,475.17Z" transform="translate(-68.45 -22.26)"/><path class="cls-1" d="M243.56,477.36c3.95.11,7.93,1.34,11.74,2.31,5.93,1.7,12.13,3.26,17.29,6.73,5.71,3.8,10.39,9.36,14,15.14,1.36,1.76.58,3.38.35,5.36-9.09,49.38-17.84,98.84-27,148.21-5.35-6.85-10.72-13.24-17.94-18.25,3.91,5,8.85,9.33,12.87,14.26,15.26,18.12,20.52,41.72,20.43,64.93.2,5.94-3,10.31-6.5,14.75-8.35,9.84-20.17,15.31-32.88,16.78-.86-5.26.53-10.31.16-15.62-.76-13-1.89-25.39-7.82-37.21-3.27-6.57-8.18-11.26-13.14-16.87-9-8-20.29-13.89-32.24-15.75a57,57,0,0,0-34.16,4.57,48.56,48.56,0,0,0-19.4,12.62c-7.44,8.13-14.34,18.08-17.06,28.88-.62,1.4-.15,2.69-2.1,2.7-5.61-5.39-9.13-13.35-11.55-20.63-3.25-11.35-4.64-23.73,1.12-34.54a82.21,82.21,0,0,1,24.16-25.85c3.13-1.86,6.21-3.75,9.27-5.72C159.29,608.72,194,606.5,221,621c4.25,2.06,8,4.89,12.16,7.12-3.59-4.66-8.61-6.94-13.73-9.55a81.89,81.89,0,0,0-24.22-7.68c.86-2.1,1.66-4.21,2.43-6.33q21.3-59.16,42.62-118.32C241.34,483.28,242.26,480.23,243.56,477.36Z" transform="translate(-68.45 -22.26)"/><path class="cls-1" d="M665.13,496c1.21,4.91,2,9.94,3,14.9q12.72,65.22,25.41,130.46c.35,2.9,1.93,5.44-.1,8a84,84,0,0,0-8.88,17.21c-4.08,10.4-5.23,21.08-6.66,32-1.51-5.13-2-10.58-3-15.84-7.84-48.87-15.51-97.91-23.34-146.78-.32-2.73.51-5.68,1-8.36a108.88,108.88,0,0,1,10.9-29C664.06,497.74,664.59,496.89,665.13,496Z" transform="translate(-68.45 -22.26)"/><path class="cls-1" d="M288.81,505.61c5.47,9.24,9,19.94,11.34,30.38.7,3.51,1.78,7.48,1.15,11-7.6,50.57-15,101.19-22.64,151.77-.59,3.82-1.07,7.73-1.94,11.5-.88-14.27-2.93-28-8.87-41.16-1.78-4.27-4.4-8-6.49-12.15a79.7,79.7,0,0,1,1.47-9.18q12.44-68.55,24.86-137.1C288,509,288.39,507.3,288.81,505.61Z" transform="translate(-68.45 -22.26)"/><path d="M664.75,515.9c2.75,1.42,2,3.84,2.08,6.39-1.77.41-4.37,2.18-6.05.93C657.34,520.87,660.84,514.31,664.75,515.9Z" transform="translate(-68.45 -22.26)"/><path class="cls-1" d="M663.09,517.14c3-.34,2.4,4.9-.13,5.24C659.7,522.67,661,517.91,663.09,517.14Z" transform="translate(-68.45 -22.26)"/><path d="M426.07,519.19c6.79,8.13,13.65,16.56,18.88,25.8-3.62-4-6.76-8.64-9.93-13C432,527.76,428.84,523.59,426.07,519.19Z" transform="translate(-68.45 -22.26)"/><path d="M513.83,523.92a92.93,92.93,0,0,1-8.65,18.25c-1.81,3.05-3.68,6-6.52,8.15,1.55-3.6,3.84-6.43,5.81-9.87C507.66,535,510.31,529.23,513.83,523.92Z" transform="translate(-68.45 -22.26)"/><path d="M289.35,525.22c3.85-1,6.67,5.67,3.25,7.56-1.78,1.15-3.8-.65-5.55-1.23C287.26,529,286.62,526.6,289.35,525.22Z" transform="translate(-68.45 -22.26)"/><path class="cls-1" d="M289.05,527.07c2.63-2,4.77,3.12,2.78,4.75C289,532.12,288.35,529.32,289.05,527.07Z" transform="translate(-68.45 -22.26)"/><path class="cls-1" d="M591.21,543.51c5.91,2.24,12.7,4.83,16.75,9.89-3.91-.6-7.27-1.72-11.24-.71a14.15,14.15,0,0,0-9.42,8.59c-1.34,3.19-1.52,6.4-1.88,9.79a59.46,59.46,0,0,0-7.67-8.79c-2.8-1.95-2.32-6-1.44-8.83C581.1,549.93,586.38,547,591.21,543.51Z" transform="translate(-68.45 -22.26)"/><path class="cls-1" d="M348.32,546.24c5.82,2.78,11.34,6.19,17.32,8.72-.94,3.72-1.61,7.47-2.18,11.26-.27,2.82-2.25,4.28-3.87,6.43-1-3.29-1.55-6.7-3.84-9.38-4.32-4.92-10.46-6.88-16.9-6.74C341.88,553.05,344.77,549.21,348.32,546.24Z" transform="translate(-68.45 -22.26)"/><path class="cls-1" d="M611.69,558.31c3.93,5,4.77,12.62,5.33,18.72-2.32-2.17-4.37-4.52-7.43-5.66A14.72,14.72,0,0,0,595,574c-2.6,2.41-3.63,5.63-5,8.79-.94-3.29-2.33-6.5-3.05-9.85,0-5.56.77-12,5-16C597.16,551.76,606.9,553.35,611.69,558.31Z" transform="translate(-68.45 -22.26)"/><path class="cls-1" d="M574.2,554q.19,3,.3,6C571.1,559.14,571.49,555.42,574.2,554Z" transform="translate(-68.45 -22.26)"/><path class="cls-1" d="M368,556.09c5.61,1.85,11.09,4.13,16.68,6,0,1.87,0,3.73,0,5.59-3.09-1.64-6-3.47-9.69-2.92s-5.68,3.19-8.18,5.62C366.78,565.53,366.82,560.86,368,556.09Z" transform="translate(-68.45 -22.26)"/><path class="cls-1" d="M570.86,556.1c-.92,11.88-4.31,25.11-11.94,34.53-1.09-4.67-3-9.45-3.49-14.19,3.81-5.33,6.65-10.46,8-17C565.93,558.35,568.39,557.2,570.86,556.1Z" transform="translate(-68.45 -22.26)"/><path class="cls-1" d="M351.52,561.47c4.49,2.84,6.48,8,6.18,13.17-1.66,3.47-3.58,6.76-4.9,10.4-1.93-2.47-3.62-4.83-6.4-6.44a16.89,16.89,0,0,0-10.92-2c-2.84.5-5.34,2.29-7.83,3.68,1.49-7.46,4.54-15.35,9.57-21.13C341.37,556.71,347.83,558.88,351.52,561.47Z" transform="translate(-68.45 -22.26)"/><path class="cls-1" d="M562,560.2a44.68,44.68,0,0,1-7.29,14.6c-1.49-3.31-2.94-6.63-4.6-9.86C554.09,563.34,558,561.71,562,560.2Z" transform="translate(-68.45 -22.26)"/><path class="cls-1" d="M572.16,560a36.64,36.64,0,0,1,14.3,16.77c1.95,4.24,2.11,8.59,1.45,13.15-4.39.51-9-.09-13.31.73-4.55,3.68-6.53,11-8,16.41q-2.73.35-5.48.63c-.33-3.86-.71-7.7-1.37-11.51-.13-1.77-.89-3.34.48-4.81C567.56,582,570.24,571.36,572.16,560Z" transform="translate(-68.45 -22.26)"/><path class="cls-1" d="M385.63,562.39l2.85.89c2,12.57,7.38,25.35,16.31,34.56-.23,4.41-.32,8.83-.71,13.22-4.38-4-7.33-8.8-10.27-13.87-1.48-2.54-2.66-5.62-4.8-7.62,1.4,6.58,6.2,12.59,9.82,18.17-2.18-.06-4.36-.09-6.54-.11-1.34-4.56-2.25-9.2-3.32-13.82a18.22,18.22,0,0,0-1.58-1.33,114.66,114.66,0,0,0,2.81,13.22c-3.48-1.18-6.58-2.44-10.17-.69-2.95,1.58-4.65,5.58-6.52,8.27-.89-5.23-1.59-10.29-3.53-15.27-.67-1.91-1.76-3.88-2-5.91,2.05-5.55,8.6-9.51,14.27-6.37,3.14,1.26,4.21,3.49,5.72,6.31,2.15-4.51-.34-7.57-1.06-12A125.52,125.52,0,0,1,385.63,562.39Z" transform="translate(-68.45 -22.26)"/><path class="cls-1" d="M390,563.93c7.34,1.8,14.55,4.09,21.93,5.79a86.7,86.7,0,0,0-7.13,25.92C396.86,587.07,392.08,575.31,390,563.93Z" transform="translate(-68.45 -22.26)"/><path class="cls-1" d="M384.51,570.42c.72,5.17.87,10.42,1.56,15.6-3.31-1.56-6-3.45-9.9-2.73s-6.06,3.29-8.74,5.69c-.21-4.88-1-10-.46-14.81a17.94,17.94,0,0,1,4.79-6.43C375.68,564.72,382,566.47,384.51,570.42Z" transform="translate(-68.45 -22.26)"/><path class="cls-1" d="M548.06,565.75c.61,1.32,1.22,2.64,1.84,4-3,.26-6.84.08-9.42,1.8s-3.76,4.82-5.11,7.51c-.92-2.8-2-5.52-3.16-8.22C537.54,569.24,542.79,567.48,548.06,565.75Z" transform="translate(-68.45 -22.26)"/><path class="cls-1" d="M362.81,570.88c-.23,7.49-.28,14.89,1,22.3-3.65,0-7.29,0-10.93-.11C353.79,584.29,357,577.46,362.81,570.88Z" transform="translate(-68.45 -22.26)"/><path class="cls-1" d="M414.55,570.37c3.29,10.28,5.35,20.93,8.93,31.15,4.56,13.1,9.38,26.07,19.88,35.66a75.94,75.94,0,0,1-3.9,11.28c-1.44,3.34-3.28,6.32-4.24,9.87a16.14,16.14,0,0,0,3.45-4.63c4.33-8.82,7.59-18,7.62-28,10-.27,19.93-1,29.91-1.05a27.45,27.45,0,0,1-3.49,8.83c-3.39.24-7.54.08-10.63,1.57-2.36,2.39-3.89,5.82-5.21,8.87,4.71,7.94,10.27,15.8,14.08,24.14a11,11,0,0,0,2.16,3.19c3.05.55,6.47-.18,9.52-.57,2.6-8.92,8.36-16.64,12-24.81-.42-2.7-2-4.55-1.13-7.36,1.13-4.37,1.17-8.78,1.65-13.23l2.67.18A99.82,99.82,0,0,0,514.06,655a18.54,18.54,0,0,0,3.72,3.52c-1.43-3.57-3.91-6.11-6.08-9.2a119.58,119.58,0,0,1-7.05-11.42,96.94,96.94,0,0,0,13.71-28.63c3.82-10.53,6.23-21.39,8.66-32.3,2.11,7.11,2.78,14.72,3.72,22.06,1.89,17.67,1.85,36.76-4,53.73-1.57,5-5.51,9.11-8.65,13.34-5.9,7.35-9.5,16.88-13.53,25.46-5.71,12.09-8,25.38-10.4,38.43-1.52,5.57-1.68,11.22-2.36,16.91-8.67,3-18.58,2.52-27.48,1-1.77-8-3.48-16-6.49-23.71-5.23-14.2-12.91-26.56-20.38-39.61a100,100,0,0,0-17.12-21.9c-3.62-3.29-5.86-8.15-7.14-12.8a278.84,278.84,0,0,1-5-30.4c-1.39-8.33-.86-17.16-.09-25.54A78.2,78.2,0,0,1,414.55,570.37Z" transform="translate(-68.45 -22.26)"/><path class="cls-1" d="M417.41,571.15c8.72,1.88,17.4,4.13,26.07,6.28a85,85,0,0,1,4.09,12.63,69.84,69.84,0,0,1-27-12.66C418.46,576,418.09,573.43,417.41,571.15Z" transform="translate(-68.45 -22.26)"/><path class="cls-1" d="M530.82,571.2a81.14,81.14,0,0,1,5,14.78l-2.91,2.32c-1.29-5.52-2.75-11-4.57-16.35Z" transform="translate(-68.45 -22.26)"/><path class="cls-1" d="M550.35,571.5a134.29,134.29,0,0,1,4.76,17.42c-2.81-.95-5.6-2.6-8.6-1.41-3.65,1.32-5.11,5-7,8.08-.89-4.52-2.33-9-2.91-13.57.53-3.22,1.6-7,4.38-9.07S547.11,571.31,550.35,571.5Z" transform="translate(-68.45 -22.26)"/><path class="cls-1" d="M616.55,580.36c.15,3-1.19,6.13-2.11,8.9-8.18.23-16.36.51-24.54.59,1.79-5.41,2.19-12.2,7.27-15.7A13,13,0,0,1,616.55,580.36Z" transform="translate(-68.45 -22.26)"/><path class="cls-1" d="M524.38,573.22a55.88,55.88,0,0,1-15.9,11.58c.49-2.46,1-4.9,1.71-7.33A79.63,79.63,0,0,1,524.38,573.22Z" transform="translate(-68.45 -22.26)"/><path class="cls-1" d="M523.5,576.52c-.55,3.59-.82,7.45-2.07,10.89-4.26,5.21-10.64,9-16.53,12.13.69-4,1.19-9,3.21-12.49,4.4-2.88,9-5.31,13.06-8.75C521.94,577.7,522.72,577.11,523.5,576.52Z" transform="translate(-68.45 -22.26)"/><path class="cls-1" d="M351.85,587.24a33.4,33.4,0,0,1-.24,5.65c-8.33.36-16.72.18-25.06,0-.1-4.54-.29-8.67,3.37-12C336.89,574.7,349,578.6,351.85,587.24Z" transform="translate(-68.45 -22.26)"/><path class="cls-1" d="M419.82,578.69c3.4,2.1,6.48,4.58,10.06,6.41,5.76,3.13,11.89,4.95,18.16,6.77.72,4.11,1.47,8.21,2,12.35a100.06,100.06,0,0,1-20.26-9c-2.33-1.5-5.07-3.08-6.72-5.34C421.48,586.38,420.68,582.43,419.82,578.69Z" transform="translate(-68.45 -22.26)"/><path class="cls-1" d="M474.11,586.57c2.88-.59,4.63,1.12,6.92,2.48-1.94,1.41-4,2.52-5.32,4.55-1.52,2.29-2.43,5.13-3.54,7.64-1-2-2.45-3.59-1.93-6C470.83,592.42,471.38,588.15,474.11,586.57Z" transform="translate(-68.45 -22.26)"/><path class="cls-1" d="M536.19,587.76c1.18,4.43,1.86,8.87,2.68,13.37l-3.49,2.77c-.74-4.74-1.64-9.49-2-14.28C534.29,589,535.23,588.36,536.19,587.76Z" transform="translate(-68.45 -22.26)"/><path class="cls-1" d="M555.36,591.68c1.53,6.27,1.79,13,2.13,19.4-3.1-1.75-5.77-3.51-9.49-3.44-2.72,0-4.49,1.49-6.61,2.91-.21-3.82-1-7.59-1.21-11.41a18.76,18.76,0,0,1,4.85-9.08C548.31,587.19,552.71,588.9,555.36,591.68Z" transform="translate(-68.45 -22.26)"/><path class="cls-1" d="M481.86,589.85a36.77,36.77,0,0,1,6.83,10.59,52.38,52.38,0,0,0-6.26,2.25c-2.19,1.14-3.69,3.75-5.09,5.71-1.19-2.55-2.72-4.91-3.9-7.45C473.72,596.39,477,590.79,481.86,589.85Z" transform="translate(-68.45 -22.26)"/><path class="cls-1" d="M520.77,591c-.77,3.48-1.37,7.45-3.19,10.57-3.76,5.47-9.06,8.91-15,11.57a79.37,79.37,0,0,0,2-11.47A113.07,113.07,0,0,0,517.89,593C518.84,592.29,519.8,591.61,520.77,591Z" transform="translate(-68.45 -22.26)"/><path class="cls-1" d="M576.45,592.61c19.51-.47,39.1-.74,58.62-1a18.64,18.64,0,0,1,2.8.18,25.16,25.16,0,0,1,8,11.32c3.19,8.51,4,17.9,4.32,26.93a45.08,45.08,0,0,1-8.4,27.84q-32.06,1.47-64.16,2.44c1.85-6,3.89-12,5.41-18.14,2.24-9.42.13-20.39-1.12-29.93A69.57,69.57,0,0,0,576.45,592.61Z" transform="translate(-68.45 -22.26)"/><path class="cls-1" d="M423.81,593c8.2,6,17.4,9.68,26.85,13.23.55,2.28.71,5.07,2,7.07,3.87,3.23,9.84,4.12,14.45,6.15-11.21-.09-24-1.83-33.62-7.91-1.9-1.3-4.31-2.51-5.1-4.81A137.19,137.19,0,0,1,423.81,593Z" transform="translate(-68.45 -22.26)"/><path class="cls-1" d="M307.93,595.63c15.68,0,31.38.29,47.07.26,3.26,0,6.52.06,9.77.3.54,2.45,1.1,4.76.56,7.28A217.19,217.19,0,0,0,362.64,628c-.54,12.41-.95,24.25,3.38,36.12-18-.16-36-.46-53.93-.7-2.88.35-4.95-3.23-6.12-5.37-3-6.56-5.63-13.77-6.18-21-.55-6.74.08-13.68.59-20.41.25-3.77,1.59-7,2.69-10.54A35.08,35.08,0,0,1,307.93,595.63Z" transform="translate(-68.45 -22.26)"/><path class="cls-1" d="M488.4,601c1.83,4.83,2.48,9.82,3.18,14.9-2.13-.37-4.34-1.1-6.51-1.07-2.13.22-4.3,1.37-6.24,2.23-.39-3.85-2-7.09.42-10.6C481.37,602.85,484.72,602.15,488.4,601Z" transform="translate(-68.45 -22.26)"/><path class="cls-1" d="M539,603c.28,1.63.5,3.26.72,4.9l-4.38.72c0-1,.1-2,.18-3C536.69,604.65,537.86,603.81,539,603Z" transform="translate(-68.45 -22.26)"/><path class="cls-1" d="M391.83,611.2c1.62,5.32,3.37,10.56,5.28,15.77-4.05-1.69-7.73-3-11.9-.66-4.73,2.56-5.95,6.88-6.94,11.82-1.36-3.56-3.55-7.41-3.69-11.23-.16-3.25-.56-6.53-.4-9.78.52-3.14,2.38-6.16,4.2-8.72C381.56,603.55,390.94,605.39,391.83,611.2Z" transform="translate(-68.45 -22.26)"/><path class="cls-1" d="M516.4,605.8A79.57,79.57,0,0,1,510,620c-1.89,3.52-5.79,5.4-9,7.5-1.89-3-2.57-3.46-6.13-4a24.08,24.08,0,0,1,.3-5.1,52.28,52.28,0,0,1,10.22-5.13C509.65,611.58,512.82,608.63,516.4,605.8Z" transform="translate(-68.45 -22.26)"/><path class="cls-1" d="M547.29,609.17c3.75-.41,9.21,1.78,10.07,5.83.33,5.21-.39,10.56-.94,15.74-2.68-2-5-4.39-8.51-4.54-2.79-.2-4.8,1.54-7.08,2.86.43-4.38.69-8.73.84-13.12C541.78,612.74,543.76,609.31,547.29,609.17Z" transform="translate(-68.45 -22.26)"/><path class="cls-1" d="M393.19,610.26a45.05,45.05,0,0,1,8.53.69c2,1.47,2.6,2.48,2.57,5,.12,9.55,1.67,18.84,3.57,28.17a17.39,17.39,0,0,1-3.22-.78c-1.78-4-3-8.29-4.58-12.41C397.72,624.08,395,617.27,393.19,610.26Z" transform="translate(-68.45 -22.26)"/><path class="cls-1" d="M540,610.45c.77,10.41-.94,21.27-2.92,31.49l-3.42.19A192,192,0,0,0,535.81,621c.09-3.24,0-6.35.33-9.57C537.41,611.08,538.7,610.75,540,610.45Z" transform="translate(-68.45 -22.26)"/><path class="cls-1" d="M566,609.94c-.92,10.81-1.49,21.46.72,32.17-3.43,0-6.87-.12-10.3-.24,1-6,2.89-11.74,3.48-17.86.56-4.45.46-8.92.8-13.39C562.44,610.34,564.19,610.15,566,609.94Z" transform="translate(-68.45 -22.26)"/><path class="cls-1" d="M430.45,611.59c10.68,6.76,23,9.22,35.55,9.26,4,0,7.6-.6,11.43,1.11a11.35,11.35,0,0,1-4.47,1.21c-8.8.39-17.63.54-26.41,1.22-.71,1.55-1.38,3.1-2.05,4.67-2.65-1.16-6.3-2.08-7.74-4.79A81,81,0,0,1,430.45,611.59Z" transform="translate(-68.45 -22.26)"/><path class="cls-1" d="M486,615.21a24.91,24.91,0,0,1,5.63,1.49c.13,4.16.33,8.31.34,12.47-4.94-1.33-9.52-2.16-14.62-1,.78-3.58,1.34-7.2,2.1-10.78C481.39,616.29,483.65,615.11,486,615.21Z" transform="translate(-68.45 -22.26)"/><path class="cls-1" d="M399.13,632.79c1.77,4.65,3.4,9.37,5.12,14-3.5-1.94-6.72-4.44-10.9-2.58-5.53,2.9-6.56,8.76-7.76,14.31-2-5.89-4.46-11.72-6.23-17.69.81-5,1.44-10.39,6.34-13.15C390.73,624.69,397.13,627.54,399.13,632.79Z" transform="translate(-68.45 -22.26)"/><path class="cls-1" d="M505.72,626.65a56.35,56.35,0,0,1-3.74,5.44c-.4-1-.79-2-1.19-3L503,628C503.88,627.54,504.8,627.09,505.72,626.65Z" transform="translate(-68.45 -22.26)"/><path class="cls-1" d="M491.92,629.77a71.84,71.84,0,0,1-1.7,12.8,54.38,54.38,0,0,1-8.09-2.58c-2.53-1.17-4.71-3.25-6.9-5,.68-2.11,1.18-4.69,2.59-6.44C482.69,627.43,487.23,628.37,491.92,629.77Z" transform="translate(-68.45 -22.26)"/><path class="cls-1" d="M555.64,637c-.73,4.56-1.56,9.08-1.95,13.69-2.28-2.42-4.13-4.74-7.71-5.09-3.23-.41-5.8,1.58-8.53,3,.89-4.57,1.53-9.18,2.42-13.75.37-2.56,2.73-4.81,4.66-6.38C549.56,625.52,557.15,631.41,555.64,637Z" transform="translate(-68.45 -22.26)"/><path class="cls-1" d="M439.75,629.05c1.71.38,3.41.83,5.12,1.25-.28,1.17-.56,2.34-.85,3.51C442.54,632.28,441.09,630.72,439.75,629.05Z" transform="translate(-68.45 -22.26)"/><path class="cls-1" d="M374.7,633a86.43,86.43,0,0,1,3.58,10.45l-4.22.17C374.26,640.05,374.5,636.51,374.7,633Z" transform="translate(-68.45 -22.26)"/><path class="cls-1" d="M472.34,634.79c-1.3,2.46-3.09,4.69-4.22,7.23-1.72,4.89-.82,11.16,3,14.87,3,2.92,7.58,3.94,11.14,1.4,5-3.76,6.41-11.6,10.71-15.66.13,1.06.23,2.12.28,3.18-4.1,7.84-8.86,15.13-11.93,23.59q-4,.5-8,.9c-3.61-9.49-9.65-18.15-15.23-26.58,1.56-2.52,2.87-5.62,5-7.65C466,635,469.34,635,472.34,634.79Z" transform="translate(-68.45 -22.26)"/><path class="cls-1" d="M474.18,634.36c2.16,1.94,4.17,4.1,6.72,5.53,2.76,1.56,6.21,2.26,9.25,3.14-2.42,5.49-6.59,9.53-9.72,14.62-2.73,1.59-6.85,0-8.77-2.33-3.87-4.47-3.85-11.87-.39-16.59,1.88,6.24,3.89,11.76,9.63,15.46-4.43-4.41-8.09-8.55-8.44-15.13A41.27,41.27,0,0,1,474.18,634.36Z" transform="translate(-68.45 -22.26)"/><path d="M685.34,644.11c2.07-1,5.12-.9,5.9,1.7,1.38,3.29-1.55,7.22-5.12,6.55C682.67,651.18,682,645.81,685.34,644.11Z" transform="translate(-68.45 -22.26)"/><path class="cls-1" d="M399.93,646c2.63,1.43,5.51,3.54,6.5,6.5A202.53,202.53,0,0,1,413.38,674c-3.76-2.56-6.94-5.22-11.83-4.25s-7,5-10.18,8.35c-1.13-4.61-2.39-9.18-3.91-13.68-.41-1.55-1.12-2.92-.62-4.51,1.21-4.74,1.37-9.33,5.12-12.93A6.54,6.54,0,0,1,399.93,646Z" transform="translate(-68.45 -22.26)"/><path class="cls-1" d="M556,645.11c3.66,0,7.32.06,11,.22a38.79,38.79,0,0,0,7.42,16.26c1.08,1.73,3.55,1.45,5.36,1.91,1.26,7.75,3.3,15.13,5,22.82,1.82,8.26,3.35,16.59,5.16,24.85.36,3.61,4.77,5.27,7.41,7.1a43.5,43.5,0,0,0,1.46,14c1,3.61,3.06,6.5,3.19,10.35l2.64-.39c-6.73,4.29-13.49,8.63-19.84,13.47-4.45-4.69-8.42-9.86-13-14.45-1.9-2-4.36-2.24-6.9-3-5.22-11-7.76-22.23-11.13-33.82-1.8-6.89-2-14.31-1.85-21.39A295.75,295.75,0,0,1,556,645.11Z" transform="translate(-68.45 -22.26)"/><path class="cls-1" d="M689,644.76c.46,1.26,1.31,2.59.85,4-.62,1.77-2.27,1.85-3.77,2.63-.64-1.81-1.9-3.08-1-5.05C685.83,645.18,687.76,645.11,689,644.76Z" transform="translate(-68.45 -22.26)"/><path class="cls-1" d="M373.51,646.54c2-.32,4-.4,6.05-.53,5.15,14.38,10.27,28.58,12.65,43.74,2.2,14,3.35,27.53-1.35,41.2-2.29.89-5.84,1.46-7.1,3.78-2.38,3.87-4.44,7.93-6.84,11.8-8.3-5.47-16.75-10.54-26.11-14a27.48,27.48,0,0,1,4.63-9.93c1.89-18.38,3.19-37.09,4.82-55.52,2.54-.13,5.09-.21,7.63-.29C372.32,660.33,371.56,653.61,373.51,646.54Z" transform="translate(-68.45 -22.26)"/><path class="cls-1" d="M542.51,647.48c5.2-2.05,11.25,3,10.29,8.42-.46,4.19-1.06,8.38-1.55,12.57-3.46-2.4-6.41-4.91-10.94-4.1-3.52.6-5.32,4.1-7.4,6.62a156,156,0,0,1,3.62-17.52A11.55,11.55,0,0,1,542.51,647.48Z" transform="translate(-68.45 -22.26)"/><path d="M266.34,653.19c2.31-.67,5.09.55,5.5,3.08s-.82,5.77-3.78,5.62C263.93,661.5,262.5,654.87,266.34,653.19Z" transform="translate(-68.45 -22.26)"/><path class="cls-1" d="M266.81,654.16c1.08.34,2.16.69,3.23,1.05.76,3.31.52,3.61-2,5.79a28.29,28.29,0,0,1-2.84-3.87C265.72,656.13,266.26,655.14,266.81,654.16Z" transform="translate(-68.45 -22.26)"/><path class="cls-1" d="M807.37,656.7a64.38,64.38,0,0,1,17.48,6.4c7.45,4.11,13.44,10.81,18.53,17.52,4.22,5.72,8.2,12.42,9.68,19.44-7.52-5.24-12.49-12.63-16.35-20.8-4.8-1.13-9.33-3-14-4.49-.32,3.27-1.59,6.56-1.57,9.83a31.43,31.43,0,0,1,3.77,8.62,79.05,79.05,0,0,1,1,34.46c-.58,3.23-2.1,6.21-2.68,9.42.15,7.26,4.42,12.55,6.94,19-6.12-6-11.36-13-16.36-19.91a54.23,54.23,0,0,1-9.18-20.7c-.93-4.07-.82-8.24-1.5-12.31a33.22,33.22,0,0,0-2.65-3.7,76.92,76.92,0,0,1-14.24-29.64A135.72,135.72,0,0,0,770,668.55c-1,2.86-2.29,5.66-3.17,8.56,1.82,11.38,1.4,23.54-2.09,34.58-1.86,5.86-5.61,10.77-8,16.31a62.77,62.77,0,0,0,5.7,23.6c4.41,9.72,11,17.9,18.45,25.42a45.63,45.63,0,0,1-16.91-3.92,117.44,117.44,0,0,1-15.77-9.25c-11.85-8.15-19.49-21.31-22.81-35.11a72.18,72.18,0,0,1,17.4-52c6-6.92,14.28-11.8,22.54-15.47C778.8,655.48,793,655.05,807.37,656.7Z" transform="translate(-68.45 -22.26)"/><path class="cls-1" d="M524.61,662.13c-1.42,6.85-2.92,13.67-3.76,20.63-.44,2.91-.5,5.94-1.21,8.8-2.2,3.06-5.11,5.63-7.54,8.52-5.34,6-9.29,12.82-13.17,19.8,1.51-9.27,5-17.73,8.59-26.36C512.34,682.69,517.66,671.76,524.61,662.13Z" transform="translate(-68.45 -22.26)"/><path class="cls-1" d="M624.23,661.61c6.08,13.12,11.94,26.37,17.34,39.78-10.52,2.72-21.15,5-31.73,7.56q-8.76-23-17.3-46.17C603.1,662.26,613.67,662.05,624.23,661.61Z" transform="translate(-68.45 -22.26)"/><path class="cls-1" d="M582.56,663c2.77-.14,5.55-.21,8.32-.25,5.73,15.51,11.89,30.91,17.27,46.54-4,1-7.48,1-10.15,4.55-1.25-1.07-2.56-2.1-3.73-3.25a18.9,18.9,0,0,1-1.44-4.48C589.5,691.76,585.85,677.44,582.56,663Z" transform="translate(-68.45 -22.26)"/><path class="cls-1" d="M315.15,666.36c10.08,0,20.22.11,30.3.46-1.37,10.76-2.63,21.53-4.07,32.29-10.92-.67-21.83-1.61-32.75-2.47C310.14,686.43,312.7,676.38,315.15,666.36Z" transform="translate(-68.45 -22.26)"/><path class="cls-1" d="M550.84,671.2c0,5.58-.63,11.16-.56,16.75-3.2-1.26-6.12-2.34-9.58-1.24-4.33,1.22-6.23,4.48-8.8,7.81-.37-6.55-.57-13.49.73-19.95,1.66-2.78,3.48-5.91,6-8C542.69,664.06,548.9,667.33,550.84,671.2Z" transform="translate(-68.45 -22.26)"/><path class="cls-1" d="M171,666.91c10.82.64,21.94,3.33,31.47,8.59a79.89,79.89,0,0,1,15.15,12.86c5.46,5.68,9.22,12.63,12,19.95A83.62,83.62,0,0,1,233.2,737c-1,8.93-4.14,18.23-9.93,25.23-4.92,6.3-11.11,10.9-17.68,15.33-7.44,5.47-16.09,9.09-25.44,9.16,3.46-5.74,7.42-11.06,10.69-16.92a174.44,174.44,0,0,0,8.5-17.51c2.28-5.27,4.79-10.42,5.33-16.25-4.68-10.07-8.86-19.77-9.58-31-.52-5.42.33-10.71.41-16.1-.55-3.79-2.79-7.55-4.59-10.9a92.2,92.2,0,0,0-15.29,1.49c-2.37,11.5-8.09,21.62-15.39,30.68-1.69,1.72-.95,4.53-1.11,6.76a39.8,39.8,0,0,1-4.31,18.83c-4.51,9.08-9.79,18.32-16.86,25.66,1.44-5.79,6.17-11.79,3.42-17.74-2.69-7.41-2.86-14.93-2.6-22.72.39-8.16.41-15.69,4-23.22,2.61-4.36-.11-10.44-1.75-14.76-3.75,1.88-7.74,3.5-11.31,5.68a76.17,76.17,0,0,1-15.95,19.61c2.37-9.22,7.8-17.51,13.8-24.77,4.58-5.51,10.67-11.12,17.54-13.49C153.76,668.07,162.08,666.35,171,666.91Z" transform="translate(-68.45 -22.26)"/><path class="cls-1" d="M347.09,666.85c3.42-.26,6.9,0,10.33,0-1.16,15.72-2.82,31.42-3.79,47.16-.95-3.78-1.74-8.42-4.14-11.57-1.67-2.17-4.07-2.79-6.49-3.79C344.32,688.09,345.42,677.39,347.09,666.85Z" transform="translate(-68.45 -22.26)"/><path class="cls-1" d="M771.93,670c4.17.32,8.27,1.36,12.43,1.87a72.59,72.59,0,0,0,14.51,30.29c2.7,2.79,1.31,6.88,2.25,10.7,1.76,8.08,4.44,16.2,8.72,23.32a103.66,103.66,0,0,0,15.74,20.27c5,5,10.72,9.3,15.71,14.28,2,1.74,1.36,3.92,1.52,6.28.16,6.25-2,11.34-3.49,17.34C832.81,818.91,826.55,843.15,815,866a110.43,110.43,0,0,1-11,16.95,51.81,51.81,0,0,1-5.57-2.55c5.68-14.47,5.86-30.73,4.79-46a259.63,259.63,0,0,0-6.93-41.84c-.82-3-1.29-5.92-3.33-8.43-6.2-7.83-13.59-14.47-19.42-22.62-6.88-9.3-13.27-20.8-14.34-32.48-.51-3,1.28-4.74,2.5-7.23,7.74-12.74,8.85-29.33,6.88-43.78-.05-2.11,1.19-4.29,1.83-6.28,2.93,7.61,5.19,16.51,3.9,24.68-.33,2.78-2.08,5.85-1.26,8.55a106.66,106.66,0,0,0,8.57,23.45c8,16.52,21.12,31.12,33.35,44.72,1.65,1.65,1.48,4.76,1.81,6.95a195.42,195.42,0,0,1-11.18,85.57c-1.45,4.07-3.15,7.68-3.76,12,2.18-2.84,3.17-6,4.44-9.29a190.81,190.81,0,0,0,11.77-88.37c-.59-3-.27-7-2.91-9.06-5.26-5.42-10-11.31-14.9-17.1-11.71-14.16-20.84-29.92-25.41-47.81-1.08-3.53.72-6.28,1.14-9.93C777.31,686.55,774.24,678.81,771.93,670Z" transform="translate(-68.45 -22.26)"/><path class="cls-1" d="M403.86,671c5.17.39,10.56,4.91,10.94,10.27.93,5.45,1.93,10.9,2.59,16.39-3.58-2.92-6.29-6-11.36-5.51-5.83.55-8.28,4.71-10.89,9.32A136.26,136.26,0,0,0,392.82,685c-.27-2.11-1.18-4.1.19-6C395.4,675.15,398.79,670.84,403.86,671Z" transform="translate(-68.45 -22.26)"/><path d="M499.7,676.59c-1.74,2.3-3.58,4.53-5.25,6.89-13.49.43-27.05.91-40.53,1.18-2.53-1.53-4.53-4.17-6.72-6.17,5.55-.62,11.21-.59,16.79-.84C475.89,677.37,487.81,676.47,499.7,676.59Z" transform="translate(-68.45 -22.26)"/><path class="cls-1" d="M824.18,677.05a46.16,46.16,0,0,1,10.1,3.58c4,8.57,9.35,16.34,16.65,22.44,1.48,1.4,3.71,2.65,4.23,4.69a84.51,84.51,0,0,0,15.77,27.3c7.58,9,16.8,14.89,26.5,21.22.74,13.61,1.31,27.07-.66,40.62a196,196,0,0,1-31.59,81.28,20.33,20.33,0,0,1-2.69,3.36c-2.19.94-4.84,1.08-7.19,1.39,3.5-6.16,7.87-11.58,10.55-18.06,5-11.46,9.42-22.89,11.81-35.23,4-20.17,1.87-40.13-2.24-60.07-.36-2.6-2.33-3.29-4-4.93-12.65-10.56-22.16-23.84-29.56-38.48-3.7-7.55-6.55-15.55-7.36-24-.83-8.18-3.58-17.31-9.3-23.44,1.6,4,3.89,7.68,5.28,11.84,2,5.69,2.28,11.36,3.5,17.49a70.33,70.33,0,0,0,6.39,18.59c7.87,15.71,18.37,29.9,32.18,40.89,1.8,1.11,1.64,3,2.09,4.8,2.1,12.6,4,25.88,3.59,38.66-.53,17.85-5.55,35.07-13,51.18,3.75-16.52,5.19-33.13,1.71-49.86-1.77-8.27-3.26-17-6.39-24.83-4.69-3.8-10.23-6-14.19-11-1-2-.65-4.95-2-6.76-3-3.58-7.26-6.17-10.15-9.86-2.54-4.24-4.46-8.89-6.76-13.27-1.57-3.62-3.71-8.28-1.84-12.13,3.11-8.49,3.63-17.46,3.23-26.43-.51-7.93-1.62-15.54-5.27-22.69C821.9,683,823.55,679.61,824.18,677.05Z" transform="translate(-68.45 -22.26)"/><path class="cls-1" d="M424.53,677.61a28.33,28.33,0,0,1,5.16,4.68,151.57,151.57,0,0,1,12.12,17.9c5.52,8.27,9.1,17.83,13.07,26.92-5.25-8.3-11-16.05-18.47-22.5-2.69-2.68-6.22-4.13-7-8C427.63,690.3,425.74,684,424.53,677.61Z" transform="translate(-68.45 -22.26)"/><path class="cls-1" d="M189.27,679.36c-2.38,8.84-5.14,17.15-3.82,26.48.43,3.48,2,6.16,1,9.66a121.49,121.49,0,0,1-18.85,41.09c-6.15,8.72-12.89,17.08-19.88,25.14-1.48,3.11-1.35,7.35-1.88,10.76A205.37,205.37,0,0,0,159.06,883a35.14,35.14,0,0,0,2.59,5,81,81,0,0,0-3.59-12.09,208.36,208.36,0,0,1-10.47-89c0-4.18,3-6,5.34-9,8.52-10.41,16.92-20.77,23.4-32.6a122.72,122.72,0,0,0,11.11-27.85c.54-2.5,1.38-4.7.51-7.23-3-9.5-.54-19.6,2.43-28.78.77,1.95,2.13,4.3,1.87,6.44-1.83,14.63-.68,31,6.8,44,1,2.24,3,4.52,2.23,7.05-1,5.51-4.09,10.84-6.31,16-3.88,8.78-8,17.36-14.11,24.91-3.78,4.46-7.84,9-11.32,13.69-2,2.61-2.41,5.6-3,8.75-1.1,6.65-2.57,13.21-3.33,19.93-1,9-2.62,17.89-2.69,26.76.1,13.89-.53,27.06,3.5,40.55l-3.27,1.68c-8.92-12.75-14.78-28.05-20.33-42.52-7.11-18.51-10.56-37.57-15.61-56.62-1-3.54-2.91-9.58-.44-12.78,9.49-8.77,18.5-17.53,25.38-28.6,5.21-8.43,10.65-18,12.17-27.86.58-3.11.34-6.23.66-9.35,6.57-9.48,13.2-20.61,15.1-32.13C181.53,680.72,185.37,679.88,189.27,679.36Z" transform="translate(-68.45 -22.26)"/><path class="cls-1" d="M140,686.79c.43,2.33,1.21,4.74,1.18,7.12-1.61,4.74-3.79,9.08-4.24,14.19-1,9.79-1.72,20.12,0,29.86.54,3.43,2.12,6.61,2.61,10-1.11,5.45-3.78,10.63-5.64,15.88-2,6-7.27,9.15-11.57,13.47-2.25,2.1-1.2,6.52-3.32,8.6a59.21,59.21,0,0,1-11,9c-1.42.77-1.86,2.09-2.49,3.48-3.67,9-5.41,18.41-6.91,28-1.22,8.2-2,16.22-1.22,24.52.36,4.11,1.33,8.1,1.64,12.22a127.31,127.31,0,0,1-8.28-33.78c-1.75-16.79.38-33,3.11-49.61.21-2,1.71-2.69,3-4a109.2,109.2,0,0,0,20.82-25.16c6-9.92,11.6-20.93,13.64-32.45,1.25-6.5,1.44-12.41,3.49-18.44,1.22-3.82,3.24-7.26,4.41-11.08-3.26,3.91-5.31,9-6.68,13.83-1.53,5.36-1.44,10.82-2.67,16.2a84.9,84.9,0,0,1-6.87,19.24c-7.21,14.56-16.32,27.78-28.89,38.23-1.16.85-1.31,2.9-1.66,4.2-3,16.85-5,33.47-3,50.59,1.77,16,6.89,30.77,13.13,45.55,2.19,5.22,5.59,9.71,7.93,14.86-2.26-.29-5.81.73-7-1.8a178,178,0,0,1-18.1-34.9c-6.86-18-12-37.34-13.43-56.63a171.26,171.26,0,0,1,.56-29.61c15.27-12.31,29.37-26.42,37.31-44.67,1.71-3.51,1.51-8,4.7-10.25,6.71-5.73,11.16-12.86,15.68-20.32C131.71,689.44,136.61,688.61,140,686.79Z" transform="translate(-68.45 -22.26)"/><path class="cls-1" d="M543,687.76c3-.4,7.1,1.09,7.38,4.5.52,4.94.89,9.83,2.26,14.64-3.71-.84-7.32-2-10.95-.15-4.14,2.17-5.43,6.44-7.3,10.38-.63-5.39-1.69-10.77-2-16.19C532.48,694.94,536.61,688.3,543,687.76Z" transform="translate(-68.45 -22.26)"/><path d="M496.59,689.1c-1.47,2.32-2.78,5-4.7,7-8.26.56-16.58.55-24.85,1-2.88,0-5.9.44-8.75,0-1.85-1.91-3.46-4-5.15-6.08C467.59,690.19,482.12,689.53,496.59,689.1Z" transform="translate(-68.45 -22.26)"/><path class="cls-1" d="M405.08,693.81c6.39-1.45,12,5,13.26,10.64a216,216,0,0,1,1.77,24.11c-2.95-4.91-5.46-9.59-11.39-11.3-5.37-1.41-9.49,1.65-13.74,4.37.52-5.21.54-10.4.66-15.63C397.18,700.8,399.11,695.15,405.08,693.81Z" transform="translate(-68.45 -22.26)"/><path class="cls-1" d="M306.61,699.21c12.26,1.17,24.56,1.9,36.83,3-2.06,4.15-4.1,8.07-4.82,12.73-.67,3.69-.21,7.21.19,10.89-2.86-5-4.95-9.66-10.57-12.1-10-3.81-20.54-2.65-31-1.69.6-3.88,1.26-7.84,3.79-11C302.48,699.39,304.52,699,306.61,699.21Z" transform="translate(-68.45 -22.26)"/><path d="M492.85,699.83c-1.11,2.32-2.26,4.61-3.31,6.95-8.85.61-17.73.82-26.59,1.3-1.37-2.13-2.8-4.23-4.2-6.35C470.08,700.94,481.5,700.22,492.85,699.83Z" transform="translate(-68.45 -22.26)"/><path class="cls-1" d="M651.84,703.21c2.93,1.71,4.1,5.46,5.23,8.45-9.34-.44-18.5.2-27.48,2.93-1.88.77-4.07,1-4.66,3.27a183.44,183.44,0,0,0-5.43,17.6l-4.35,1.64c-.41-4.89-1-9.6-3.17-14.07-1.79-4-4.67-6.78-7.61-9.87,13.88-3.27,27.89-6,41.82-9A34,34,0,0,1,651.84,703.21Z" transform="translate(-68.45 -22.26)"/><path class="cls-1" d="M552.33,708.63c1.78.78,1.94,2.92,2.49,4.55,1,4.17,2.12,8.31,3.44,12.4-4.57-1-8.83-1.1-12.6,2.06-4.08,3.21-4.49,7.41-6.28,11.92a84.11,84.11,0,0,1-3.67-14.24c-.65-3.39.13-7.11,1.29-10.31s3.24-6.44,6.61-7.43A13.15,13.15,0,0,1,552.33,708.63Z" transform="translate(-68.45 -22.26)"/><path d="M490.33,710.55c-.9,2.35-1.85,4.68-2.74,7l-20.89,1.22c-1-2.13-2.11-4.25-3.11-6.4C472.48,711.67,481.41,711,490.33,710.55Z" transform="translate(-68.45 -22.26)"/><path class="cls-1" d="M651,713c3.3.08,7.37,0,10.33,1.67,2.09,1.46,3.67,3.78,5.3,5.72,6.6,8.15,12.82,16.59,18.77,25.22,3.7,5.37,6.9,11,10.6,16.4,2.47,3.57,5,7.09,7.22,10.83-3.58,4.56-7.28,9-10.82,13.63-1.26,1.74-2.65,3.89-1.94,6.13,1,4.07,2.56,8,3.95,12,.7,1.71,1,3.32,2.74,4.28,6.66,3.74,14.73,5.55,21.13,9.74,1.12,3.08,1.81,6.31,2.82,9.43,2,6.8,4.5,12.74,3.67,20-2,22.83-9.07,46.07-15.32,68.23a66.41,66.41,0,0,1-27.64-1.1,15.18,15.18,0,0,1-4.93-2A21.07,21.07,0,0,1,673,907a157.28,157.28,0,0,0-28.11-41.9c-7.49-7-15.16-13.46-23.13-19.85-6.22-5.88-12.92-11.1-20.71-14.76a30.7,30.7,0,0,1-4,2.6c-13.45,6.58-25,17.29-33.64,29.4-3.75,5.17-6.34,10.9-9.47,16.42-.06-9.3,1-18.63,1.39-27.93.85-18.07,3.21-35.9,3.77-54,.12-2.83-.19-5.76.26-8.55,3.45-5.13,7.28-10.07,11.14-14.9,13.4-15.8,30.05-26.13,48.24-35.56a328.39,328.39,0,0,0-6.46,35.08,39.34,39.34,0,0,0-.13,8.19c1.53-4.86,1.78-10.09,2.61-15.26a290.2,290.2,0,0,1,11.56-48.73A71.5,71.5,0,0,1,651,713Z" transform="translate(-68.45 -22.26)"/><path class="cls-1" d="M306,714.53c7.53-.11,15.47,0,22.53,2.92,2.51.94,3.41,3.16,4.73,5.29a209.26,209.26,0,0,1,15.63,37.5,237.66,237.66,0,0,1,7.2,27.79,6.49,6.49,0,0,0,1.68,3.29c0-3.9-1-7.51-1.72-11.31-1.44-9.16-2.21-19-5.3-27.74-2.5-6-4.79-12.06-7.21-18.07a109.18,109.18,0,0,1,39,20.21c11.78,9.45,18.54,22.09,24.25,35.76a64.24,64.24,0,0,1,1.07,7.19c2,16.85,4.15,33.68,6.07,50.54.49,4.86,1.14,9.75,1.2,14.64-3.29-5.59-6.29-11.12-11.06-15.65-9.83-9.63-22.62-17.24-36.24-19.82,6.31,3.27,13.06,5.18,19.24,8.81,8.11,4.67,16,10.87,21.45,18.58,3.72,5.42,7,11.95,7.57,18.56.29,4.84-5.78,8.9-8.7,12.26-.38-3.66-.52-7.13-2.31-10.44A64.59,64.59,0,0,0,368,843.08c-8.37-3.26-17.12-4.18-26-4.46,3.78-4.61,7.59-9.45,11.95-13.53-1.24-.18-2.48-.38-3.72-.59a148.71,148.71,0,0,0-15.06,17.62c-8.05,11.11-15.87,22.56-22.33,34.68a317.75,317.75,0,0,0-15.36,32.61c-2.17,5.52-4.14,11.1-6.62,16.51-5.26.53-10.47.52-15.81.71-6.83.15-13.21.89-19.95-.8-2.06-.56-5.18-.86-6.34-2.88-.18-5,.39-9.91.17-14.88-.55-18.44-1.27-36.81-3.43-55.13a106.84,106.84,0,0,0-4.69-26.61c6.29-2.77,12.2-6.25,18.39-9.22,1.21-5.35,3.43-10.6,4.13-16-2.6-5.47-7.34-9.89-10.32-15.26,5.94-8.45,9.13-18,13.74-27.11,6.57-13.77,13.07-27.57,19.7-41.32C292.91,716,299.27,714.43,306,714.53Z" transform="translate(-68.45 -22.26)"/><path class="cls-1" d="M405,718.45c4-.49,7.41,1.81,9.87,4.7,3.06,3.45,4.31,8.49,5.15,12.93.09,3.63-1.47,7.46-2.33,11-2.65-4-5.22-7.76-9.35-10.39-4.88-3.32-10.38-4.43-16.15-5,.8-2.53,1.2-5.6,2.65-7.82A19.18,19.18,0,0,1,405,718.45Z" transform="translate(-68.45 -22.26)"/><path d="M467.35,723.55c6.66-.46,13.37-.54,20-.7,0,2.6-.13,5.19-.3,7.79-6,.12-11.84.47-17.8.24C468.64,728.45,467.81,726,467.35,723.55Z" transform="translate(-68.45 -22.26)"/><path class="cls-1" d="M555.51,726.53c1.74.42,3.32,1.14,4,2.92,1.44,3.27,2.7,6.62,4.13,9.89-2.88.92-6,1.38-8.73,2.58-4,1.86-7.2,5.41-10.16,8.56-1.4-2.86-3.88-6.05-3.42-9.33.23-3.8,1.2-8.08,3.82-11A10.91,10.91,0,0,1,555.51,726.53Z" transform="translate(-68.45 -22.26)"/><path class="cls-1" d="M276.27,731.58c-5.27,12.36-11.62,24.31-17.09,36.6-2.14,5-5.29,9.62-8.07,14.29A120.11,120.11,0,0,1,242.56,765l.22-.78c3.21-4.36,5.72-9.15,8.95-13.48,1.66-2.58,5.27-3.48,7.84-5.15A88.62,88.62,0,0,0,276.27,731.58Z" transform="translate(-68.45 -22.26)"/><path class="cls-1" d="M393.08,733.44c8.48.07,17.17,4.52,21.63,11.86a25.15,25.15,0,0,1,3.43,12.54c-3.59,7.42-7.92,14.58-11.95,21.78-4.07-7.06-8.35-13.88-13.91-19.9-3.9-4.36-8.4-7.87-13-11.49,2.27-3.74,4.28-7.65,6.55-11.39C387.16,734.32,390.51,733.62,393.08,733.44Z" transform="translate(-68.45 -22.26)"/><path d="M486.85,733.18q-.19,3.72-.41,7.44c-5.22.49-10.44.65-15.67.81A61.12,61.12,0,0,1,470,734C475.57,733.56,481.22,733.34,486.85,733.18Z" transform="translate(-68.45 -22.26)"/><path class="cls-1" d="M724.66,735.41a47.17,47.17,0,0,0,6.3,14.47c-6.37,14.6-13.84,28.94-23.17,41.88-1.11,1.65-2.25,3.06-2.1,5.19.11,4.5,1.5,9.11,2.33,13.54-3.09-1.18-6.6-2.26-9.24-4.28-1-.76-1-2.55-1.4-3.69-.73-3.74-2-7.68-1.85-11.5.58-2.1,2.63-3.84,3.91-5.58,9.62-12.16,16.31-26.6,22.17-40.85A86.59,86.59,0,0,0,724.66,735.41Z" transform="translate(-68.45 -22.26)"/><path class="cls-1" d="M683.56,736.65c8.83,3,16.74,8,23.87,14a29.86,29.86,0,0,1,5.35,6.5,88.63,88.63,0,0,1-8.34,14,109.52,109.52,0,0,0-8-13.53C692,750.68,687.7,743.69,683.56,736.65Z" transform="translate(-68.45 -22.26)"/><path class="cls-1" d="M567.89,742c1.54.27,2.45,1.6,3.44,2.68,3.6,4.41,7.57,8.45,11,13-8.12,7.21-16.42,15-22.62,24-4.81-6.27-10-12.44-14.41-19a35.55,35.55,0,0,1,.43-10c1.25-3.21,4.46-5.79,7.13-7.84C557.27,741.51,562.6,741.19,567.89,742Z" transform="translate(-68.45 -22.26)"/><path class="cls-1" d="M234.16,749.69c4.73,15.28,10.93,29.87,20.08,43.07,1.95,2.82,4.34,5.43,6,8.41-.39,4.76-2.4,9.53-3.71,14.13-2.51.9-5,2-7.42,3,.73-4.47,2.24-9.51,1.56-14-1.29-2.84-3.37-5.34-5-8a227.49,227.49,0,0,1-16.22-31.84c-1.1-2.3.25-3.74,1.07-5.82C232,755.71,233,752.67,234.16,749.69Z" transform="translate(-68.45 -22.26)"/><path class="cls-1" d="M248.14,750.77c-2.38,3.36-4.84,6.66-7.15,10.08-1-2.57-1.93-5.18-2.74-7.83C241.57,752.36,244.85,751.54,248.14,750.77Z" transform="translate(-68.45 -22.26)"/><path class="cls-1" d="M731.87,751.36c2.69,3.26,5.12,6.63,8.23,9.54,3.67,3.56,7.84,6.2,12.07,9a110.14,110.14,0,0,0-12.37,13.89c-1.17,1.77-2.71,4-2.79,6.14.51,2.84,2.62,5.51,4.08,8,10.22,17.44,25.7,31.9,36.22,49.39-11.73-7.61-23.64-15.19-36.18-21.43C731,821,720.62,816.32,710.48,811.5c-1.73-2.91-2-7-2.76-10.3-.19-2.15-1.31-5.35.33-7.11A214.09,214.09,0,0,0,731.87,751.36Z" transform="translate(-68.45 -22.26)"/><path d="M413.18,755.14c2.36-.58,3.6,2.59,2.61,4.39a28.36,28.36,0,0,1-2.7,1.62C412.12,758.93,411,757.11,413.18,755.14Z" transform="translate(-68.45 -22.26)"/><path class="cls-1" d="M413.2,757.15c1.69-1.29,2.76,1.63.77,2.07C412.88,758.86,412.62,758.17,413.2,757.15Z" transform="translate(-68.45 -22.26)"/><path d="M547.12,759.49c1.65.18,4.15-.42,5,1.43.91,1.23.52,3.62-1.22,3.72A3.66,3.66,0,0,1,547.12,759.49Z" transform="translate(-68.45 -22.26)"/><path class="cls-1" d="M549,761.25c1.7-1.1,3.09,1.66.94,2C548.75,762.9,548.43,762.23,549,761.25Z" transform="translate(-68.45 -22.26)"/><path class="cls-1" d="M227.74,764.09c5.58,13.17,12.06,26.2,20.09,38.06.62,1.15,2,2.47,1.75,3.83a58.59,58.59,0,0,1-2.42,13.21,24.83,24.83,0,0,1-4.92,3C229.65,828.85,217,835.3,205.1,843.1c-7,4-13.62,8.56-20.27,13.18,2.89-4.53,6.14-8.83,9.23-13.22,8.89-12.56,18.9-24.32,25.7-38.24a9.37,9.37,0,0,0,.51-8.08,49.77,49.77,0,0,0-11.39-15.13C216.52,777.13,222.47,771.15,227.74,764.09Z" transform="translate(-68.45 -22.26)"/><path d="M340.32,765c-3.67,4.43-8.51,7.71-12.36,12-2.4,2.72-6.17,5.89-6.53,9.67-3.89,24.24-10.2,48.22-14.51,72.44-1.57,9.35-3.78,18.54-5.64,27.83a286.61,286.61,0,0,1,4.43-29.41c4.43-24.46,10.56-47.8,14.48-72.29.51-2.75,3-5.18,4.81-7.21C329.59,773.2,334.58,768.36,340.32,765Z" transform="translate(-68.45 -22.26)"/><path d="M620.52,785.67c4.58,1.59,8.82,4.4,13,6.8,5.29,3.24,10.88,6.36,15.63,10.38,3.56,2.91,4.26,8,5.79,12.14,6.84,19.79,12.83,39.83,19.22,59.76a52.92,52.92,0,0,1,1.66,7.36c-3-5.37-4.29-10.89-6.19-16.71C663.7,846.17,657.59,827,651,808c-1.15-3.12-3.74-4.84-6.32-6.73-6.16-4.26-12.77-8-19.2-11.83A27.27,27.27,0,0,1,620.52,785.67Z" transform="translate(-68.45 -22.26)"/><path class="cls-1" d="M721.24,819.74c10,4.5,20.1,9,29.6,14.44,2.94,1.58,4.09,4.27,5.65,7.05-10-6.86-19.53-13-32.21-12.69C723.27,825.61,722.21,822.69,721.24,819.74Z" transform="translate(-68.45 -22.26)"/><path class="cls-1" d="M238.4,827.46A77.13,77.13,0,0,1,241,838.88c-7,2.42-13.66,5.18-19.81,9.34-5.68,3.82-10.77,9.07-16,13.38-.4-3.78-1.12-7.12.77-10.66,2.26-4.31,5.42-8.81,9.79-11.18C223.15,835.4,230.77,831.4,238.4,827.46Z" transform="translate(-68.45 -22.26)"/><path class="cls-1" d="M724.82,830.06c9.2-.3,17.19,3.55,24.8,8.32,4.68,3.06,9.55,6.88,11.89,12.11s1.73,11.22,1.29,16.7c-1.35-2.67-2.37-5.54-3.87-8.13a34.64,34.64,0,0,0-6.32-4.69c-6.72-3.34-13.33-6.61-20.73-8.21-1.38-.57-3.7-.28-3.83-2.24C727.21,839.22,726.1,834.66,724.82,830.06Z" transform="translate(-68.45 -22.26)"/><path class="cls-1" d="M600.68,833c4.18,3.87,8.71,7.3,13,11a94.93,94.93,0,0,0-21,10.71c-8.68,5.6-16.12,13.45-22.41,21.59-2.06,2.86-4.5,5.83-5.76,9.15-.34,6-.39,12-1,17.94a34.05,34.05,0,0,1-8.58-13.32c-.68-2.59-1.52-4.89-.39-7.49a88.57,88.57,0,0,1,15.23-25.8C578.17,847,588.76,838.11,600.68,833Z" transform="translate(-68.45 -22.26)"/><path d="M671.12,836.3c14.7-.16,29.46-.87,44.16-.71-2.14,5.37-5.41,10.38-8.16,15.52-3,5.3-5.73,10.89-9.2,15.92-8.09-7.52-15-16.33-22.83-24.11C673.56,841.05,670.42,839,671.12,836.3Z" transform="translate(-68.45 -22.26)"/><path class="cls-1" d="M340.61,840.57c3.05-.77,6.54-.24,9.66-.08,6,43.88,12.25,87.75,18.1,131.65-5.45-3.41-10.81-6.95-16.42-10.11-3.44-1.79-4.75-5-7-8-8.5-12.15-16.74-24.51-25.6-36.39a80.52,80.52,0,0,0-7.81-9.26,51.27,51.27,0,0,0-8.27-1.53,128,128,0,0,1,6.26-15.31A253.68,253.68,0,0,1,337,845,39.47,39.47,0,0,1,340.61,840.57Z" transform="translate(-68.45 -22.26)"/><path class="cls-1" d="M241.15,840.54c1.3,6.32,1.38,13,1.89,19.46,1,17.1,3.22,34.93,2.86,52,.13,2.6-1.82,4.63-3.18,6.68-9.57,13.33-21,25.14-30.68,38.35-2.84,3.79-7.74,6.3-11.76,8.67.72-2.69,1.57-5.35,2.44-8C215.53,918.74,228.08,879.39,241.15,840.54Z" transform="translate(-68.45 -22.26)"/><path d="M249.82,844.17c13.22.38,26.48-.22,39.69.42-2.57,4.19-6,8-9,11.92-4.29,5.34-8.37,10.86-12.82,16.07-2.91-3.71-5.06-7.64-7.59-11.68C256.69,855.32,253.11,849.82,249.82,844.17Z" transform="translate(-68.45 -22.26)"/><path class="cls-1" d="M616.71,846.31c18.62,14.46,35.24,32.15,47.39,52.41-2.46,1.13-4.77,1.61-6.15,4.19q-21.06,34-42.05,68c-2.58,5-8.63,8-12.93,11.47-.27-7.47.17-14.91.14-22.38.08-33,.34-66,.5-99,0-3-.13-6,.18-8.91a3.36,3.36,0,0,1,1.71-1.6A40.43,40.43,0,0,1,616.71,846.31Z" transform="translate(-68.45 -22.26)"/><path class="cls-1" d="M728.26,846.34c3,1.83,3.29,4.79,4.67,7.75Q753,903,773.17,951.82c.62,1.52,1.15,3.07,1.63,4.64-3.5-2.46-5.65-5.68-8.39-8.89q-18-21.52-36-43a55.31,55.31,0,0,0-5.16-5.86c-2.11-1.31-5-1.56-7.37-2.12C722.32,879.88,727.34,863.72,728.26,846.34Z" transform="translate(-68.45 -22.26)"/><path d="M616.3,887.55a18.62,18.62,0,0,1,4.87,4.28c5.09,6.18,10.31,12.24,15.48,18.35-4.48,10.17-10,19.89-14.36,30.1a80.78,80.78,0,0,1-5.74,10.84c-.71-4.08-.4-7.94-.44-12.12q0-18,0-36C616,897.83,615.69,892.71,616.3,887.55Z" transform="translate(-68.45 -22.26)"/><path class="cls-1" d="M717.48,898.15c3.38.29,6.59.7,8.73,3.63C740.43,919,755,935.93,769.07,953.29c-5.9-2.52-11.93-5-17.75-7.64-5.37-5.2-9.49-11.94-14.51-17.47-5.54-6.43-10.87-13-16.23-19.64l-5.17-.38A97.1,97.1,0,0,1,717.48,898.15Z" transform="translate(-68.45 -22.26)"/><path class="cls-1" d="M665,900.42A70.1,70.1,0,0,1,669.3,908c-4.33.35-8.68.52-13,.6,1.35-2.29,2.58-5,4.49-6.86A22.79,22.79,0,0,1,665,900.42Z" transform="translate(-68.45 -22.26)"/><path class="cls-1" d="M302.68,908.5a18.89,18.89,0,0,1,8.23,1.47c2.75,2.37,4.92,5.52,7.06,8.43-6.39.1-12.79.09-19.18-.14C300,915,301.14,911.63,302.68,908.5Z" transform="translate(-68.45 -22.26)"/><path class="cls-1" d="M245.77,917c0,3.24-.43,6.68.19,9.86,1,1.81,3.43,2.83,5.12,3.91-3.86,5.23-7.79,10.43-11.93,15.44-1.87,2.6-5.81,3.22-8.68,4.31-5.55,1.64-10.74,4-16.08,6.2,2.75-4.37,6-8,9.31-12C231.32,935.64,239,926.64,245.77,917Z" transform="translate(-68.45 -22.26)"/><path class="cls-1" d="M708,942.8c9.76.25,19.84.61,29.41,2.67-1.94,0-3.89,0-5.83.09A4.77,4.77,0,0,0,735,947a105.32,105.32,0,0,1,25.7,6.28c4.6,1.83,8.75,4.6,13.26,6.72,6.79,3.21,12.2,8.28,17.77,13.23,11.25,10.17,21.71,22.37,27.52,36.51,4.69,10.14,9.45,19.83,10.79,31.1-13.45.29-26.9.38-40.35.52,0-10.27-2.16-20.69-4.45-30.66a104.13,104.13,0,0,0-19.6-36.36c-7.36-8.91-17-16.25-26.81-22.19a73.42,73.42,0,0,1-7.15-4.42,15.8,15.8,0,0,1-.14-2.75c-27.38-2.4-55,.25-80.92,9.59-6.6,2.2-12.57,5.61-18.89,8.42,6.45-5.16,13.62-8.22,21.32-11C670.57,945.2,689.23,942.5,708,942.8Z" transform="translate(-68.45 -22.26)"/><path class="cls-1" d="M291,945.87a171.08,171.08,0,0,1,27.09,5.37c5.64,1.64,12.47,2.39,17.2,5.88-4.6-1-8.82-3.18-13.45-4.18a294.49,294.49,0,0,0-33.9-5.66c-11.67-1.41-24.25-.09-36,.38a71.65,71.65,0,0,1,8.09-1.17C270.59,945.85,280.42,944.62,291,945.87Z" transform="translate(-68.45 -22.26)"/><path class="cls-1" d="M232.84,953c-7.56,5.75-15,11.36-21.1,18.75-4.84,5.48-8.16,11.77-12.17,17.83-4,6.38-6.08,13.1-9,19.94a49.24,49.24,0,0,0-1.94,29.78c-10.87,0-21.74-.35-32.62-.46,1.88-10.07,4.34-19.84,8.73-29.14,2.7-5.56,6.84-10.59,10.1-15.9a47.92,47.92,0,0,1,11.34-12.66c3.94-3.11,7.59-6.49,11.77-9.24,6.29-4.15,12.82-7.95,19.43-11.56C222.41,957.58,227.32,954.8,232.84,953Z" transform="translate(-68.45 -22.26)"/><path class="cls-1" d="M329.06,956.94c9.28,2.71,18.27,7.47,26.44,12.58,5.65,3.59,11.26,6.8,16.21,11.39-6.35,2-12.5,4-18.09,7.71-7.87,5.17-14.73,12-20.93,19.06-5.88,6.9-11.2,14.33-14,23.06,5.43.32,10.88.23,16.31.63a74.26,74.26,0,0,1,18.36-17c10.72-7.52,22.56-12.86,35.75-13.82a162.42,162.42,0,0,1,16.27,31.07,57.14,57.14,0,0,1,3.74,11.25q-60.93-.84-121.94-2a83.61,83.61,0,0,1,1.44-30.36c3.27-13.71,9.05-26.84,18.44-37.48C313.13,966.16,321.09,961.31,329.06,956.94Z" transform="translate(-68.45 -22.26)"/><path class="cls-1" d="M639.06,961.21a28,28,0,0,1,10.09,5.62c4.4,4,8.68,8,12,13A95.19,95.19,0,0,1,677,1026c.42,5.82.39,11.45-2.34,16.77-3.86.35-7.73.42-11.61.4-33.94.34-67.88,1-101.81,1.27.73-9.23,4.54-17.23,9.08-25.14,4.53-6.8,10.41-13,16-19a18.89,18.89,0,0,1,6.42-4.7c2.84-1.91,6-.8,9.16-.36A49.24,49.24,0,0,1,634.13,1018a125.43,125.43,0,0,0,15.75-.4,12.47,12.47,0,0,0,3.74-1.32,80.65,80.65,0,0,0-13.39-19.53c-7.73-8.15-17.56-13.37-27.74-17.82A131.87,131.87,0,0,1,639.06,961.21Z" transform="translate(-68.45 -22.26)"/><path class="cls-1" d="M153.93,1040.41c4.61-.24,9.25.06,13.86.12.4,2,.76,4.09,1.1,6.14-4.86,0-9.73-.1-14.59-.22C153.86,1044.35,153.15,1042.54,153.93,1040.41Z" transform="translate(-68.45 -22.26)"/><path class="cls-1" d="M169.39,1040.57c6.52,0,13.05.11,19.57.35.23,2.08.47,4.16.76,6.24-6.47-.08-12.93-.31-19.39-.41C170,1044.68,169.72,1042.63,169.39,1040.57Z" transform="translate(-68.45 -22.26)"/><path class="cls-1" d="M190.55,1040.9c15.11.27,30.1.56,45.22.66a21.26,21.26,0,0,0,.25,5.69c1.22-1.44,1.1-3.74,1.46-5.55,7.12,0,14.25,0,21.36.38q.17,3.17.32,6.33c-7.73-.09-15.44-.14-23.16-.58-7.42.1-14.83-.07-22.24-.27-.53-1.39-.12-5.11-1.86-5.43-.44,1.7,0,3.67,0,5.42-7-.11-14-.26-21-.39Q190.74,1044,190.55,1040.9Z" transform="translate(-68.45 -22.26)"/><path class="cls-1" d="M260.38,1042.21c8.12-.23,16.29,0,24.41.4,7.36-.24,14.75,0,22.11.19q0,3.26,0,6.52c-7.39-.1-14.78-.15-22.16-.44-.23-1.3-.49-2.6-.77-3.9-.55,1.3-1.07,2.6-1.56,3.92-7.27-.2-14.54-.21-21.81-.47C260.52,1046.36,260.37,1044.28,260.38,1042.21Z" transform="translate(-68.45 -22.26)"/><path class="cls-1" d="M818.39,1042.57c4.46-.22,9-.14,13.42-.13a62.51,62.51,0,0,1-.75,7.34c-4.73.16-9.42.13-14.14-.11-6.4.42-12.79.5-19.21.39q0-3.61-.06-7.22c6.34-.16,12.68-.2,19-.28-.11,2.36-.22,4.71-.12,7.08C818.31,1048,817.82,1044.79,818.39,1042.57Z" transform="translate(-68.45 -22.26)"/><path class="cls-1" d="M308.43,1043.11c4.12-.61,8.42-.17,12.57-.16,11.59.49,23.15.31,34.74.59q-.5,3.32-1,6.62c-6.7.09-13.38-.14-20.07-.32-.08-2.07-.19-4.13-.45-6.19-1.41,1.5-1.11,4.26-1.44,6.21-8.1-.19-16.2-.3-24.3-.48C308.43,1047.3,308.34,1045.18,308.43,1043.11Z" transform="translate(-68.45 -22.26)"/><path class="cls-1" d="M774.81,1043.14c-.13,2.32-.27,4.65-.4,7-7.09.39-14.22.23-21.32.29-.22-2.34-.48-4.67-.75-7C759.82,1043.32,767.32,1043.16,774.81,1043.14Z" transform="translate(-68.45 -22.26)"/><path class="cls-1" d="M776.27,1043.25c6.63-.56,13.35-.31,20-.41,0,2.41-.06,4.83-.09,7.24q-10.12.17-20.26.15C776,1047.91,776.05,1045.57,776.27,1043.25Z" transform="translate(-68.45 -22.26)"/><path class="cls-1" d="M357.23,1043.83c6.68-.49,13.5.09,20.22.06-.21,2.22-.42,4.44-.61,6.66-6.87.13-13.76-.12-20.63-.33C356.51,1048.09,356.78,1045.93,357.23,1043.83Z" transform="translate(-68.45 -22.26)"/><path class="cls-1" d="M379.11,1044.08c5.88-.38,11.83.18,17.73.15,0,2.23-.11,4.46-.16,6.69-6.17.09-12.34-.08-18.51-.27A60.41,60.41,0,0,1,379.11,1044.08Z" transform="translate(-68.45 -22.26)"/><path class="cls-1" d="M398.37,1044.35a87.74,87.74,0,0,1,10.51.14c1.45,1.28.64,4.94.89,6.78-3.88,0-7.77-.09-11.65-.23C398.18,1048.81,398.17,1046.57,398.37,1044.35Z" transform="translate(-68.45 -22.26)"/><path class="cls-1" d="M675.59,1044.54c8-.32,16.13-.29,24.18-.41,0,2.23,0,4.45,0,6.68-8.09,0-16.2.32-24.29.11C675.49,1048.8,675.43,1046.66,675.59,1044.54Z" transform="translate(-68.45 -22.26)"/><path class="cls-1" d="M701.28,1044.23c8.44-.56,17-.31,25.42-.46-.16,2.3-.34,4.59-.56,6.88q-12.46.09-24.92.16C701.22,1048.62,701.16,1046.42,701.28,1044.23Z" transform="translate(-68.45 -22.26)"/><path class="cls-1" d="M728.08,1043.77c7.65-.16,15.3-.31,22.95-.28l.54,6.86c-7.93.3-15.88.17-23.81.28Q727.93,1047.21,728.08,1043.77Z" transform="translate(-68.45 -22.26)"/><path class="cls-1" d="M606.52,1045.37l.3,6.15q-11.19.18-22.38.15-.59-3-1.22-5.94C591,1045.47,598.76,1045.44,606.52,1045.37Z" transform="translate(-68.45 -22.26)"/><path class="cls-1" d="M608.17,1045.37c6.69-.25,13.41-.2,20.11-.3,0,2.09-.11,4.17-.17,6.26-6.63.13-13.27.26-19.9.1C608.17,1049.42,608.07,1047.39,608.17,1045.37Z" transform="translate(-68.45 -22.26)"/><path class="cls-1" d="M629.75,1045.06c7.59-.15,15.19-.35,22.78-.22,0,2.09.1,4.19.15,6.28-7.69.22-15.39.23-23.08.2Z" transform="translate(-68.45 -22.26)"/><path class="cls-1" d="M654,1044.75c6.67-.14,13.35-.29,20-.23,0,2.14,0,4.28,0,6.43-6.63.22-13.27.23-19.9.2C654.11,1049,654.07,1046.88,654,1044.75Z" transform="translate(-68.45 -22.26)"/><path class="cls-1" d="M560.93,1046.08c7-.34,13.93-.37,20.88-.32q.56,3,1.13,6c-7.28.11-14.56.17-21.83.14C561.05,1049.92,561,1048,560.93,1046.08Z" transform="translate(-68.45 -22.26)"/><path class="cls-2" d="M302.39,739.17c4.47,0,8.95,0,13.42,0,0,4.62.08,9.25,0,13.87-3,0-6.09,0-9.13,0a3.31,3.31,0,0,0-3.38,3.19c0,2.38,0,4.77,0,7.14,3.22,0,6.44,0,9.67,0,1.14,0,2.13-.21,3.18.36a50.07,50.07,0,0,0-.42,5,60.67,60.67,0,0,0-.61,6.59,15.11,15.11,0,0,1-.68,4.38c-3.87,0-7.75,0-11.63,0,0,13.43,0,26.85,0,40.28-5.36.15-10.75,0-16.12.07a25.65,25.65,0,0,1-.18-4.47q0-16.17,0-32.34c0-.89.11-1.76.15-2.64,0-.48-.12-1.16-.75-1.1-2.47,0-4.95.06-7.42,0,0-5.32,0-10.64,0-16,2.65-.07,5.3,0,7.95,0,.16-3.1,0-6.22.1-9.33A17.78,17.78,0,0,1,290.55,744,15.7,15.7,0,0,1,302.39,739.17Z" transform="translate(-68.45 -22.26)"/><path d="M595.56,425.3h23.82a8.72,8.72,0,0,1,5.21,1.53,8.51,8.51,0,0,1,3.82,7.13v24.59a7.22,7.22,0,0,1-.34,2.7,8.77,8.77,0,0,1-8.5,6.14h-24.2a8.66,8.66,0,0,1-8.64-8.46q0-12.19,0-24.38a13.36,13.36,0,0,1,.12-2.28,9,9,0,0,1,3.14-5A8.86,8.86,0,0,1,595.56,425.3Z" transform="translate(-68.45 -22.26)"/><path class="cls-1" d="M594.39,428.9a26.79,26.79,0,0,1,3.11-.09h22.26a5.25,5.25,0,0,1,5.18,4.62,12.67,12.67,0,0,1,.11,2.47c0,7.84,0,15.69,0,23.53l-.14-.31a4.82,4.82,0,0,1-1.3,3.09,6.65,6.65,0,0,1-2.11,1.44,13.17,13.17,0,0,1-2.33.38H596a5.86,5.86,0,0,1-4.92-2.44,6.53,6.53,0,0,1-.93-2.64c0-8.25,0-16.73,0-25,.15-.6.19-1.21.37-1.78a5.5,5.5,0,0,1,2.24-2.66A5.59,5.59,0,0,1,594.39,428.9Z" transform="translate(-68.45 -22.26)"/><path d="M619,432.33a2.56,2.56,0,0,1,2.82,2.6c0,1.06-.7,1.63-1.44,2.23a3,3,0,0,1-2,0,2.5,2.5,0,0,1-1.28-3.31A2.54,2.54,0,0,1,619,432.33Z" transform="translate(-68.45 -22.26)"/><path d="M612.18,436.5a10.22,10.22,0,0,1,3,2.08,10.81,10.81,0,0,1-2.11,17.2,9.78,9.78,0,0,1-3.72,1.33,13.37,13.37,0,0,1-1.55.18,16.59,16.59,0,0,1-2.52-.27,11.06,11.06,0,0,1-6.78-4.66,11.66,11.66,0,0,1-1.8-5.62,11.33,11.33,0,0,1,2.3-7.05,12.73,12.73,0,0,1,3.22-2.81,11.54,11.54,0,0,1,3.26-1.21A11.07,11.07,0,0,1,612.18,436.5Z" transform="translate(-68.45 -22.26)"/><path class="cls-1" d="M606.35,439a7.33,7.33,0,0,1,7.42,3.26,7.42,7.42,0,1,1-13.61,4.05A7.39,7.39,0,0,1,606.35,439Z" transform="translate(-68.45 -22.26)"/><path d="M398.52,302.88c.29.2.43.5.83.41a12.09,12.09,0,0,0,3-1.14,5.61,5.61,0,0,1-1.1,1.85c-.3.32-.69.56-1,.88a9.89,9.89,0,0,0,2.75-.72,9.29,9.29,0,0,1-2,2.16c-.23.22-.56.34-.51.71,0,.69-.1,1.36-.11,2a15.31,15.31,0,0,1-1.79,5.39,14.71,14.71,0,0,1-3.55,4.22,14,14,0,0,1-7.29,3,17.75,17.75,0,0,1-1.78.13,15.24,15.24,0,0,1-6.53-1.51,4.69,4.69,0,0,1-1.2-.71,14.34,14.34,0,0,0,2.36-.09,10,10,0,0,0,3.24-1,7.6,7.6,0,0,0,1.68-1.07,9,9,0,0,1-1.9-.5,5.08,5.08,0,0,1-2.76-3,6.69,6.69,0,0,0,1.84,0l.2-.21a9.62,9.62,0,0,1-1.1-.42,5.17,5.17,0,0,1-1.73-1.46,4.59,4.59,0,0,1-1-3.06,5.84,5.84,0,0,0,1.85.61,1,1,0,0,0,.29-.11,5,5,0,0,1-2.08-5,5.88,5.88,0,0,1,.61-1.62,16.1,16.1,0,0,0,3.48,3,14.5,14.5,0,0,0,5.75,2.12,5.79,5.79,0,0,0,1.32.11,5.39,5.39,0,0,1-.07-1.7,5,5,0,0,1,2.13-3.56A5.16,5.16,0,0,1,398.52,302.88Z" transform="translate(-68.45 -22.26)"/><path id="path4" d="M705,897.68a12.17,12.17,0,0,1-1.25,2.24,11.54,11.54,0,0,1-1.6,1.94,3.13,3.13,0,0,1-2.07.91,5.09,5.09,0,0,1-1.9-.46,5.56,5.56,0,0,0-2-.45,5.69,5.69,0,0,0-2.11.45,5.44,5.44,0,0,1-1.83.48,2.94,2.94,0,0,1-2.11-.93,11.74,11.74,0,0,1-1.68-2,13.72,13.72,0,0,1-1.77-3.53,12.86,12.86,0,0,1-.75-4.2,7.69,7.69,0,0,1,1-4A5.93,5.93,0,0,1,689,886a5.62,5.62,0,0,1,2.85-.8,6.71,6.71,0,0,1,2.21.51,7.36,7.36,0,0,0,1.75.52,10.75,10.75,0,0,0,2-.61,6.35,6.35,0,0,1,2.64-.47,5.63,5.63,0,0,1,4.39,2.31,5.08,5.08,0,0,0-1,8.13,5.45,5.45,0,0,0,1.61,1.05c-.13.38-.26.73-.41,1.08Zm-4.47-17.61a5,5,0,0,1-1.27,3.24,4.33,4.33,0,0,1-3.59,1.78,3.15,3.15,0,0,1,0-.44,5.07,5.07,0,0,1,1.35-3.28,5,5,0,0,1,1.64-1.23,4.71,4.71,0,0,1,1.87-.53,3.55,3.55,0,0,1,0,.46Z" transform="translate(-68.45 -22.26)"/></svg>