<svg id="Layer_1" data-name="Layer 1" xmlns="http://www.w3.org/2000/svg" viewBox="0 0 938.55 690.53"><defs><style>.cls-1,.cls-5{fill:#010101;}.cls-1,.cls-10,.cls-11,.cls-12,.cls-13,.cls-3,.cls-4,.cls-6,.cls-7,.cls-8,.cls-9{stroke:#010101;}.cls-1,.cls-12,.cls-13,.cls-3,.cls-6,.cls-7,.cls-8,.cls-9{stroke-miterlimit:10;}.cls-1{stroke-width:9.01px;}.cls-10,.cls-2,.cls-4,.cls-6,.cls-7{fill:#fff;}.cls-11,.cls-12,.cls-13,.cls-3,.cls-8,.cls-9{fill:none;}.cls-12,.cls-3,.cls-4,.cls-6{stroke-width:3px;}.cls-10,.cls-11,.cls-4{stroke-linejoin:round;}.cls-10,.cls-11,.cls-7,.cls-8{stroke-width:2.25px;}.cls-9{stroke-width:1.5px;}.cls-12,.cls-13{stroke-linecap:round;}.cls-13{stroke-width:3.46px;}</style></defs><path class="cls-1" d="M636.37,623s-5.11-38.74,16.43-25.28c30.33,19,54.34-20.22,51.81-51.82S551.69,250.17,803.19,202.15c125.12-17.7,200.95,69.51,203.47,154.18,1.47,49.28-15.16,139-91,127.65,26.54-10.11,34.62-53.15,31.59-73.3-3.79-25.28-26.54-44.24-69.51-35.39-44.63,9.19-79.53,80-20.22,150.39,80.89,96.05,79.62,198.42,13.91,252.76-36.66,20.23-269.2-48-269.2-48l13.91-56.87Z" transform="translate(-72.71 -195.33)"/><polygon class="cls-2" points="194.63 407.44 818.95 589.43 628.11 690.53 0 482.01 194.63 407.44"/><path class="cls-2" d="M932.94,478.08c37.91-19,51.74-46.91,59.4-78.36,8.8-36.11-6.32-93.52-40.44-125.11-59.85-55.42-147.87-40.45-198.42-2.53s-58.14,111.21-29.07,203.47,20.22,156.71-68.24,170.62c-22.75,6.31-30.34,12.63-30.34,12.63l-6.31,48,169.35,49.29s63.19-16.43,69.51-70.78,5-92.38-37.92-141.54c-51.81-59.4-39.18-176.94,22.75-207.27S1001.19,388.35,932.94,478.08Z" transform="translate(-72.71 -195.33)"/><path class="cls-3" d="M269.86,602.77c2.53,0,620.53,182,620.53,182" transform="translate(-72.71 -195.33)"/><path class="cls-4" d="M531.47,420.15c-1.9.64-25.91,0-39.81-22.11,17.06,8.84,28.44,3.79,28.44,3.79s-29.7-12.64-41.71-49.29C495.45,377.82,515,375.29,515,375.29s-46.13-39.18-13.27-98c-4.42,7.59,9.48,51.19,31,54.35-18.32-12.64-16.43-69.51,33.5-88.47-12.64,8.85-8.22,58.77-4.43,64.46,3.16-22.75,1.27-76.46,103.63-89.73-27.17,3.79-56.24,57.5-44.86,89.09-1.9-8.84,20.85-29.7,36-23.38-10.11,7.59-13.9,32.23-7,44.24,10.11,2.52,64.45-1.9,53.08-48.66,12.63,8.85,24.64,65.72-1.27,89.1,12.64,7,35.39-7.58,37.29-12s5,44.24-31,42.34c19,28.44,61.3,24,65.72,19-6.32,38.54-49.29,48.65-69.51,43.6,1.26,12.64,37.91,23.38,49.29,20.85-16.43,22.12-47.39,20.22-63.82.63-8.22,13.27,9.48,34.76,20.85,34.13-17.06,7.58-39.18,2.52-43-17.7-.63,21.49,21.48,34.13,21.48,34.13s-43,20.85-64.45-12C586.45,502.93,531.47,420.15,531.47,420.15Z" transform="translate(-72.71 -195.33)"/><path class="cls-5" d="M630.05,351.91a22.82,22.82,0,0,1,1.24-8.77,21.84,21.84,0,0,1,4.6-7.76,22.41,22.41,0,0,1,1.64-1.59c.29-.26.56-.53.85-.77l.94-.67c.63-.42,1.23-.92,1.9-1.29l2-1.08a12.57,12.57,0,0,1,2.09-.93l2.15-.83c1.46-.43,3-.78,4.43-1.17l.48,3c-1.39.25-2.8.46-4.19.74l-2,.59a12.89,12.89,0,0,0-2,.69l-1.95.84c-.64.29-1.22.7-1.84,1l-.92.54c-.29.2-.56.43-.85.65a21,21,0,0,0-1.65,1.34,20.64,20.64,0,0,0-5,7A22.46,22.46,0,0,0,630.05,351.91Z" transform="translate(-72.71 -195.33)"/><path class="cls-5" d="M677.44,355.7a16.77,16.77,0,0,0,4.77,6.38,23.14,23.14,0,0,0,6.84,3.94,33.55,33.55,0,0,0,7.66,1.83c1.32.12,2.64.2,3.95.29l4,0v3l-4.15-.34c-1.38-.22-2.76-.43-4.12-.69a35.45,35.45,0,0,1-7.89-2.67,24.19,24.19,0,0,1-6.75-4.78A17,17,0,0,1,677.44,355.7Z" transform="translate(-72.71 -195.33)"/><path class="cls-6" d="M547.9,389.19l-20.22,21.49s-5.73-12.28.42-19.38C536.32,381.82,547.9,389.19,547.9,389.19Z" transform="translate(-72.71 -195.33)"/><ellipse class="cls-5" cx="459.61" cy="206.07" rx="5.06" ry="4.74"/><path class="cls-5" d="M590.24,360.76c-1.85-.41-27.17,3.15-43.6,27.17s-28.44,38.54-58.77,32.86c-8.85,15.79-11.38,14.53-11.38,14.53S490.4,472,502.4,492.19s39.18,49.29,59.4,50.55c1.27,13.91,14.54,27.18,14.54,27.18l37.91-19,.63-17.06S656,513,650.9,457.44c38.55-.64,51.18-8.85,52.45-31-2.11-19.59-36-12-36-12S656.59,440.38,644,441c9.48-5.06,5-33.49,5-33.49s-5,15.16-13.27,19C645.85,418.89,645.21,372.76,590.24,360.76Z" transform="translate(-72.71 -195.33)"/><ellipse class="cls-4" cx="522.58" cy="215.13" rx="16.64" ry="16.22"/><path class="cls-2" d="M594.24,357.17c-1.26,0-22.75,1.27-37.07,21.91s-31.6,47.6-66.56,43.39a29.07,29.07,0,0,0-2.95,8.43s22.75,22.32,52.66-3.79,42.12-64.88,72.46-62.35S594.24,357.17,594.24,357.17Z" transform="translate(-72.71 -195.33)"/><ellipse class="cls-5" cx="520.27" cy="219.56" rx="5.79" ry="5.43"/><path class="cls-3" d="M579.5,413.62c1.26-.42,27-14.32,27-14.32" transform="translate(-72.71 -195.33)"/><line class="cls-6" x1="461.29" y1="192.17" x2="467.61" y2="201.86"/><path class="cls-7" d="M534,358s5.47.84,6.32,12.64,12.21,17.69,16.43,11.79-1.69-11.37-4.64-17.27S539.47,354.65,534,358Z" transform="translate(-72.71 -195.33)"/><path class="cls-7" d="M576.13,383.71s5,19.8,16.85,14.33,30.75-22.75,39.6-15.17c-11-11.37-18.54-14.32-27-10.11S579.92,383.71,576.13,383.71Z" transform="translate(-72.71 -195.33)"/><path class="cls-2" d="M543.27,485.66a89.76,89.76,0,0,0,14.55.32,67.62,67.62,0,0,0,7.13-.82,49,49,0,0,0,6.92-1.63,40.27,40.27,0,0,0,6.53-2.66,34.59,34.59,0,0,0,6-3.78,42.38,42.38,0,0,0,9.47-10.81,29.68,29.68,0,0,1-7.94,12.58,30.24,30.24,0,0,1-6.13,4.52,40.37,40.37,0,0,1-7,3,46.33,46.33,0,0,1-14.9,1.92,51,51,0,0,1-7.42-.74A37.53,37.53,0,0,1,543.27,485.66Z" transform="translate(-72.71 -195.33)"/><path class="cls-2" d="M587.08,457.86a19.68,19.68,0,0,1,5.66.54,15.11,15.11,0,0,1,5.28,2.28,9.37,9.37,0,0,1,3.53,4.56,10.57,10.57,0,0,1,.27,5.68,15.44,15.44,0,0,0-.11-2.81,9.33,9.33,0,0,0-.7-2.66,9.64,9.64,0,0,0-3.42-4.16,17.6,17.6,0,0,0-5-2.34A29.86,29.86,0,0,0,587.08,457.86Z" transform="translate(-72.71 -195.33)"/><path class="cls-2" d="M675.54,424.58l1.69,15.16s16.43-.84,14.32-10.53S675.54,424.58,675.54,424.58Z" transform="translate(-72.71 -195.33)"/><ellipse class="cls-5" cx="405.68" cy="231.56" rx="12.64" ry="12.01"/><ellipse class="cls-2" cx="406.95" cy="227.35" rx="3.79" ry="4.42"/><polygon class="cls-7" points="264.14 526.66 264.14 539.3 366.08 580.58 460.03 527.08 460.03 512.34 360.61 480.74 264.14 526.66"/><polyline class="cls-7" points="264.14 526.66 366.5 566.68 460.03 512.34"/><line class="cls-8" x1="366.5" y1="566.68" x2="366.08" y2="580.58"/><polygon class="cls-8" points="285.62 525.4 367.35 556.99 436.01 519.08 354.71 492.54 285.62 525.4"/><ellipse class="cls-9" cx="472.51" cy="695.88" rx="4.84" ry="2.17" transform="translate(-292.18 22.34) rotate(-21.18)"/><path class="cls-4" d="M559.27,552.22s12.64,6.74,17.07,17.7C575.7,583.4,558,650,558,650l-.84-80.89Z" transform="translate(-72.71 -195.33)"/><path class="cls-4" d="M617.83,543v16.86L558,650l18.33-80s5.26-10.11,17.06-12.64S617.83,543,617.83,543Z" transform="translate(-72.71 -195.33)"/><path class="cls-4" d="M561.8,547.59s-2.53,8.85-.84,14.32c5.48-.42,11.79.42,13.9,5.06C571.91,559.81,566.86,549.27,561.8,547.59Z" transform="translate(-72.71 -195.33)"/><path class="cls-4" d="M577.81,569.07s11.8-5.89,17.27-2.1c-.42-3,3.37-11.38,3.37-11.38A28.7,28.7,0,0,0,577.81,569.07Z" transform="translate(-72.71 -195.33)"/><path class="cls-5" d="M557.59,565.7s16,23.59,51,6.32c-5,8.43-3.37,7.59-3.37,7.59s-22.75,12.21-47.6-8.85C555.06,568.23,557.59,565.7,557.59,565.7Z" transform="translate(-72.71 -195.33)"/><ellipse class="cls-5" cx="502.36" cy="381.74" rx="6.53" ry="9.27"/><polygon class="cls-5" points="486.57 451.68 484.04 415.87 499.63 386.8 505.52 387.22 509.31 416.71 486.57 451.68"/><path class="cls-4" d="M557.59,570.76l-26.12,110,27.38,8.43S553.38,588,557.59,570.76Z" transform="translate(-72.71 -195.33)"/><path class="cls-4" d="M618.25,561.91s5.06,9.69-6.74,26.54S572.33,690.4,572.33,690.4L553.8,687s-.84-27.81.42-32.44,40.44-67.4,48.87-74.56S618.25,561.91,618.25,561.91Z" transform="translate(-72.71 -195.33)"/><path class="cls-10" d="M443.85,643.64s31.17-11,37.91-20.22S514.62,583,523.47,572s36.23-21.9,36.23-21.9,3.37,24-8,56S539.47,682,539.47,682l-23.59-6.74V634s-13.06,12.64-18.53,15.59-7.16,8.42-10.53,8-17.28,11.8-17.28,11.8Z" transform="translate(-72.71 -195.33)"/><path class="cls-4" d="M618.67,557.28c1.69.42,12.64,13.06,17.7,22.33,6.32,10.53,53.08,88,59.4,100.26s13.9,38.33-1.69,44.65-72.88,18.54-72.88,18.54-3.79-28.65-14.32-23.59c9.69-7.17,42.12-16.85,45.07-18.12s1.27-4.63,7.17-6.74c-2.53-1.68,0-4.21,0-4.21l-25.7-34.55-13.48,51L571.07,690.4s7.58-45.92,17.69-66.14,26.12-42.55,28.23-50.13S618.67,557.28,618.67,557.28Z" transform="translate(-72.71 -195.33)"/><path class="cls-5" d="M682.29,689.14a46.72,46.72,0,0,0-5.74-1.66A23.38,23.38,0,0,0,671,687a20.31,20.31,0,0,0-5.46.9,28.68,28.68,0,0,0-2.74.94c-.94.34-1.81.83-2.84,1.17a15.12,15.12,0,0,1,2-2.41,13.87,13.87,0,0,1,8.9-3.6,14.44,14.44,0,0,1,6.38,1.28A12.69,12.69,0,0,1,682.29,689.14Z" transform="translate(-72.71 -195.33)"/><path class="cls-5" d="M675.76,676.28a44,44,0,0,0-5.38,2.59,22.86,22.86,0,0,0-4.47,3.32,20,20,0,0,0-3.47,4.3A28,28,0,0,0,661,689c-.48.88-.8,1.83-1.34,2.77a15.25,15.25,0,0,1-.08-3.17,13.11,13.11,0,0,1,.7-3.13,13.34,13.34,0,0,1,3.54-5.48,14.3,14.3,0,0,1,5.61-3.3A12.67,12.67,0,0,1,675.76,676.28Z" transform="translate(-72.71 -195.33)"/><path class="cls-5" d="M492,654.31a46.23,46.23,0,0,0,.75-5.93,23.27,23.27,0,0,0-.35-5.56,19.85,19.85,0,0,0-1.73-5.25,27.55,27.55,0,0,0-1.35-2.57c-.48-.88-1.1-1.66-1.59-2.63a16.06,16.06,0,0,1,2.7,1.66,13.55,13.55,0,0,1,2.25,2.29,13.3,13.3,0,0,1,2.67,6,14.35,14.35,0,0,1-.28,6.49A12.73,12.73,0,0,1,492,654.31Z" transform="translate(-72.71 -195.33)"/><path class="cls-5" d="M642.3,640.11a45.57,45.57,0,0,0-3.78,4.61,22.74,22.74,0,0,0-2.67,4.9,20,20,0,0,0-1.33,5.36c-.19.94-.13,1.9-.23,2.9s.05,2,0,3.07a16,16,0,0,1-1.4-2.84,13.22,13.22,0,0,1-.68-3.14,13.39,13.39,0,0,1,.9-6.46,14.37,14.37,0,0,1,3.7-5.36A12.77,12.77,0,0,1,642.3,640.11Z" transform="translate(-72.71 -195.33)"/><path class="cls-5" d="M487.11,658.62a37.21,37.21,0,0,0,1.15-5.58,16.19,16.19,0,0,0-.17-5.17c0-.2,0-.42-.11-.62l-.19-.6a6.64,6.64,0,0,0-.41-1.21c-.17-.39-.34-.79-.5-1.2l-.65-1.15-.31-.6-.4-.56q-.39-.55-.78-1.17c-.55-.77-1.19-1.48-1.74-2.37a16.39,16.39,0,0,1,2.77,1.26c.42.3.83.6,1.24.92.21.15.42.32.62.48l.53.58a11.07,11.07,0,0,1,2.95,5.65,11.74,11.74,0,0,1-.5,6.34A11.39,11.39,0,0,1,487.11,658.62Z" transform="translate(-72.71 -195.33)"/><path class="cls-5" d="M676.81,696.72a46.22,46.22,0,0,0-5.74-1.66,22.85,22.85,0,0,0-5.55-.5,20.16,20.16,0,0,0-5.45.89c-.94.21-1.8.64-2.75.94s-1.81.83-2.84,1.17a15.57,15.57,0,0,1,2-2.41,13.81,13.81,0,0,1,8.91-3.59,14.32,14.32,0,0,1,6.38,1.27A12.75,12.75,0,0,1,676.81,696.72Z" transform="translate(-72.71 -195.33)"/><path class="cls-11" d="M560.54,550.54a34.92,34.92,0,0,0-13.48,7.16c-4.64,4.21-8,16.43-8,16.43s17.28,15.16,17.28,13.9S560.54,550.54,560.54,550.54Z" transform="translate(-72.71 -195.33)"/><path class="cls-10" d="M539.47,680.29c0-1.27-11-72.46-10.53-73.72s29.49-33.28,29.49-33.28Z" transform="translate(-72.71 -195.33)"/><path class="cls-11" d="M571.91,690c-.42,3,52.24-63.61,52.66-64.88S609,591,609,591,581.6,621.73,571.91,690Z" transform="translate(-72.71 -195.33)"/><path class="cls-11" d="M618.67,557.28c-.16-2.26,16,16.85,16.85,19.38s-2.94,21.06-2.94,21.06l-16,2.95-7.16-11.38S619.94,574.55,618.67,557.28Z" transform="translate(-72.71 -195.33)"/><path class="cls-2" d="M624.57,739.27s3.37,1.26-3.79,2.52-9.69,3.8-12.64,6.32-22.33,8-27.8,5.48-11.8-1.26-11.8-1.26-4.21,8.84-10.95,7.16-9.69-.85-3.79-4.64,8.84-5.89,10.11-8.42-1.27,0-6.74,2.1S544.11,751.9,542,749.8s6.32-5.9,6.32-5.9l10.53-8.85s-16.85,6.74-23.17,4.22-.84-5.9,4.22-8a56.57,56.57,0,0,0,12.21-6.74c4.22-2.95,6.74-.42,9.69-2.95s16.43-5.47,21.91-3.79,10.95,5.06,15.16,4.21,13.06-2.1,13.06-2.1S625.41,725.79,624.57,739.27Z" transform="translate(-72.71 -195.33)"/><path class="cls-5" d="M624.7,739.18c-.06-.08,0,0,0,0l.11.05a1.71,1.71,0,0,1,.23.13,1,1,0,0,1,.41.41.65.65,0,0,1-.06.65,1.5,1.5,0,0,1-.41.39,7.58,7.58,0,0,1-1.83.81c-1.25.38-2.53.61-3.75.92a21.48,21.48,0,0,0-6.82,3,26.72,26.72,0,0,0-2.9,2.36l-.71.64a6.17,6.17,0,0,1-.83.66,5.89,5.89,0,0,1-.9.55,9.7,9.7,0,0,1-.9.47,56.17,56.17,0,0,1-7.36,2.71,72,72,0,0,1-7.57,1.85,38.2,38.2,0,0,1-7.92.76,15.61,15.61,0,0,1-2.1-.22,8.54,8.54,0,0,1-1.11-.32l-.55-.18-.41-.17a16.34,16.34,0,0,0-3.4-1,22.92,22.92,0,0,0-7.16,0l.94-.74A18.61,18.61,0,0,1,567,757a13.14,13.14,0,0,1-4,3.09,8,8,0,0,1-5.2.65,10.83,10.83,0,0,1-1.17-.27l-1.08-.27-2.21-.49a21.19,21.19,0,0,1-2.36-.61,2.65,2.65,0,0,1-.8-.43,2.23,2.23,0,0,1-.26-.27,1.4,1.4,0,0,1-.22-.44,1.45,1.45,0,0,1,0-.92,2.26,2.26,0,0,1,.56-.79c.17-.17.34-.31.51-.45,1.32-1,2.63-1.72,3.92-2.53A42.5,42.5,0,0,0,562,748a8,8,0,0,0,1.29-1.69,5.06,5.06,0,0,0,.24-.46,3.28,3.28,0,0,0,.13-.32s0,0,0,.05a.34.34,0,0,0,.07.15.4.4,0,0,0,.29.17c.08,0,0,0-.07,0s-.3.12-.46.19c-1.32.65-2.71,1.38-4.11,2a40.17,40.17,0,0,1-8.81,2.74,25.51,25.51,0,0,1-4.63.48,11.35,11.35,0,0,1-2.37-.24,3.52,3.52,0,0,1-2.25-1.38,1.49,1.49,0,0,1-.18-.83,2.08,2.08,0,0,1,.22-.73,4.22,4.22,0,0,1,.78-1,13.14,13.14,0,0,1,1.86-1.5,33.76,33.76,0,0,1,4-2.32l-.15.1,10.35-9.07,1,1.6a82.43,82.43,0,0,1-13.66,4.4,28.18,28.18,0,0,1-7.36.77l-1-.1-.5-.06-.51-.13-1-.29c-.31-.13-.61-.24-.92-.4a6.65,6.65,0,0,1-1.84-1.26,3.47,3.47,0,0,1-.78-1.21,2.94,2.94,0,0,1-.12-1.63,4.49,4.49,0,0,1,1.27-2.2,11.7,11.7,0,0,1,1.58-1.3,25,25,0,0,1,3.27-1.85c.56-.27,1.12-.52,1.68-.76l1.59-.7q1.59-.71,3.12-1.5a54,54,0,0,0,5.88-3.58l1.45-1a10.26,10.26,0,0,1,1.81-1,10.71,10.71,0,0,1,4-.81c.61,0,1.18,0,1.63-.1a4.15,4.15,0,0,0,1.19-.33c.16-.12.34-.18.51-.33l.73-.54a6.67,6.67,0,0,1,.92-.56,8.14,8.14,0,0,1,.89-.44,35.14,35.14,0,0,1,7.09-2.16,50,50,0,0,1,7.24-1,26,26,0,0,1,3.74,0,16.51,16.51,0,0,1,1.93.26l1,.25.88.3c2.31.81,4.48,1.81,6.63,2.67a16.45,16.45,0,0,0,6.31,1.55L611.8,719h.05a.76.76,0,0,1,.45.08,26.18,26.18,0,0,1,5.28,3.57,22.65,22.65,0,0,1,4.17,4.73,18,18,0,0,1,2.53,5.74c.11.51.25,1,.34,1.53l.14,1.56a7,7,0,0,1,0,1.51Zm-.25.17-.09-1.57a8.58,8.58,0,0,0-.15-1.55l-.26-1.49c-.11-.49-.28-1-.42-1.44a17,17,0,0,0-2.76-5.27,24.23,24.23,0,0,0-9.21-7.29l.5.06-6.93,1.3-3.47.63-1.73.3-.88.16c-.34,0-.69.12-1,.13a18.46,18.46,0,0,1-7.41-1.5c-2.26-.83-4.42-1.74-6.59-2.43l-.8-.24-.73-.15a13.4,13.4,0,0,0-1.58-.17,26.71,26.71,0,0,0-3.34,0,47.4,47.4,0,0,0-6.76,1,34.85,34.85,0,0,0-6.42,2,7.62,7.62,0,0,0-.7.34,4.36,4.36,0,0,0-.59.36l-.25.17-.44.34a6.56,6.56,0,0,1-1,.61,7.05,7.05,0,0,1-2.2.64c-.72.09-1.34.09-1.91.12a7.48,7.48,0,0,0-2.89.55,8.48,8.48,0,0,0-1.28.7l-1.47,1a56.5,56.5,0,0,1-6.27,3.67c-1.09.54-2.19,1.05-3.29,1.52l-1.66.69c-.53.22-1.05.44-1.57.68a21.85,21.85,0,0,0-2.91,1.58,8.22,8.22,0,0,0-1.17.92,2,2,0,0,0-.55.78c0,.07,0,.07,0,.12a.73.73,0,0,0,.18.25,3.9,3.9,0,0,0,1.06.73c.22.12.47.22.7.33l.69.19.34.11c.13,0,.26,0,.39.06l.77.1a26.08,26.08,0,0,0,6.7-.53,91.21,91.21,0,0,0,13.43-3.76l.06,0a.94.94,0,0,1,.9,1.61l-10.72,8.63h0a.55.55,0,0,1-.14.09,31,31,0,0,0-4,2.06,11.5,11.5,0,0,0-1.72,1.32c-.49.47-.88,1.1-.67,1.38a1.75,1.75,0,0,0,.63.54,4.37,4.37,0,0,0,.94.36,9.51,9.51,0,0,0,2.15.24,23.13,23.13,0,0,0,4.45-.43,36.74,36.74,0,0,0,8.57-2.73c1.38-.62,2.66-1.37,4-2.09a4.72,4.72,0,0,1,.59-.26,1.52,1.52,0,0,1,.49-.08.75.75,0,0,1,.54.29.63.63,0,0,1,.12.28.75.75,0,0,1,0,.2,2.06,2.06,0,0,1-.21.76,5.52,5.52,0,0,1-.26.55,10,10,0,0,1-1.4,2A24.5,24.5,0,0,1,559.4,752c-1.23.93-2.48,1.81-3.74,2.67s-2.57,1.7-3.63,2.59c-.12.11-.24.22-.33.32s-.16.22-.11.13a.51.51,0,0,0,0-.35.49.49,0,0,0-.1-.19s0-.06-.06-.07.09,0,.22.07a20.55,20.55,0,0,0,2.08.42L556,758l1.14.23a9.27,9.27,0,0,0,1.07.2,5.91,5.91,0,0,0,3.66-.61,10.5,10.5,0,0,0,3.11-2.57,17.57,17.57,0,0,0,2.33-3.47l0-.06a1.3,1.3,0,0,1,.92-.68,23.42,23.42,0,0,1,8.14,0,18.22,18.22,0,0,1,4,1.17l.48.21.36.11a5.77,5.77,0,0,0,.73.22,11.62,11.62,0,0,0,1.71.19,38,38,0,0,0,7.38-.56c2.48-.38,5-1,7.4-1.58a54.89,54.89,0,0,0,7.16-2.31,9.06,9.06,0,0,0,.83-.38,4.76,4.76,0,0,0,.75-.4,12.25,12.25,0,0,0,1.45-1.11,27.82,27.82,0,0,1,3.2-2.32,22,22,0,0,1,7.41-2.64c1.29-.23,2.55-.37,3.78-.65a7,7,0,0,0,1.74-.57c.25-.14.45-.32.37-.48s-.14-.2-.24-.29l-.19-.12-.09,0A.61.61,0,0,1,624.45,739.35Z" transform="translate(-72.71 -195.33)"/><path class="cls-5" d="M561.8,720.07c3.76.27,7.48.59,11.22,1.07,1.88.25,3.68.54,5.54.74s3.71.4,5.57.54c-1.86.11-3.73.18-5.6.22s-3.77,0-5.61,0c-3.7,0-7.43.2-11.12.44Z" transform="translate(-72.71 -195.33)"/><path class="cls-5" d="M581.18,730c-2,.19-4,.32-6,.43s-4,.18-6,.23l-1.49,0a3.9,3.9,0,0,0-1.28.16,10.58,10.58,0,0,0-2.49,1.21,39.35,39.35,0,0,0-4.65,3.51l0,0-.13.08a31.43,31.43,0,0,1-3.39,1.22c-1.14.33-2.28.63-3.43.88s-2.31.47-3.48.64-2.33.32-3.5.41l3.38-1c1.12-.35,2.24-.67,3.34-1s2.21-.71,3.3-1.12a32,32,0,0,0,3.15-1.31l-.17.11a31.88,31.88,0,0,1,4.83-3.73,11.9,11.9,0,0,1,2.88-1.34,4.89,4.89,0,0,1,1.67-.15l1.49,0c2,0,4,.12,6,.23S579.19,729.81,581.18,730Z" transform="translate(-72.71 -195.33)"/><path class="cls-5" d="M581.6,740.53c-1.46.37-2.94.61-4.42.87s-3,.43-4.49.52l-1.13.06c-.36,0-.7,0-1,.11a7.09,7.09,0,0,0-2,.61,9.12,9.12,0,0,0-3.22,2.49l0,0a.63.63,0,0,1-.22.18,46.63,46.63,0,0,1-9.13,3.79,31.81,31.81,0,0,1-4.84,1,19.37,19.37,0,0,1-4.93,0,23.92,23.92,0,0,0,4.79-.76,43.09,43.09,0,0,0,4.61-1.42,72.17,72.17,0,0,0,8.78-3.95l-.24.21a10,10,0,0,1,3.86-2.88,8.33,8.33,0,0,1,2.34-.61,8.14,8.14,0,0,1,1.2,0l1.11,0c1.48,0,3,0,4.45-.08S580.1,740.57,581.6,740.53Z" transform="translate(-72.71 -195.33)"/><path class="cls-2" d="M402.56,669.76s-7.16,11.79-3.79,17.27,17.69,8.42,18.54,8-10.11-17.69-10.11-17.69l.84-9.27A4.86,4.86,0,0,0,402.56,669.76Z" transform="translate(-72.71 -195.33)"/><path class="cls-5" d="M402.65,669.82a26.37,26.37,0,0,0-2.78,6.83,25.71,25.71,0,0,0-1,7,7,7,0,0,0,.22,1.61,4.87,4.87,0,0,0,.57,1.44,9.93,9.93,0,0,0,2.29,2.5,22.11,22.11,0,0,0,6.42,3.46,32.37,32.37,0,0,0,7.17,1.63l.89.06h.42l.18,0s.13,0-.06,0-.32.29-.32.32a.85.85,0,0,0-.05.18s0,.07,0,.05l0-.12-.17-.36c-.13-.25-.28-.51-.43-.77-.6-1.05-1.26-2.09-1.9-3.14-2.57-4.21-5.35-8.32-7.84-12.6l0-.06a1.09,1.09,0,0,1-.14-.65c.17-1.55.4-3.08.67-4.62l.87-4.59.27.44a4,4,0,0,0-1.33-.36,3.9,3.9,0,0,0-1.44.12,4.22,4.22,0,0,0-1.33.61A7,7,0,0,0,402.65,669.82Zm-.18-.13a6.77,6.77,0,0,1,1.13-1.08,5.82,5.82,0,0,1,1.38-.77,5.18,5.18,0,0,1,1.57-.34,5.05,5.05,0,0,1,1.66.17.35.35,0,0,1,.26.34v.1l0,4.68c0,1.55-.07,3.11-.18,4.65l-.17-.71c2.8,4.12,5.25,8.44,7.65,12.82.59,1.1,1.15,2.22,1.66,3.39.13.3.25.59.36.91a5.07,5.07,0,0,1,.17.51c0,.1.05.19.07.33a1.19,1.19,0,0,1,0,.28,1.17,1.17,0,0,1-.07.29.86.86,0,0,1-.38.42,1.26,1.26,0,0,1-.52.1l-.29,0-.51-.07-.95-.19c-2.47-.58-4.83-1.37-7.2-2.18a42.2,42.2,0,0,1-7-3,10.16,10.16,0,0,1-3.07-2.59,7.17,7.17,0,0,1-1.26-4,16.27,16.27,0,0,1,2-7.48C400,674,401.22,671.86,402.47,669.69Z" transform="translate(-72.71 -195.33)"/><path class="cls-2" d="M417.31,656.28s-7.59,7.16-9.27,11.79-5.06,8.43-1.69,15.17,11.8,11.37,12.22,13.48,10.53-1.69,7.16-8.43-7.58-10.95-8-16.85S417.31,656.28,417.31,656.28Z" transform="translate(-72.71 -195.33)"/><path class="cls-5" d="M417.26,656.38c.12.09-.07.16-.12.27l-.25.29-.48.59-1,1.17-1.89,2.38a50.81,50.81,0,0,0-3.43,4.89,14.46,14.46,0,0,0-1.23,2.58c-.36,1-.79,2-1.19,2.88a20,20,0,0,0-1.8,5.46,10.43,10.43,0,0,0,0,2.79,13.25,13.25,0,0,0,.78,2.78,17.69,17.69,0,0,0,3.1,5.06,35.26,35.26,0,0,0,4.36,4.19c.77.65,1.57,1.29,2.37,1.92a13.06,13.06,0,0,1,2.33,2.22,1.89,1.89,0,0,1,.24.45l.1.26c0,.06,0,0,0,0s0,0,.18,0a3.19,3.19,0,0,0,1.19-.18,8.28,8.28,0,0,0,2.42-1.28,5.16,5.16,0,0,0,2.35-4.29,5.69,5.69,0,0,0-.81-2.42c-.47-.87-1-1.74-1.49-2.59-1-1.71-2.13-3.41-3.19-5.19a25.78,25.78,0,0,1-2.6-5.8,16.88,16.88,0,0,1-.53-3.23c0-1-.05-2.06-.06-3.09,0-2,.07-4.08.13-6.12,0-1,.1-2,.16-3.06l.1-1.53.07-.76,0-.38,0-.19a.22.22,0,0,1,0-.09S417.23,656.41,417.26,656.38Zm.09-.21a.47.47,0,0,1,.08.19v.11l0,.19,0,.38.07.76.13,1.52.25,3,.51,6.07c.08,1,.18,2,.29,3a13.66,13.66,0,0,0,.61,2.75,26.3,26.3,0,0,0,2.58,5.21c1,1.72,2.15,3.43,3.15,5.24.5.9,1,1.82,1.44,2.75a7.78,7.78,0,0,1,1,3.36,6.17,6.17,0,0,1-1,3.47,8.28,8.28,0,0,1-2.44,2.39,9.19,9.19,0,0,1-3.08,1.28,4.27,4.27,0,0,1-1.83.05,1.53,1.53,0,0,1-1.07-.76c-.05-.11-.1-.3-.12-.35l0-.1a.62.62,0,0,0-.09-.23,12.49,12.49,0,0,0-1.92-2.14c-.72-.7-1.48-1.38-2.23-2.07-1.51-1.38-3-2.76-4.41-4.29a24,24,0,0,1-3.69-5,12.13,12.13,0,0,1-1.53-6.25,16.62,16.62,0,0,1,1.85-6.12c.43-.92.87-1.82,1.21-2.73a16.17,16.17,0,0,1,1.55-2.84,34.14,34.14,0,0,1,4-4.75c.72-.74,1.47-1.44,2.24-2.12l1.15-1,.6-.49.3-.24C417.06,656.36,417.05,656.26,417.35,656.17Z" transform="translate(-72.71 -195.33)"/><path class="cls-2" d="M436.26,642.8a28.83,28.83,0,0,0-12.63,5.47c-8,5.9-6.74,20.64-8.85,26.54s5.9,6.32,8.42,13.06,5.06,9.27,9.27,4.64,1.69-10.54-2.1-15.17-1.69-10.11,1.68-12.64,13.9-.42,15.17,5.06-1.27,10.11-5.9,13.06-7.58,13.9-1.69,17.69,6.74,1.26,11-8.43,14.74-11.37,17.27-17.69-3.37-21.06-10.53-23.59S446.37,642.37,436.26,642.8Z" transform="translate(-72.71 -195.33)"/><path class="cls-5" d="M436.27,642.91a26.2,26.2,0,0,0-7.37,2.4,29.62,29.62,0,0,0-3.37,1.93,17.65,17.65,0,0,0-3,2.39,16.71,16.71,0,0,0-3.67,6.63,42.91,42.91,0,0,0-1.52,7.56c-.33,2.57-.5,5.17-.88,7.8-.11.65-.21,1.31-.36,2-.07.33-.16.67-.26,1l-.27.91a3.16,3.16,0,0,0,.47,2.9,14.17,14.17,0,0,0,2.66,2.46,25.48,25.48,0,0,1,3,2.72,12.09,12.09,0,0,1,2.28,3.57c.49,1.27.91,2.41,1.47,3.54a8.7,8.7,0,0,0,2,2.83,1.86,1.86,0,0,0,1.24.46,2.92,2.92,0,0,0,1.42-.49,9.76,9.76,0,0,0,2.57-2.48,7.12,7.12,0,0,0,1.28-3.29,12,12,0,0,0-1.86-7.09,24.21,24.21,0,0,0-2.18-3.18,9.46,9.46,0,0,1,1.55-12.77,5.21,5.21,0,0,1,1.81-1,11,11,0,0,1,4-.4,15.48,15.48,0,0,1,7.56,2.5,7.1,7.1,0,0,1,2.66,3.18,11.65,11.65,0,0,1,.59,4.07,12,12,0,0,1-3,7.55,16.27,16.27,0,0,1-3.07,2.73c-.3.21-.5.35-.73.54a8.6,8.6,0,0,0-.64.58,10.39,10.39,0,0,0-1.11,1.42,14.5,14.5,0,0,0-2.22,6.9c-.13,2.4.47,4.87,2.15,6.32a5.26,5.26,0,0,0,.65.49c.24.16.52.34.79.49a12.26,12.26,0,0,0,1.59.78,3,3,0,0,0,1.4.24,1.82,1.82,0,0,0,1.08-.57,11.67,11.67,0,0,0,1.87-3c.56-1.14,1.07-2.33,1.58-3.52s1-2.38,1.62-3.65a19.12,19.12,0,0,1,2.29-3.47,30,30,0,0,1,6.05-5.41,60.75,60.75,0,0,0,6.17-4.53,8.74,8.74,0,0,0,2.09-2.74,8.45,8.45,0,0,0,.68-3.35,23.71,23.71,0,0,0-1.24-7.34,30.44,30.44,0,0,0-3.19-6.87,14,14,0,0,0-5.28-5.18l-1.8-.77c-.59-.3-1.2-.57-1.77-.91-1.16-.63-2.26-1.36-3.35-2.07a33.68,33.68,0,0,0-6.82-3.71A20.41,20.41,0,0,0,436.27,642.91Zm0-.23a21.1,21.1,0,0,1,7.76,1.05,37.22,37.22,0,0,1,7,3.49,34.87,34.87,0,0,0,7,3.32,15.31,15.31,0,0,1,6.09,5.29,29.67,29.67,0,0,1,3.77,7.1,23.69,23.69,0,0,1,1.61,8,10.13,10.13,0,0,1-.79,4.27,11.27,11.27,0,0,1-2.56,3.48,60.16,60.16,0,0,1-6.37,4.81,28.22,28.22,0,0,0-5.6,5,17.53,17.53,0,0,0-2,3c-.55,1-1.06,2.3-1.59,3.48s-1.08,2.4-1.68,3.6a13.24,13.24,0,0,1-2.39,3.56,4,4,0,0,1-2.37,1.13,5.19,5.19,0,0,1-2.42-.4,13,13,0,0,1-1.9-1c-.3-.18-.57-.35-.87-.56a6.69,6.69,0,0,1-.89-.7,8.09,8.09,0,0,1-2.31-3.77,12,12,0,0,1-.39-4.23,16.39,16.39,0,0,1,2.72-7.77,12.16,12.16,0,0,1,1.35-1.63,9.14,9.14,0,0,1,.81-.71c.29-.22.63-.43.87-.59a14.74,14.74,0,0,0,2.86-2.35,10.63,10.63,0,0,0,2.92-6.6,10.84,10.84,0,0,0-.39-3.65,6.15,6.15,0,0,0-2.2-2.8,14,14,0,0,0-7.08-2.47,10.13,10.13,0,0,0-3.73.31,6.2,6.2,0,0,0-2.91,2.21,8.39,8.39,0,0,0-1.7,7,8.17,8.17,0,0,0,1.69,3.3,29.92,29.92,0,0,1,2.35,3.2,13.07,13.07,0,0,1,2.32,7.72,8.48,8.48,0,0,1-1.35,4,11.36,11.36,0,0,1-2.92,3,4.41,4.41,0,0,1-2.22.83,3.6,3.6,0,0,1-2.39-.73,9.84,9.84,0,0,1-2.63-3.4c-.63-1.2-1.14-2.49-1.61-3.65a10.1,10.1,0,0,0-1.93-3,25.18,25.18,0,0,0-2.8-2.49,15.71,15.71,0,0,1-3-2.9,5.27,5.27,0,0,1-.9-2.22,5.45,5.45,0,0,1,.22-2.33l.32-1c.09-.29.18-.58.25-.88.16-.6.28-1.23.4-1.85l1.24-7.72a43.82,43.82,0,0,1,2-7.67,17.4,17.4,0,0,1,4.18-6.74,20.11,20.11,0,0,1,3.22-2.33,28.12,28.12,0,0,1,3.47-1.85A27.53,27.53,0,0,1,436.26,642.68Z" transform="translate(-72.71 -195.33)"/><path class="cls-5" d="M433.31,634.79l-.84,45.5s5.48,3.79,0,12.22a101,101,0,0,1-.42,11.79L435,714.41,438,704.3s-.84-8.85-.84-11.79,4.21-9.69,4.21-9.69l.84-48.45S436.68,632.26,433.31,634.79Z" transform="translate(-72.71 -195.33)"/><path class="cls-2" d="M428.68,543.38l-1.26,69.08,28.22,1.27L456.91,543S443.85,532.84,428.68,543.38Z" transform="translate(-72.71 -195.33)"/><path class="cls-12" d="M428.68,543.38s12.22-11,28.23-.43" transform="translate(-72.71 -195.33)"/><path class="cls-12" d="M428.6,548s12.38-10.19,28.22-.42" transform="translate(-72.71 -195.33)"/><path class="cls-12" d="M428.51,552.64s12.56-9.43,28.23-.42" transform="translate(-72.71 -195.33)"/><path class="cls-12" d="M428.43,557.28a28.24,28.24,0,0,1,28.22-.42" transform="translate(-72.71 -195.33)"/><path class="cls-12" d="M428.34,561.91a30.74,30.74,0,0,1,28.23-.42" transform="translate(-72.71 -195.33)"/><path class="cls-12" d="M428.26,566.55a33.78,33.78,0,0,1,28.22-.43" transform="translate(-72.71 -195.33)"/><path class="cls-13" d="M427.42,583.78s12.21-6.7,28.22-.56" transform="translate(-72.71 -195.33)"/><path class="cls-13" d="M427.33,589.94s12.14-5.79,28.23-.56" transform="translate(-72.71 -195.33)"/><path class="cls-13" d="M427.25,596.09s12.05-4.86,28.22-.56" transform="translate(-72.71 -195.33)"/><path class="cls-13" d="M427.16,602.25s12-3.94,28.23-.56" transform="translate(-72.71 -195.33)"/><path class="cls-13" d="M427.08,608.41s11.88-3,28.23-.56" transform="translate(-72.71 -195.33)"/><path class="cls-13" d="M427,614.57a115.22,115.22,0,0,1,28.22-.56" transform="translate(-72.71 -195.33)"/><path class="cls-5" d="M428.68,589.29c-1.68-.42-16.35,2.5-15.59-5.89.85-9.27,32.44-10.11,44.24-8.43s16.43,4.21,15.58,8-8.84,3.79-16,3.79a27,27,0,0,0-.85-6.74s-9.69-7.17-28.22-.42C428.26,583.4,428.68,589.29,428.68,589.29Z" transform="translate(-72.71 -195.33)"/><path class="cls-12" d="M411.83,573.71s4.63-6.74,29.91-6.74c23.59,0,33.28,4.21,33.7,6.32" transform="translate(-72.71 -195.33)"/><path class="cls-12" d="M411.41,579.61s4.63-8,29.91-8c23.59,0,32.44,3.37,32.86,7.16" transform="translate(-72.71 -195.33)"/><path class="cls-10" d="M433.74,642.8s-16,0-25.7-6.74c-4.89-3.41-7.58-21.07,27.8-21.91,35.92-.86,40.4,14.37,37.07,18.53s-12.63,11-30.33,10.12a48.56,48.56,0,0,1,0-8.43l-9.27.42Z" transform="translate(-72.71 -195.33)"/><path class="cls-11" d="M421.1,632.68s-3.79-4.21,7.16-5.47,37.07-.42,34.12,3.37" transform="translate(-72.71 -195.33)"/><path class="cls-11" d="M429.52,638.16s-1.68-4.21,7.16-4.63,17.28,1.68,12.64,3.79" transform="translate(-72.71 -195.33)"/><ellipse class="cls-2" cx="521.8" cy="218.19" rx="2.05" ry="2.21"/></svg>