<svg id="Layer_1" data-name="Layer 1" xmlns="http://www.w3.org/2000/svg" viewBox="0 0 760.13 961.63"><defs><style>.cls-1{fill:#010101;}.cls-2,.cls-3,.cls-4,.cls-6,.cls-8{fill:#fff;}.cls-3,.cls-4,.cls-5,.cls-6,.cls-7,.cls-8{stroke:#010101;}.cls-3,.cls-4,.cls-5,.cls-8{stroke-linejoin:round;}.cls-3,.cls-5{stroke-width:2.93px;}.cls-4,.cls-6,.cls-7{stroke-width:1.47px;}.cls-5,.cls-7{fill:none;}.cls-6,.cls-7{stroke-miterlimit:10;}.cls-8{stroke-width:1.63px;}</style></defs><path class="cls-1" d="M516.1,613.79s57.18,28.59,76.9-3-43-114.36-73.94-155.76C446.11,357.47,505.26,139.6,732,157.34c213,17.75,225.76,284.91,108.45,335.19,22.67-19.72,16.76-89.71-38.45-91.68s-91.73,57.77-53.24,113.37c44.36,64.08,82.81,148.86,41.41,212s-117.32,120.27-212,61.12S516.1,613.79,516.1,613.79Z" transform="translate(-154.18 -58.28)"/><path class="cls-2" d="M864.11,456.06s83.79-152.81-37.47-227.74c-115.78-71.54-215.9,44.37-225.76,105.49s9.86,132.1,54.23,212S624.54,715.33,532.86,655.2c-8.87,4.93,11.83,63.09,11.83,63.09s50.28,61.12,140,16.76,75.91-142,28.59-210C677.13,473.11,672.46,354.48,748.76,322,802,299.3,883.82,325.92,864.11,456.06Z" transform="translate(-154.18 -58.28)"/><path class="cls-3" d="M383,340.71s-65.07,1-91.68-75.91c12.81,16.76,34.5,20.7,51.26,16.76C317,257.9,313,203.68,334.7,169.17c-11.83,33.52,3.95,59.15,25.64,64.08-10.85-34.5-18.74-96.61,10.84-135.06-12.82,22.68,0,81.83,27.6,91.69-8.87-21.69,1-95.63,82.82-130.14C449.06,86.36,453,178,482.58,178S502.3,139.6,502.3,139.6s21.69,32.53,3.94,47.32c30.56-5.92,69.5-54.22,32-104.5,69.5,50.28,36,132.1,26.13,139,25.63-6.9,43.37-3,50.28-13.8,2.95,12.82-16.76,42.39-31.55,47.32s-10.85,1-10.85,1S592.85,254,608.77,250c31.55-7.88,44.36,32.54,44.36,32.54s-12.81-5.92-31.54,6.9a103.11,103.11,0,0,1-38.45,15.77s18.73,52.25,54.22,48.31c-14.79,14.78-47.32,31.54-64.08,8.87C587.08,376.2,592,394,592,394s-29.57-7.89-30.56-27.61c-3,16.76,14.79,41.41,25.63,42.39-23.66,3.95-42.39-4.93-46.33-21.68,2,16.75,12.81,43.37,25.63,44.36-29.58,4.93-55.21-27.61-55.21-27.61s-7.89,22.68,3,28.59c-12.82,1-31.55-29.57-31.55-29.57Z" transform="translate(-154.18 -58.28)"/><path class="cls-1" d="M539.76,250a140.2,140.2,0,0,0,14.3,2.94,107.08,107.08,0,0,0,14.25,1.24l1.79.06c.59,0,1.18,0,1.78,0,1.18,0,2.37,0,3.56-.07,2.37-.21,4.76-.26,7.12-.63,4.8-.44,9.46-1.59,14.38-2.51a46.66,46.66,0,0,1-13.74,5.91,56.23,56.23,0,0,1-7.43,1.39,61.57,61.57,0,0,1-7.56.29,56.65,56.65,0,0,1-14.89-2.28A45.12,45.12,0,0,1,539.76,250Z" transform="translate(-154.18 -58.28)"/><path class="cls-1" d="M478.74,197.17a65.53,65.53,0,0,0,9.53-2.42,69.67,69.67,0,0,0,9-3.7,53.44,53.44,0,0,0,8.16-5,43.53,43.53,0,0,0,6.79-6.33l4.18,4.11a48.66,48.66,0,0,1-8.62,5.94,55.89,55.89,0,0,1-9.4,4,71.16,71.16,0,0,1-9.75,2.41A66.17,66.17,0,0,1,478.74,197.17Z" transform="translate(-154.18 -58.28)"/><path class="cls-1" d="M564,284.61A51.29,51.29,0,0,1,571.4,289a68.78,68.78,0,0,1,12.92,11.7,71.94,71.94,0,0,1,5.34,7.1l-5.16,2.79a65.46,65.46,0,0,0-3.75-7.31,63.12,63.12,0,0,0-4.69-6.87,65.1,65.1,0,0,0-5.6-6.28A50.14,50.14,0,0,0,564,284.61Z" transform="translate(-154.18 -58.28)"/><path class="cls-3" d="M392.87,1012.08h69l6.9-4.93s3-18.74-9.86-24.65-34.19-7.68-39.93-1C410.12,991.87,389.91,999.26,392.87,1012.08Z" transform="translate(-154.18 -58.28)"/><path class="cls-1" d="M463.85,998.27a17.68,17.68,0,0,0-2,6.81,12.31,12.31,0,0,0,.22,3.39,10.81,10.81,0,0,0,1.13,3l-2.7,1.15a13.28,13.28,0,0,1-.62-4,14,14,0,0,1,.53-3.84,17.64,17.64,0,0,1,1.39-3.49A18.09,18.09,0,0,1,463.85,998.27Z" transform="translate(-154.18 -58.28)"/><path class="cls-1" d="M391.39,1012.08l.49,6.9s51.29,2.64,67.53-1c3-.67,11.34-4.93,11.34-4.93v-6.9s-16.76,9.86-27.6,6.9S391.39,1012.08,391.39,1012.08Z" transform="translate(-154.18 -58.28)"/><path class="cls-1" d="M435.26,989.4a17.66,17.66,0,0,1,5.53-.74,21.77,21.77,0,0,1,5.53.78,15.21,15.21,0,0,1,5.17,2.47,7,7,0,0,1,3,4.88,11.73,11.73,0,0,0-4.19-2.91,38.6,38.6,0,0,0-4.76-1.62c-1.65-.46-3.33-.87-5-1.32S437,990,435.26,989.4Z" transform="translate(-154.18 -58.28)"/><path class="cls-3" d="M593,983.49c-1.44,1.43-2.47,11.33-2.47,17.74s-.49,7.89-.49,7.89l31.55.49,1.48-7.39s18.73,0,29.57,4.93,27.11,7.88,43.87,7.88,13.8-6.41,13.8-6.41a7.33,7.33,0,0,0-3.94-6.9c-4.44-2.46-22.18-5.91-35.49-11.83s-34-25.63-34-25.63S596.94,979.54,593,983.49Z" transform="translate(-154.18 -58.28)"/><path class="cls-1" d="M623.07,1002.22s-19.15.86-32.57,1.44a24.47,24.47,0,0,1-.46,5.46l31.55.49Z" transform="translate(-154.18 -58.28)"/><path class="cls-1" d="M700,1014.54c12.83,0,10.59-1.87,11.83-3-.62-.29-4.6,0-7.39,0-7.89,0-22.18,2.47-44.37-7.39-19.66-8.74-38.94-5.42-41.4-5.42s4.44,3.45,4.44,3.45,18.73,0,29.57,4.93S683.2,1014.54,700,1014.54Z" transform="translate(-154.18 -58.28)"/><path class="cls-3" d="M453,825.26s62.6-15.28,110.9-2.47c-45.84-50.28-61.61-84.78-83.79-80.35S453,825.26,453,825.26Z" transform="translate(-154.18 -58.28)"/><path class="cls-3" d="M418.5,707.45c.49,2.46,7.4,161.68,3.45,192.73s-1,36-8.38,47.32-2.46,39.44-2.46,39.44,11.83-7.89,17.74-8.38,29.09,1,31.55,6.4a167.34,167.34,0,0,0,8.38,14.79s4.44-5.91,3-11.83-3.95-4.93-1-12.81,2-18.74-1.48-24.65-1.48-89.71-1-132.6,5.91-61.12,21.19-49.29,51.27,88.23,62.6,113.37,32,65.07,31.55,74.93.49,38.94,6.41,39.92c7.39-10.35,12.32-15.77,24.15-18.23s25.14-10.85,27.61-9.37a67.94,67.94,0,0,1,6.9,5.42s-1-7.88-4-12.81S636.87,950,630,946s-13.31-30.56-17.26-37-6.4-15.77-9.36-25.14-15.78-33.51-18.24-39.43S494.9,681.82,493.92,680.34s-15.28-20.71-17.25-20.71S429.84,672,429.84,672Z" transform="translate(-154.18 -58.28)"/><path class="cls-1" d="M439.2,913.49a63.64,63.64,0,0,1-4.52,8.86,90.81,90.81,0,0,1-5.53,8.22,75,75,0,0,1-6.45,7.57,41.92,41.92,0,0,1-7.65,6.4l11.76-15.73c2-2.6,3.95-5.2,6-7.76S436.93,915.94,439.2,913.49Z" transform="translate(-154.18 -58.28)"/><path class="cls-1" d="M585.6,929.26a12.87,12.87,0,0,1,.82,3.48c.12,1.17.23,2.34.26,3.51a62.09,62.09,0,0,1-.2,7,64.12,64.12,0,0,1-1,6.89,40.4,40.4,0,0,1-1.89,6.77,47.42,47.42,0,0,1-.4-7c0-2.32.13-4.62.33-6.91s.47-4.57.82-6.85c.18-1.14.4-2.28.6-3.41S585.48,930.44,585.6,929.26Z" transform="translate(-154.18 -58.28)"/><path class="cls-1" d="M613.88,938.52a12.57,12.57,0,0,1,3.51.69c1.12.37,2.23.75,3.3,1.2a61.5,61.5,0,0,1,6.27,3.05,63,63,0,0,1,5.88,3.7,40.35,40.35,0,0,1,5.4,4.51,47.17,47.17,0,0,1-6.55-2.51c-2.11-1-4.15-2-6.16-3.14s-4-2.31-5.91-3.57c-1-.63-1.91-1.3-2.86-2S614.9,939.12,613.88,938.52Z" transform="translate(-154.18 -58.28)"/><path class="cls-4" d="M325.34,657.17c1.48,1,16.26,22.67,33.52,13.8s21.19-29.08,21.19-29.08Z" transform="translate(-154.18 -58.28)"/><path class="cls-3" d="M351.46,595.55c.5-2.46,33.52-91.19,38.94-108.44s23.66-30.56,23.66-30.56,4.93-16.27,24.65-19.23,45.35-3.45,64.57,3.95S530.4,461,539.76,471.83s45.35,72.46,45.35,72.46,25.14,54.22,19.22,66.54-17.25,12.82-26.12,6.9-48.31-77.38-48.31-77.38-7.88,66.54-4.43,98.58,29.08,82.32,54.22,126.19,33,83.3,33,83.3S566.38,838.57,557,844c-16.26-38-63.58-144.43-63.58-144.43L454,672,418.5,707.45l3.94,124.71s-16.26,3.94-18.23,8.87c-6.9-34.5-18.24-115.84-12.33-153.3s8.38-85.77,7.4-96.12a107.89,107.89,0,0,0-4.44-20.7L382,613.3Z" transform="translate(-154.18 -58.28)"/><path class="cls-1" d="M420.47,445.7c-3.16,7.44-6.48,14.77-9.6,22.17-1.59,3.67-3.07,7.4-4.5,11.12-.7,1.86-1.35,3.74-1.92,5.62a30.66,30.66,0,0,0-1.28,5.58l-.33-1c1.53,1.82,3.17,3.58,4.87,5.3s3.47,3.38,5.26,5c3.58,3.31,7.27,6.53,10.95,9.81-2.15-1.2-4.24-2.51-6.29-3.88s-4.06-2.81-6-4.32-3.88-3.07-5.71-4.75a59.31,59.31,0,0,1-5.27-5.36h0a1.36,1.36,0,0,1-.31-1c.48-4.36,1.94-8.15,3.39-12s3.18-7.47,4.92-11.13,3.65-7.21,5.62-10.74S418.26,449.09,420.47,445.7Z" transform="translate(-154.18 -58.28)"/><path class="cls-1" d="M426.88,624.14l-6.35-28.78c-2.13-9.58-4.34-19.14-6.78-28.62q-1.81-7.12-4-14.1-1.08-3.5-2.37-6.88c-.86-2.23-1.87-4.54-2.72-6.84-3.48-9.26-6.6-18.64-8.29-28.5v0a.89.89,0,0,1,.45-.92q4-2.21,8.08-4.36t8.17-4.21q-3.78,2.63-7.61,5.16c-2.55,1.69-5.12,3.35-7.69,5l.45-.95a128.66,128.66,0,0,0,4,14q2.31,6.95,5.08,13.74l2.79,6.82q1.37,3.49,2.49,7c1.52,4.72,2.76,9.5,4,14.28,2.36,9.57,4.3,19.23,6,28.91S425.76,614.37,426.88,624.14Z" transform="translate(-154.18 -58.28)"/><path class="cls-5" d="M435.26,440.77S418,469.36,423.92,522.11s1,134.07-2.46,158.23-25.14,66-17.25,160.69" transform="translate(-154.18 -58.28)"/><path class="cls-1" d="M361.81,344.65s4.93,4.93,7.89-19.71,0-63.1,28.59-84.29a44.41,44.41,0,0,0-7.39,14.29s12.32-23.66,34.5-30.56c14.79-1,42.39,6.9,51.27,26.13,0-5.43-4.44-17.75-4.44-17.75s14.29,16.27,12.32,27.11C489,253,489,241.14,489,241.14s13.31,23.17,6.9,32c0,0,11.83-7.39,7.39-17.75C518.07,273.18,522,289,522.51,295.85,531.38,288,552.08,274.17,559,288s-.49,39.92-29.57,39.92c4.44,17.75.49,40.42-14.3,61.13s-20.21,37.46-19.22,41.9c-11.34,8.38-42.39,43.87-42.39,43.87l-19.23-32.54s-6.9-24.15-37-38.94-37-27.6-41.9-37S361.81,344.65,361.81,344.65Z" transform="translate(-154.18 -58.28)"/><path class="cls-2" d="M440.68,215c-2,.5-30.07,18.74-38.45,52.75s-14.29,77.39-40.42,81.33c8.38,10.35,18.24,3,35.5-10.84s25.13-56.69,31.05-75.42,22.18-34.51,39.43-36.48" transform="translate(-154.18 -58.28)"/><path class="cls-2" d="M538.28,299.8c1,1.48,5.92,10.84,5.92,10.84s11.83-4.43,9.36-12.32S538.28,299.8,538.28,299.8Z" transform="translate(-154.18 -58.28)"/><ellipse class="cls-2" cx="223.91" cy="252.12" rx="12.32" ry="17.99"/><path class="cls-1" d="M390.4,310.4a26,26,0,0,1-.65,6,22.14,22.14,0,0,1-2,5.66,15.1,15.1,0,0,1-3.81,4.76,10.14,10.14,0,0,1-5.83,2.34,10.39,10.39,0,0,1-6.17-1.87,15.34,15.34,0,0,1-4.38-4.7,21.9,21.9,0,0,1-2.44-5.88,28.2,28.2,0,0,1-.8-6.27,24,24,0,0,1,3.23-12.16,15.26,15.26,0,0,1,4.38-4.71,10.37,10.37,0,0,1,6.18-1.86,10.17,10.17,0,0,1,5.83,2.33,15.11,15.11,0,0,1,3.81,4.77,22.1,22.1,0,0,1,2,5.67A26.48,26.48,0,0,1,390.4,310.4Zm0,0a26.33,26.33,0,0,0-.75-5.94,20.53,20.53,0,0,0-2.29-5.49,13.72,13.72,0,0,0-4-4.25,8.86,8.86,0,0,0-5.3-1.58,8.69,8.69,0,0,0-4.95,2.05,13.72,13.72,0,0,0-3.41,4.31,20.77,20.77,0,0,0-1.88,5.28,25.74,25.74,0,0,0-.62,5.62,25.11,25.11,0,0,0,.61,5.61,20.48,20.48,0,0,0,1.89,5.29,13.66,13.66,0,0,0,3.4,4.31,8.74,8.74,0,0,0,5,2.05,8.89,8.89,0,0,0,5.31-1.58,13.85,13.85,0,0,0,4-4.26,20.21,20.21,0,0,0,2.29-5.49A26.32,26.32,0,0,0,390.4,310.4Z" transform="translate(-154.18 -58.28)"/><ellipse class="cls-2" cx="298.58" cy="262.22" rx="20.95" ry="21.2"/><path class="cls-1" d="M473.71,320.5a22.44,22.44,0,0,1-5.89,15.14,21.78,21.78,0,0,1-31.19,1.05,22.49,22.49,0,0,1,0-32.39,21.79,21.79,0,0,1,31.2,1.06A22.44,22.44,0,0,1,473.71,320.5Zm0,0a20.41,20.41,0,0,0-6.3-14.74,20.15,20.15,0,0,0-6.84-4.25,19.73,19.73,0,0,0-21.38,5.31,20.33,20.33,0,0,0,0,27.37,19.7,19.7,0,0,0,28.23,1.05A20.41,20.41,0,0,0,473.71,320.5Z" transform="translate(-154.18 -58.28)"/><ellipse class="cls-1" cx="222.67" cy="254.09" rx="6.16" ry="6.65"/><ellipse class="cls-1" cx="298.83" cy="264.94" rx="6.9" ry="7.15"/><path class="cls-3" d="M361.32,257.9s29.41-2.54,34.24,9.38,2.33,12.19-8.09,10.33S374.07,260.56,361.32,257.9Z" transform="translate(-154.18 -58.28)"/><path class="cls-3" d="M490.47,274.66s-20.7-9.37-40.42-6.41S428.36,286,437.23,292.4s22.18-9.36,32.54-12.32S490.47,274.66,490.47,274.66Z" transform="translate(-154.18 -58.28)"/><path class="cls-6" d="M538.44,284.64l8.22-2.59c-1-3-3.46-4.11-6.68-4.56-4.67-.65-10.4,2.15-17.6,8.55-8.7,7.73-25.14,19.48-35.12,26.45-1.84-21.17-17.93-37.77-37.46-37.77-19.9,0-36.2,17.26-37.52,39-5.9-3.8-11-5.33-15.54-4.53-.23,0-.41.12-.63.16.1-1.36.15-2.73.15-4.13,0-23.46-13.07-41.84-29.76-41.84s-29.76,18.38-29.76,41.84,13.07,41.84,29.76,41.84c13.13,0,24-11.4,28-27.67a5.56,5.56,0,0,1,3.55-2.52c2-.36,6.5.21,14.66,6.82,3.06,19.67,18.49,34.7,37.06,34.7,19.06,0,34.81-15.82,37.28-36.26,8.63-5.95,29.79-20.75,40.49-30.26,8.39-7.46,11.41-6.64,11.44-6.63S538.76,285.14,538.44,284.64ZM366.5,335.35c-9.62,0-18.06-14.08-18.06-30.13s8.44-30.13,18.06-30.13,18.05,14.08,18.05,30.13S376.11,335.35,366.5,335.35Zm83.3,11.34c-14.3,0-25.94-13.52-25.94-30.13s11.64-30.13,25.94-30.13,25.94,13.51,25.94,30.13S464.11,346.69,449.8,346.69Z" transform="translate(-154.18 -58.28)"/><ellipse class="cls-1" cx="195.07" cy="300.05" rx="16.51" ry="17.38"/><ellipse class="cls-2" cx="190.39" cy="291.06" rx="8.38" ry="4.19"/><ellipse class="cls-2" cx="198.77" cy="299.69" rx="3.45" ry="2.71"/><path class="cls-2" d="M411.11,394c-1.8-1.28,29.08,2.95,37.95-18.73,7.4,17.74-2.46,30.06-16.76,20.21C426.88,396.41,414.56,396.41,411.11,394Z" transform="translate(-154.18 -58.28)"/><path class="cls-2" d="M437.73,369.3s16.75-6.9,20.7,9.86C458.92,367.82,451.53,363.39,437.73,369.3Z" transform="translate(-154.18 -58.28)"/><circle class="cls-2" cx="299.82" cy="261.24" r="2.46"/><circle class="cls-2" cx="222.43" cy="250.89" r="2.46"/><path class="cls-1" d="M424.91,471.83s25.14,23.66,67.53,1c-1.48,9.37.49,9.37.49,9.37s-38.45,15.77-68-3.94C422.94,477.25,424.91,471.83,424.91,471.83Z" transform="translate(-154.18 -58.28)"/><path class="cls-4" d="M435.75,445.21s3.45,13.8-2,17.75c9.86,2.46,17.25,8.38,17.75,13.8C453.5,470.35,443.64,454.08,435.75,445.21Z" transform="translate(-154.18 -58.28)"/><polygon class="cls-1" points="293.9 432.28 282.07 479.61 300.8 510.66 308.2 483.55 300.8 432.78 293.9 432.28"/><path class="cls-6" d="M483.57,505.84s-22.68,34.51-30.07,60.63c.49,51.26-1,107-1,107s30.07,23.66,42.39,26.61C458.43,584.71,483.57,505.84,483.57,505.84Z" transform="translate(-154.18 -58.28)"/><path class="cls-6" d="M414.06,713.36c-1.2,2.92,28.1-17.25,43.88-38.45-2.47-24.64-2.47-108.44-2.47-108.44l-31.55-48.8s3,55.7,3,76.9S428.36,678.86,414.06,713.36Z" transform="translate(-154.18 -58.28)"/><path class="cls-2" d="M493.43,474.29c-11.83,18.24-38.95,123.73.49,227.24-13.31-54.22-22.68-127.67,21.19-175.48C502.79,513.23,496.38,480.21,493.43,474.29Z" transform="translate(-154.18 -58.28)"/><path class="cls-1" d="M493.42,474.44c-1,2-2.1,4.21-3,6.46s-1.7,4.51-2.44,6.81c-1.48,4.59-2.77,9.25-3.92,13.93-2.36,9.37-4,18.89-5.47,28.43a392.28,392.28,0,0,0-4.08,57.7c0,9.65.31,19.31,1,29s1.88,19.24,3.48,28.77a285,285,0,0,0,15.56,55.77l-1.43.45c-1.92-7.44-3.71-14.92-5.27-22.45s-2.87-15.13-3.94-22.76a253.52,253.52,0,0,1-2.37-46.17,154.63,154.63,0,0,1,8.66-45.51,115.32,115.32,0,0,1,24-39.53v1.54a47.44,47.44,0,0,1-7.74-12.14,126.72,126.72,0,0,1-5.24-13.23c-1.52-4.48-2.8-9-4.06-13.57l-1.86-6.82-.95-3.4-.53-1.68C493.72,475.45,493.59,475,493.42,474.44Zm0-.29a14.33,14.33,0,0,1,.85,1.71l.61,1.67c.38,1.11.77,2.23,1.12,3.35l2.14,6.74c1.42,4.49,2.92,8.95,4.54,13.36a122.41,122.41,0,0,0,5.54,12.88,46.66,46.66,0,0,0,7.69,11.41,1.13,1.13,0,0,1,0,1.53h0a110.51,110.51,0,0,0-13.37,18.38,123.16,123.16,0,0,0-9.48,20.65,162,162,0,0,0-8.43,44.65,255.73,255.73,0,0,0,1.84,45.68c.92,7.59,2.12,15.15,3.49,22.68s2.92,15,4.66,22.5v0a.76.76,0,0,1-1.45.42l-2.39-6.88c-.39-1.14-.82-2.28-1.18-3.44L488.57,688c-.7-2.32-1.49-4.62-2.14-7l-2-7c-.67-2.33-1.18-4.7-1.79-7l-.87-3.53c-.29-1.18-.51-2.37-.78-3.56l-1.56-7.1-1.37-7.14c-1.71-9.55-3.21-19.14-4.2-28.8s-1.62-19.36-1.8-29.08a332.26,332.26,0,0,1,4.34-58.07c.36-2.4.8-4.79,1.26-7.17s1-4.76,1.47-7.14,1.09-4.74,1.63-7.1,1.17-4.72,1.85-7.05c1.25-4.7,2.78-9.31,4.45-13.88.85-2.28,1.76-4.53,2.76-6.75.5-1.1,1-2.21,1.61-3.27.31-.55.52-1.06.91-1.63S493.1,474.65,493.43,474.15Z" transform="translate(-154.18 -58.28)"/><path class="cls-2" d="M495.89,430.92c-1.55.11,6.9,28.59-3.45,40.91,2,10.84,8.87,24.64,8.87,24.64l17.26-10.35s2-22.67-.5-32S509.2,429.93,495.89,430.92Z" transform="translate(-154.18 -58.28)"/><path class="cls-1" d="M495.9,431c-.1,0-.13.32-.13.51s0,.44,0,.65c0,.44.08.88.14,1.31.11.87.24,1.74.38,2.61l.82,5.21a95.23,95.23,0,0,1,1.05,10.54,45.26,45.26,0,0,1-.8,10.63,21.71,21.71,0,0,1-4.54,9.72l.12-.44a72.15,72.15,0,0,0,3.41,12.59c.76,2.05,1.53,4.09,2.41,6.1s1.79,4,2.77,5.93l-.39-.11,17.09-10.62-.28.45c.35-5.55.6-11.13.58-16.69,0-2.77-.08-5.55-.26-8.31A35.49,35.49,0,0,0,517,453a45.68,45.68,0,0,0-6.9-14.91,19.39,19.39,0,0,0-6.15-5.42A15.4,15.4,0,0,0,495.9,431Zm0-.15a15.72,15.72,0,0,1,8.2,1.5,20.11,20.11,0,0,1,6.63,5.21,32.66,32.66,0,0,1,4.63,7.11,47.67,47.67,0,0,1,3.07,7.9,37.74,37.74,0,0,1,1.41,8.4c.22,2.81.27,5.62.23,8.43q-.12,8.42-.91,16.78v0a.59.59,0,0,1-.28.44l-17.42,10.08h0a.27.27,0,0,1-.37-.1h0c-1-2-1.84-4-2.7-6s-1.71-4-2.5-6.09-1.54-4.11-2.23-6.2a65.37,65.37,0,0,1-1.73-6.39.49.49,0,0,1,.1-.41l0,0a22.2,22.2,0,0,0,4.08-9.31,51.67,51.67,0,0,0,1.05-10.34,92,92,0,0,0-.45-10.49c-.16-1.75-.37-3.5-.6-5.24l-.34-2.62c0-.43-.1-.87-.13-1.31a5,5,0,0,1,0-.67,2,2,0,0,1,0-.34C495.68,431.06,495.68,430.89,495.89,430.84Z" transform="translate(-154.18 -58.28)"/><path class="cls-3" d="M493.92,430.92s4.44,27.11,0,40.42c-4.93,3.94-33,12.81-40.42,12.32C451,478.24,458.92,460,493.92,430.92Z" transform="translate(-154.18 -58.28)"/><path class="cls-4" d="M452.51,477.25s2.47-10.35,25.14-12.32c.5-4.44-3-14.3,3-20.21C460.4,455.07,450.54,467.89,452.51,477.25Z" transform="translate(-154.18 -58.28)"/><ellipse class="cls-1" cx="297.11" cy="427.11" rx="8.13" ry="11.09"/><ellipse class="cls-1" cx="293.9" cy="531.86" rx="3.45" ry="6.9"/><ellipse class="cls-1" cx="292.42" cy="568.33" rx="3.45" ry="6.9"/><ellipse class="cls-1" cx="292.42" cy="598.89" rx="3.45" ry="6.9"/><path class="cls-6" d="M566,598.88s14,27,39.93,5.55c7-19.6,8.87-23.66,8.87-23.66Z" transform="translate(-154.18 -58.28)"/><path class="cls-6" d="M595.22,521.61c-2-1.07-17.75-3.32-23.3,7.77s-5.54,24.77-21.07,29.94-30.31,11.46-21.07,27,21.07,36.6,29.94,12.94c4,3.09,13.44,1.73,19.47-.12,2.72,1.23,9.49-1.85,11-2.59,3.17,15.83,20.12,19.07,33.15,5.67s21.44-24.4,12.57-34.75-14.42-10-14.79-18.49-8.13-8.87-10.35-10C607.05,533.07,603.35,526.05,595.22,521.61Z" transform="translate(-154.18 -58.28)"/><path class="cls-1" d="M544.94,577.44a25.82,25.82,0,0,1,7.22,2.37,17.73,17.73,0,0,1,6,4.73,14.5,14.5,0,0,1,2,3.35,15.57,15.57,0,0,1,1,3.81,21.16,21.16,0,0,1-.73,7.76L559,599a19.66,19.66,0,0,0,1-7.24,14.6,14.6,0,0,0-.73-3.58A13.13,13.13,0,0,0,557.6,585a17.39,17.39,0,0,0-5.61-4.85A25.76,25.76,0,0,0,544.94,577.44Z" transform="translate(-154.18 -58.28)"/><path class="cls-1" d="M578.21,539a64.37,64.37,0,0,0,4.26,5.79,46.26,46.26,0,0,0,4.87,5.21,28,28,0,0,0,5.68,4.12,14.08,14.08,0,0,0,6.54,1.84,11.18,11.18,0,0,0,3.35-.44,28.67,28.67,0,0,0,3.25-1.26,10.5,10.5,0,0,0,5.16-4.24c1.06-2,.77-4.41,0-6.63s-1.87-4.39-2.81-6.61a58.28,58.28,0,0,1,3.46,6.37,12.06,12.06,0,0,1,1,3.59,7.05,7.05,0,0,1-.61,3.77,8.93,8.93,0,0,1-2.4,3,16.22,16.22,0,0,1-3.18,2,24.06,24.06,0,0,1-3.44,1.4,13,13,0,0,1-3.77.53,15.26,15.26,0,0,1-7.19-2.07,26.44,26.44,0,0,1-5.8-4.52A45.85,45.85,0,0,1,578.21,539Z" transform="translate(-154.18 -58.28)"/><path class="cls-1" d="M589.27,596.11a48.08,48.08,0,0,0,6.83-3.61,74.05,74.05,0,0,0,6.37-4.51c2-1.65,4-3.34,5.87-5.19,1-.89,1.83-1.86,2.74-2.8s1.75-2,2.62-2.93c-.83,1-1.63,2-2.48,3s-1.7,2-2.62,2.94a77.19,77.19,0,0,1-5.66,5.49,72,72,0,0,1-6.24,4.87,48.35,48.35,0,0,1-6.88,4.05Z" transform="translate(-154.18 -58.28)"/><path class="cls-1" d="M631.08,571.89a22,22,0,0,1-3.86-3.79,31,31,0,0,1-3.05-4.48c-.45-.78-.84-1.6-1.24-2.41s-.73-1.66-1-2.53a22.77,22.77,0,0,1-1.21-5.27c.79,1.63,1.47,3.26,2.27,4.83s1.58,3.14,2.45,4.66C627.15,566,629.06,568.91,631.08,571.89Z" transform="translate(-154.18 -58.28)"/><path class="cls-1" d="M592.63,555.26c-1.18,2.48-2.47,4.9-3.73,7.34s-2.65,4.82-4,7.21-2.8,4.73-4.28,7.06a54.14,54.14,0,0,1-4.94,6.72c-1.86,1.72-2.34,4.48-2.09,7a9.4,9.4,0,0,0,3.51,6.61,9.64,9.64,0,0,0,7.5,1.41,26.53,26.53,0,0,0,7.67-2.72,24.36,24.36,0,0,1-7.53,3.42,12.71,12.71,0,0,1-4.22.27,9.05,9.05,0,0,1-4.06-1.46,10.33,10.33,0,0,1-4.24-7.37,11.56,11.56,0,0,1,.24-4.34,8.94,8.94,0,0,1,.8-2.08,6.85,6.85,0,0,1,.62-1c.24-.31.54-.6.74-.82a54.61,54.61,0,0,0,4.84-6.48c1.54-2.26,3-4.58,4.47-6.88s2.92-4.64,4.35-7Z" transform="translate(-154.18 -58.28)"/><path class="cls-1" d="M572.29,555.75a7.86,7.86,0,0,0,4.88,2.13,17.94,17.94,0,0,0,5.37-.27c.88-.17,1.75-.4,2.62-.63s1.73-.52,2.57-.86,1.68-.63,2.51-1l2.45-1.14.61,1.34-2.59,1c-.86.33-1.76.58-2.64.87s-1.79.46-2.68.7-1.82.35-2.74.46a18.37,18.37,0,0,1-5.54-.09A8,8,0,0,1,572.29,555.75Z" transform="translate(-154.18 -58.28)"/><path class="cls-1" d="M559.35,568.2a8.61,8.61,0,0,1,1.3,3.64,9.57,9.57,0,0,1-.28,3.94,10.38,10.38,0,0,1-.76,1.86,8.57,8.57,0,0,1-1.17,1.62,8.4,8.4,0,0,1-3.15,2.24,24.53,24.53,0,0,0,2.24-2.93,11.7,11.7,0,0,0,1.43-3.19A18,18,0,0,0,559.35,568.2Z" transform="translate(-154.18 -58.28)"/><polygon class="cls-6" points="141.96 524.71 268.02 553.17 270.24 562.05 182.25 614.17 141.96 524.71"/><path class="cls-7" d="M332.36,664c1.11-1.11,90.58-51.76,90.58-51.76" transform="translate(-154.18 -58.28)"/><path class="cls-7" d="M307.59,603.69c1.11-.37,17.38-9.62,17.38-9.62l34,7.77L336.8,615.52l-29.21-8.14" transform="translate(-154.18 -58.28)"/><polygon class="cls-4" points="54.71 566.85 54.71 574.25 182.25 614.17 180.03 604.19 54.71 566.85"/><path class="cls-4" d="M159,536.4s-4.07,5.18-4.07,8.87,25.14,38.08,31.05,49.17,20,29.58,22.92,30.69,123.85,37.71,123.85,37.71l5.92-7.77s-46.58-83.92-51-86.5S164.15,537.14,159,536.4Z" transform="translate(-154.18 -58.28)"/><path class="cls-2" d="M163.41,545.64c1.11,0,117.93,28.47,117.93,28.47" transform="translate(-154.18 -58.28)"/><path class="cls-1" d="M163.41,545.64c9.93,1.93,19.78,4.23,29.64,6.46s19.68,4.65,29.52,7,19.64,4.82,29.44,7.32l14.68,3.78c4.89,1.32,9.78,2.58,14.65,3.94-4.95-1-9.87-2.16-14.82-3.24l-14.78-3.38c-9.85-2.28-19.67-4.67-29.51-7s-19.64-4.81-29.44-7.3l-14.7-3.74Z" transform="translate(-154.18 -58.28)"/><line class="cls-2" x1="133.45" y1="510.29" x2="129.39" y2="515.84"/><path class="cls-1" d="M287.63,568.57a5.89,5.89,0,0,1-.56,1.72,9.17,9.17,0,0,1-.88,1.48,8.77,8.77,0,0,1-1.15,1.29,5.63,5.63,0,0,1-1.48,1.05,6.1,6.1,0,0,1,.56-1.72,8.85,8.85,0,0,1,.88-1.49,10,10,0,0,1,1.15-1.29A6.22,6.22,0,0,1,287.63,568.57Z" transform="translate(-154.18 -58.28)"/><ellipse class="cls-8" cx="237.83" cy="598.77" rx="6.38" ry="16.64" transform="translate(-491.92 251.01) rotate(-41.64)"/><path class="cls-1" d="M221.45,628.46c-.8-1.83-1.6-3.67-2.22-5.59-.07-.24-.14-.49-.2-.75l0-.21v-.1a.36.36,0,0,1,.12-.27.85.85,0,0,1,.52-.15,9.74,9.74,0,0,1,1.55.12c1,.15,2,.34,3,.53,3.92.83,7.79,1.8,11.68,2.72l5.83,1.34,2.91.62c1,.2,2,.44,3,.69,3.89,1,7.72,2.13,11.56,3.24,7.66,2.28,15.3,4.64,22.92,7q2.85.9,5.72,1.75c.95.27,1.91.55,2.85.76a6,6,0,0,1,2.79,1.55,21.53,21.53,0,0,1,3.57,4.92,42.77,42.77,0,0,1,2.52,5.46,55.25,55.25,0,0,0-2.89-5.23,20.89,20.89,0,0,0-3.73-4.55,5.38,5.38,0,0,0-2.41-1.25c-1-.18-2-.43-3-.67-1.94-.49-3.87-1-5.8-1.54-7.72-2.11-15.37-4.43-23-6.67-3.83-1.14-7.66-2.27-11.49-3.31-1-.27-1.92-.52-2.87-.73l-2.94-.68c-2-.47-3.88-1-5.81-1.53-3.85-1.06-7.69-2.16-11.55-3.15-1-.25-1.93-.49-2.9-.69a8.23,8.23,0,0,0-1.43-.21c-.09,0-.25,0-.2,0a.12.12,0,0,0,0-.1v.07a1,1,0,0,0,0,.17c0,.23.09.47.14.71C220.15,624.67,220.81,626.57,221.45,628.46Z" transform="translate(-154.18 -58.28)"/><line class="cls-4" x1="129.76" y1="518.05" x2="179.3" y2="603.45"/><path class="cls-1" d="M317,616.75c3.62.66,7.21,1.49,10.81,2.26l10.76,2.5c7.17,1.71,14.29,3.56,21.41,5.51,1.77.51,3.53,1,5.3,1.64.45.17.88.31,1.36.53l.17.07.24.15a1.13,1.13,0,0,1,.27.22,1,1,0,0,1,.19.4,1.29,1.29,0,0,1,0,.34,1.53,1.53,0,0,1-.29.58,3,3,0,0,1-.28.32,19,19,0,0,1-2.26,1.79c-3.08,2.1-6.23,4-9.45,5.82s-6.43,3.59-9.67,5.34-6.51,3.44-9.82,5.06l9.47-5.68c3.16-1.88,6.32-3.76,9.45-5.7s6.28-3.83,9.25-5.93a17.43,17.43,0,0,0,2-1.65,1.54,1.54,0,0,0,.18-.2s.05-.11,0,0a.25.25,0,0,0,0,.17.52.52,0,0,0,.11.24c.06.07,0,0,0,0s0,0,0,0l-.15-.06c-.36-.16-.8-.31-1.22-.45-1.72-.57-3.49-1.07-5.26-1.56-7-2.06-14.18-3.89-21.28-5.83l-10.65-2.9Z" transform="translate(-154.18 -58.28)"/></svg>