<svg id="Layer_1" data-name="Layer 1" xmlns="http://www.w3.org/2000/svg" viewBox="0 0 659.91 1011.77"><defs><style>.cls-1{fill:#fff;}</style></defs><path d="M535.39,48.73c-1.87,6.21-5.77,12-9.19,17.47-5.5,8.56-10.56,17.14-14.31,26.63a126.16,126.16,0,0,0-8.43,38.24,63.37,63.37,0,0,0,1.41,17.37,189.44,189.44,0,0,1,24.72-15.86c8.83-4.81,18.49-10.31,28.34-12.52-1.92,4.43-5.65,7.38-8.88,11-8.76,9.25-16,19.43-20.6,31.4-2.43,6.16-2.22,13.47-1.91,20,3.6-1.73,7.31-4.61,11.27-5.3,2.29,1.42,4.21,3.23,6.73,4.31,8.16,3.5,16.22,6.64,25.09,7.74,11.14,1.5,21.86.13,32.8-2,9.07-3.55,16.46-11.69,20.17-20.59,2.17-5.14,1.3-9.92,1.24-15.28,1.47,1,2.76,1.73,3.3,3.54,2.25,6.64,2.33,14.21,2.29,21.15-.33,8.36-.76,16.56-3.92,24.35-3.91,14.91-11.08,28.61-20.21,41-1.46,1.93-2.9,3.87-4.24,5.89a70.1,70.1,0,0,0,19.66-16.48c3.87-4.86,5.46-10.47,8.37-15.79.8,1.38,1.85,2.25,1.54,4-.92,7.16-4.08,14.24-6.85,20.87A89.9,89.9,0,0,1,609.5,263.1c7.37,3.52,13.53,8.51,20,13.45,4.38,3.24,8.84,6.4,14.58,6,2.62,0,4.5-1.6,6.6-2.95,11.89-8.2,24.45-14.43,37.49-20.52,4.46-2.27,9.16-3.42,13.87-5.05a201.08,201.08,0,0,1,82.74-9.56,160,160,0,0,1,25.64,6.14c6.37,2.15,12.28,5,18.6,7.44,2.34.88,3.93,2.47,5.88,4-6.12-.16-11.28-2.51-17.31-3.58a166.06,166.06,0,0,0-31.1-3.4c4.87,1.75,9.95,2.81,14.83,4.52,19.35,6.3,38.07,17.15,51.62,32.5,10.39,12,17.53,27.21,23.12,42a99.5,99.5,0,0,1,7.12,22.77A234.28,234.28,0,0,1,890.41,403c.17,21.52-1.5,42.89-6.45,63.87a133.85,133.85,0,0,1-5.81,19.52c.35-6.68,1.16-13.7.77-20.43-.93-10.47-4.86-20.91-9.7-30.18-5.18-9.68-12-18.87-22-24-8.17-4.38-17.15-5.15-26.27-4.79-10.32.58-21.14,2.25-30.71,6.3-9.11,3.9-16.07,11.23-22.85,18.21-8.82,9.09-16,20-21.8,31.2a188,188,0,0,0-13.58,28.47c-5.48,13.44-7.76,28.71-9.53,43.06-.51,8.65-2.11,17.15-2.35,25.82a165.87,165.87,0,0,0,3.22,44.34c3.86,21,8.5,41.89,13.61,62.65,5.38,21.81,6.54,43.64,6.56,66a135.82,135.82,0,0,1-1.82,22.69c-2,9.84-6,18.51-10.78,27.27-2.23,4.68-5.6,8.25-8.52,12.48A81.2,81.2,0,0,1,692,821c-9.08,3.8-18,7.06-27.93,7.75-23.15,2.16-44.57-3.45-65.9-11.85a227.61,227.61,0,0,1-26-12c-5.21-2.89-10.2-6.17-15.5-8.94,6,8,12.31,16,18.76,23.67,4.37,5.29,9.82,9.52,14.11,14.85-2.69,1.31-5.39,2.61-8.11,3.85-21.15,8.95-42.85,16.19-64.68,23.25C532.29,892.88,544,926,560,957.16c5,1,10,2.13,15,3.24,1,9.55-.94,19-.22,28.65,1.51,1.54,3.84,2.69,3.95,5.08.46,4.24,3.18,8.06,5.65,11.43,7.23,9.34,17.79,13.1,24.41,22.6,2.42,3.14,3.24,6.71,4.63,10.31a33.47,33.47,0,0,0,4,3.73,84.65,84.65,0,0,0-1.84,10.63c-5,3-10.73,6.83-16.66,7.31a73.93,73.93,0,0,1-22.79-1.3c-6.09-1.25-11.71-3.85-17.76-5.29-5.1-2.12-6.75-6.44-8.9-11.08-1.71-4-4.63-6.64-7.46-9.74-.62-2.45-.24-5.23-.08-7.73a133,133,0,0,0,.24-22c.09-2.58-2.5-4.21-3.67-6.41-.31-5.81-4-11.43-6.41-16.67-1.78-4.16-5.33-7.57-6.67-11.83,2.3-2.48,5.87-4,8.8-5.69-15-23.71-28.67-48.14-44-71.59-3.29-5-6.73-10-10-15-.66-.85-1.23-2.15-2.24-2.61-3.7.73-7.31,2-11,2.86-8,2.16-16.16,3.64-24,6.14-9.16-9.94-13.28-21.83-19.5-33.62C415.83,834,408.68,819.14,402.3,804c3,39.89,4.77,80.82,10.11,120.37,1.44,10.14,2.9,20.48,5.61,30.37A62.78,62.78,0,0,1,432.79,960c-1.77,10.14-4.08,20.78-3.51,31.09.2,6.14,4.29,11.2,6.31,17.32,2,4.43,1.81,8.9,2,13.63,0,2.64,1.6,4.5,2.13,7a26.65,26.65,0,0,1-1.71,5.18c-35.65.22-71.31,1.09-107,1.52-1.46-.07-2.6,0-3.49-1.36a13.39,13.39,0,0,1-.72-11.54c2.93-7.85,10.1-13.14,17.5-16.47,11.12-4.72,24.55-4.3,36.2-7.74a44.76,44.76,0,0,0,5.63-2.59c-.88-1.91-2.08-3.54-2.11-5.67a25.39,25.39,0,0,1,6.2-1.93c-2.12-4.45-4-9-6.29-13.39-1.78-3.36-4.24-6.1-6.64-9a43.84,43.84,0,0,1,11.83-5.86c-6.78-23.64-10.69-48.18-15.59-71.86-.52-2.14-.85-4.82-2.33-6.52-16-17.71-31.89-35.73-46.06-55-2.76-3.93-5.77-7.87-7.85-12.19-.62-2.57,0-5.57.33-8.16,3.6-21.7,9.1-43.15,14.13-64.55,4.62-19.75,11.15-38.88,18.29-57.84,6.26-17.31,12.42-34.76,17.27-52.53-6-1.46-11.83-3.39-17.72-5.18-1.49,6.38-2.71,12.34-6.3,18-2.69,4.38-7.64,7.31-12.47,8.74a8.37,8.37,0,0,1-9-2.9c-4.42-6.08-7.42-12.64-10.64-19.37-4-8.3-9-15.89-12.68-24.34-4.4-10-8.75-20.31-14.27-29.73a21.6,21.6,0,0,1-2.71-6.39,145.46,145.46,0,0,0-6.47-19.42,251.84,251.84,0,0,0-15.76-33.29c-3-4.17,2.79-8.09.63-12.45-9.22-26.48-18.36-53.06-27.61-79.54-1.68-4.49-2.71-9.51-.81-14.1,1.59-3.22,5.07-3,8.13-4,18.48-4.44,37.16-8.53,55.52-13.39a10.29,10.29,0,0,1,8.16,3.49c1.48,2.69,2.13,5.9,3.1,8.81C314,431,321.76,456.2,329.35,480.74c.89,3.82,6.29,3.79,7.83,7.41,1.66,4.28-1.33,7.86-2.18,11.83a38.67,38.67,0,0,0,5.58,11.5c1.58,2.19,1.46,5.48,1,8-.87,3.14-3.94,5.71-6.42,7.65-7.24,6-16.22,10.09-25,13.2.73,2.77,1.64,5.73,1.61,8.61,0,2.3-1.2,4.7-2,6.85,2,.2,4,.41,6,.68-.12,2.1-.33,4.19-.58,6.28,7.92,4,16.36,4.79,24.78,7.19,1.36-1.18,2.74-2.31,4.15-3.42a19.43,19.43,0,0,1,5.51,6.15c2.21-.28,4.52-.09,6.68-.55,3.92-4,7.12-8.83,10.71-13.17,7.47-9.56,13.38-20.41,18.69-31.29,3.81-7.49,3.83-15.45,5.61-23.46a6.5,6.5,0,0,1,4.12-4.79c9-3.93,19.47-5.86,28.66-9.09-2.83-4.36-5.47-8.81-8.13-13.27-3.32-5.5-7.55-10.23-11.56-15.2.74-4.87,6.07-5.85,9.77-7.76,6.25-3.05,12.94-5.17,19.17-8.19-.68-2.1-1.47-5.83-4.26-5.85-12.74-2.12-25.21-7.75-36.77-13.33a29.4,29.4,0,0,0-5.09-1.37c-2.19,3.9-3.78,7.6-7.6,10.22-9.95,6.18-23.27,6.14-32.1-2.12-4.51-3.55-4.2-9.93.14-13.49,0,2.16-.49,4.4-.24,6.55,1.89,2.28,5.78,2.47,8.4,1.61,2.39-2.31,1.62-6.93,1.7-10a52.23,52.23,0,0,1-22-18.91c-2.8,1.13-5.31,2.29-8.43,2.08-4.55-.27-8.36-2.71-11.29-6.07a27,27,0,0,1-6.51-13.44,11,11,0,0,1,2.58-9c4.68-5.37,13.47-7.93,20-4.56,5.56,3.28,7.32,9.06,7.75,15.17,7.6-1.8,16.56-3.23,23-7.93a59.66,59.66,0,0,0,9.73-9.33c1.3-1.25.11-3.66-.11-5.2-2.46-8.29-2.54-16.5-2.92-25a30,30,0,0,0-22.54,1.72c-5.92,3.48-9,8.55-12.83,14-.25-5.61,3-11.48,5.23-16.54,2-4.89,5.57-8.44,9.6-11.73a80.08,80.08,0,0,1-45.41-39.53,14.31,14.31,0,0,1-1.47-7.31,55.11,55.11,0,0,0,24.43,16.36c5.68,2.11,11.14,1.82,17.11,2-2.08-2.63-4.28-5.16-6.3-7.84-4.1-5.41-7-11.56-10.56-17.43A92.77,92.77,0,0,1,316.66,237a216.9,216.9,0,0,1-.85-28c.64-14.66,1.09-28.58,5.59-42.7,2.58-8,5-16.92,9.86-23.78.37,6.12-.06,12.2.2,18.32.49,11.27,3,22.29,8.48,32.21a112.68,112.68,0,0,0,13.93,19.14c-.27-5.76-.69-11.27.27-17s1.94-11.27,3.16-16.85c1.74-7.78,4.94-14.65,8.17-21.87,2.52-5.53,6.09-10.3,9.57-15.44,2-2.61,3.16-5.26,6.83-5.6A44.06,44.06,0,0,1,380,141c-3.7,8.32-2.94,18.78-.84,27.43,1-9.7,3-19.17,7.19-28.05,1.85-3.56,3.38-6.94,6.88-9.18-.3,9.86-2.71,19.54-1.3,29.77a56.21,56.21,0,0,0,3.2,11.37c.06-9.39,1.86-18.26,4-27.33,5-15.76,14.13-30.37,25.19-42.62,5.08-6,11.07-9.93,17-15,8.71-7.75,20.34-13,30.75-18.25,16-7,32.47-13.38,49.44-17.59A75.19,75.19,0,0,1,535.39,48.73Z" transform="translate(-230.51 -48.73)"/><path class="cls-1" d="M531.83,51.78a116.42,116.42,0,0,0-13.14,17.91c-13,22.25-20.35,48.51-19.07,74.36A36.83,36.83,0,0,0,502,154.9c-6.6,7.25-11.57,15.77-13.7,25.4-1.06,4.94-1.55,10.5.25,15.32.77-4.63.38-9.23,1.3-13.84a51,51,0,0,1,8.49-19.43c9.08-12.56,21.42-20.86,34.84-28.17,5.58-3,11.18-6.05,17-8.54-8.4,9.45-17.37,18.39-22.3,30.25-4.16,9.78-6.87,21.36-4.92,32a107.54,107.54,0,0,0-12.29,13.83c-2.18,3-4.18,6.06-5,9.76,3.93-4.08,6.43-9.3,10.29-13.48,5-5.6,10.74-12.38,17.82-15.23,1.88-1.09,4.26.73,6,1.43,8.42,4.42,18.25,6,27.56,7.63,9.84,1.51,20.83,3,30.66,1.08A35.56,35.56,0,0,0,623,174a75.75,75.75,0,0,0,3.34-9.18,107.54,107.54,0,0,1-3.08,31.3c-1.61,7.42-5.38,14.56-8.71,21.42-6,11.42-11.31,22.29-20.13,31.87-8,9.23-17.08,17.22-28.91,21.15-6.66,2.28-12.9,1.91-19.78,3,14.86,3.14,29-3.25,40-12.83,3.15-2.49,5.69-6.32,9.45-7.58,11.22-4.72,20.93-12.36,28.92-21.49A111,111,0,0,1,612.6,252.6c-7.13,10.3-15.93,19.12-27.22,24.78-4.81,2.59-10,3.85-14.68,6.7a31.61,31.61,0,0,0,5.56-.91c11-3.49,20.4-9.9,28.61-17.87,8.74,3.34,14.87,9.2,22.28,14.56a31.91,31.91,0,0,0,23.55,5.92c4.69-.54,8.51-2.65,12.68-4.63a102.13,102.13,0,0,1-10.17,16.06c-4.52,5.67-8.71,11.06-14.68,15.32-4.36,3.06-9.1,6.1-14.14,7.88-7.7,2.78-16.22,4-24.36,4.59-6.14.53-12.2-.06-18.32.84A36.82,36.82,0,0,0,592,327.13c3.56.06,6.66-.61,10,.85,6.53,2.58,13.28,3.22,20.21,3.91-9.66,2.27-19.47,2-29.3,1.22-4.27-.29-8.47-1.69-12.68-1.31,4,3,8.7,2.13,13.24,3.5a103.33,103.33,0,0,0,12.17,10c8.89,6.72,19,11.86,30.28,12.7,5.46.53,10.23-.82,15.52-1.75-10.29,8.05-21.83,12.56-33.77,17.46-4.08,1-8.26,1.66-12.37,2.6-9.82,2.42-20.27,2.87-30.34,2.94-9.52,0-18.59-2.82-26.87-7.36a3.61,3.61,0,0,1-1.54-1.39c-.77-3.74-.57-7.61-1.35-11.37-1.45,3.22-1.09,6.4-.78,9.81,1.1,9.12,4.47,18.06,10.5,25.08,4.59,5.55,10.62,8.85,17.22,11.47-10,1.61-22.64.69-31-5.67-4.29-3-5.46-7.84-9.22-11.25.83,3.53,2.75,6.56,3.3,10.18A28.51,28.51,0,0,0,542,413c4.66,5.36,10.8,8.18,17.5,10.12-11.39,4.95-24.76,5.12-36.65,2a35.44,35.44,0,0,1-17.55-10.4A156,156,0,0,0,515,399a116.43,116.43,0,0,0,8.62-22.32c2.05-7.47,1.34-14.37,1.83-22a95.29,95.29,0,0,0,23.64-9.66,10.06,10.06,0,0,0,4.52-4.44c3-6.11,2-13.91.84-20.39-1.66-7.13-5.48-14.48-12.83-17-3.4-1.18-6.22-.08-9.41,1.05a74.88,74.88,0,0,0-23.06-29.52c-1.62-1.44-3.85-2.39-4.1-4.77-1.09-5.11-2.8-10-4.19-15.05-2.29-.72-4.59-1.4-6.89-2.08-1-3.46-1.41-7.58-3.27-10.67-8.24-3.21-18.08-3-26.78-2.45-11.52,1.57-23.81,3.58-34.38,8.61-.3,3.09-.53,6.2-.74,9.3-2.78-.17-5.57-.22-8.35-.23a64,64,0,0,1-3.9-16.42c-.54-5.45.31-10.78,0-16.24-1.87,6.29-1.79,13.29-.92,19.74.62,4.66,2.35,9,3.17,13.61-5.58-5.24-8.15-14.21-12.29-20.59,1.83,7.47,5.5,13.74,9.63,20.12-2.88.16-6.18,1.13-9,.57-3.41-2.52-5.95-7-9.54-9-4-.56-6.3-3.23-9.72-5-4.36,1-8.3,4.27-12.25,6.35a63.27,63.27,0,0,0-20.92,18.07,72.84,72.84,0,0,0-5.7,11.29c.28,2.58,2.29,4.9,3.69,7-.35,2-1.92,4.73-.54,6.53,3.24,5,7,9.78,10.7,14.52,2.14,2.9,5.43,4.53,5.86,8.09.59,5.54.22,11.19.43,16.76-10.09-2.71-19.84-.4-28.61,4.9a25,25,0,0,1,3.94-6.33c5.27-5.5,11.6-9.82,19.16-11.38-3.12-1.65-5.46,0-8.69,0-5.81-.4-11.44-2.85-16.46-5.67C325.66,307,313.87,298.37,306.61,285c3.95,3,7.6,6.15,12.17,8.24,8.51,4,18.83,6.23,28.1,3.87a29.48,29.48,0,0,0,6.92,6.12,23.55,23.55,0,0,0-4.12-5.87c-6.29-6.73-11.28-14.78-16.51-22.52C322.68,258.64,319.41,240,318.85,221c-.58-21.36.38-45.14,8.39-65.21a66.92,66.92,0,0,0,2.11,19.93A102.45,102.45,0,0,0,349.05,213c2.08,2.61,4.61,4.84,6.62,7.49,1.2,6,1.74,12,4,17.84,2,5.11,4,10.42,9.14,13.12-2.57-4.6-5.79-8.54-7.41-13.67-5.07-14.83-4.83-32.05-2.86-47.43,1.25-8.73,2.66-18.31,6.51-26.29a169.64,169.64,0,0,1,10.57-19.19,57.85,57.85,0,0,0,4.64,40c.95,1.94,1,4.15,1.32,6.28a79.85,79.85,0,0,0,4.73,19.65,18.08,18.08,0,0,0,3.61,5.71A40.54,40.54,0,0,0,388,210c-4.56-11.58-5.85-24.7-5.3-37.05.58-10.49,2.38-21.57,6.76-31.19-1.21,11.84-1.33,23.13,3.53,34.25,1,2.5,2.67,4.22,2.58,7a152.3,152.3,0,0,0,2.17,24.4,20.81,20.81,0,0,0,2.16,6.36c.1-4.2-.78-8.08-1.25-12.21a150.86,150.86,0,0,1-.19-36.41c1.51-11.1,5.75-21,10.8-30.88a151.72,151.72,0,0,1,27.66-36.35C444.3,90.68,452.23,83.52,461,78c12.4-7.69,26-11.63,39.73-16.19C511.13,58.55,521.37,54.81,531.83,51.78Z" transform="translate(-230.51 -48.73)"/><path class="cls-1" d="M463,243.25c7.57-.62,15.7-1.11,23.17.5-5.39,3.5-11.17,4.75-17.34,6.15-11.63,2.56-23.69,3-35.2-.46C442.75,245.67,453.23,244.26,463,243.25Z" transform="translate(-230.51 -48.73)"/><path class="cls-1" d="M488.4,244.13c2.07,4.37,2.87,9.22,4.56,13.79a60.27,60.27,0,0,1-62,7c.43-4.76.93-9.51,1.42-14.26a70.16,70.16,0,0,0,29.43,1.89C471,251.08,480.52,249.27,488.4,244.13Z" transform="translate(-230.51 -48.73)"/><path class="cls-1" d="M386.39,247.71c-3.11,6.77-8.56,11.75-13.86,16.82a93.26,93.26,0,0,1-19.58,14c1.47-3.91,2.93-7.6,6-10.58C367.13,259.87,375.94,252.7,386.39,247.71Z" transform="translate(-230.51 -48.73)"/><path class="cls-1" d="M388.24,247.56a42.89,42.89,0,0,1,6.84,5.62c-1.61,3.9-3.17,7.69-5.93,11a117.07,117.07,0,0,1-18.07,17,38.46,38.46,0,0,1-14.58,7.26c-1.44-2.5-3-4.93-4.51-7.37,6.31-4.05,12.72-7.64,18.37-12.64C377.34,262.16,384,256,388.24,247.56Z" transform="translate(-230.51 -48.73)"/><path class="cls-1" d="M397.18,252.31a60.78,60.78,0,0,1,7.73,8c1.15,5.43-1.32,10.83-4.1,15.39-2.49,5.45-6.53,9.26-10.89,13.22-5.8-3.31-12.71-5-18.34-.33-5.13,4.79-4.42,13.66-4.85,20.05-4.56-5.76-9.39-11.53-13-17.93,4.08-1.33,8-2.23,11.77-4.27,4.76-2.53,9.14-6.24,13.2-9.76,4.7-4.16,9.54-8.67,13.19-13.8A49.84,49.84,0,0,0,397.18,252.31Z" transform="translate(-230.51 -48.73)"/><path class="cls-1" d="M497.91,256.87a42.94,42.94,0,0,1,4.38,14,35.45,35.45,0,0,1-12.6,13.85c-5.21,2.64-10.71,5.34-16.58,5.86-4.2-1.25-7.24-4.23-12.12-3.92-3.89.22-6,2.58-9.22,4.26A53.25,53.25,0,0,1,435,286c-2.85-1.45-6.68-3.51-7.12-7a44.69,44.69,0,0,1,1.18-17.64c.43,1.84-.43,4.12,1.74,4.94,8.86,4.22,19.44,5.73,29.19,5.47a67.17,67.17,0,0,0,34.5-13.22C495.87,257.24,495.75,255.7,497.91,256.87Z" transform="translate(-230.51 -48.73)"/><path class="cls-1" d="M414,260.8a50.43,50.43,0,0,1-3.74,7.5,16.81,16.81,0,0,1-3.93,2.26c.34-2.82.66-5.65,1-8.47C409.54,261.53,411.77,261.17,414,260.8Z" transform="translate(-230.51 -48.73)"/><path class="cls-1" d="M416.07,260.71a50.9,50.9,0,0,1,8.37.22q-1.53,3.74-3.1,7.45c-3.12-.08-6.23,0-9.35.15C413.3,266.18,414.06,262.46,416.07,260.71Z" transform="translate(-230.51 -48.73)"/><path class="cls-1" d="M426.71,260.46a81.11,81.11,0,0,1-.42,9.09l-3.54-.83A38.74,38.74,0,0,1,426.71,260.46Z" transform="translate(-230.51 -48.73)"/><path class="cls-1" d="M426.92,271.84c-4.77.1-9.22-.87-14-.62-2.84.2-5.58,1-8.42,1.34C411,269.57,420.5,268.14,426.92,271.84Z" transform="translate(-230.51 -48.73)"/><path class="cls-1" d="M502.94,273c2.28,1.87,4.4,3.86,6.54,5.9A84.61,84.61,0,0,1,498,291.48c-2.86-1.62-5.74-3.21-8.67-4.69A46.51,46.51,0,0,0,502.94,273Z" transform="translate(-230.51 -48.73)"/><path class="cls-1" d="M425.07,274.93a45.89,45.89,0,0,0,.81,6.32c.74,2,2.59,3.63,3.94,5.22-1.76,10.8-2.91,21.66-5.08,32.39-2.61,13.4-5.95,27.74-13.67,39.21-5.65,8.52-13.33,14.68-21.87,20.13a79.79,79.79,0,0,1-18,8c-6.68,2.12-13.1,4.43-20.24,4-3.75-.28-7.48-.74-11.23-1,0-1,.06-2.05.06-3.07,8.53-1.16,16.66-3.63,23.92-8.33a58.56,58.56,0,0,0,21.94-28.08c6.62-17.11,6.48-37,7.21-55.05.27-2-.08-4.8,1.55-6.18a55.61,55.61,0,0,0,7.21-8.77c1.19-1.64,1.73-3.45,3.84-4.05C412,272.87,418.32,273.86,425.07,274.93Z" transform="translate(-230.51 -48.73)"/><path class="cls-1" d="M510.45,280.07c3,2.43,5.38,5.61,7.78,8.57a76.83,76.83,0,0,1-11.05,9.07c-2.62-1.86-5.28-3.66-7.94-5.46A104.22,104.22,0,0,0,510.45,280.07Z" transform="translate(-230.51 -48.73)"/><path class="cls-1" d="M487.81,287.7c3.93,1.39,7.61,4.3,11.25,6.31,3.16,1.86,6.16,3.49,8.3,6.59-4.25-1.71-7.28-4.71-11.14-6.94-3.83-1.9-7.79-3.39-11.51-5.51A22.92,22.92,0,0,1,487.81,287.7Z" transform="translate(-230.51 -48.73)"/><path class="cls-1" d="M381,288.8c3.33,0,5.76,1.57,8.52,3.17-.39,4.63-.95,9.24-1.35,13.88-3.24-2.7-6.41-4.9-10.86-4.61-3.75,1.49-5.52,4.53-7.71,7.67.09-4.91-.35-11,1.81-15.52C373,289.88,377.5,288.88,381,288.8Z" transform="translate(-230.51 -48.73)"/><path class="cls-1" d="M519.09,289.84a80.6,80.6,0,0,1,7,11.19,84.59,84.59,0,0,1-8.12,5.83,122,122,0,0,0-9.53-8.21A124.19,124.19,0,0,0,519.09,289.84Z" transform="translate(-230.51 -48.73)"/><path class="cls-1" d="M463.85,290.93a37.94,37.94,0,0,1,16.59,11.36c-3.86-.25-7.3-.93-11.15-.1-5.33,1-9.78,4-14.41,6.69-6.65,3.72-12.05,10-16.14,16.37-.32-4.36-.92-8.79-.81-13.16,2.57-7.16,8.27-13.4,14.44-17.72C456,292.15,459.32,289.52,463.85,290.93Z" transform="translate(-230.51 -48.73)"/><path class="cls-1" d="M741.92,297.38c20.38,2.16,40.43,8.2,59.08,16.62,8.18,4.12,16.61,8.52,23.85,14.16A137.83,137.83,0,0,1,852.4,356.6C860.63,368,866.51,380.73,871,394c1.7,5,2.73,10,4.72,14.91-2.86-3.37-5.37-7-8.22-10.4-5.76-6.16-12.27-12.32-19.84-16.16s-15.54-5.71-23.74-7.28c-8.81-1.61-17.94-3.1-26.9-3.25-7.6-.38-15.45,1.46-22.79,3.3-24.7,6.71-46.93,23.41-63.65,42.43-9.42,11.6-19,24.4-24.8,38.23a146.51,146.51,0,0,0-10.3,35.55c-4.37,24-3.46,49.51-.16,73.63A641.1,641.1,0,0,0,690,638.87c1.24,4.61,1.65,9.34,3.13,13.9A180.7,180.7,0,0,1,699,677c2.74,16.7,4.41,32.93,1.65,49.77a103.3,103.3,0,0,1-12.5,34.34c-8.76,14.84-23.16,25.59-38.91,32.1s-33.89,7.11-50.34,2.91c-8.95-2.55-18.23-3.21-27.19-5.76-7.24-1.85-13.79-5.38-21.07-7-1.78-.6-3.62-.5-4.63-2.32-4.27-6.51-8.33-13.17-12.4-19.8a86.09,86.09,0,0,0,9.73,3.5c6.45,1.74,12.39,4.5,19,5.76,13.12,2.7,26.56.62,39.36-2.72,9.39-2.71,18.66-6.27,25.38-13.68,8.14-8.81,12.51-21.62,14.92-33.17,4.24-20.71,1.59-43.08-3.33-63.46-5.56-23.54-11.33-47.24-19-70.2-3.28-11.33-6.24-22.71-8.67-34.26-4.12-19.28-8.86-38.59-11.7-58.11-3.08-22.62-4-45.11,0-67.68A193.05,193.05,0,0,1,614,380c4.62-2.12,9.58-3.4,14.09-5.88,10-5.2,20.68-10.45,29.29-17.72a16.85,16.85,0,0,0,5.19-6.78c-4.11,1.31-7.49,3.66-11.62,3.86-7.9.47-15.71.47-23.38-1.76,8.76-8.89,16.82-18.78,26.54-26.57,6.18-5.65,13.58-10.13,21-14.05a123.55,123.55,0,0,1,35.35-12.39C720.78,297.87,731.57,296.62,741.92,297.38Z" transform="translate(-230.51 -48.73)"/><path class="cls-1" d="M498.49,299.21l2.64,1.73c2.8,1.88,5.46,3.95,8.1,6.05-2.51,9.32-8.53,16.67-15.94,22.61,1.56-4,3.29-7.84,4.18-12.08C498.9,311.44,498.79,305.4,498.49,299.21Z" transform="translate(-230.51 -48.73)"/><path class="cls-1" d="M507.64,300.11c3.47,2.42,8.18,5.38,9.64,9.54a64.09,64.09,0,0,1-8.37-6.75C508.47,302,508,301.05,507.64,300.11Z" transform="translate(-230.51 -48.73)"/><path class="cls-1" d="M526.82,302.31,529,307.2c-1.92,2.13-3.79,4.3-5.66,6.47q-2.16-2.88-4.34-5.73C521.7,306.14,524.29,304.28,526.82,302.31Z" transform="translate(-230.51 -48.73)"/><path class="cls-1" d="M510.48,308.2a68.25,68.25,0,0,1,10.68,11c.79,2.67-.31,6.23-1.07,8.88A39.73,39.73,0,0,1,502,348.4c4.66-9.44,7-20,4.29-30.37C507.58,314.72,509.21,311.54,510.48,308.2Z" transform="translate(-230.51 -48.73)"/><path class="cls-1" d="M517.8,309.16a33,33,0,0,1,5.34,6.79,25.07,25.07,0,0,1-4.55-3.59C518.3,311.3,518,310.23,517.8,309.16Z" transform="translate(-230.51 -48.73)"/><path class="cls-1" d="M540.16,317.81c5.12,3.46,6.28,11.83,2.22,16.56-4,5.29-9.22,6.54-14.52,9.91.17-7.46.18-14.92-.33-22.37C531.11,318.94,535.26,315.44,540.16,317.81Z" transform="translate(-230.51 -48.73)"/><path class="cls-1" d="M452.53,321.49c4.6-2,11-.65,15.32,1.65,6,3.09,9,10.21,8,16.76-.64,3.85-1.52,8-3.56,11.4a14.58,14.58,0,0,1-15.13,6.57c-5.84-1.62-10.65-5.65-12.43-11.58C442,338,444.66,326.16,452.53,321.49Z" transform="translate(-230.51 -48.73)"/><path class="cls-1" d="M379.31,330c2.35-1.53,5.56.2,7.9,1-.49,2.87-1,5.71-1.61,8.55-2.4.67-5.51.72-6.93,3.11-2.53,4.12-.42,8.55.81,12.7A20.68,20.68,0,0,1,374,336.15C374.91,333.63,377.15,331.55,379.31,330Z" transform="translate(-230.51 -48.73)"/><path d="M455.35,336.29c4.51-1.46,10.49.1,13.16,4.2a9,9,0,0,1-.56,10.45c-2.36,3-6.71,5.36-10.61,4.61C449.2,353.82,447.36,339.36,455.35,336.29Z" transform="translate(-230.51 -48.73)"/><path class="cls-1" d="M443.44,369.88c2.76,1.91,5.72,3.29,7.32,6.36a24.36,24.36,0,0,1,1.63,18.27c-2.34,9.61-9.92,17.61-18,22.91a75.71,75.71,0,0,1-18.14,7.63c-7.62,2-14.84.36-22-2.33-2.95-1.19-5.58-3-8.54-4.18-1,5.41-2.89,10.39-6.94,14.25-3.37,3.37-8.14,4.47-12.76,4.61-7.19-.21-14.17-1.81-19.37-7.09,2.63.45,5.65,1.45,8.28.95a7,7,0,0,0,5.57-6.49c.36-3.89-.89-8.55,1.37-11.92a20,20,0,0,1,6.38-4.77C374,406.3,379,409.13,384,411.69c2.36-3.87,4.66-7.6,8.17-10.57,3.81-3,8.87-5.5,13.83-5.31a29.5,29.5,0,0,1,9.69,1.57A50.83,50.83,0,0,0,437,399.23c4-.64,8.69-2.77,10.78-6.47,2.42-3.74,2-9.08,1.59-13.33C448.72,375.27,446.1,372.85,443.44,369.88Z" transform="translate(-230.51 -48.73)"/><path class="cls-1" d="M327.18,372.79c3.18,1.52,4.05,4.35,5.17,7.43A28.32,28.32,0,0,0,321,373.6l1.39-.47C324,372.67,325.55,372,327.18,372.79Z" transform="translate(-230.51 -48.73)"/><path class="cls-1" d="M487.59,377.45a10.33,10.33,0,0,1,5.24,5.74,24,24,0,0,1-1.1,20.54c-4.42,6.19-11.68,10.42-18.47,13.54-7.57,3.33-14.93,6.39-23.26,7.13-7.66.62-15.37.86-23.06,1,6.31-3.17,13-5.56,19.25-9.19a69.94,69.94,0,0,0,10-8c7.74-7,12.84-17,16.39-26.69a4.86,4.86,0,0,1,2.1-2.83C478.41,376.46,483.59,375.43,487.59,377.45Z" transform="translate(-230.51 -48.73)"/><path class="cls-1" d="M549.09,376.74a70,70,0,0,0,23.52,7.46c-1.79,5.27-3.45,10.62-5.54,15.79A42,42,0,0,1,549.09,376.74Z" transform="translate(-230.51 -48.73)"/><path d="M486.64,390.22c-1.12,4.55-4.59,6.73-7,10.31a42.66,42.66,0,0,1-4,11.25c-1.43-1.58-2.83-3.19-4.27-4.76-3.46,2.57-7,4.83-11.28,5.78,2.54-2.63,6.39-4.06,9.56-5.88-.51-1.09-1-2.19-1.48-3.3a39.31,39.31,0,0,1,7.6,5.41,34.42,34.42,0,0,0,2.38-11.29c3.34-.49,4.36-3,6.31-5.33C485.13,391.66,485.87,390.92,486.64,390.22Z" transform="translate(-230.51 -48.73)"/><path class="cls-1" d="M299.09,397.86c2.44,1.11,2.66,3.28,3.49,5.55,8.09,26.48,16.36,52.91,24.44,79.4-3.49,1.32-6.93,2.86-10.64,3.44-4.25.64-8.71.49-12.94,1.31-2.24.44-3.55,2.31-4.9,4a84.1,84.1,0,0,1-10.66,11.42,63.55,63.55,0,0,0,3.33-9.77c1.13-4.37,1.62-8.65,5-11.94,4.14-4.32,7.74-8.77,9.21-14.71a17.86,17.86,0,0,0-2-14.85c-1.69-2.69-5.05-4.15-8-2.6-1.89,3.41-2.48,7.45-4.41,10.87-2.33,4.1-5.87,6.85-8.72,10.29-2.07,3.32-3.4,7-5.79,10.22-2.95,4.22-6.92,6.34-8.88,11.09-1.69,4.25-2.88,8.66-4.83,12.82C253.3,478,244.37,451.42,235.08,425c-1.42-4-2.58-7.93-1.05-12.08.82-1.55,2.29-1.53,3.79-2,17.56-4.15,35.13-8.28,52.67-12.51C293.38,397.85,296.31,396.17,299.09,397.86Z" transform="translate(-230.51 -48.73)"/><path class="cls-1" d="M540.46,404.74c3.1,1.22,5.89,2.74,9.15,3.55,5.44,1.39,10.71,1.19,16.25.83-1.09,4-1.94,8-2.88,12C553.64,418.9,544.74,413.65,540.46,404.74Z" transform="translate(-230.51 -48.73)"/><path d="M240.36,416.17c3.44-1.16,7.7-.23,9.39,3.24,1.95,4.29-1.6,10.25-6.66,9C237.56,427.05,236.32,419.76,240.36,416.17Z" transform="translate(-230.51 -48.73)"/><path d="M256.8,416.19c.3,1.72.89,3.89-1,4.9-2.05,1.34-5.36-1.47-3.49-3.67C253.33,415.22,254.88,416,256.8,416.19Z" transform="translate(-230.51 -48.73)"/><path class="cls-1" d="M503.74,416.56a36.38,36.38,0,0,0,22.55,14c12.7,2.41,23.73-1.43,35.6-5.22-1.27,12.54-2,25.09-2.59,37.68a276.4,276.4,0,0,0,3.08,49.78c.81,5.64,2.57,11.06,3.47,16.67-5.13-6.74-9.61-14-14.11-21.2-2.4-3.67-1.91-7.41-3.41-11.54-2.06-5.57-5.4-11.22-10.17-14.9a36.49,36.49,0,0,0-13.85-7c-4.71-1.07-9-.39-13.72-.07.79-13.25,4.71-25.45,6.89-38.46a34,34,0,0,0,.35-6.05,23.51,23.51,0,0,0-6.8-.39c-7.77.78-15.53,1.57-23.33,2.05A111,111,0,0,0,503.74,416.56Z" transform="translate(-230.51 -48.73)"/><path class="cls-1" d="M511.6,433a95.92,95.92,0,0,1-10.49,9.14c-6.26,4.44-12.29,8.84-19.57,11.5,1.74-6.4,3.78-12.72,5.76-19.05A191.67,191.67,0,0,0,511.6,433Z" transform="translate(-230.51 -48.73)"/><path d="M279.21,433.13c-.29,4.14-.61,5.2-3.79,7.91a18.38,18.38,0,0,1-.17-4.68C275.68,434.41,277.7,434.07,279.21,433.13Z" transform="translate(-230.51 -48.73)"/><path class="cls-1" d="M515,435.24c-2.42,13.94-7.25,27.11-8.41,41.34-12.35,3.31-23.84,7.85-35.89,12.09s-24.16,8.24-35.92,13.49c-8.33-13-15.88-26.45-24.45-39.27a122,122,0,0,0,17.16,1.61c0,3.12-.28,5.94,1.2,8.82a28.23,28.23,0,0,0,17.92,13.82c-1.38-3-3.47-5.51-2.75-9,1.09-5.13,6.21-9.2,9-13.65,3.24,3.3,5.92,6.49,10.79,7.23-1.47-3-3.26-5.9-4.67-9a121.09,121.09,0,0,0,24.21-6.51c8.26-3.39,15.42-9.22,23-14A62.44,62.44,0,0,0,515,435.24Z" transform="translate(-230.51 -48.73)"/><path class="cls-1" d="M440.05,436c1.85.25,3.52,1.93,5.22,2.71,5.49,3.64,13.83,1.6,19.53-.58A28.81,28.81,0,0,0,455.85,452c-1.27,5.59,1,9.76,2.07,15.06-1.42-2-2.91-4-3.49-6.38-.6-2.82-.67-5.64-1.72-8.37-.95,4-.83,8-2.81,11.57-2.22,4.05-6.42,5.61-8,10.08-1.32,3.36-.43,6.27,0,9.68-5.54-3.14-10.3-7.41-11.81-13.84-.57-2.39.11-4.53,1.08-6.69a42.08,42.08,0,0,0,4-14.18c.15-3.41-1.11-6.26-2.42-9.32A52.72,52.72,0,0,1,440.05,436Z" transform="translate(-230.51 -48.73)"/><path d="M279.42,439.27c1.94-1.28,3.76-.52,5.92-.46a34,34,0,0,0-.9,6c.42,2.41,3.44,4,5.21,5.39-.59,2.6-.63,6.78-4,7.23a28.1,28.1,0,0,0-8.63,3.21c-4.46-2.14-8.57-5.39-8.93-10.71-.17-2.79.64-7.56,4.11-7.95A21.27,21.27,0,0,0,279.42,439.27Z" transform="translate(-230.51 -48.73)"/><path class="cls-1" d="M297.24,450.49c1.59.45,3,.9,3.86,2.44,3.88,6.68,2.16,15-2.23,20.95-2,2.75-4.8,4.5-7,7-2.34,5.84-3.07,12.53-5.62,18.32-2.2,5.34-5.45,9.93-7.32,15.43,4.44-2,8-5.84,11.58-9.14,4.82-4.72,10-9.48,14-14.91a74.46,74.46,0,0,0,21.2-3c2.32-.62,4.5-1.61,6.78-.23,1.6,3.26,2.67,7.18.12,10.29-2,1.76-4.82,2.66-7.16,3.87-4.53,2.21-9.45,2.09-14,3.84a13.59,13.59,0,0,0-3.08,4c-2.8,4.77-5.85,9-7.65,14.29,4.26,1.55,8.43.82,12.66-.37a73.25,73.25,0,0,0,21.84-11.4c1.46,1.55,3.53,2.78,3.35,5.17.07,5.48-5.67,8.17-9.4,11.11a81.79,81.79,0,0,1-23,10.22c1.54,5.85,2.39,11.64.74,17.59-1,4.86-4,8.22-6.06,12.57,4-2.15,5.29-6.23,7.15-10.11l4,.69c-1.6,5.33-3.76,11.07-3.83,16.67,2.27-3.12,2.65-7.46,3.75-11.19,8,4.71,16.21,5.36,25,7.53a27,27,0,0,0,9.36.24c2.89,5.62,3.72,11.62,4.2,17.84.48,8.85.31,17.58-2.13,26.16-1.32,7.83-2,15.22-5.27,22.65A20.65,20.65,0,0,1,330,650.42a5.62,5.62,0,0,1-6.08-2.33c-5.28-7.14-8.48-15.65-12.62-23.35-2.88-5.5-6.06-10.68-8.68-16.3-4.54-9.73-8.57-19.86-13.74-29.28-1.33-2.6-3.66-5.18-4.05-8.08-2.19-13.37-7.76-25.23-13.49-37.36a98.24,98.24,0,0,0-10.36-17.55c2.55-5.12,4.38-10.47,6.44-15.78,1.21-3.08,2-6.55,3.61-9.41,1.6-2.55,4.2-4.56,6.15-6.87,3.33-3.81,5.06-8.22,7.67-12.34,2.15-2.79,5.3-4.68,7.33-7.65C295.21,459.91,295.53,455.23,297.24,450.49Z" transform="translate(-230.51 -48.73)"/><path class="cls-1" d="M433.37,450.39a86.7,86.7,0,0,1-4.84,11.36c-5.93-.18-11.83-.59-17.73-1.17C418.25,456.91,425.4,452.91,433.37,450.39Z" transform="translate(-230.51 -48.73)"/><path class="cls-1" d="M517,476.94c6.61-.53,13.46,2.4,18.58,6.43,6.16,5,8.93,12.54,11,19.91,1.39,4.69,1.7,9.57,3.34,14.14.26-2.11.36-4.23.43-6.35,9,15,19.35,29.26,28.08,44.46,3.61,6,8.21,11.16,12,17,5.36,8,10.45,16.23,15.62,24.38,2.44,3.9,5.27,7.6,7.53,11.6a6.28,6.28,0,0,1,.6,5.29c-1.56,2.38-4.57,4-7,5.44-7.1,4.11-14.16,8.32-21.45,12.11-3.65-7-9-12.18-14.78-17.4a70.54,70.54,0,0,0-8.68-6.59c1.86-2.31,3.58-4.7,5.23-7.17a67.5,67.5,0,0,1-4.09-7.09c6.76-2.67,14.37-3,20.87-6.17-6.85-.92-14.1,1.55-20.86.76-5.51-7.18-11.69-13.72-17.87-20.31a126.37,126.37,0,0,0-26.51-23.52c-4-2.74-7.28-5.76-11.77-7.75,2.11,2.66,4.76,4.52,7.39,6.61q-.86,2.35-1.69,4.71c-9.47-3.11-19.09-5.38-29.13-5,8.15,1.36,15.58,4.6,23.46,7-3.57,7.49-7.13,15-10.33,22.64a290.27,290.27,0,0,0-18.12,61.78c-1.16,6-1.94,12.11-2.53,18.17-.36,3.27.38,7.31-1.17,10.23-2.93,5.74-7.51,10.71-10.72,16.26-3.39,6.77-8.79,12.41-13.31,18.71-7.71,10.86-17.95,19.55-26.18,30A133.66,133.66,0,0,0,437,716c11.2-11.8,22.16-24.15,31.46-37.53,3.31-4.9,7.24-9.31,10.4-14.33l3.07,3.21c-3.47,4.22-8.62,7.15-11.55,11.68.07,4.44,3,9.09,5.07,12.91A284.37,284.37,0,0,1,459.8,718.8c-5.46,8.43-11.77,16.49-16.86,25.15a184.77,184.77,0,0,0,15.6-20.41c2.91-4.38,6.5-8.16,9.62-12.38,3.53-4.75,6.88-9.64,10.43-14.38,9.09,11.55,17.16,23.89,26,35.6,2.17,2.77,3.93,6.2,6.59,8.52a49.12,49.12,0,0,0,5.69-.11c6.39,10.32,13.22,20.35,19.69,30.62s12.82,21,20.72,30.27c8.54,10.78,16.72,21.69,26.6,31.32-15.42,6.69-31.27,13.41-47.22,18.64-5.64,1.62-11.18,3.55-16.8,5.19-13.15,3.66-25.68,8.84-39,12-7.32,1.67-14.65,3.13-21.87,5.23-4.63,1.24-9.3,2.91-14.06,3.61-1.33-.74-2.27-2.23-3.2-3.42C430.71,858.42,424,841.58,415,825c-8.92-17.72-15-36.69-23.49-54.5-7.12-18-11.09-36.48-17.32-54.66a24.49,24.49,0,0,1-.63-4c-1.16-15.52-.84-31.3-.42-46.87a85.21,85.21,0,0,1,.79-13.36c1.67-11.17,2.26-22.13,4.42-33.23.47-2.56,1.17-4.89.53-7.52-3.42,9.3-3.58,20.09-5.32,29.82A138.43,138.43,0,0,0,371.61,666c-.53,14.35-.7,28.62.13,43,.23,3.12.08,6.42.84,9.46q6.33,23,13,46c.33,1.43,1,3.12.64,4.57-2.05,9.36-4.73,18.61-6.35,28.06-3.49,18-6.6,36.58-6.82,55-.57,9-.05,18,.41,27a535.08,535.08,0,0,1-47.87-56.62c-1.44-2.36-3.93-4.68-3.27-7.66,6.19-46.24,15.89-91.31,32.32-135.07,5.81-15.9,10.92-32,15.85-48.17a93.68,93.68,0,0,0,7.56-24,18.66,18.66,0,0,1,1.2,2.51c1.66-4.34,2.09-9.18,3.1-13.7,2.77-13.47,5.26-27.45,9.54-40.46,3.61-11.37,7.2-23.26,11.49-34.35a209.6,209.6,0,0,1,28.09-16.05c12.5-6.06,25.16-10.1,38.24-14.78,11.82-4.12,23.68-8.83,35.72-12.17A54.35,54.35,0,0,1,517,476.94Z" transform="translate(-230.51 -48.73)"/><path class="cls-1" d="M425.81,492.62q3.17,5.37,6.38,10.7c-9.81,4.8-19.68,10-28.64,16.25-3.81,2.5-4.32,6.17-5.88,10.1-3.65,9.64-6.55,19.48-9.65,29.3-4.46,14.36-7.77,28.89-11.49,43.55-1.89,8.42-5,16.73-7.73,25-4.64-.84-9.15-2.14-13.68-3.42A75.4,75.4,0,0,0,356.34,611c-.15-10.71-1.09-21.33-4.5-31.54,10.06,6.37,14,17.07,15.77,28.34,2.63-3.91,3-8.19,3.26-12.76.05-4.35.46-8.3-2.47-11.87.25,3.7,1,7.33,1,11.05-1.79-3.79-3-7.56-5.84-10.79-2.8-3.54-6.48-5.41-10.13-7.87,6.78-.76,12.75,1.59,19.34,2.2-3.35-3-9.28-3-13.53-3.89C363.8,567,369.41,560.9,374,554c6.63-10.29,13-21.15,17.27-32.66,1.33-5,.81-11.86,3.56-16.5,1.41-2.5,3.73-3.69,6.31-4.67C409.21,497.22,417.85,495.66,425.81,492.62Z" transform="translate(-230.51 -48.73)"/><path class="cls-1" d="M332.43,502.07q1.24,3.06,2.5,6.1C330,510.69,326,514.57,321,517c-5.11,3.07-10.73,4.06-16.57,4.69A107.87,107.87,0,0,1,312,509c1.15-1.92,4.32-2,6.31-2.52A56.08,56.08,0,0,0,332.43,502.07Z" transform="translate(-230.51 -48.73)"/><path d="M407.42,535.36A9.94,9.94,0,0,1,418,539c3,4.35.52,9.88-3.87,12.06-4.94,2.51-10.82-.59-12.44-5.65C400.23,541.51,404,536.87,407.42,535.36Z" transform="translate(-230.51 -48.73)"/><path class="cls-1" d="M407.34,537.13c3.73-1.65,9.39.65,10.21,4.9s-3.28,8.56-7.54,8.37a8,8,0,0,1-7.15-6.4C403.43,541.36,404.94,538.52,407.34,537.13Z" transform="translate(-230.51 -48.73)"/><path class="cls-1" d="M517.15,546c6.16,3.44,11.62,8.34,16.86,13,8.61,7.82,14.7,17,22.14,25.86,1.93,2.67,4.37,4.83,4,8.39-.31,3.12,2,5.32,3.43,7.91q-1.5,2.05-3,4.09c-4.57-2.22-8.65-5-13.7-6.09-6.17,7.39-12.24,14.82-19,21.67-9.81,10.2-19.55,20.44-30,30a173,173,0,0,0-13.75,14.39,61.33,61.33,0,0,1-4.78-4.62A30.42,30.42,0,0,1,479,654c.42-8.14.54-16,3.23-23.8,6.06-19.26,10.65-39.16,18.61-57.37,3.09-7.35,6.63-14.27,9.35-21.73,1.61.4,3.21.8,4.82,1.17C515.74,550.19,516.34,548,517.15,546Z" transform="translate(-230.51 -48.73)"/><path d="M567.57,596.08a35.6,35.6,0,0,1,15,2.36c3.8,1.49,7.32,3,9.14,6.95-3.34-1.78-6-4.2-9.66-5.46C577.3,598,572.18,598.17,567.57,596.08Z" transform="translate(-230.51 -48.73)"/><path class="cls-1" d="M547.32,602.74a53.89,53.89,0,0,1,31.93,30,136.23,136.23,0,0,1,4,14.13c1.29,6.15,2.8,12,2.56,18.33-4.58,1.3-9.08,1.26-13.76,2-7.48,1-15,2.16-22.36,3.87-15.55,4.34-31.3,7.55-46,14.89-5.12-2.38-10.21-5.93-15.7-6.87,4.81,3.71,10.75,5.92,16.07,8.84l-1.39,2.66c-4.5-1.87-8.75-4.52-13.73-4.57,4,2.63,8.78,3.57,12.77,6.32,4.89,3,9.6,5.79,11.35,11.63,1.3,7.15-.12,14.88.88,22.06.35,2.73,2.3,3.52,4.42,4.78-.86-1.66-1.85-3.25-2.81-4.85,6.12,1.54,12.5.94,18.55,2.37,1.13-3.2,2.07-7.12,4.58-9.53,3-2.91,7.87-3.43,10.89-.19-1.88,2.75-4.24,5.42-5.68,8.41a56.75,56.75,0,0,0-3.48,11.69c-4.84-1.24-9.36-2.62-14.43-2-4.6.55-9.22.94-13.8,1.63-3.3-4.81-6.81-9.46-10.27-14.15-7.2-10.13-14.26-20.37-21.61-30.4a41.12,41.12,0,0,1-6-12.63c2.76-2.84,5.86-5.25,8.86-7.8,3.19-2.72,5-6.17,7.73-9.26,13-14.86,26.86-28.35,40.5-42.49C537.17,615.57,542.19,609.12,547.32,602.74Z" transform="translate(-230.51 -48.73)"/><path d="M393.52,615.63c3.23-1,7.71-.89,10.35,1.5,3.6,3.37,3.28,10.07-.71,13-4.52,3.42-12.46,1.64-14.58-3.8C386.93,622.17,389.07,617,393.52,615.63Z" transform="translate(-230.51 -48.73)"/><path class="cls-1" d="M393.45,617.36a10.41,10.41,0,0,1,8.05.06c4,2,4.33,8.29,1.11,11.13-4.2,3.76-12.47,1.37-13-4.58C389.22,620.91,390.85,618.71,393.45,617.36Z" transform="translate(-230.51 -48.73)"/><path class="cls-1" d="M590.83,632.44c3.3,12.59,9.31,24,13.34,36.31,3.57,11.54,6.4,23.07,6.5,35.23a39.58,39.58,0,0,1-5.7,25,60.42,60.42,0,0,1-17.32,17.68,41.67,41.67,0,0,1-26.46,7.29,122.35,122.35,0,0,1-36.67-8.45c-2.58-.92-3.43-3.21-5-5.27,4.19-.61,8.8-1.25,13-.61,3.28.59,6.46,1.76,9.69,2.6,1.76-5.08,2.19-10.27,5-15,1.67-3.7,5.79-6.35,4.55-10.79-.83-2.71-3.37-2.93-5.68-3.77,1-2,2.45-4.34,2.39-6.62.06-2.81-1.66-5.75-4.5-6.44-2.35-.49-4.67.43-6.9,1.06a12.51,12.51,0,0,0-2.56-3.16c-3.62-1.58-7.92-.28-10.7,2.33-2.63,2.61-3.66,6-4.83,9.38h-2.61c-.1-3.25.47-7.45-1.14-10.37-1.79-3.21-5.81-5.28-8.91-7,.8-1.46,1.53-2.94,2.21-4.47,7.83-2.91,15.15-6.59,23.38-8.38,8.72-1.8,16.77-5.42,25.62-6.66,10.06-2,20.15-2.84,30.35-3.65a21.63,21.63,0,0,0,.51-10.27,147.46,147.46,0,0,0-5.37-23.1C585.62,634.32,588.23,633.37,590.83,632.44Z" transform="translate(-230.51 -48.73)"/><path d="M388.49,696.56a8.3,8.3,0,0,1,9.92,6.47c.78,4.63-3.11,9.16-7.62,9.78-3.93.57-8.25-1.85-9.16-5.85a13.67,13.67,0,0,1,.85-6.48C383.47,698.15,386.18,697.07,388.49,696.56Z" transform="translate(-230.51 -48.73)"/><path class="cls-1" d="M388.33,698.21a6.61,6.61,0,0,1,8.55,6.68c-.72,5.4-7.28,8.45-11.67,4.87-3-2.26-2.11-5.47-1.26-8.56C384.58,699.41,386.67,698.66,388.33,698.21Z" transform="translate(-230.51 -48.73)"/><path class="cls-1" d="M533.52,699.65c-.94,3.32-3.43,6.52-3.3,10,0,2.56-1,4.61-1.75,7a99.21,99.21,0,0,1-13.35.61c.09-1.63.17-3.26.26-4.89,1.94-.28,3.86-.63,5.8-1,1.32-3.71,2.26-8.09,5.71-10.48C529,699.43,531.1,699.72,533.52,699.65Z" transform="translate(-230.51 -48.73)"/><path class="cls-1" d="M544.52,703.32c1.57,1.57,1.41,3.66.25,5.41-2,3.08-3.69,6.13-6.57,8.49s-3.82,5.39-5.13,8.65a73.36,73.36,0,0,1-17.73-1.76c-.09-1.88-.18-3.77-.31-5.65,4.85.64,9.63,0,14.48.2a31.16,31.16,0,0,1,6-12.2A8.87,8.87,0,0,1,544.52,703.32Z" transform="translate(-230.51 -48.73)"/><path class="cls-1" d="M420.09,958.9c2.53-.07,5.24,1.05,7.7,1.62-1.13,11.17-4,24.38-1.82,35.59,2.28,6,7.16,12.22,8.41,19.17a89.68,89.68,0,0,1,.4,11.36c-21,.34-42,0-63,.18a26.32,26.32,0,0,0-5.41-15.38c5-1.39,9.84-3,14.85-4.29,4.55-1.2,9.11-2,13.57-3.53,0-1.76-.12-3.53-.2-5.3,2.55-.58,5.1-1.17,7.64-1.81A202.1,202.1,0,0,0,392.67,967a91.31,91.31,0,0,0,19-2.11c4.25-1.05,8.65-1.74,12.4-4.05-1.74-.18-3.49-.27-5.24-.42C419.25,959.87,419.67,959.38,420.09,958.9Z" transform="translate(-230.51 -48.73)"/><path class="cls-1" d="M562,960.57c2.31.36,4.59.88,6.86,1.47a44.11,44.11,0,0,1-5.38,1.92C563,962.84,562.44,961.72,562,960.57Z" transform="translate(-230.51 -48.73)"/><path class="cls-1" d="M388.5,963.21c1.11-.23,1.75.09,1.93,1C389.78,966.49,385.28,964.64,388.5,963.21Z" transform="translate(-230.51 -48.73)"/><path class="cls-1" d="M572.44,962.24c.21,8.87-1,17.86-.5,26.7,0,2,2.1,3.42,3.3,4.89-.82,2.47-1.45,5-2.09,7.51-1.22-1.25-2.8-2.38-3.7-3.88-3.11-10.37-4.4-21-6.88-31.44A85.38,85.38,0,0,0,572.44,962.24Z" transform="translate(-230.51 -48.73)"/><path class="cls-1" d="M390.72,967.24c1.67,2.24,2.38,5.31,3.35,7.89a43.75,43.75,0,0,1-7.43-1.8c-1.95-2.17-3.23-5-4.57-7.61C385.34,964.63,387.76,966,390.72,967.24Z" transform="translate(-230.51 -48.73)"/><path class="cls-1" d="M535.17,965.42c3,.29.82,2.51-1.08,1.92C532.34,966.59,534.1,965.48,535.17,965.42Z" transform="translate(-230.51 -48.73)"/><path class="cls-1" d="M544.71,968.68c1.53,5.55,3.54,10.93,5.16,16.45,1.85,5.83,3.34,11.8,5.37,17.57.39,2,2.94,2.07,4.51,2.93.08,2.85-.49,6,1.1,8.53,1.63,2.73,3.6,5.27,5.35,7.93-2.18,1.93-4.35,3.68-6,6.15-2.14,3.26-3,7.16-4.22,10.83a53.64,53.64,0,0,0-5.76-10.34c-1.6-2.32-3.79-4.43-5-7a191.67,191.67,0,0,0-.62-21.7,50.37,50.37,0,0,0,6.11,3.66c-2.43-4-6.09-5.8-9.71-8.52l2.88-3c-4.67-8.32-9.44-16.52-14.37-24.69C534.68,968.48,539.44,969.27,544.71,968.68Z" transform="translate(-230.51 -48.73)"/><path class="cls-1" d="M561.35,966.27c.19,1.44.38,2.88.55,4.33a143,143,0,0,1-14.74,1.69c-.39-1.26-.77-2.52-1.16-3.78A144.43,144.43,0,0,0,561.35,966.27Z" transform="translate(-230.51 -48.73)"/><path class="cls-1" d="M562.22,971.47c.42,2.21.82,4.42,1.23,6.64a65.82,65.82,0,0,1-13,2.94c-1-2.58-1.86-5.19-2.73-7.81A115.82,115.82,0,0,0,562.22,971.47Z" transform="translate(-230.51 -48.73)"/><path class="cls-1" d="M387.21,974.73c2.45.51,4.89,1.06,7.33,1.63,1,2.86,1.93,5.73,2.82,8.63-2-.32-4-.68-6-1C390.05,980.87,388.6,977.81,387.21,974.73Z" transform="translate(-230.51 -48.73)"/><path class="cls-1" d="M563.63,979.13c.54,2.84,1.09,5.67,1.64,8.51-4,1.18-7.95,2.5-11.89,3.91-.88-3.2-1.83-6.37-2.76-9.54A67.53,67.53,0,0,0,563.63,979.13Z" transform="translate(-230.51 -48.73)"/><path class="cls-1" d="M392.2,985l5.62,1.18c.74,2.54,1.5,5.08,2.21,7.63l-6.12-2A45,45,0,0,0,392.2,985Z" transform="translate(-230.51 -48.73)"/><path class="cls-1" d="M565.57,988.67c.82,3.25,1.65,6.5,2.37,9.77a53.61,53.61,0,0,0-11.2,3.94c-1-3.29-2-6.59-3-9.92C557.67,991.06,561.58,989.73,565.57,988.67Z" transform="translate(-230.51 -48.73)"/><path class="cls-1" d="M387.24,991.55c4.47.24,8.88,2.11,13.06,3.63a56,56,0,0,0-8.45,3A67,67,0,0,1,387.24,991.55Z" transform="translate(-230.51 -48.73)"/><path class="cls-1" d="M388,998.34c2.5.33,3.95,2.4,5.73,4-2.29.57-5.57,2.25-7.8.9-1.33-.58-2.63-1.26-3.93-1.92A38.91,38.91,0,0,1,388,998.34Z" transform="translate(-230.51 -48.73)"/><path class="cls-1" d="M575.92,998.49c2.31,3.29,4.19,6.7,6.78,9.81,3.6,4.46,8.93,7.93,13.44,11.49a67.77,67.77,0,0,0-14.64-2.37,34,34,0,0,1-9.14-9.89C571.11,1003.44,573.2,1001.17,575.92,998.49Z" transform="translate(-230.51 -48.73)"/><path class="cls-1" d="M568.72,999.62l2.2,1.36a45,45,0,0,0-.38,7.52,27.83,27.83,0,0,0-8.91,4.74c-.27-2.63-.13-5.29-.44-7.92-.87-1-1.77-1.87-2.7-2.77C561.83,1001.21,565.07,999.9,568.72,999.62Z" transform="translate(-230.51 -48.73)"/><path class="cls-1" d="M380.8,1002.09a30.44,30.44,0,0,1,5,2.17c-2.48.69-5.12,1.64-7.71,1.69a25.25,25.25,0,0,1-5-2.77C375.57,1002.72,378.24,1001.94,380.8,1002.09Z" transform="translate(-230.51 -48.73)"/><path class="cls-1" d="M371.06,1003.59a27.35,27.35,0,0,1,5.64,3c-1.94.66-3.91,1.28-5.86,1.92-1.66-1.25-3.33-2.47-5-3.75A48.54,48.54,0,0,1,371.06,1003.59Z" transform="translate(-230.51 -48.73)"/><path class="cls-1" d="M359.85,1005.59a37.52,37.52,0,0,1,4.74-.23,40.73,40.73,0,0,1,5,3.49c-1.51.42-3,.83-4.54,1.23C363.3,1008.58,361.56,1007.11,359.85,1005.59Z" transform="translate(-230.51 -48.73)"/><path class="cls-1" d="M357.59,1006.47c2.9,1.31,5.3,4.21,7.53,6.44,3.64,3.89,4.66,8.69,5.05,13.84-13.55.07-27.12.16-40.66,0-.41-5.12,3-8.56,6.35-11.87,3.11-2.94,7.18-4,11.17-5.82C350.29,1007.77,354.07,1006.33,357.59,1006.47Z" transform="translate(-230.51 -48.73)"/><path class="cls-1" d="M571.7,1009.82c1.54,1.48,2.88,3.18,4.28,4.78a63.38,63.38,0,0,0-10.15,3.41,26.89,26.89,0,0,1-3.4-4C565.13,1012,568.06,1009.54,571.7,1009.82Z" transform="translate(-230.51 -48.73)"/><path class="cls-1" d="M579.6,1017.21c-3.1,1.07-6.28,1.88-9.36,3-1.72.74-2.83.48-4.55-.09C569.55,1016.9,574.77,1014.66,579.6,1017.21Z" transform="translate(-230.51 -48.73)"/><path class="cls-1" d="M603.14,1025.87c2.3,2.45,3.69,5.88,5.17,8.87,1.64,3.29,1.65,6.69,1.6,10.27-6.13,2.9-13.26,4-20,4.69-8,.74-15.6-.51-23.51-1.3-3.78-.49-7.24-2.28-9.07-5.74-.1-3.26,1.37-6.82,2.38-9.9,2.3-6.24,7.74-10.33,14-12.18C583.72,1017.72,594.85,1019.42,603.14,1025.87Z" transform="translate(-230.51 -48.73)"/><path class="cls-1" d="M544.77,1024.45c4.87,5.41,10,12.49,10.44,20-2.19-3.13-3.68-6.65-6-9.67-1.36-1.8-3.05-3.26-4.49-5A29.77,29.77,0,0,1,544.77,1024.45Z" transform="translate(-230.51 -48.73)"/><path class="cls-1" d="M329.09,1028.59c3.28-.3,6.62-.16,9.91-.18,30,0,60-.06,90-.05a52.12,52.12,0,0,0,8-.69c-.17,1.17-.34,2.34-.52,3.51-35.54.63-71.1,1.24-106.64,1.43A36.47,36.47,0,0,1,329.09,1028.59Z" transform="translate(-230.51 -48.73)"/><path class="cls-1" d="M613.22,1041.43c-.2,2.87-.24,6.44-1.6,9-4.43,3.94-11.33,5.35-17.07,5.88-7.94.6-16.4.66-24-1.9-4-1.39-8.61-2.41-12.22-4.74-2.13-1.26-2.46-3.3-3.41-5.42,2.93,1.6,5.52,4.24,8.66,5.13,4,1.13,8.4.88,12.54,1.5,9.39,1.36,18.7.31,27.85-2,2.12-.61,4.55-1.22,6.32-2.57A41.39,41.39,0,0,0,613.22,1041.43Z" transform="translate(-230.51 -48.73)"/></svg>